[
        {
          "name": "D3",
          "midi": 50,
          "time": 6.4847908125,
          "velocity": 0.5511811023622047,
          "duration": 1.216215
        },
        {
          "name": "D4",
          "midi": 62,
          "time": 6.48648,
          "velocity": 0.6220472440944882,
          "duration": 1.2145258124999998
        },
        {
          "name": "F#3",
          "midi": 54,
          "time": 6.891885,
          "velocity": 0.5511811023622047,
          "duration": 0.6081075
        },
        {
          "name": "A3",
          "midi": 57,
          "time": 7.29729,
          "velocity": 0.6220472440944882,
          "duration": 0.81081
        },
        {
          "name": "F#3",
          "midi": 54,
          "time": 7.7010058125,
          "velocity": 0.5511811023622047,
          "duration": 0.20439168750000025
        },
        {
          "name": "D4",
          "midi": 62,
          "time": 7.9070866875000005,
          "velocity": 0.7480314960629921,
          "duration": 1.0118233124999998
        },
        {
          "name": "A3",
          "midi": 57,
          "time": 8.310802500000001,
          "velocity": 0.84251968503937,
          "duration": 1.2162150000000018
        },
        {
          "name": "C#3",
          "midi": 49,
          "time": 8.9205991875,
          "velocity": 0.7480314960629921,
          "duration": 0.2027025000000009
        },
        {
          "name": "B2",
          "midi": 47,
          "time": 9.118234125,
          "velocity": 0.84251968503937,
          "duration": 0.2027025000000009
        },
        {
          "name": "A2",
          "midi": 45,
          "time": 9.326004187500002,
          "velocity": 0.7480314960629921,
          "duration": 0.2027025000000009
        },
        {
          "name": "G#2",
          "midi": 44,
          "time": 9.527017500000003,
          "velocity": 0.8661417322834646,
          "duration": 0.2027025000000009
        },
        {
          "name": "F#2",
          "midi": 42,
          "time": 9.729720000000004,
          "velocity": 0.6220472440944882,
          "duration": 1.62162
        },
        {
          "name": "C#4",
          "midi": 61,
          "time": 9.729720000000004,
          "velocity": 0.7480314960629921,
          "duration": 1.4172283125000007
        },
        {
          "name": "C#3",
          "midi": 49,
          "time": 10.136814187500004,
          "velocity": 0.6771653543307087,
          "duration": 0.6081074999999991
        },
        {
          "name": "F#3",
          "midi": 54,
          "time": 10.540530000000004,
          "velocity": 0.6771653543307087,
          "duration": 0.6064183125000007
        },
        {
          "name": "C#3",
          "midi": 49,
          "time": 10.945935000000004,
          "velocity": 0.7480314960629921,
          "duration": 0.8108100000000018
        },
        {
          "name": "A#3",
          "midi": 58,
          "time": 11.146948312500005,
          "velocity": 0.5590551181102362,
          "duration": 1.013512500000001
        },
        {
          "name": "F#3",
          "midi": 54,
          "time": 11.554042500000005,
          "velocity": 0.6771653543307087,
          "duration": 0.6081075000000009
        },
        {
          "name": "F#3",
          "midi": 54,
          "time": 12.158771625000005,
          "velocity": 0.6771653543307087,
          "duration": 0.2027025000000009
        },
        {
          "name": "E3",
          "midi": 52,
          "time": 12.363163312500006,
          "velocity": 0.7480314960629921,
          "duration": 0.2027025000000009
        },
        {
          "name": "D3",
          "midi": 50,
          "time": 12.565865812500007,
          "velocity": 0.6771653543307087,
          "duration": 0.2027025000000009
        },
        {
          "name": "B2",
          "midi": 47,
          "time": 12.771946687500009,
          "velocity": 0.84251968503937,
          "duration": 0.2027025000000009
        },
        {
          "name": "C#3",
          "midi": 49,
          "time": 12.97296000000001,
          "velocity": 0.6771653543307087,
          "duration": 0.2027025000000009
        },
        {
          "name": "D3",
          "midi": 50,
          "time": 13.17397331250001,
          "velocity": 0.6220472440944882,
          "duration": 0.2027025000000009
        },
        {
          "name": "F#3",
          "midi": 54,
          "time": 13.378365000000011,
          "velocity": 0.6771653543307087,
          "duration": 0.405405
        },
        {
          "name": "D3",
          "midi": 50,
          "time": 13.577689125000012,
          "velocity": 0.6220472440944882,
          "duration": 0.405405
        },
        {
          "name": "A3",
          "midi": 57,
          "time": 13.78039162500001,
          "velocity": 0.6220472440944882,
          "duration": 0.6081075000000027
        },
        {
          "name": "D3",
          "midi": 50,
          "time": 14.185796625000012,
          "velocity": 0.6771653543307087,
          "duration": 0.8108100000000036
        },
        {
          "name": "D4",
          "midi": 62,
          "time": 14.391877500000014,
          "velocity": 0.6220472440944882,
          "duration": 0.10135125000000045
        },
        {
          "name": "E4",
          "midi": 64,
          "time": 14.494917937500015,
          "velocity": 0.6771653543307087,
          "duration": 0.10135125000000045
        },
        {
          "name": "D4",
          "midi": 62,
          "time": 14.596269187500015,
          "velocity": 0.6220472440944882,
          "duration": 0.6081075000000009
        },
        {
          "name": "A3",
          "midi": 57,
          "time": 14.797282500000016,
          "velocity": 0.6220472440944882,
          "duration": 0.6081075000000009
        },
        {
          "name": "G#3",
          "midi": 56,
          "time": 15.403700812500016,
          "velocity": 0.6929133858267716,
          "duration": 0.40371581250000155
        },
        {
          "name": "E3",
          "midi": 52,
          "time": 15.405390000000017,
          "velocity": 0.5826771653543307,
          "duration": 0.4054050000000018
        },
        {
          "name": "G#3",
          "midi": 56,
          "time": 15.807416625000018,
          "velocity": 0.7716535433070866,
          "duration": 0.405405
        },
        {
          "name": "E3",
          "midi": 52,
          "time": 15.810795000000018,
          "velocity": 0.6771653543307087,
          "duration": 0.405405
        },
        {
          "name": "F#2",
          "midi": 42,
          "time": 16.212821625000018,
          "velocity": 0.6220472440944882,
          "duration": 1.62162
        },
        {
          "name": "C#4",
          "midi": 61,
          "time": 16.21620000000002,
          "velocity": 0.6220472440944882,
          "duration": 1.62162
        },
        {
          "name": "C#3",
          "midi": 49,
          "time": 16.62329418750002,
          "velocity": 0.6220472440944882,
          "duration": 0.6081074999999991
        },
        {
          "name": "F#3",
          "midi": 54,
          "time": 17.023631625000018,
          "velocity": 0.5826771653543307,
          "duration": 0.81081
        },
        {
          "name": "C#3",
          "midi": 49,
          "time": 17.43410418750002,
          "velocity": 0.6771653543307087,
          "duration": 0.81081
        },
        {
          "name": "A#3",
          "midi": 58,
          "time": 17.63342831250002,
          "velocity": 0.7716535433070866,
          "duration": 0.81081
        },
        {
          "name": "F#3",
          "midi": 54,
          "time": 18.04052250000002,
          "velocity": 0.6771653543307087,
          "duration": 0.6097966874999976
        },
        {
          "name": "F#3",
          "midi": 54,
          "time": 18.645251625000018,
          "velocity": 0.6771653543307087,
          "duration": 0.20439168749999936
        },
        {
          "name": "E3",
          "midi": 52,
          "time": 18.853021687500018,
          "velocity": 0.6771653543307087,
          "duration": 0.20270249999999734
        },
        {
          "name": "D3",
          "midi": 50,
          "time": 19.050656625000016,
          "velocity": 0.6771653543307087,
          "duration": 0.20270249999999734
        },
        {
          "name": "B2",
          "midi": 47,
          "time": 19.253359125000014,
          "velocity": 0.6771653543307087,
          "duration": 0.2027025000000009
        },
        {
          "name": "C#3",
          "midi": 49,
          "time": 19.456061625000014,
          "velocity": 0.6220472440944882,
          "duration": 0.2027025000000009
        },
        {
          "name": "D3",
          "midi": 50,
          "time": 19.658764125000015,
          "velocity": 0.7480314960629921,
          "duration": 0.2027025000000009
        },
        {
          "name": "F#3",
          "midi": 54,
          "time": 19.864845000000017,
          "velocity": 0.6771653543307087,
          "duration": 0.40540499999999824
        },
        {
          "name": "D3",
          "midi": 50,
          "time": 20.069236687500016,
          "velocity": 0.6771653543307087,
          "duration": 0.8108099999999965
        },
        {
          "name": "A3",
          "midi": 57,
          "time": 20.270250000000015,
          "velocity": 0.6220472440944882,
          "duration": 0.6081074999999991
        },
        {
          "name": "F#3",
          "midi": 54,
          "time": 20.677344187500015,
          "velocity": 0.6220472440944882,
          "duration": 0.8108099999999965
        },
        {
          "name": "D4",
          "midi": 62,
          "time": 20.878357500000014,
          "velocity": 0.6771653543307087,
          "duration": 0.40540499999999824
        },
        {
          "name": "A3",
          "midi": 57,
          "time": 21.282073312500014,
          "velocity": 0.7480314960629921,
          "duration": 1.2162149999999983
        },
        {
          "name": "C#3",
          "midi": 49,
          "time": 21.89355918750001,
          "velocity": 0.7480314960629921,
          "duration": 0.2027025000000009
        },
        {
          "name": "B2",
          "midi": 47,
          "time": 22.09288331250001,
          "velocity": 0.7480314960629921,
          "duration": 0.2027025000000009
        },
        {
          "name": "A2",
          "midi": 45,
          "time": 22.29558581250001,
          "velocity": 0.7480314960629921,
          "duration": 0.20439168749999936
        },
        {
          "name": "G#2",
          "midi": 44,
          "time": 22.50166668750001,
          "velocity": 0.6377952755905512,
          "duration": 0.2027025000000009
        },
        {
          "name": "F#2",
          "midi": 42,
          "time": 22.70099081250001,
          "velocity": 0.7480314960629921,
          "duration": 1.2162150000000018
        },
        {
          "name": "C#3",
          "midi": 49,
          "time": 23.10808500000001,
          "velocity": 0.6771653543307087,
          "duration": 0.6081075000000027
        },
        {
          "name": "F#3",
          "midi": 54,
          "time": 23.31078750000001,
          "velocity": 0.6220472440944882,
          "duration": 0.2027025000000009
        },
        {
          "name": "F#3",
          "midi": 54,
          "time": 23.51349000000001,
          "velocity": 0.6771653543307087,
          "duration": 0.40371581249999977
        },
        {
          "name": "B2",
          "midi": 47,
          "time": 23.920584187500012,
          "velocity": 0.7480314960629921,
          "duration": 0.2195943749999998
        },
        {
          "name": "A#3",
          "midi": 58,
          "time": 24.11821912500001,
          "velocity": 0.6377952755905512,
          "duration": 0.81081
        },
        {
          "name": "F#3",
          "midi": 54,
          "time": 24.52869168750001,
          "velocity": 0.7480314960629921,
          "duration": 0.6081074999999991
        },
        {
          "name": "F#3",
          "midi": 54,
          "time": 25.13511000000001,
          "velocity": 0.6220472440944882,
          "duration": 0.20101331249999888
        },
        {
          "name": "E3",
          "midi": 52,
          "time": 25.33612331250001,
          "velocity": 0.7480314960629921,
          "duration": 0.20439168749999936
        },
        {
          "name": "D3",
          "midi": 50,
          "time": 25.54051500000001,
          "velocity": 0.6771653543307087,
          "duration": 0.2027025000000009
        },
        {
          "name": "B2",
          "midi": 47,
          "time": 25.74321750000001,
          "velocity": 0.6771653543307087,
          "duration": 0.2027025000000009
        },
        {
          "name": "C#3",
          "midi": 49,
          "time": 25.94592000000001,
          "velocity": 0.6771653543307087,
          "duration": 0.20101331249999888
        },
        {
          "name": "D3",
          "midi": 50,
          "time": 26.14693331250001,
          "velocity": 0.6771653543307087,
          "duration": 0.20439168749999936
        },
        {
          "name": "F#3",
          "midi": 54,
          "time": 26.35132500000001,
          "velocity": 0.7480314960629921,
          "duration": 0.2027025000000009
        },
        {
          "name": "D3",
          "midi": 50,
          "time": 26.55402750000001,
          "velocity": 0.6771653543307087,
          "duration": 0.6081075000000027
        },
        {
          "name": "A3",
          "midi": 57,
          "time": 26.75673000000001,
          "velocity": 0.5826771653543307,
          "duration": 0.81081
        },
        {
          "name": "F#3",
          "midi": 54,
          "time": 27.162135000000013,
          "velocity": 0.6220472440944882,
          "duration": 0.8108099999999965
        },
        {
          "name": "D4",
          "midi": 62,
          "time": 27.366526687500013,
          "velocity": 0.6771653543307087,
          "duration": 0.10135125000000045
        },
        {
          "name": "E4",
          "midi": 64,
          "time": 27.467877937500013,
          "velocity": 0.6771653543307087,
          "duration": 0.1013512499999969
        },
        {
          "name": "D4",
          "midi": 62,
          "time": 27.56754000000001,
          "velocity": 0.7480314960629921,
          "duration": 0.20270249999999734
        },
        {
          "name": "A3",
          "midi": 57,
          "time": 27.77024250000001,
          "velocity": 0.6771653543307087,
          "duration": 0.6081075000000027
        },
        {
          "name": "E3",
          "midi": 52,
          "time": 28.37835000000001,
          "velocity": 0.6220472440944882,
          "duration": 0.4054050000000018
        },
        {
          "name": "G#3",
          "midi": 56,
          "time": 28.37835000000001,
          "velocity": 0.7716535433070866,
          "duration": 0.4054050000000018
        },
        {
          "name": "G#3",
          "midi": 56,
          "time": 28.780376625000013,
          "velocity": 0.7716535433070866,
          "duration": 0.40709418750000026
        },
        {
          "name": "E3",
          "midi": 52,
          "time": 28.783755000000014,
          "velocity": 0.5826771653543307,
          "duration": 0.4070941874999967
        },
        {
          "name": "F#2",
          "midi": 42,
          "time": 29.18916000000001,
          "velocity": 0.6771653543307087,
          "duration": 2.0270249999999983
        },
        {
          "name": "C#3",
          "midi": 49,
          "time": 29.59456500000001,
          "velocity": 0.5826771653543307,
          "duration": 0.6081075000000027
        },
        {
          "name": "F#3",
          "midi": 54,
          "time": 29.999970000000012,
          "velocity": 0.6220472440944882,
          "duration": 0.81081
        },
        {
          "name": "C#3",
          "midi": 49,
          "time": 30.40368581250001,
          "velocity": 0.5826771653543307,
          "duration": 0.2027025000000009
        },
        {
          "name": "A#3",
          "midi": 58,
          "time": 30.606388312500012,
          "velocity": 0.5905511811023622,
          "duration": 0.6081074999999991
        },
        {
          "name": "F#3",
          "midi": 54,
          "time": 31.013482500000013,
          "velocity": 0.6771653543307087,
          "duration": 0.4054049999999947
        },
        {
          "name": "C#3",
          "midi": 49,
          "time": 31.21787418750001,
          "velocity": 0.6220472440944882,
          "duration": 0.6064183125000007
        },
        {
          "name": "A#3",
          "midi": 58,
          "time": 31.62159000000001,
          "velocity": 0.7716535433070866,
          "duration": 0.2027025000000009
        },
        {
          "name": "F#3",
          "midi": 54,
          "time": 31.82091412500001,
          "velocity": 0.6220472440944882,
          "duration": 0.20439168749999936
        },
        {
          "name": "C#3",
          "midi": 49,
          "time": 32.028684187500005,
          "velocity": 0.6771653543307087,
          "duration": 0.2027024999999938
        },
        {
          "name": "E3",
          "midi": 52,
          "time": 32.2280083125,
          "velocity": 0.6220472440944882,
          "duration": 0.17736468749999545
        },
        {
          "name": "E3",
          "midi": 52,
          "time": 32.432399999999994,
          "velocity": 0.6220472440944882,
          "duration": 0.809120812499998
        },
        {
          "name": "B3",
          "midi": 59,
          "time": 32.432399999999994,
          "velocity": 0.5511811023622047,
          "duration": 0.809120812499998
        },
        {
          "name": "E4",
          "midi": 64,
          "time": 32.432399999999994,
          "velocity": 0.6771653543307087,
          "duration": 0.809120812499998
        },
        {
          "name": "G#4",
          "midi": 68,
          "time": 32.432399999999994,
          "velocity": 0.5590551181102362,
          "duration": 0.809120812499998
        },
        {
          "name": "E3",
          "midi": 52,
          "time": 33.24152081249999,
          "velocity": 0.6220472440944882,
          "duration": 0.020270249999995826
        },
        {
          "name": "B3",
          "midi": 59,
          "time": 33.24152081249999,
          "velocity": 0.5511811023622047,
          "duration": 0.01689187499999889
        },
        {
          "name": "E4",
          "midi": 64,
          "time": 33.24152081249999,
          "velocity": 0.6771653543307087,
          "duration": 0.01689187499999889
        },
        {
          "name": "G#4",
          "midi": 68,
          "time": 33.24152081249999,
          "velocity": 0.5590551181102362,
          "duration": 0.01689187499999889
        },
        {
          "name": "C4",
          "midi": 60,
          "time": 214.050461625,
          "velocity": 0.968503937007874,
          "duration": 0.20270249999998668
        },
        {
          "name": "F4",
          "midi": 65,
          "time": 214.050461625,
          "velocity": 1,
          "duration": 0.20270249999998668
        },
        {
          "name": "A4",
          "midi": 69,
          "time": 214.057218375,
          "velocity": 1,
          "duration": 0.20270249999998668
        },
        {
          "name": "E5",
          "midi": 76,
          "time": 214.057218375,
          "velocity": 0.8031496062992126,
          "duration": 0.20270249999998668
        },
        {
          "name": "C4",
          "midi": 60,
          "time": 214.25316412499998,
          "velocity": 0.968503937007874,
          "duration": 0.20439168749999226
        },
        {
          "name": "F4",
          "midi": 65,
          "time": 214.25316412499998,
          "velocity": 0.8031496062992126,
          "duration": 0.20439168749999226
        },
        {
          "name": "A4",
          "midi": 69,
          "time": 214.25316412499998,
          "velocity": 0.8740157480314961,
          "duration": 0.20439168749999226
        },
        {
          "name": "E5",
          "midi": 76,
          "time": 214.25316412499998,
          "velocity": 0.8740157480314961,
          "duration": 0.20439168749999226
        },
        {
          "name": "F4",
          "midi": 65,
          "time": 214.45755581249998,
          "velocity": 0.8740157480314961,
          "duration": 0.20101331250000953
        },
        {
          "name": "A4",
          "midi": 69,
          "time": 214.45755581249998,
          "velocity": 1,
          "duration": 0.20101331250000953
        },
        {
          "name": "C4",
          "midi": 60,
          "time": 214.45924499999998,
          "velocity": 0.968503937007874,
          "duration": 0.2027025000000151
        },
        {
          "name": "E5",
          "midi": 76,
          "time": 214.4609341875,
          "velocity": 0.8740157480314961,
          "duration": 0.20101331250000953
        },
        {
          "name": "C4",
          "midi": 60,
          "time": 214.6619475,
          "velocity": 0.968503937007874,
          "duration": 0.2027025000000151
        },
        {
          "name": "F4",
          "midi": 65,
          "time": 214.6619475,
          "velocity": 1,
          "duration": 0.2027025000000151
        },
        {
          "name": "A4",
          "midi": 69,
          "time": 214.6619475,
          "velocity": 1,
          "duration": 0.2027025000000151
        },
        {
          "name": "E5",
          "midi": 76,
          "time": 214.6619475,
          "velocity": 0.968503937007874,
          "duration": 0.2027025000000151
        },
        {
          "name": "F4",
          "midi": 65,
          "time": 214.8629608125,
          "velocity": 1,
          "duration": 0.20101331250000953
        },
        {
          "name": "A4",
          "midi": 69,
          "time": 214.8629608125,
          "velocity": 1,
          "duration": 0.20101331250000953
        },
        {
          "name": "C4",
          "midi": 60,
          "time": 214.86465,
          "velocity": 0.8740157480314961,
          "duration": 0.20439168749999226
        },
        {
          "name": "E5",
          "midi": 76,
          "time": 214.86465,
          "velocity": 0.8740157480314961,
          "duration": 0.20439168749999226
        },
        {
          "name": "F4",
          "midi": 65,
          "time": 215.06397412500002,
          "velocity": 0.968503937007874,
          "duration": 0.20270249999998668
        },
        {
          "name": "E5",
          "midi": 76,
          "time": 215.06397412500002,
          "velocity": 0.968503937007874,
          "duration": 0.20270249999998668
        },
        {
          "name": "C4",
          "midi": 60,
          "time": 215.0690416875,
          "velocity": 0.8740157480314961,
          "duration": 0.1976349374999984
        },
        {
          "name": "A4",
          "midi": 69,
          "time": 215.0690416875,
          "velocity": 0.968503937007874,
          "duration": 0.1976349374999984
        },
        {
          "name": "C4",
          "midi": 60,
          "time": 215.266676625,
          "velocity": 0.968503937007874,
          "duration": 0.20439168749999226
        },
        {
          "name": "F4",
          "midi": 65,
          "time": 215.266676625,
          "velocity": 1,
          "duration": 0.20439168749999226
        },
        {
          "name": "A4",
          "midi": 69,
          "time": 215.266676625,
          "velocity": 1,
          "duration": 0.20439168749999226
        },
        {
          "name": "E5",
          "midi": 76,
          "time": 215.266676625,
          "velocity": 0.968503937007874,
          "duration": 0.20439168749999226
        },
        {
          "name": "C4",
          "midi": 60,
          "time": 215.4710683125,
          "velocity": 1,
          "duration": 0.20439168750002068
        },
        {
          "name": "F4",
          "midi": 65,
          "time": 215.4710683125,
          "velocity": 0.968503937007874,
          "duration": 0.20439168750002068
        },
        {
          "name": "A4",
          "midi": 69,
          "time": 215.4744466875,
          "velocity": 1,
          "duration": 0.20101331250000953
        },
        {
          "name": "E5",
          "midi": 76,
          "time": 215.4744466875,
          "velocity": 0.8740157480314961,
          "duration": 0.20101331250000953
        },
        {
          "name": "C4",
          "midi": 60,
          "time": 215.67546000000002,
          "velocity": 0.968503937007874,
          "duration": 0.2027025000000151
        },
        {
          "name": "F4",
          "midi": 65,
          "time": 215.67546000000002,
          "velocity": 0.968503937007874,
          "duration": 0.2027025000000151
        },
        {
          "name": "A4",
          "midi": 69,
          "time": 215.67546000000002,
          "velocity": 0.968503937007874,
          "duration": 0.2027025000000151
        },
        {
          "name": "E5",
          "midi": 76,
          "time": 215.67546000000002,
          "velocity": 0.8740157480314961,
          "duration": 0.2027025000000151
        },
        {
          "name": "F4",
          "midi": 65,
          "time": 215.87647331250002,
          "velocity": 0.8740157480314961,
          "duration": 0.2027025000000151
        },
        {
          "name": "C4",
          "midi": 60,
          "time": 215.87816250000003,
          "velocity": 0.968503937007874,
          "duration": 0.20101331250000953
        },
        {
          "name": "A4",
          "midi": 69,
          "time": 215.87816250000003,
          "velocity": 0.968503937007874,
          "duration": 0.20101331250000953
        },
        {
          "name": "E5",
          "midi": 76,
          "time": 215.87816250000003,
          "velocity": 0.8740157480314961,
          "duration": 0.20101331250000953
        },
        {
          "name": "C4",
          "midi": 60,
          "time": 216.07917581250004,
          "velocity": 1,
          "duration": 0.20439168749999226
        },
        {
          "name": "F4",
          "midi": 65,
          "time": 216.07917581250004,
          "velocity": 0.968503937007874,
          "duration": 0.20439168749999226
        },
        {
          "name": "A4",
          "midi": 69,
          "time": 216.07917581250004,
          "velocity": 1,
          "duration": 0.20439168749999226
        },
        {
          "name": "E5",
          "midi": 76,
          "time": 216.07917581250004,
          "velocity": 0.8740157480314961,
          "duration": 0.20439168749999226
        },
        {
          "name": "E5",
          "midi": 76,
          "time": 216.28187831250003,
          "velocity": 0.968503937007874,
          "duration": 0.2027025000000151
        },
        {
          "name": "C4",
          "midi": 60,
          "time": 216.28356750000003,
          "velocity": 1,
          "duration": 0.2027025000000151
        },
        {
          "name": "F4",
          "midi": 65,
          "time": 216.28356750000003,
          "velocity": 0.8740157480314961,
          "duration": 0.2027025000000151
        },
        {
          "name": "A4",
          "midi": 69,
          "time": 216.28356750000003,
          "velocity": 0.968503937007874,
          "duration": 0.2027025000000151
        },
        {
          "name": "C4",
          "midi": 60,
          "time": 216.48458081250004,
          "velocity": 1,
          "duration": 0.2027025000000151
        },
        {
          "name": "F4",
          "midi": 65,
          "time": 216.48627000000005,
          "velocity": 0.968503937007874,
          "duration": 0.2027025000000151
        },
        {
          "name": "A4",
          "midi": 69,
          "time": 216.48627000000005,
          "velocity": 1,
          "duration": 0.2027025000000151
        },
        {
          "name": "E5",
          "midi": 76,
          "time": 216.48627000000005,
          "velocity": 0.968503937007874,
          "duration": 0.2027025000000151
        },
        {
          "name": "F4",
          "midi": 65,
          "time": 216.68728331250006,
          "velocity": 0.968503937007874,
          "duration": 0.2027025000000151
        },
        {
          "name": "E5",
          "midi": 76,
          "time": 216.68728331250006,
          "velocity": 0.968503937007874,
          "duration": 0.2027025000000151
        },
        {
          "name": "C4",
          "midi": 60,
          "time": 216.68897250000006,
          "velocity": 0.968503937007874,
          "duration": 0.20101331250000953
        },
        {
          "name": "A4",
          "midi": 69,
          "time": 216.68897250000006,
          "velocity": 0.968503937007874,
          "duration": 0.20101331250000953
        },
        {
          "name": "C4",
          "midi": 60,
          "time": 216.88998581250007,
          "velocity": 0.968503937007874,
          "duration": 0.20439168749999226
        },
        {
          "name": "F4",
          "midi": 65,
          "time": 216.88998581250007,
          "velocity": 1,
          "duration": 0.20439168749999226
        },
        {
          "name": "A4",
          "midi": 69,
          "time": 216.88998581250007,
          "velocity": 0.968503937007874,
          "duration": 0.20439168749999226
        },
        {
          "name": "E5",
          "midi": 76,
          "time": 216.88998581250007,
          "velocity": 0.968503937007874,
          "duration": 0.20439168749999226
        },
        {
          "name": "C4",
          "midi": 60,
          "time": 217.09437750000006,
          "velocity": 1,
          "duration": 0.20270249999998668
        },
        {
          "name": "F4",
          "midi": 65,
          "time": 217.09437750000006,
          "velocity": 0.8740157480314961,
          "duration": 0.20270249999998668
        },
        {
          "name": "A4",
          "midi": 69,
          "time": 217.09437750000006,
          "velocity": 1,
          "duration": 0.20270249999998668
        },
        {
          "name": "E5",
          "midi": 76,
          "time": 217.09437750000006,
          "velocity": 0.968503937007874,
          "duration": 0.20270249999998668
        },
        {
          "name": "B3",
          "midi": 59,
          "time": 217.29708000000005,
          "velocity": 0.8740157480314961,
          "duration": 0.20439168749999226
        },
        {
          "name": "E4",
          "midi": 64,
          "time": 217.29708000000005,
          "velocity": 0.968503937007874,
          "duration": 0.19932412500000396
        },
        {
          "name": "G#4",
          "midi": 68,
          "time": 217.29708000000005,
          "velocity": 0.9921259842519685,
          "duration": 0.19932412500000396
        },
        {
          "name": "D5",
          "midi": 74,
          "time": 217.29708000000005,
          "velocity": 0.8740157480314961,
          "duration": 0.20439168749999226
        },
        {
          "name": "B3",
          "midi": 59,
          "time": 217.49640412500005,
          "velocity": 0.8740157480314961,
          "duration": 0.20270249999998668
        },
        {
          "name": "E4",
          "midi": 64,
          "time": 217.49640412500005,
          "velocity": 0.8031496062992126,
          "duration": 0.20270249999998668
        },
        {
          "name": "G#4",
          "midi": 68,
          "time": 217.49640412500005,
          "velocity": 0.9921259842519685,
          "duration": 0.20608087499999783
        },
        {
          "name": "D5",
          "midi": 74,
          "time": 217.50147168750004,
          "velocity": 0.968503937007874,
          "duration": 0.2027025000000151
        },
        {
          "name": "D5",
          "midi": 74,
          "time": 217.70248500000005,
          "velocity": 0.968503937007874,
          "duration": 0.2027025000000151
        },
        {
          "name": "B3",
          "midi": 59,
          "time": 217.70417418750006,
          "velocity": 0.8740157480314961,
          "duration": 0.20101331250000953
        },
        {
          "name": "E4",
          "midi": 64,
          "time": 217.70417418750006,
          "velocity": 0.968503937007874,
          "duration": 0.20101331250000953
        },
        {
          "name": "G#4",
          "midi": 68,
          "time": 217.70417418750006,
          "velocity": 1,
          "duration": 0.20101331250000953
        },
        {
          "name": "B3",
          "midi": 59,
          "time": 217.90518750000007,
          "velocity": 0.7480314960629921,
          "duration": 0.2027025000000151
        },
        {
          "name": "E4",
          "midi": 64,
          "time": 217.90518750000007,
          "velocity": 0.8031496062992126,
          "duration": 0.2027025000000151
        },
        {
          "name": "G#4",
          "midi": 68,
          "time": 217.90518750000007,
          "velocity": 0.9921259842519685,
          "duration": 0.2027025000000151
        },
        {
          "name": "D5",
          "midi": 74,
          "time": 217.90518750000007,
          "velocity": 0.968503937007874,
          "duration": 0.2027025000000151
        },
        {
          "name": "B3",
          "midi": 59,
          "time": 218.10620081250008,
          "velocity": 0.8031496062992126,
          "duration": 0.2027025000000151
        },
        {
          "name": "D5",
          "midi": 74,
          "time": 218.10620081250008,
          "velocity": 0.968503937007874,
          "duration": 0.2027025000000151
        },
        {
          "name": "E4",
          "midi": 64,
          "time": 218.10789000000008,
          "velocity": 0.8740157480314961,
          "duration": 0.20101331250000953
        },
        {
          "name": "G#4",
          "midi": 68,
          "time": 218.10789000000008,
          "velocity": 1,
          "duration": 0.20101331250000953
        },
        {
          "name": "B3",
          "midi": 59,
          "time": 218.3089033125001,
          "velocity": 0.7086614173228346,
          "duration": 0.20270249999998668
        },
        {
          "name": "E4",
          "midi": 64,
          "time": 218.3089033125001,
          "velocity": 0.8740157480314961,
          "duration": 0.20270249999998668
        },
        {
          "name": "G#4",
          "midi": 68,
          "time": 218.3089033125001,
          "velocity": 0.9921259842519685,
          "duration": 0.20270249999998668
        },
        {
          "name": "D5",
          "midi": 74,
          "time": 218.3089033125001,
          "velocity": 0.8740157480314961,
          "duration": 0.20270249999998668
        },
        {
          "name": "B3",
          "midi": 59,
          "time": 218.51160581250008,
          "velocity": 0.8031496062992126,
          "duration": 0.20270249999998668
        },
        {
          "name": "E4",
          "midi": 64,
          "time": 218.51160581250008,
          "velocity": 0.8031496062992126,
          "duration": 0.20439168749999226
        },
        {
          "name": "G#4",
          "midi": 68,
          "time": 218.51160581250008,
          "velocity": 0.9921259842519685,
          "duration": 0.20270249999998668
        },
        {
          "name": "D5",
          "midi": 74,
          "time": 218.51160581250008,
          "velocity": 0.8740157480314961,
          "duration": 0.20439168749999226
        },
        {
          "name": "G#4",
          "midi": 68,
          "time": 218.71430831250007,
          "velocity": 1,
          "duration": 0.20101331250000953
        },
        {
          "name": "B3",
          "midi": 59,
          "time": 218.71599750000007,
          "velocity": 0.8031496062992126,
          "duration": 0.2027025000000151
        },
        {
          "name": "E4",
          "midi": 64,
          "time": 218.71599750000007,
          "velocity": 0.968503937007874,
          "duration": 0.2027025000000151
        },
        {
          "name": "D5",
          "midi": 74,
          "time": 218.71768668750008,
          "velocity": 0.968503937007874,
          "duration": 0.20101331250000953
        },
        {
          "name": "D4",
          "midi": 62,
          "time": 218.91532162500008,
          "velocity": 0.8031496062992126,
          "duration": 0.20439168750002068
        },
        {
          "name": "G4",
          "midi": 67,
          "time": 218.91532162500008,
          "velocity": 1,
          "duration": 0.20439168750002068
        },
        {
          "name": "G3",
          "midi": 55,
          "time": 218.9187000000001,
          "velocity": 0.7086614173228346,
          "duration": 0.2027025000000151
        },
        {
          "name": "B4",
          "midi": 71,
          "time": 218.9187000000001,
          "velocity": 0.968503937007874,
          "duration": 0.2027025000000151
        },
        {
          "name": "G3",
          "midi": 55,
          "time": 219.1214025000001,
          "velocity": 0.7480314960629921,
          "duration": 0.20270249999998668
        },
        {
          "name": "D4",
          "midi": 62,
          "time": 219.1214025000001,
          "velocity": 0.8740157480314961,
          "duration": 0.20270249999998668
        },
        {
          "name": "G4",
          "midi": 67,
          "time": 219.1214025000001,
          "velocity": 0.968503937007874,
          "duration": 0.20270249999998668
        },
        {
          "name": "B4",
          "midi": 71,
          "time": 219.1214025000001,
          "velocity": 0.968503937007874,
          "duration": 0.20270249999998668
        },
        {
          "name": "G3",
          "midi": 55,
          "time": 219.3241050000001,
          "velocity": 0.8031496062992126,
          "duration": 0.20101331250000953
        },
        {
          "name": "D4",
          "midi": 62,
          "time": 219.3241050000001,
          "velocity": 0.8740157480314961,
          "duration": 0.20101331250000953
        },
        {
          "name": "G4",
          "midi": 67,
          "time": 219.3241050000001,
          "velocity": 1,
          "duration": 0.20101331250000953
        },
        {
          "name": "B4",
          "midi": 71,
          "time": 219.3241050000001,
          "velocity": 0.968503937007874,
          "duration": 0.20101331250000953
        },
        {
          "name": "G4",
          "midi": 67,
          "time": 219.5234291250001,
          "velocity": 0.8740157480314961,
          "duration": 0.20439168749999226
        },
        {
          "name": "G3",
          "midi": 55,
          "time": 219.5251183125001,
          "velocity": 0.8031496062992126,
          "duration": 0.20439168749999226
        },
        {
          "name": "D4",
          "midi": 62,
          "time": 219.5251183125001,
          "velocity": 0.8031496062992126,
          "duration": 0.20439168749999226
        },
        {
          "name": "B4",
          "midi": 71,
          "time": 219.5251183125001,
          "velocity": 0.968503937007874,
          "duration": 0.20439168749999226
        },
        {
          "name": "G3",
          "midi": 55,
          "time": 219.7295100000001,
          "velocity": 0.7480314960629921,
          "duration": 0.20101331250000953
        },
        {
          "name": "D4",
          "midi": 62,
          "time": 219.7295100000001,
          "velocity": 0.8031496062992126,
          "duration": 0.20101331250000953
        },
        {
          "name": "G4",
          "midi": 67,
          "time": 219.7295100000001,
          "velocity": 1,
          "duration": 0.20101331250000953
        },
        {
          "name": "B4",
          "midi": 71,
          "time": 219.7295100000001,
          "velocity": 1,
          "duration": 0.20439168750002068
        },
        {
          "name": "G3",
          "midi": 55,
          "time": 219.9305233125001,
          "velocity": 0.8031496062992126,
          "duration": 0.20439168750002068
        },
        {
          "name": "D4",
          "midi": 62,
          "time": 219.9305233125001,
          "velocity": 0.7480314960629921,
          "duration": 0.20101331250000953
        },
        {
          "name": "G4",
          "midi": 67,
          "time": 219.9305233125001,
          "velocity": 0.968503937007874,
          "duration": 0.20439168750002068
        },
        {
          "name": "B4",
          "midi": 71,
          "time": 219.9305233125001,
          "velocity": 0.968503937007874,
          "duration": 0.20439168750002068
        },
        {
          "name": "D4",
          "midi": 62,
          "time": 220.1315366250001,
          "velocity": 0.8031496062992126,
          "duration": 0.2027025000000151
        },
        {
          "name": "B4",
          "midi": 71,
          "time": 220.1315366250001,
          "velocity": 0.968503937007874,
          "duration": 0.2027025000000151
        },
        {
          "name": "G3",
          "midi": 55,
          "time": 220.13491500000012,
          "velocity": 0.8740157480314961,
          "duration": 0.2027025000000151
        },
        {
          "name": "G4",
          "midi": 67,
          "time": 220.13491500000012,
          "velocity": 0.968503937007874,
          "duration": 0.2027025000000151
        },
        {
          "name": "G3",
          "midi": 55,
          "time": 220.33423912500012,
          "velocity": 0.8740157480314961,
          "duration": 0.20439168750002068
        },
        {
          "name": "G4",
          "midi": 67,
          "time": 220.33423912500012,
          "velocity": 0.968503937007874,
          "duration": 0.20439168750002068
        },
        {
          "name": "B4",
          "midi": 71,
          "time": 220.33423912500012,
          "velocity": 0.968503937007874,
          "duration": 0.20439168750002068
        },
        {
          "name": "D4",
          "midi": 62,
          "time": 220.33761750000014,
          "velocity": 0.968503937007874,
          "duration": 0.20101331250000953
        },
        {
          "name": "A3",
          "midi": 57,
          "time": 220.53863081250014,
          "velocity": 0.8976377952755905,
          "duration": 0.7956073125000103
        },
        {
          "name": "C#4",
          "midi": 61,
          "time": 220.53863081250014,
          "velocity": 1,
          "duration": 0.7956073125000103
        },
        {
          "name": "E4",
          "midi": 64,
          "time": 220.53863081250014,
          "velocity": 0.968503937007874,
          "duration": 0.7972965000000158
        },
        {
          "name": "A3",
          "midi": 57,
          "time": 221.34775162500017,
          "velocity": 0.8976377952755905,
          "duration": 0.3902023125000085
        },
        {
          "name": "C#4",
          "midi": 61,
          "time": 221.34775162500017,
          "velocity": 0.9921259842519685,
          "duration": 0.3935806875000196
        },
        {
          "name": "E4",
          "midi": 64,
          "time": 221.34775162500017,
          "velocity": 0.8976377952755905,
          "duration": 0.3902023125000085
        },
        {
          "name": "G3",
          "midi": 55,
          "time": 221.7531566250002,
          "velocity": 1,
          "duration": 2.0152006874999984
        },
        {
          "name": "C4",
          "midi": 60,
          "time": 221.7531566250002,
          "velocity": 1,
          "duration": 2.013511499999993
        },
        {
          "name": "G4",
          "midi": 67,
          "time": 221.7531566250002,
          "velocity": 1,
          "duration": 0.20439168749999226
        },
        {
          "name": "E4",
          "midi": 64,
          "time": 221.9575483125002,
          "velocity": 0.968503937007874,
          "duration": 1.780403624999991
        },
        {
          "name": "G3",
          "midi": 55,
          "time": 223.7801816250002,
          "velocity": 0.84251968503937,
          "duration": 0.5962831875000063
        },
        {
          "name": "B3",
          "midi": 59,
          "time": 223.7801816250002,
          "velocity": 0.968503937007874,
          "duration": 0.5962831875000063
        },
        {
          "name": "D4",
          "midi": 62,
          "time": 223.7801816250002,
          "velocity": 0.8976377952755905,
          "duration": 0.5962831875000063
        },
        {
          "name": "E4",
          "midi": 64,
          "time": 223.7801816250002,
          "velocity": 0.8976377952755905,
          "duration": 0.5962831875000063
        },
        {
          "name": "G3",
          "midi": 55,
          "time": 224.3899783125002,
          "velocity": 0.968503937007874,
          "duration": 0.18749981249999337
        },
        {
          "name": "B3",
          "midi": 59,
          "time": 224.3899783125002,
          "velocity": 0.968503937007874,
          "duration": 0.18749981249999337
        },
        {
          "name": "D4",
          "midi": 62,
          "time": 224.3899783125002,
          "velocity": 0.84251968503937,
          "duration": 0.18749981249999337
        },
        {
          "name": "E4",
          "midi": 64,
          "time": 224.3899783125002,
          "velocity": 0.8740157480314961,
          "duration": 0.18918899999999894
        },
        {
          "name": "G3",
          "midi": 55,
          "time": 224.5909916250002,
          "velocity": 1,
          "duration": 0.3952698749999968
        },
        {
          "name": "B3",
          "midi": 59,
          "time": 224.5909916250002,
          "velocity": 1,
          "duration": 0.3902023125000085
        },
        {
          "name": "D4",
          "midi": 62,
          "time": 224.5909916250002,
          "velocity": 1,
          "duration": 0.3902023125000085
        },
        {
          "name": "E4",
          "midi": 64,
          "time": 224.5909916250002,
          "velocity": 0.968503937007874,
          "duration": 0.3885131250000029
        },
        {
          "name": "F3",
          "midi": 53,
          "time": 224.99808581250022,
          "velocity": 1,
          "duration": 0.5945940000000007
        },
        {
          "name": "A3",
          "midi": 57,
          "time": 224.99808581250022,
          "velocity": 1,
          "duration": 0.5945940000000007
        },
        {
          "name": "C4",
          "midi": 60,
          "time": 224.99808581250022,
          "velocity": 1,
          "duration": 0.5912156249999896
        },
        {
          "name": "E4",
          "midi": 64,
          "time": 224.99808581250022,
          "velocity": 0.968503937007874,
          "duration": 0.5912156249999896
        },
        {
          "name": "F3",
          "midi": 53,
          "time": 225.6061933125002,
          "velocity": 0.8976377952755905,
          "duration": 0.591215625000018
        },
        {
          "name": "A3",
          "midi": 57,
          "time": 225.60788250000022,
          "velocity": 0.968503937007874,
          "duration": 0.591215625000018
        },
        {
          "name": "C4",
          "midi": 60,
          "time": 225.60788250000022,
          "velocity": 1,
          "duration": 0.591215625000018
        },
        {
          "name": "F3",
          "midi": 53,
          "time": 226.21430081250023,
          "velocity": 0.968503937007874,
          "duration": 0.3885131250000029
        },
        {
          "name": "A3",
          "midi": 57,
          "time": 226.21430081250023,
          "velocity": 0.8976377952755905,
          "duration": 0.39189150000001405
        },
        {
          "name": "C4",
          "midi": 60,
          "time": 226.21430081250023,
          "velocity": 0.968503937007874,
          "duration": 0.3885131250000029
        },
        {
          "name": "E4",
          "midi": 64,
          "time": 226.21430081250023,
          "velocity": 0.8976377952755905,
          "duration": 0.3885131250000029
        },
        {
          "name": "C4",
          "midi": 60,
          "time": 226.61801662500025,
          "velocity": 0.8976377952755905,
          "duration": 0.39189150000001405
        },
        {
          "name": "A3",
          "midi": 57,
          "time": 227.02511081250026,
          "velocity": 0.8976377952755905,
          "duration": 0.7956073125000103
        },
        {
          "name": "C#4",
          "midi": 61,
          "time": 227.02511081250026,
          "velocity": 1,
          "duration": 0.7972965000000158
        },
        {
          "name": "E4",
          "midi": 64,
          "time": 227.02511081250026,
          "velocity": 0.968503937007874,
          "duration": 0.7956073125000103
        },
        {
          "name": "A3",
          "midi": 57,
          "time": 227.83423162500029,
          "velocity": 0.8976377952755905,
          "duration": 0.3935806875000196
        },
        {
          "name": "C#4",
          "midi": 61,
          "time": 227.83423162500029,
          "velocity": 0.9921259842519685,
          "duration": 0.39189150000001405
        },
        {
          "name": "E4",
          "midi": 64,
          "time": 227.83423162500029,
          "velocity": 0.8976377952755905,
          "duration": 0.39189150000001405
        },
        {
          "name": "G3",
          "midi": 55,
          "time": 228.23963662500032,
          "velocity": 1,
          "duration": 2.013511499999993
        },
        {
          "name": "C4",
          "midi": 60,
          "time": 228.23963662500032,
          "velocity": 1,
          "duration": 2.011822312499987
        },
        {
          "name": "G4",
          "midi": 67,
          "time": 228.23963662500032,
          "velocity": 1,
          "duration": 0.20439168749999226
        },
        {
          "name": "E4",
          "midi": 64,
          "time": 228.4490958750003,
          "velocity": 0.968503937007874,
          "duration": 1.7770252500000083
        },
        {
          "name": "G3",
          "midi": 55,
          "time": 230.2666616250003,
          "velocity": 0.84251968503937,
          "duration": 0.5912156249999896
        },
        {
          "name": "B3",
          "midi": 59,
          "time": 230.2666616250003,
          "velocity": 0.968503937007874,
          "duration": 0.5945940000000007
        },
        {
          "name": "D4",
          "midi": 62,
          "time": 230.2666616250003,
          "velocity": 0.8976377952755905,
          "duration": 0.5962831875000063
        },
        {
          "name": "E4",
          "midi": 64,
          "time": 230.2666616250003,
          "velocity": 0.8976377952755905,
          "duration": 0.5962831875000063
        },
        {
          "name": "G3",
          "midi": 55,
          "time": 230.8747691250003,
          "velocity": 0.968503937007874,
          "duration": 0.1874998125000218
        },
        {
          "name": "D4",
          "midi": 62,
          "time": 230.8747691250003,
          "velocity": 0.84251968503937,
          "duration": 0.1874998125000218
        },
        {
          "name": "E4",
          "midi": 64,
          "time": 230.8747691250003,
          "velocity": 0.8740157480314961,
          "duration": 0.1874998125000218
        },
        {
          "name": "B3",
          "midi": 59,
          "time": 230.87814750000032,
          "velocity": 0.968503937007874,
          "duration": 0.1874998125000218
        },
        {
          "name": "G3",
          "midi": 55,
          "time": 231.07747162500036,
          "velocity": 1,
          "duration": 0.3902023125000085
        },
        {
          "name": "B3",
          "midi": 59,
          "time": 231.07747162500036,
          "velocity": 1,
          "duration": 0.3902023125000085
        },
        {
          "name": "D4",
          "midi": 62,
          "time": 231.07747162500036,
          "velocity": 1,
          "duration": 0.39189150000001405
        },
        {
          "name": "E4",
          "midi": 64,
          "time": 231.07747162500036,
          "velocity": 0.968503937007874,
          "duration": 0.39189150000001405
        },
        {
          "name": "F3",
          "midi": 53,
          "time": 231.48625500000037,
          "velocity": 1,
          "duration": 0.5929048124999952
        },
        {
          "name": "A3",
          "midi": 57,
          "time": 231.48625500000037,
          "velocity": 1,
          "duration": 0.5929048124999952
        },
        {
          "name": "C4",
          "midi": 60,
          "time": 231.48625500000037,
          "velocity": 1,
          "duration": 0.5929048124999952
        },
        {
          "name": "E4",
          "midi": 64,
          "time": 231.48625500000037,
          "velocity": 0.968503937007874,
          "duration": 0.5912156249999896
        },
        {
          "name": "F3",
          "midi": 53,
          "time": 232.09098412500038,
          "velocity": 0.8976377952755905,
          "duration": 0.591215625000018
        },
        {
          "name": "A3",
          "midi": 57,
          "time": 232.09098412500038,
          "velocity": 0.968503937007874,
          "duration": 0.591215625000018
        },
        {
          "name": "C4",
          "midi": 60,
          "time": 232.0943625000004,
          "velocity": 1,
          "duration": 0.591215625000018
        },
        {
          "name": "F3",
          "midi": 53,
          "time": 232.6990916250004,
          "velocity": 0.968503937007874,
          "duration": 0.3935806874999912
        },
        {
          "name": "A3",
          "midi": 57,
          "time": 232.6990916250004,
          "velocity": 0.8976377952755905,
          "duration": 0.3935806874999912
        },
        {
          "name": "C4",
          "midi": 60,
          "time": 232.6990916250004,
          "velocity": 0.968503937007874,
          "duration": 0.3935806874999912
        },
        {
          "name": "E4",
          "midi": 64,
          "time": 232.6990916250004,
          "velocity": 0.8976377952755905,
          "duration": 0.3935806874999912
        },
        {
          "name": "C4",
          "midi": 60,
          "time": 233.1044966250004,
          "velocity": 0.8976377952755905,
          "duration": 0.3935806874999912
        },
        {
          "name": "A3",
          "midi": 57,
          "time": 233.51159081250037,
          "velocity": 0.8976377952755905,
          "duration": 0.7939181250000047
        },
        {
          "name": "C#4",
          "midi": 61,
          "time": 233.51159081250037,
          "velocity": 1,
          "duration": 0.7939181250000047
        },
        {
          "name": "E4",
          "midi": 64,
          "time": 233.51159081250037,
          "velocity": 0.968503937007874,
          "duration": 0.7939181250000047
        },
        {
          "name": "A3",
          "midi": 57,
          "time": 234.32240081250038,
          "velocity": 0.8976377952755905,
          "duration": 0.3885131250000029
        },
        {
          "name": "C#4",
          "midi": 61,
          "time": 234.32240081250038,
          "velocity": 0.9921259842519685,
          "duration": 0.3885131250000029
        },
        {
          "name": "E4",
          "midi": 64,
          "time": 234.32240081250038,
          "velocity": 0.8976377952755905,
          "duration": 0.3902023125000085
        },
        {
          "name": "G3",
          "midi": 55,
          "time": 234.72611662500037,
          "velocity": 1,
          "duration": 2.011822312499987
        },
        {
          "name": "C4",
          "midi": 60,
          "time": 234.72611662500037,
          "velocity": 1,
          "duration": 2.013511499999993
        },
        {
          "name": "G4",
          "midi": 67,
          "time": 234.72611662500037,
          "velocity": 1,
          "duration": 0.20270249999998668
        },
        {
          "name": "E4",
          "midi": 64,
          "time": 234.93388668750035,
          "velocity": 0.968503937007874,
          "duration": 1.778714437500014
        },
        {
          "name": "G3",
          "midi": 55,
          "time": 236.75483081250036,
          "velocity": 0.84251968503937,
          "duration": 0.5929048124999952
        },
        {
          "name": "B3",
          "midi": 59,
          "time": 236.75483081250036,
          "velocity": 0.968503937007874,
          "duration": 0.5912156249999896
        },
        {
          "name": "D4",
          "midi": 62,
          "time": 236.75483081250036,
          "velocity": 0.8976377952755905,
          "duration": 0.5929048124999952
        },
        {
          "name": "E4",
          "midi": 64,
          "time": 236.75483081250036,
          "velocity": 0.8976377952755905,
          "duration": 0.5929048124999952
        },
        {
          "name": "G3",
          "midi": 55,
          "time": 237.36124912500034,
          "velocity": 0.968503937007874,
          "duration": 0.18918899999999894
        },
        {
          "name": "B3",
          "midi": 59,
          "time": 237.36124912500034,
          "velocity": 0.968503937007874,
          "duration": 0.18918899999999894
        },
        {
          "name": "D4",
          "midi": 62,
          "time": 237.36124912500034,
          "velocity": 0.84251968503937,
          "duration": 0.18918899999999894
        },
        {
          "name": "E4",
          "midi": 64,
          "time": 237.36124912500034,
          "velocity": 0.8740157480314961,
          "duration": 0.18918899999999894
        },
        {
          "name": "G3",
          "midi": 55,
          "time": 237.56564081250033,
          "velocity": 1,
          "duration": 0.3885131250000029
        },
        {
          "name": "B3",
          "midi": 59,
          "time": 237.56564081250033,
          "velocity": 1,
          "duration": 0.3885131250000029
        },
        {
          "name": "D4",
          "midi": 62,
          "time": 237.56564081250033,
          "velocity": 1,
          "duration": 0.3902023125000085
        },
        {
          "name": "E4",
          "midi": 64,
          "time": 237.56564081250033,
          "velocity": 0.968503937007874,
          "duration": 0.3885131250000029
        },
        {
          "name": "F3",
          "midi": 53,
          "time": 237.96935662500033,
          "velocity": 1,
          "duration": 0.5962831875000063
        },
        {
          "name": "A3",
          "midi": 57,
          "time": 237.96935662500033,
          "velocity": 1,
          "duration": 0.5962831875000063
        },
        {
          "name": "C4",
          "midi": 60,
          "time": 237.96935662500033,
          "velocity": 1,
          "duration": 0.5929048124999952
        },
        {
          "name": "E4",
          "midi": 64,
          "time": 237.96935662500033,
          "velocity": 0.968503937007874,
          "duration": 0.5929048124999952
        },
        {
          "name": "A3",
          "midi": 57,
          "time": 238.57746412500035,
          "velocity": 0.968503937007874,
          "duration": 0.5929048125000236
        },
        {
          "name": "C4",
          "midi": 60,
          "time": 238.57746412500035,
          "velocity": 1,
          "duration": 0.5929048125000236
        },
        {
          "name": "F3",
          "midi": 53,
          "time": 238.58084250000036,
          "velocity": 0.8976377952755905,
          "duration": 0.591215625000018
        },
        {
          "name": "F3",
          "midi": 53,
          "time": 239.18557162500036,
          "velocity": 0.968503937007874,
          "duration": 0.3935806875000196
        },
        {
          "name": "A3",
          "midi": 57,
          "time": 239.18557162500036,
          "velocity": 0.8976377952755905,
          "duration": 0.39189150000001405
        },
        {
          "name": "C4",
          "midi": 60,
          "time": 239.18557162500036,
          "velocity": 0.968503937007874,
          "duration": 0.39189150000001405
        },
        {
          "name": "E4",
          "midi": 64,
          "time": 239.18557162500036,
          "velocity": 0.8976377952755905,
          "duration": 0.3902023125000085
        },
        {
          "name": "C4",
          "midi": 60,
          "time": 239.5909766250004,
          "velocity": 0.8976377952755905,
          "duration": 0.3902023125000085
        },
        {
          "name": "A3",
          "midi": 57,
          "time": 239.9963816250004,
          "velocity": 0.8976377952755905,
          "duration": 0.8006748749999986
        },
        {
          "name": "C#4",
          "midi": 61,
          "time": 239.9963816250004,
          "velocity": 1,
          "duration": 0.7939181250000047
        },
        {
          "name": "E4",
          "midi": 64,
          "time": 239.9963816250004,
          "velocity": 0.968503937007874,
          "duration": 0.7939181250000047
        },
        {
          "name": "A3",
          "midi": 57,
          "time": 240.8088808125004,
          "velocity": 0.8976377952755905,
          "duration": 0.39189150000001405
        },
        {
          "name": "C#4",
          "midi": 61,
          "time": 240.8088808125004,
          "velocity": 0.9921259842519685,
          "duration": 0.39189150000001405
        },
        {
          "name": "E4",
          "midi": 64,
          "time": 240.8088808125004,
          "velocity": 0.8976377952755905,
          "duration": 0.3902023125000085
        },
        {
          "name": "G3",
          "midi": 55,
          "time": 241.21259662500043,
          "velocity": 1,
          "duration": 2.011822312499987
        },
        {
          "name": "G4",
          "midi": 67,
          "time": 241.21259662500043,
          "velocity": 1,
          "duration": 0.20270249999998668
        },
        {
          "name": "C4",
          "midi": 60,
          "time": 241.21935337500042,
          "velocity": 1,
          "duration": 2.0084439375000045
        },
        {
          "name": "E4",
          "midi": 64,
          "time": 241.41529912500042,
          "velocity": 0.968503937007874,
          "duration": 1.780403624999991
        },
        {
          "name": "G3",
          "midi": 55,
          "time": 243.23962162500044,
          "velocity": 0.84251968503937,
          "duration": 0.5945940000000007
        },
        {
          "name": "B3",
          "midi": 59,
          "time": 243.23962162500044,
          "velocity": 0.968503937007874,
          "duration": 0.5945940000000007
        },
        {
          "name": "D4",
          "midi": 62,
          "time": 243.23962162500044,
          "velocity": 0.8976377952755905,
          "duration": 0.5945940000000007
        },
        {
          "name": "E4",
          "midi": 64,
          "time": 243.23962162500044,
          "velocity": 0.8976377952755905,
          "duration": 0.5945940000000007
        },
        {
          "name": "G3",
          "midi": 55,
          "time": 243.84772912500043,
          "velocity": 0.968503937007874,
          "duration": 0.19087818750000451
        },
        {
          "name": "B3",
          "midi": 59,
          "time": 243.84772912500043,
          "velocity": 0.968503937007874,
          "duration": 0.18749981249999337
        },
        {
          "name": "E4",
          "midi": 64,
          "time": 243.84772912500043,
          "velocity": 0.8740157480314961,
          "duration": 0.18918899999999894
        },
        {
          "name": "D4",
          "midi": 62,
          "time": 243.85448587500042,
          "velocity": 0.84251968503937,
          "duration": 0.18581062500001622
        },
        {
          "name": "G3",
          "midi": 55,
          "time": 244.05212081250045,
          "velocity": 1,
          "duration": 0.3885131250000029
        },
        {
          "name": "B3",
          "midi": 59,
          "time": 244.05212081250045,
          "velocity": 1,
          "duration": 0.3885131250000029
        },
        {
          "name": "D4",
          "midi": 62,
          "time": 244.05212081250045,
          "velocity": 1,
          "duration": 0.3885131250000029
        },
        {
          "name": "E4",
          "midi": 64,
          "time": 244.05212081250045,
          "velocity": 0.968503937007874,
          "duration": 0.3885131250000029
        },
        {
          "name": "F3",
          "midi": 53,
          "time": 244.45752581250045,
          "velocity": 1,
          "duration": 0.5945940000000292
        },
        {
          "name": "A3",
          "midi": 57,
          "time": 244.45752581250045,
          "velocity": 1,
          "duration": 0.5895264375000124
        },
        {
          "name": "C4",
          "midi": 60,
          "time": 244.45752581250045,
          "velocity": 1,
          "duration": 0.5929048125000236
        },
        {
          "name": "E4",
          "midi": 64,
          "time": 244.45752581250045,
          "velocity": 0.968503937007874,
          "duration": 0.5929048125000236
        },
        {
          "name": "F3",
          "midi": 53,
          "time": 245.0639441250005,
          "velocity": 0.8976377952755905,
          "duration": 0.5945940000000007
        },
        {
          "name": "A3",
          "midi": 57,
          "time": 245.0639441250005,
          "velocity": 0.968503937007874,
          "duration": 0.5945940000000007
        },
        {
          "name": "C4",
          "midi": 60,
          "time": 245.0639441250005,
          "velocity": 1,
          "duration": 0.5929048124999952
        },
        {
          "name": "F3",
          "midi": 53,
          "time": 245.67205162500048,
          "velocity": 0.968503937007874,
          "duration": 0.3902023125000085
        },
        {
          "name": "A3",
          "midi": 57,
          "time": 245.67205162500048,
          "velocity": 0.8976377952755905,
          "duration": 0.3935806875000196
        },
        {
          "name": "C4",
          "midi": 60,
          "time": 245.67205162500048,
          "velocity": 0.968503937007874,
          "duration": 0.3885131250000029
        },
        {
          "name": "E4",
          "midi": 64,
          "time": 245.67205162500048,
          "velocity": 0.8976377952755905,
          "duration": 0.3902023125000085
        },
        {
          "name": "C4",
          "midi": 60,
          "time": 246.0774566250005,
          "velocity": 0.8976377952755905,
          "duration": 0.39189150000001405
        },
        {
          "name": "A3",
          "midi": 57,
          "time": 246.4828616250005,
          "velocity": 0.8976377952755905,
          "duration": 0.798985687499993
        },
        {
          "name": "C#4",
          "midi": 61,
          "time": 246.4828616250005,
          "velocity": 1,
          "duration": 0.7939181250000047
        },
        {
          "name": "E4",
          "midi": 64,
          "time": 246.4828616250005,
          "velocity": 0.968503937007874,
          "duration": 0.7939181250000047
        },
        {
          "name": "A3",
          "midi": 57,
          "time": 247.2936716250005,
          "velocity": 0.8976377952755905,
          "duration": 0.39189150000001405
        },
        {
          "name": "C#4",
          "midi": 61,
          "time": 247.2936716250005,
          "velocity": 0.9921259842519685,
          "duration": 0.39189150000001405
        },
        {
          "name": "E4",
          "midi": 64,
          "time": 247.2936716250005,
          "velocity": 0.8976377952755905,
          "duration": 0.39189150000001405
        },
        {
          "name": "G3",
          "midi": 55,
          "time": 247.70076581250052,
          "velocity": 1,
          "duration": 2.011822312499987
        },
        {
          "name": "C4",
          "midi": 60,
          "time": 247.70076581250052,
          "velocity": 1,
          "duration": 2.011822312499987
        },
        {
          "name": "G4",
          "midi": 67,
          "time": 247.70076581250052,
          "velocity": 1,
          "duration": 0.20270249999998668
        },
        {
          "name": "E4",
          "midi": 64,
          "time": 247.9034683125005,
          "velocity": 0.968503937007874,
          "duration": 1.7820928124999966
        },
        {
          "name": "G3",
          "midi": 55,
          "time": 249.7261016250005,
          "velocity": 0.84251968503937,
          "duration": 0.5929048124999952
        },
        {
          "name": "B3",
          "midi": 59,
          "time": 249.7261016250005,
          "velocity": 0.968503937007874,
          "duration": 0.5929048124999952
        },
        {
          "name": "D4",
          "midi": 62,
          "time": 249.7261016250005,
          "velocity": 0.8976377952755905,
          "duration": 0.5929048124999952
        },
        {
          "name": "E4",
          "midi": 64,
          "time": 249.7261016250005,
          "velocity": 0.8976377952755905,
          "duration": 0.5962831875000063
        },
        {
          "name": "B3",
          "midi": 59,
          "time": 250.3342091250005,
          "velocity": 0.968503937007874,
          "duration": 0.18749981249999337
        },
        {
          "name": "G3",
          "midi": 55,
          "time": 250.33589831250052,
          "velocity": 0.968503937007874,
          "duration": 0.18749981249999337
        },
        {
          "name": "D4",
          "midi": 62,
          "time": 250.33589831250052,
          "velocity": 0.84251968503937,
          "duration": 0.18918899999999894
        },
        {
          "name": "E4",
          "midi": 64,
          "time": 250.33589831250052,
          "velocity": 0.8740157480314961,
          "duration": 0.18749981249999337
        },
        {
          "name": "G3",
          "midi": 55,
          "time": 250.53691162500053,
          "velocity": 1,
          "duration": 0.3952698750000252
        },
        {
          "name": "B3",
          "midi": 59,
          "time": 250.53691162500053,
          "velocity": 1,
          "duration": 0.3935806875000196
        },
        {
          "name": "D4",
          "midi": 62,
          "time": 250.53691162500053,
          "velocity": 1,
          "duration": 0.39189150000001405
        },
        {
          "name": "E4",
          "midi": 64,
          "time": 250.53691162500053,
          "velocity": 0.968503937007874,
          "duration": 0.3902023125000085
        },
        {
          "name": "F3",
          "midi": 53,
          "time": 250.94569500000054,
          "velocity": 1,
          "duration": 0.5929048124999952
        },
        {
          "name": "A3",
          "midi": 57,
          "time": 250.94569500000054,
          "velocity": 1,
          "duration": 0.5912156249999896
        },
        {
          "name": "C4",
          "midi": 60,
          "time": 250.94569500000054,
          "velocity": 1,
          "duration": 0.5912156249999896
        },
        {
          "name": "E4",
          "midi": 64,
          "time": 250.94569500000054,
          "velocity": 0.968503937007874,
          "duration": 0.5929048124999952
        },
        {
          "name": "F3",
          "midi": 53,
          "time": 251.55042412500055,
          "velocity": 0.8976377952755905,
          "duration": 0.5945940000000007
        },
        {
          "name": "A3",
          "midi": 57,
          "time": 251.55042412500055,
          "velocity": 0.968503937007874,
          "duration": 0.5929048124999952
        },
        {
          "name": "C4",
          "midi": 60,
          "time": 251.55042412500055,
          "velocity": 1,
          "duration": 0.5945940000000007
        },
        {
          "name": "F3",
          "midi": 53,
          "time": 252.16022081250054,
          "velocity": 0.968503937007874,
          "duration": 0.39189150000001405
        },
        {
          "name": "A3",
          "midi": 57,
          "time": 252.16022081250054,
          "velocity": 0.8976377952755905,
          "duration": 0.3902023125000085
        },
        {
          "name": "C4",
          "midi": 60,
          "time": 252.16022081250054,
          "velocity": 0.968503937007874,
          "duration": 0.3902023125000085
        },
        {
          "name": "E4",
          "midi": 64,
          "time": 252.16022081250054,
          "velocity": 0.8976377952755905,
          "duration": 0.39189150000001405
        },
        {
          "name": "C4",
          "midi": 60,
          "time": 252.56393662500057,
          "velocity": 0.8976377952755905,
          "duration": 0.3902023125000085
        },
        {
          "name": "A3",
          "midi": 57,
          "time": 252.96934162500057,
          "velocity": 0.8976377952755905,
          "duration": 0.7939181250000047
        },
        {
          "name": "C#4",
          "midi": 61,
          "time": 252.96934162500057,
          "velocity": 1,
          "duration": 0.7972965000000158
        },
        {
          "name": "E4",
          "midi": 64,
          "time": 252.96934162500057,
          "velocity": 0.968503937007874,
          "duration": 0.7989856875000214
        },
        {
          "name": "E4",
          "midi": 64,
          "time": 253.7801516250006,
          "velocity": 0.8976377952755905,
          "duration": 0.3902023125000085
        },
        {
          "name": "A3",
          "midi": 57,
          "time": 253.7835300000006,
          "velocity": 0.8976377952755905,
          "duration": 0.3885131250000029
        },
        {
          "name": "C#4",
          "midi": 61,
          "time": 253.7835300000006,
          "velocity": 0.9921259842519685,
          "duration": 0.3902023125000085
        },
        {
          "name": "G3",
          "midi": 55,
          "time": 254.18555662500063,
          "velocity": 1,
          "duration": 2.011822312499987
        },
        {
          "name": "C4",
          "midi": 60,
          "time": 254.18893500000064,
          "velocity": 1,
          "duration": 2.0101331249999816
        },
        {
          "name": "G4",
          "midi": 67,
          "time": 254.18893500000064,
          "velocity": 1,
          "duration": 0.19932412500000396
        },
        {
          "name": "E4",
          "midi": 64,
          "time": 254.38825912500064,
          "velocity": 0.968503937007874,
          "duration": 1.7787144374999855
        },
        {
          "name": "G3",
          "midi": 55,
          "time": 256.2125816250006,
          "velocity": 0.84251968503937,
          "duration": 0.5962831875000347
        },
        {
          "name": "B3",
          "midi": 59,
          "time": 256.2125816250006,
          "velocity": 0.968503937007874,
          "duration": 0.5929048125000236
        },
        {
          "name": "D4",
          "midi": 62,
          "time": 256.2125816250006,
          "velocity": 0.8976377952755905,
          "duration": 0.5929048125000236
        },
        {
          "name": "E4",
          "midi": 64,
          "time": 256.2125816250006,
          "velocity": 0.8976377952755905,
          "duration": 0.5945940000000292
        },
        {
          "name": "G3",
          "midi": 55,
          "time": 256.82237831250063,
          "velocity": 0.968503937007874,
          "duration": 0.1858106249999878
        },
        {
          "name": "B3",
          "midi": 59,
          "time": 256.82237831250063,
          "velocity": 0.968503937007874,
          "duration": 0.1858106249999878
        },
        {
          "name": "D4",
          "midi": 62,
          "time": 256.82237831250063,
          "velocity": 0.84251968503937,
          "duration": 0.1858106249999878
        },
        {
          "name": "E4",
          "midi": 64,
          "time": 256.82237831250063,
          "velocity": 0.8740157480314961,
          "duration": 0.18918899999999894
        },
        {
          "name": "G3",
          "midi": 55,
          "time": 257.0233916250006,
          "velocity": 1,
          "duration": 0.3885131249999745
        },
        {
          "name": "B3",
          "midi": 59,
          "time": 257.0233916250006,
          "velocity": 1,
          "duration": 0.3935806874999912
        },
        {
          "name": "D4",
          "midi": 62,
          "time": 257.0233916250006,
          "velocity": 1,
          "duration": 0.3918914999999856
        },
        {
          "name": "E4",
          "midi": 64,
          "time": 257.0233916250006,
          "velocity": 0.968503937007874,
          "duration": 0.3935806874999912
        },
        {
          "name": "F3",
          "midi": 53,
          "time": 257.4321750000006,
          "velocity": 1,
          "duration": 0.591215625000018
        },
        {
          "name": "A3",
          "midi": 57,
          "time": 257.4321750000006,
          "velocity": 1,
          "duration": 0.5929048125000236
        },
        {
          "name": "C4",
          "midi": 60,
          "time": 257.4321750000006,
          "velocity": 1,
          "duration": 0.591215625000018
        },
        {
          "name": "E4",
          "midi": 64,
          "time": 257.4321750000006,
          "velocity": 0.968503937007874,
          "duration": 0.591215625000018
        },
        {
          "name": "F3",
          "midi": 53,
          "time": 258.0402825000006,
          "velocity": 0.8976377952755905,
          "duration": 0.591215625000018
        },
        {
          "name": "C4",
          "midi": 60,
          "time": 258.0402825000006,
          "velocity": 1,
          "duration": 0.591215625000018
        },
        {
          "name": "A3",
          "midi": 57,
          "time": 258.0419716875006,
          "velocity": 0.968503937007874,
          "duration": 0.591215625000018
        },
        {
          "name": "F3",
          "midi": 53,
          "time": 258.6450116250006,
          "velocity": 0.968503937007874,
          "duration": 0.3885131249999745
        },
        {
          "name": "A3",
          "midi": 57,
          "time": 258.6450116250006,
          "velocity": 0.8976377952755905,
          "duration": 0.3885131249999745
        },
        {
          "name": "C4",
          "midi": 60,
          "time": 258.6450116250006,
          "velocity": 0.968503937007874,
          "duration": 0.3952698749999968
        },
        {
          "name": "E4",
          "midi": 64,
          "time": 258.6450116250006,
          "velocity": 0.8976377952755905,
          "duration": 0.3935806874999912
        },
        {
          "name": "C4",
          "midi": 60,
          "time": 259.0521058125006,
          "velocity": 0.8976377952755905,
          "duration": 0.3885131249999745
        },
        {
          "name": "A3",
          "midi": 57,
          "time": 259.45582162500057,
          "velocity": 0.8976377952755905,
          "duration": 0.7972965000000158
        },
        {
          "name": "C#4",
          "midi": 61,
          "time": 259.45582162500057,
          "velocity": 1,
          "duration": 0.7972965000000158
        },
        {
          "name": "E4",
          "midi": 64,
          "time": 259.45582162500057,
          "velocity": 0.968503937007874,
          "duration": 0.7956073125000103
        },
        {
          "name": "A3",
          "midi": 57,
          "time": 260.2683208125006,
          "velocity": 0.8976377952755905,
          "duration": 0.39020231249998005
        },
        {
          "name": "C#4",
          "midi": 61,
          "time": 260.2683208125006,
          "velocity": 0.9921259842519685,
          "duration": 0.39020231249998005
        },
        {
          "name": "E4",
          "midi": 64,
          "time": 260.2683208125006,
          "velocity": 0.8976377952755905,
          "duration": 0.39020231249998005
        },
        {
          "name": "G3",
          "midi": 55,
          "time": 260.67372581250055,
          "velocity": 1,
          "duration": 2.011822312499987
        },
        {
          "name": "C4",
          "midi": 60,
          "time": 260.67372581250055,
          "velocity": 1,
          "duration": 2.013511499999993
        },
        {
          "name": "G4",
          "midi": 67,
          "time": 260.67372581250055,
          "velocity": 1,
          "duration": 0.2010133124999811
        },
        {
          "name": "E4",
          "midi": 64,
          "time": 260.87473912500053,
          "velocity": 0.968503937007874,
          "duration": 1.7770252500000083
        },
        {
          "name": "G3",
          "midi": 55,
          "time": 262.6990616250005,
          "velocity": 0.84251968503937,
          "duration": 0.5929048125000236
        },
        {
          "name": "B3",
          "midi": 59,
          "time": 262.6990616250005,
          "velocity": 0.968503937007874,
          "duration": 0.5962831875000347
        },
        {
          "name": "D4",
          "midi": 62,
          "time": 262.6990616250005,
          "velocity": 0.8976377952755905,
          "duration": 0.5929048125000236
        },
        {
          "name": "E4",
          "midi": 64,
          "time": 262.6990616250005,
          "velocity": 0.8976377952755905,
          "duration": 0.5962831875000347
        },
        {
          "name": "B3",
          "midi": 59,
          "time": 263.30716912500054,
          "velocity": 0.968503937007874,
          "duration": 0.18749981249999337
        },
        {
          "name": "G3",
          "midi": 55,
          "time": 263.30885831250055,
          "velocity": 0.968503937007874,
          "duration": 0.18749981249999337
        },
        {
          "name": "D4",
          "midi": 62,
          "time": 263.30885831250055,
          "velocity": 0.84251968503937,
          "duration": 0.18918899999999894
        },
        {
          "name": "E4",
          "midi": 64,
          "time": 263.30885831250055,
          "velocity": 0.8740157480314961,
          "duration": 0.18918899999999894
        },
        {
          "name": "G3",
          "midi": 55,
          "time": 263.51156081250053,
          "velocity": 1,
          "duration": 0.3918914999999856
        },
        {
          "name": "B3",
          "midi": 59,
          "time": 263.51156081250053,
          "velocity": 1,
          "duration": 0.3885131249999745
        },
        {
          "name": "D4",
          "midi": 62,
          "time": 263.51156081250053,
          "velocity": 1,
          "duration": 0.3885131249999745
        },
        {
          "name": "E4",
          "midi": 64,
          "time": 263.51156081250053,
          "velocity": 0.968503937007874,
          "duration": 0.3918914999999856
        },
        {
          "name": "F3",
          "midi": 53,
          "time": 263.9169658125005,
          "velocity": 1,
          "duration": 0.591215625000018
        },
        {
          "name": "A3",
          "midi": 57,
          "time": 263.9169658125005,
          "velocity": 1,
          "duration": 0.5929048125000236
        },
        {
          "name": "C4",
          "midi": 60,
          "time": 263.9169658125005,
          "velocity": 1,
          "duration": 0.5929048125000236
        },
        {
          "name": "E4",
          "midi": 64,
          "time": 263.9169658125005,
          "velocity": 0.968503937007874,
          "duration": 0.5929048125000236
        },
        {
          "name": "F3",
          "midi": 53,
          "time": 264.5233841250005,
          "velocity": 0.8976377952755905,
          "duration": 0.5945939999999723
        },
        {
          "name": "A3",
          "midi": 57,
          "time": 264.5233841250005,
          "velocity": 0.968503937007874,
          "duration": 0.5962831874999779
        },
        {
          "name": "C4",
          "midi": 60,
          "time": 264.5233841250005,
          "velocity": 1,
          "duration": 0.5962831874999779
        },
        {
          "name": "F3",
          "midi": 53,
          "time": 265.1314916250005,
          "velocity": 0.968503937007874,
          "duration": 0.3902023125000369
        },
        {
          "name": "A3",
          "midi": 57,
          "time": 265.1314916250005,
          "velocity": 0.8976377952755905,
          "duration": 0.39189150000004247
        },
        {
          "name": "C4",
          "midi": 60,
          "time": 265.1314916250005,
          "velocity": 0.968503937007874,
          "duration": 0.3902023125000369
        },
        {
          "name": "E4",
          "midi": 64,
          "time": 265.1365591875005,
          "velocity": 0.8976377952755905,
          "duration": 0.3885131250000313
        },
        {
          "name": "C4",
          "midi": 60,
          "time": 265.5385858125005,
          "velocity": 0.8976377952755905,
          "duration": 0.3918914999999856
        },
        {
          "name": "A3",
          "midi": 57,
          "time": 265.9423016250005,
          "velocity": 0.8976377952755905,
          "duration": 0.7989856875000214
        },
        {
          "name": "C#4",
          "midi": 61,
          "time": 265.9423016250005,
          "velocity": 1,
          "duration": 0.7972965000000158
        },
        {
          "name": "E4",
          "midi": 64,
          "time": 265.9423016250005,
          "velocity": 0.968503937007874,
          "duration": 0.7956073125000103
        },
        {
          "name": "A3",
          "midi": 57,
          "time": 266.7548008125005,
          "velocity": 0.8976377952755905,
          "duration": 0.3918914999999856
        },
        {
          "name": "C#4",
          "midi": 61,
          "time": 266.7548008125005,
          "velocity": 0.9921259842519685,
          "duration": 0.39020231249998005
        },
        {
          "name": "E4",
          "midi": 64,
          "time": 266.7548008125005,
          "velocity": 0.8976377952755905,
          "duration": 0.39020231249998005
        },
        {
          "name": "G3",
          "midi": 55,
          "time": 267.15851662500046,
          "velocity": 1,
          "duration": 2.011822312499987
        },
        {
          "name": "C4",
          "midi": 60,
          "time": 267.15851662500046,
          "velocity": 1,
          "duration": 2.013511499999993
        },
        {
          "name": "G4",
          "midi": 67,
          "time": 267.15851662500046,
          "velocity": 1,
          "duration": 0.20439168749999226
        },
        {
          "name": "E4",
          "midi": 64,
          "time": 267.36290831250045,
          "velocity": 0.968503937007874,
          "duration": 1.7770252500000083
        },
        {
          "name": "G3",
          "midi": 55,
          "time": 269.18554162500044,
          "velocity": 0.84251968503937,
          "duration": 0.5962831874999779
        },
        {
          "name": "B3",
          "midi": 59,
          "time": 269.18554162500044,
          "velocity": 0.968503937007874,
          "duration": 0.5945939999999723
        },
        {
          "name": "D4",
          "midi": 62,
          "time": 269.18554162500044,
          "velocity": 0.8976377952755905,
          "duration": 0.5945939999999723
        },
        {
          "name": "E4",
          "midi": 64,
          "time": 269.18554162500044,
          "velocity": 0.8976377952755905,
          "duration": 0.5945939999999723
        },
        {
          "name": "G3",
          "midi": 55,
          "time": 269.7936491250004,
          "velocity": 0.968503937007874,
          "duration": 0.18749981249999337
        },
        {
          "name": "B3",
          "midi": 59,
          "time": 269.7936491250004,
          "velocity": 0.968503937007874,
          "duration": 0.18749981249999337
        },
        {
          "name": "D4",
          "midi": 62,
          "time": 269.7936491250004,
          "velocity": 0.84251968503937,
          "duration": 0.18749981249999337
        },
        {
          "name": "E4",
          "midi": 64,
          "time": 269.7936491250004,
          "velocity": 0.8740157480314961,
          "duration": 0.18749981249999337
        },
        {
          "name": "G3",
          "midi": 55,
          "time": 269.9980408125004,
          "velocity": 1,
          "duration": 0.3885131249999745
        },
        {
          "name": "B3",
          "midi": 59,
          "time": 269.9980408125004,
          "velocity": 1,
          "duration": 0.3918914999999856
        },
        {
          "name": "D4",
          "midi": 62,
          "time": 269.9980408125004,
          "velocity": 1,
          "duration": 0.3885131249999745
        },
        {
          "name": "E4",
          "midi": 64,
          "time": 269.9980408125004,
          "velocity": 0.968503937007874,
          "duration": 0.3885131249999745
        },
        {
          "name": "F3",
          "midi": 53,
          "time": 270.40175662500036,
          "velocity": 1,
          "duration": 0.591215625000018
        },
        {
          "name": "A3",
          "midi": 57,
          "time": 270.40175662500036,
          "velocity": 1,
          "duration": 0.5929048125000236
        },
        {
          "name": "C4",
          "midi": 60,
          "time": 270.40175662500036,
          "velocity": 1,
          "duration": 0.5929048125000236
        },
        {
          "name": "E4",
          "midi": 64,
          "time": 270.4068241875004,
          "velocity": 0.968503937007874,
          "duration": 0.591215625000018
        },
        {
          "name": "F3",
          "midi": 53,
          "time": 271.0098641250004,
          "velocity": 0.8976377952755905,
          "duration": 0.591215625000018
        },
        {
          "name": "A3",
          "midi": 57,
          "time": 271.0098641250004,
          "velocity": 0.968503937007874,
          "duration": 0.591215625000018
        },
        {
          "name": "C4",
          "midi": 60,
          "time": 271.0098641250004,
          "velocity": 1,
          "duration": 0.591215625000018
        },
        {
          "name": "E4",
          "midi": 64,
          "time": 271.6196608125004,
          "velocity": 0.8976377952755905,
          "duration": 0.3885131250000313
        },
        {
          "name": "F3",
          "midi": 53,
          "time": 271.6213500000004,
          "velocity": 0.968503937007874,
          "duration": 0.3885131250000313
        },
        {
          "name": "C4",
          "midi": 60,
          "time": 271.6213500000004,
          "velocity": 0.968503937007874,
          "duration": 0.3885131250000313
        },
        {
          "name": "A3",
          "midi": 57,
          "time": 271.6230391875004,
          "velocity": 0.8976377952755905,
          "duration": 0.3885131250000313
        },
        {
          "name": "C4",
          "midi": 60,
          "time": 272.02506581250043,
          "velocity": 0.8976377952755905,
          "duration": 0.3885131249999745
        },
        {
          "name": "A3",
          "midi": 57,
          "time": 272.4287816250004,
          "velocity": 0.7086614173228346,
          "duration": 0.40540499999997337
        },
        {
          "name": "C#4",
          "midi": 61,
          "time": 272.4287816250004,
          "velocity": 0.905511811023622,
          "duration": 0.40540499999997337
        },
        {
          "name": "E4",
          "midi": 64,
          "time": 272.4287816250004,
          "velocity": 0.7795275590551181,
          "duration": 0.40540499999997337
        },
        {
          "name": "C#4",
          "midi": 61,
          "time": 272.83418662500037,
          "velocity": 0.8818897637795275,
          "duration": 0.20608087500005468
        },
        {
          "name": "E4",
          "midi": 64,
          "time": 272.83418662500037,
          "velocity": 0.7007874015748031,
          "duration": 0.2043916875000491
        },
        {
          "name": "A3",
          "midi": 57,
          "time": 272.8409433750004,
          "velocity": 0.7086614173228346,
          "duration": 0.20101331250003796
        },
        {
          "name": "A3",
          "midi": 57,
          "time": 273.04195668750043,
          "velocity": 0.7795275590551181,
          "duration": 0.2010133124999811
        },
        {
          "name": "C#4",
          "midi": 61,
          "time": 273.04195668750043,
          "velocity": 0.8740157480314961,
          "duration": 0.2010133124999811
        },
        {
          "name": "E4",
          "midi": 64,
          "time": 273.04195668750043,
          "velocity": 0.7795275590551181,
          "duration": 0.2010133124999811
        },
        {
          "name": "E4",
          "midi": 64,
          "time": 273.2412808125004,
          "velocity": 0.7086614173228346,
          "duration": 0.4054050000000302
        },
        {
          "name": "A3",
          "midi": 57,
          "time": 273.2429700000004,
          "velocity": 0.7086614173228346,
          "duration": 0.40371581250002464
        },
        {
          "name": "C#4",
          "midi": 61,
          "time": 273.2429700000004,
          "velocity": 0.8582677165354331,
          "duration": 0.40371581250002464
        },
        {
          "name": "G3",
          "midi": 55,
          "time": 273.64668581250044,
          "velocity": 0.7795275590551181,
          "duration": 0.8124991875000092
        },
        {
          "name": "C4",
          "midi": 60,
          "time": 273.64668581250044,
          "velocity": 0.8976377952755905,
          "duration": 0.8108100000000036
        },
        {
          "name": "E4",
          "midi": 64,
          "time": 273.64668581250044,
          "velocity": 0.7086614173228346,
          "duration": 0.8124991875000092
        },
        {
          "name": "G3",
          "midi": 55,
          "time": 274.45918500000045,
          "velocity": 0.7086614173228346,
          "duration": 0.40371581250002464
        },
        {
          "name": "E4",
          "midi": 64,
          "time": 274.45918500000045,
          "velocity": 0.7086614173228346,
          "duration": 0.40371581250002464
        },
        {
          "name": "C4",
          "midi": 60,
          "time": 274.46087418750045,
          "velocity": 0.8976377952755905,
          "duration": 0.4070941875000358
        },
        {
          "name": "C4",
          "midi": 60,
          "time": 274.86121162500046,
          "velocity": 0.8976377952755905,
          "duration": 0.4070941875000358
        },
        {
          "name": "G3",
          "midi": 55,
          "time": 274.86290081250047,
          "velocity": 0.8976377952755905,
          "duration": 0.4070941875000358
        },
        {
          "name": "E4",
          "midi": 64,
          "time": 274.8679683750005,
          "velocity": 0.7795275590551181,
          "duration": 0.40202662500001907
        },
        {
          "name": "G3",
          "midi": 55,
          "time": 275.2699950000005,
          "velocity": 0.7086614173228346,
          "duration": 0.20270249999998668
        },
        {
          "name": "C4",
          "midi": 60,
          "time": 275.2699950000005,
          "velocity": 0.7795275590551181,
          "duration": 0.20270249999998668
        },
        {
          "name": "E4",
          "midi": 64,
          "time": 275.2699950000005,
          "velocity": 0.7086614173228346,
          "duration": 0.20270249999998668
        },
        {
          "name": "G3",
          "midi": 55,
          "time": 275.4710083125005,
          "velocity": 0.7795275590551181,
          "duration": 0.20270249999998668
        },
        {
          "name": "C4",
          "midi": 60,
          "time": 275.4710083125005,
          "velocity": 0.7795275590551181,
          "duration": 0.20270249999998668
        },
        {
          "name": "E4",
          "midi": 64,
          "time": 275.4726975000005,
          "velocity": 0.7086614173228346,
          "duration": 0.2010133124999811
        },
        {
          "name": "G3",
          "midi": 55,
          "time": 275.6737108125005,
          "velocity": 0.7086614173228346,
          "duration": 0.6097966875000225
        },
        {
          "name": "D4",
          "midi": 62,
          "time": 275.6737108125005,
          "velocity": 0.7795275590551181,
          "duration": 0.6097966875000225
        },
        {
          "name": "E4",
          "midi": 64,
          "time": 275.6737108125005,
          "velocity": 0.7086614173228346,
          "duration": 0.6097966875000225
        },
        {
          "name": "B3",
          "midi": 59,
          "time": 275.6787783750005,
          "velocity": 0.7795275590551181,
          "duration": 0.6047291250000058
        },
        {
          "name": "G3",
          "midi": 55,
          "time": 276.2835075000005,
          "velocity": 0.7795275590551181,
          "duration": 0.6047291250000058
        },
        {
          "name": "B3",
          "midi": 59,
          "time": 276.2835075000005,
          "velocity": 0.8976377952755905,
          "duration": 0.6047291250000058
        },
        {
          "name": "D4",
          "midi": 62,
          "time": 276.2835075000005,
          "velocity": 0.8976377952755905,
          "duration": 0.6047291250000058
        },
        {
          "name": "E4",
          "midi": 64,
          "time": 276.2835075000005,
          "velocity": 0.7086614173228346,
          "duration": 0.6047291250000058
        },
        {
          "name": "F3",
          "midi": 53,
          "time": 276.8882366250005,
          "velocity": 0.8976377952755905,
          "duration": 1.6233091875000127
        },
        {
          "name": "A3",
          "midi": 57,
          "time": 276.8882366250005,
          "velocity": 0.7795275590551181,
          "duration": 1.6233091875000127
        },
        {
          "name": "B3",
          "midi": 59,
          "time": 276.8882366250005,
          "velocity": 0.9291338582677166,
          "duration": 0.8108100000000036
        },
        {
          "name": "E4",
          "midi": 64,
          "time": 276.8882366250005,
          "velocity": 0.7795275590551181,
          "duration": 1.4222958750000316
        },
        {
          "name": "B3",
          "midi": 59,
          "time": 277.7024250000005,
          "velocity": 0.8976377952755905,
          "duration": 0.8124991875000092
        },
        {
          "name": "C4",
          "midi": 60,
          "time": 277.9068166875005,
          "velocity": 0.8976377952755905,
          "duration": 0.40371581250002464
        },
        {
          "name": "E4",
          "midi": 64,
          "time": 278.3071541250005,
          "velocity": 0.8976377952755905,
          "duration": 0.20439168749999226
        },
        {
          "name": "C4",
          "midi": 60,
          "time": 278.5115458125005,
          "velocity": 0.8976377952755905,
          "duration": 0.4054050000000302
        },
        {
          "name": "A3",
          "midi": 57,
          "time": 278.91695081250054,
          "velocity": 0.7086614173228346,
          "duration": 0.40540499999997337
        },
        {
          "name": "C#4",
          "midi": 61,
          "time": 278.91695081250054,
          "velocity": 0.8031496062992126,
          "duration": 0.40540499999997337
        },
        {
          "name": "E4",
          "midi": 64,
          "time": 278.91695081250054,
          "velocity": 0.7086614173228346,
          "duration": 0.40540499999997337
        },
        {
          "name": "C#4",
          "midi": 61,
          "time": 279.3223558125005,
          "velocity": 0.8976377952755905,
          "duration": 0.20270249999998668
        },
        {
          "name": "E4",
          "midi": 64,
          "time": 279.3223558125005,
          "velocity": 0.7086614173228346,
          "duration": 0.20270249999998668
        },
        {
          "name": "A3",
          "midi": 57,
          "time": 279.32573418750053,
          "velocity": 0.7086614173228346,
          "duration": 0.20270249999998668
        },
        {
          "name": "A3",
          "midi": 57,
          "time": 279.5250583125005,
          "velocity": 0.8976377952755905,
          "duration": 0.4054050000000302
        },
        {
          "name": "C#4",
          "midi": 61,
          "time": 279.5250583125005,
          "velocity": 0.9212598425196851,
          "duration": 0.4054050000000302
        },
        {
          "name": "E4",
          "midi": 64,
          "time": 279.5250583125005,
          "velocity": 0.7795275590551181,
          "duration": 0.4054050000000302
        },
        {
          "name": "G3",
          "midi": 55,
          "time": 279.93215250000054,
          "velocity": 0.7795275590551181,
          "duration": 0.6081075000000169
        },
        {
          "name": "C4",
          "midi": 60,
          "time": 279.93215250000054,
          "velocity": 0.7086614173228346,
          "duration": 0.6081075000000169
        },
        {
          "name": "E4",
          "midi": 64,
          "time": 279.93215250000054,
          "velocity": 0.7086614173228346,
          "duration": 0.6081075000000169
        },
        {
          "name": "C4",
          "midi": 60,
          "time": 280.53688162500055,
          "velocity": 0.8976377952755905,
          "duration": 0.20439168749999226
        },
        {
          "name": "G3",
          "midi": 55,
          "time": 280.54026000000056,
          "velocity": 0.7795275590551181,
          "duration": 0.20439168749999226
        },
        {
          "name": "E4",
          "midi": 64,
          "time": 280.54026000000056,
          "velocity": 0.7086614173228346,
          "duration": 0.20270249999998668
        },
        {
          "name": "G3",
          "midi": 55,
          "time": 280.74296250000054,
          "velocity": 0.7086614173228346,
          "duration": 0.20270249999998668
        },
        {
          "name": "C4",
          "midi": 60,
          "time": 280.74296250000054,
          "velocity": 0.8976377952755905,
          "duration": 0.2010133124999811
        },
        {
          "name": "E4",
          "midi": 64,
          "time": 280.74465168750055,
          "velocity": 0.7795275590551181,
          "duration": 0.2010133124999811
        },
        {
          "name": "G3",
          "midi": 55,
          "time": 280.94566500000053,
          "velocity": 0.7086614173228346,
          "duration": 0.20439168749999226
        },
        {
          "name": "C4",
          "midi": 60,
          "time": 280.94566500000053,
          "velocity": 0.7795275590551181,
          "duration": 0.20439168749999226
        },
        {
          "name": "E4",
          "midi": 64,
          "time": 280.94566500000053,
          "velocity": 0.7086614173228346,
          "duration": 0.20439168749999226
        },
        {
          "name": "C4",
          "midi": 60,
          "time": 281.1483675000005,
          "velocity": 0.7795275590551181,
          "duration": 0.2010133124999811
        },
        {
          "name": "G3",
          "midi": 55,
          "time": 281.1500566875005,
          "velocity": 0.7086614173228346,
          "duration": 0.60810749999996
        },
        {
          "name": "E4",
          "midi": 64,
          "time": 281.1500566875005,
          "velocity": 0.7086614173228346,
          "duration": 0.20270249999998668
        },
        {
          "name": "G4",
          "midi": 67,
          "time": 281.3493808125005,
          "velocity": 0.7795275590551181,
          "duration": 0.20439168749999226
        },
        {
          "name": "C4",
          "midi": 60,
          "time": 281.3527591875005,
          "velocity": 0.7795275590551181,
          "duration": 0.60810749999996
        },
        {
          "name": "E4",
          "midi": 64,
          "time": 281.5520833125005,
          "velocity": 0.7795275590551181,
          "duration": 0.20270249999998668
        },
        {
          "name": "E4",
          "midi": 64,
          "time": 281.7547858125005,
          "velocity": 0.7086614173228346,
          "duration": 0.4054050000000302
        },
        {
          "name": "B3",
          "midi": 59,
          "time": 282.1585016250005,
          "velocity": 0.8976377952755905,
          "duration": 0.6081075000000169
        },
        {
          "name": "G3",
          "midi": 55,
          "time": 282.1601908125005,
          "velocity": 0.7795275590551181,
          "duration": 0.6064183125000113
        },
        {
          "name": "D4",
          "midi": 62,
          "time": 282.1601908125005,
          "velocity": 0.7795275590551181,
          "duration": 0.611485875000028
        },
        {
          "name": "E4",
          "midi": 64,
          "time": 282.1601908125005,
          "velocity": 0.7086614173228346,
          "duration": 0.6064183125000113
        },
        {
          "name": "B3",
          "midi": 59,
          "time": 282.7666091250005,
          "velocity": 0.7086614173228346,
          "duration": 0.20270250000004353
        },
        {
          "name": "D4",
          "midi": 62,
          "time": 282.7666091250005,
          "velocity": 0.7086614173228346,
          "duration": 0.20270250000004353
        },
        {
          "name": "G3",
          "midi": 55,
          "time": 282.77167668750053,
          "velocity": 0.7086614173228346,
          "duration": 0.1976349375000268
        },
        {
          "name": "E4",
          "midi": 64,
          "time": 282.77167668750053,
          "velocity": 0.7086614173228346,
          "duration": 0.1976349375000268
        },
        {
          "name": "G3",
          "midi": 55,
          "time": 282.96931162500056,
          "velocity": 0.7086614173228346,
          "duration": 0.4087833749999845
        },
        {
          "name": "B3",
          "midi": 59,
          "time": 282.96931162500056,
          "velocity": 0.8976377952755905,
          "duration": 0.4087833749999845
        },
        {
          "name": "D4",
          "midi": 62,
          "time": 282.96931162500056,
          "velocity": 0.7795275590551181,
          "duration": 0.4087833749999845
        },
        {
          "name": "E4",
          "midi": 64,
          "time": 282.96931162500056,
          "velocity": 0.7086614173228346,
          "duration": 0.4087833749999845
        },
        {
          "name": "F3",
          "midi": 53,
          "time": 283.37809500000054,
          "velocity": 0.7086614173228346,
          "duration": 0.8108100000000036
        },
        {
          "name": "A3",
          "midi": 57,
          "time": 283.37809500000054,
          "velocity": 0.7086614173228346,
          "duration": 0.8108100000000036
        },
        {
          "name": "B3",
          "midi": 59,
          "time": 283.37809500000054,
          "velocity": 0.7086614173228346,
          "duration": 0.8108100000000036
        },
        {
          "name": "E4",
          "midi": 64,
          "time": 283.37809500000054,
          "velocity": 0.7086614173228346,
          "duration": 0.8108100000000036
        },
        {
          "name": "F3",
          "midi": 53,
          "time": 284.18890500000055,
          "velocity": 0.7086614173228346,
          "duration": 0.8108100000000036
        },
        {
          "name": "A3",
          "midi": 57,
          "time": 284.18890500000055,
          "velocity": 0.7086614173228346,
          "duration": 0.4054050000000302
        },
        {
          "name": "C4",
          "midi": 60,
          "time": 284.18890500000055,
          "velocity": 0.8976377952755905,
          "duration": 0.4054050000000302
        },
        {
          "name": "E4",
          "midi": 64,
          "time": 284.19059418750055,
          "velocity": 0.7007874015748031,
          "duration": 1.2179041875000394
        },
        {
          "name": "B3",
          "midi": 59,
          "time": 284.5959991875006,
          "velocity": 0.8976377952755905,
          "duration": 0.13344581249998555
        },
        {
          "name": "C4",
          "midi": 60,
          "time": 284.72944500000057,
          "velocity": 0.7795275590551181,
          "duration": 0.13513499999999112
        },
        {
          "name": "B3",
          "midi": 59,
          "time": 284.86289081250055,
          "velocity": 0.8818897637795275,
          "duration": 0.13344581249998555
        },
        {
          "name": "A3",
          "midi": 57,
          "time": 285.00140418750055,
          "velocity": 0.7086614173228346,
          "duration": 0.4070941875000358
        },
        {
          "name": "A3",
          "midi": 57,
          "time": 285.4034308125006,
          "velocity": 0.7795275590551181,
          "duration": 0.6097966875000225
        },
        {
          "name": "C#4",
          "midi": 61,
          "time": 285.4034308125006,
          "velocity": 0.889763779527559,
          "duration": 0.6097966875000225
        },
        {
          "name": "E4",
          "midi": 64,
          "time": 285.4034308125006,
          "velocity": 0.7086614173228346,
          "duration": 0.6097966875000225
        },
        {
          "name": "E4",
          "midi": 64,
          "time": 286.0115383125006,
          "velocity": 0.7795275590551181,
          "duration": 0.20270249999998668
        },
        {
          "name": "A3",
          "midi": 57,
          "time": 286.0132275000006,
          "velocity": 0.7086614173228346,
          "duration": 0.20439168749999226
        },
        {
          "name": "C#4",
          "midi": 61,
          "time": 286.0132275000006,
          "velocity": 0.8031496062992126,
          "duration": 0.20439168749999226
        },
        {
          "name": "C#4",
          "midi": 61,
          "time": 286.2142408125006,
          "velocity": 0.8976377952755905,
          "duration": 0.40371581250002464
        },
        {
          "name": "A3",
          "midi": 57,
          "time": 286.2159300000006,
          "velocity": 0.7086614173228346,
          "duration": 0.40371581250002464
        },
        {
          "name": "E4",
          "midi": 64,
          "time": 286.2176191875006,
          "velocity": 0.7795275590551181,
          "duration": 0.4054050000000302
        },
        {
          "name": "C4",
          "midi": 60,
          "time": 286.6179566250006,
          "velocity": 0.7795275590551181,
          "duration": 0.6081075000000169
        },
        {
          "name": "G3",
          "midi": 55,
          "time": 286.6196458125006,
          "velocity": 0.7086614173228346,
          "duration": 0.6081075000000169
        },
        {
          "name": "E4",
          "midi": 64,
          "time": 286.6230241875006,
          "velocity": 0.7086614173228346,
          "duration": 0.6081075000000169
        },
        {
          "name": "C4",
          "midi": 60,
          "time": 287.2277533125006,
          "velocity": 0.7795275590551181,
          "duration": 0.20270249999998668
        },
        {
          "name": "E4",
          "midi": 64,
          "time": 287.2277533125006,
          "velocity": 0.7086614173228346,
          "duration": 0.20270249999998668
        },
        {
          "name": "A3",
          "midi": 57,
          "time": 287.23113168750064,
          "velocity": 0.7086614173228346,
          "duration": 0.20270249999998668
        },
        {
          "name": "A3",
          "midi": 57,
          "time": 287.4304558125006,
          "velocity": 0.7795275590551181,
          "duration": 0.8108100000000036
        },
        {
          "name": "C4",
          "midi": 60,
          "time": 287.4304558125006,
          "velocity": 0.7795275590551181,
          "duration": 0.6081075000000169
        },
        {
          "name": "E4",
          "midi": 64,
          "time": 287.4304558125006,
          "velocity": 0.7007874015748031,
          "duration": 0.4054050000000302
        },
        {
          "name": "G4",
          "midi": 67,
          "time": 287.83586081250064,
          "velocity": 0.8976377952755905,
          "duration": 0.20270249999998668
        },
        {
          "name": "E4",
          "midi": 64,
          "time": 288.04194168750064,
          "velocity": 0.7795275590551181,
          "duration": 0.40540499999997337
        },
        {
          "name": "C4",
          "midi": 60,
          "time": 288.24633337500063,
          "velocity": 0.8976377952755905,
          "duration": 0.40371581250002464
        },
        {
          "name": "B3",
          "midi": 59,
          "time": 288.64498162500064,
          "velocity": 0.7795275590551181,
          "duration": 0.6081075000000169
        },
        {
          "name": "D4",
          "midi": 62,
          "time": 288.64498162500064,
          "velocity": 0.7795275590551181,
          "duration": 0.6081075000000169
        },
        {
          "name": "G3",
          "midi": 55,
          "time": 288.65004918750066,
          "velocity": 0.7795275590551181,
          "duration": 0.6081075000000169
        },
        {
          "name": "E4",
          "midi": 64,
          "time": 288.65004918750066,
          "velocity": 0.7795275590551181,
          "duration": 0.6081075000000169
        },
        {
          "name": "D4",
          "midi": 62,
          "time": 289.25308912500066,
          "velocity": 0.7086614173228346,
          "duration": 0.20270250000004353
        },
        {
          "name": "E4",
          "midi": 64,
          "time": 289.25308912500066,
          "velocity": 0.7086614173228346,
          "duration": 0.20270250000004353
        },
        {
          "name": "B3",
          "midi": 59,
          "time": 289.25646750000067,
          "velocity": 0.7086614173228346,
          "duration": 0.20270250000004353
        },
        {
          "name": "G3",
          "midi": 55,
          "time": 289.2581566875007,
          "velocity": 0.7086614173228346,
          "duration": 0.20270250000004353
        },
        {
          "name": "G3",
          "midi": 55,
          "time": 289.4557916250007,
          "velocity": 0.7086614173228346,
          "duration": 0.4054050000000302
        },
        {
          "name": "B3",
          "midi": 59,
          "time": 289.4591700000007,
          "velocity": 0.7086614173228346,
          "duration": 0.40202662500001907
        },
        {
          "name": "D4",
          "midi": 62,
          "time": 289.4591700000007,
          "velocity": 0.7086614173228346,
          "duration": 0.40202662500001907
        },
        {
          "name": "E4",
          "midi": 64,
          "time": 289.4591700000007,
          "velocity": 0.7086614173228346,
          "duration": 0.40202662500001907
        },
        {
          "name": "F3",
          "midi": 53,
          "time": 289.86119662500073,
          "velocity": 0.7086614173228346,
          "duration": 0.6097966875000225
        },
        {
          "name": "A3",
          "midi": 57,
          "time": 289.86119662500073,
          "velocity": 0.7007874015748031,
          "duration": 0.6097966875000225
        },
        {
          "name": "B3",
          "midi": 59,
          "time": 289.86119662500073,
          "velocity": 0.7086614173228346,
          "duration": 0.6097966875000225
        },
        {
          "name": "E4",
          "midi": 64,
          "time": 289.86119662500073,
          "velocity": 0.7086614173228346,
          "duration": 0.6097966875000225
        },
        {
          "name": "F3",
          "midi": 53,
          "time": 290.47099331250075,
          "velocity": 0.7795275590551181,
          "duration": 0.40540499999997337
        },
        {
          "name": "A3",
          "midi": 57,
          "time": 290.47099331250075,
          "velocity": 0.7086614173228346,
          "duration": 0.40540499999997337
        },
        {
          "name": "C4",
          "midi": 60,
          "time": 290.47099331250075,
          "velocity": 0.7795275590551181,
          "duration": 0.40540499999997337
        },
        {
          "name": "E4",
          "midi": 64,
          "time": 290.47099331250075,
          "velocity": 0.7086614173228346,
          "duration": 0.40540499999997337
        },
        {
          "name": "A3",
          "midi": 57,
          "time": 290.8763983125007,
          "velocity": 0.7086614173228346,
          "duration": 0.20270249999998668
        },
        {
          "name": "E4",
          "midi": 64,
          "time": 290.8763983125007,
          "velocity": 0.7007874015748031,
          "duration": 0.20270249999998668
        },
        {
          "name": "F3",
          "midi": 53,
          "time": 290.87977668750074,
          "velocity": 0.7086614173228346,
          "duration": 0.20270249999998668
        },
        {
          "name": "C4",
          "midi": 60,
          "time": 290.87977668750074,
          "velocity": 0.8976377952755905,
          "duration": 0.20270249999998668
        },
        {
          "name": "F3",
          "midi": 53,
          "time": 291.0791008125007,
          "velocity": 0.7795275590551181,
          "duration": 0.8124991875000092
        },
        {
          "name": "A3",
          "midi": 57,
          "time": 291.0791008125007,
          "velocity": 0.7086614173228346,
          "duration": 0.8108100000000036
        },
        {
          "name": "C4",
          "midi": 60,
          "time": 291.0791008125007,
          "velocity": 0.7086614173228346,
          "duration": 0.8108100000000036
        },
        {
          "name": "E4",
          "midi": 64,
          "time": 291.0791008125007,
          "velocity": 0.7086614173228346,
          "duration": 0.8124991875000092
        },
        {
          "name": "A3",
          "midi": 57,
          "time": 291.8916000000007,
          "velocity": 0.7007874015748031,
          "duration": 0.6081075000000169
        },
        {
          "name": "C#4",
          "midi": 61,
          "time": 291.8916000000007,
          "velocity": 0.8740157480314961,
          "duration": 0.6081075000000169
        },
        {
          "name": "E4",
          "midi": 64,
          "time": 291.8916000000007,
          "velocity": 0.7795275590551181,
          "duration": 0.6081075000000169
        },
        {
          "name": "A3",
          "midi": 57,
          "time": 292.49970750000074,
          "velocity": 0.7086614173228346,
          "duration": 0.20270249999998668
        },
        {
          "name": "C#4",
          "midi": 61,
          "time": 292.49970750000074,
          "velocity": 0.7086614173228346,
          "duration": 0.20270249999998668
        },
        {
          "name": "E4",
          "midi": 64,
          "time": 292.49970750000074,
          "velocity": 0.7795275590551181,
          "duration": 0.20270249999998668
        },
        {
          "name": "A3",
          "midi": 57,
          "time": 292.7024100000007,
          "velocity": 0.7795275590551181,
          "duration": 0.40540499999997337
        },
        {
          "name": "C#4",
          "midi": 61,
          "time": 292.7024100000007,
          "velocity": 0.8818897637795275,
          "duration": 0.40540499999997337
        },
        {
          "name": "E4",
          "midi": 64,
          "time": 292.7024100000007,
          "velocity": 0.8818897637795275,
          "duration": 0.40709418749997894
        },
        {
          "name": "C4",
          "midi": 60,
          "time": 293.30713912500073,
          "velocity": 0.7086614173228346,
          "duration": 0.4070941875000358
        },
        {
          "name": "E4",
          "midi": 64,
          "time": 293.31051750000074,
          "velocity": 0.7086614173228346,
          "duration": 0.4054050000000302
        },
        {
          "name": "G3",
          "midi": 55,
          "time": 293.31220668750075,
          "velocity": 0.7086614173228346,
          "duration": 0.40371581250002464
        },
        {
          "name": "E4",
          "midi": 64,
          "time": 293.71423331250077,
          "velocity": 0.7086614173228346,
          "duration": 0.20270249999998668
        },
        {
          "name": "G3",
          "midi": 55,
          "time": 293.7159225000008,
          "velocity": 0.7795275590551181,
          "duration": 0.20270249999998668
        },
        {
          "name": "C4",
          "midi": 60,
          "time": 293.7159225000008,
          "velocity": 0.8976377952755905,
          "duration": 0.20270249999998668
        },
        {
          "name": "G3",
          "midi": 55,
          "time": 293.91862500000076,
          "velocity": 0.7795275590551181,
          "duration": 0.20608087499999783
        },
        {
          "name": "C4",
          "midi": 60,
          "time": 293.91862500000076,
          "velocity": 0.8976377952755905,
          "duration": 0.20270249999998668
        },
        {
          "name": "E4",
          "midi": 64,
          "time": 293.91862500000076,
          "velocity": 0.7795275590551181,
          "duration": 0.20439168749999226
        },
        {
          "name": "C4",
          "midi": 60,
          "time": 294.32403000000073,
          "velocity": 0.8976377952755905,
          "duration": 0.13513499999999112
        },
        {
          "name": "E4",
          "midi": 64,
          "time": 294.32403000000073,
          "velocity": 0.8976377952755905,
          "duration": 0.40540499999997337
        },
        {
          "name": "D4",
          "midi": 62,
          "time": 294.4574758125007,
          "velocity": 0.7795275590551181,
          "duration": 0.13344581249998555
        },
        {
          "name": "C4",
          "midi": 60,
          "time": 294.5959891875007,
          "velocity": 0.7795275590551181,
          "duration": 0.3378374999999778
        },
        {
          "name": "A3",
          "midi": 57,
          "time": 294.7294350000007,
          "velocity": 0.8976377952755905,
          "duration": 0.40202662500001907
        },
        {
          "name": "D4",
          "midi": 62,
          "time": 295.1314616250007,
          "velocity": 0.8976377952755905,
          "duration": 0.6097966875000225
        },
        {
          "name": "E4",
          "midi": 64,
          "time": 295.1314616250007,
          "velocity": 0.7795275590551181,
          "duration": 0.6097966875000225
        },
        {
          "name": "G3",
          "midi": 55,
          "time": 295.13652918750074,
          "velocity": 0.7795275590551181,
          "duration": 0.6081075000000169
        },
        {
          "name": "B3",
          "midi": 59,
          "time": 295.13652918750074,
          "velocity": 0.7086614173228346,
          "duration": 0.6081075000000169
        },
        {
          "name": "D4",
          "midi": 62,
          "time": 295.74125831250075,
          "velocity": 0.8976377952755905,
          "duration": 0.20270249999998668
        },
        {
          "name": "G3",
          "midi": 55,
          "time": 295.94396081250073,
          "velocity": 0.8110236220472441,
          "duration": 0.40540499999997337
        },
        {
          "name": "A3",
          "midi": 57,
          "time": 296.3493658125007,
          "velocity": 0.7795275590551181,
          "duration": 0.8108100000000036
        },
        {
          "name": "E4",
          "midi": 64,
          "time": 296.3493658125007,
          "velocity": 0.7795275590551181,
          "duration": 0.8108100000000036
        },
        {
          "name": "F3",
          "midi": 53,
          "time": 296.3527441875007,
          "velocity": 0.8976377952755905,
          "duration": 0.8108100000000036
        },
        {
          "name": "B3",
          "midi": 59,
          "time": 296.3527441875007,
          "velocity": 0.7086614173228346,
          "duration": 0.8108100000000036
        },
        {
          "name": "F3",
          "midi": 53,
          "time": 297.1601758125007,
          "velocity": 0.7086614173228346,
          "duration": 1.2162150000000338
        },
        {
          "name": "C4",
          "midi": 60,
          "time": 297.1601758125007,
          "velocity": 0.7795275590551181,
          "duration": 1.2162150000000338
        },
        {
          "name": "E4",
          "midi": 64,
          "time": 297.1601758125007,
          "velocity": 0.7007874015748031,
          "duration": 1.2162150000000338
        },
        {
          "name": "A3",
          "midi": 57,
          "time": 297.1635541875007,
          "velocity": 0.7086614173228346,
          "duration": 1.2162150000000338
        },
        {
          "name": "A2",
          "midi": 45,
          "time": 298.37976918750076,
          "velocity": 0.7086614173228346,
          "duration": 3.244929187499963
        },
        {
          "name": "E3",
          "midi": 52,
          "time": 298.47774206250074,
          "velocity": 0.7086614173228346,
          "duration": 3.1401995624999586
        },
        {
          "name": "A3",
          "midi": 57,
          "time": 298.5774041250007,
          "velocity": 0.7795275590551181,
          "duration": 3.040537499999971
        },
        {
          "name": "C#4",
          "midi": 61,
          "time": 298.68382293750074,
          "velocity": 0.8818897637795275,
          "duration": 2.940875437499983
        },
        {
          "name": "E4",
          "midi": 64,
          "time": 298.7817958125007,
          "velocity": 0.7086614173228346,
          "duration": 2.8361458124999785
        }
      ]