[
	{
          "name": "E3",
          "midi": 52,
          "time": 32.4324,
          "velocity": 0.9448818897637795,
          "duration": 0.7854721874999981
        },
        {
          "name": "B3",
          "midi": 59,
          "time": 32.4324,
          "velocity": 0.984251968503937,
          "duration": 0.7854721874999981
        },
        {
          "name": "E4",
          "midi": 64,
          "time": 32.4324,
          "velocity": 0.9606299212598425,
          "duration": 0.7854721874999981
        },
        {
          "name": "G#4",
          "midi": 68,
          "time": 32.4324,
          "velocity": 0.9763779527559056,
          "duration": 0.7854721874999981
        },
        {
          "name": "B2",
          "midi": 47,
          "time": 33.2415208125,
          "velocity": 0.984251968503937,
          "duration": 0.020270249999995826
        },
        {
          "name": "B3",
          "midi": 59,
          "time": 33.2415208125,
          "velocity": 0.9133858267716536,
          "duration": 0.020270249999995826
        },
        {
          "name": "E4",
          "midi": 64,
          "time": 33.2415208125,
          "velocity": 0.9133858267716536,
          "duration": 0.020270249999995826
        },
        {
          "name": "G#4",
          "midi": 68,
          "time": 33.2415208125,
          "velocity": 0.9606299212598425,
          "duration": 0.01689187499999889
        },
        {
          "name": "B2",
          "midi": 47,
          "time": 33.646925812499994,
          "velocity": 0.984251968503937,
          "duration": 1.5962821874999946
        },
        {
          "name": "F#4",
          "midi": 66,
          "time": 33.646925812499994,
          "velocity": 0.952755905511811,
          "duration": 1.5962821874999946
        },
        {
          "name": "B3",
          "midi": 59,
          "time": 33.65030418749999,
          "velocity": 0.9763779527559056,
          "duration": 1.5962821874999946
        },
        {
          "name": "D#4",
          "midi": 63,
          "time": 33.65030418749999,
          "velocity": 0.968503937007874,
          "duration": 1.5962821874999946
        },
        {
          "name": "B2",
          "midi": 47,
          "time": 35.26685662499999,
          "velocity": 0.984251968503937,
          "duration": 0.01689187499999889
        },
        {
          "name": "B3",
          "midi": 59,
          "time": 35.270234999999985,
          "velocity": 0.9133858267716536,
          "duration": 0.01689187499999889
        },
        {
          "name": "F#4",
          "midi": 66,
          "time": 35.270234999999985,
          "velocity": 0.9606299212598425,
          "duration": 0.01689187499999889
        },
        {
          "name": "D#4",
          "midi": 63,
          "time": 35.271924187499984,
          "velocity": 0.9133858267716536,
          "duration": 0.01689187499999889
        },
        {
          "name": "G#3",
          "midi": 56,
          "time": 35.67563999999999,
          "velocity": 0.9212598425196851,
          "duration": 0.5827696874999972
        },
        {
          "name": "C#4",
          "midi": 61,
          "time": 35.677329187499986,
          "velocity": 0.952755905511811,
          "duration": 0.5827696874999972
        },
        {
          "name": "E4",
          "midi": 64,
          "time": 36.282058312499984,
          "velocity": 0.9606299212598425,
          "duration": 0.17736468749999545
        },
        {
          "name": "G#4",
          "midi": 68,
          "time": 36.28374749999998,
          "velocity": 0.9763779527559056,
          "duration": 0.17736468749999545
        },
        {
          "name": "C#4",
          "midi": 61,
          "time": 36.28543668749998,
          "velocity": 0.9763779527559056,
          "duration": 0.17736468749999545
        },
        {
          "name": "F#4",
          "midi": 66,
          "time": 36.888476624999974,
          "velocity": 0.9212598425196851,
          "duration": 0.3817563750000019
        },
        {
          "name": "B2",
          "midi": 47,
          "time": 36.89016581249997,
          "velocity": 0.9448818897637795,
          "duration": 0.3817563750000019
        },
        {
          "name": "B3",
          "midi": 59,
          "time": 36.89016581249997,
          "velocity": 0.984251968503937,
          "duration": 0.3817563750000019
        },
        {
          "name": "D#4",
          "midi": 63,
          "time": 36.89016581249997,
          "velocity": 0.9606299212598425,
          "duration": 0.3817563750000019
        },
        {
          "name": "A2",
          "midi": 45,
          "time": 37.69928662499998,
          "velocity": 0.9606299212598425,
          "duration": 0.38006718749999635
        },
        {
          "name": "C#4",
          "midi": 61,
          "time": 37.69928662499998,
          "velocity": 0.9606299212598425,
          "duration": 0.38006718749999635
        },
        {
          "name": "A3",
          "midi": 57,
          "time": 37.702664999999975,
          "velocity": 0.9448818897637795,
          "duration": 0.38006718749999635
        },
        {
          "name": "E4",
          "midi": 64,
          "time": 37.70435418749997,
          "velocity": 0.9448818897637795,
          "duration": 0.38006718749999635
        },
        {
          "name": "E3",
          "midi": 52,
          "time": 38.91719081249997,
          "velocity": 0.9448818897637795,
          "duration": 0.7854721874999981
        },
        {
          "name": "B3",
          "midi": 59,
          "time": 38.91719081249997,
          "velocity": 0.9133858267716536,
          "duration": 0.7854721874999981
        },
        {
          "name": "G#4",
          "midi": 68,
          "time": 38.91719081249997,
          "velocity": 0.9606299212598425,
          "duration": 0.7854721874999981
        },
        {
          "name": "E4",
          "midi": 64,
          "time": 38.920569187499964,
          "velocity": 0.8818897637795275,
          "duration": 0.7854721874999981
        },
        {
          "name": "E4",
          "midi": 64,
          "time": 39.726311624999965,
          "velocity": 0.9133858267716536,
          "duration": 0.01689187499999889
        },
        {
          "name": "B3",
          "midi": 59,
          "time": 39.72968999999996,
          "velocity": 0.9133858267716536,
          "duration": 0.01689187499999889
        },
        {
          "name": "B2",
          "midi": 47,
          "time": 39.73137918749996,
          "velocity": 0.984251968503937,
          "duration": 0.01689187499999889
        },
        {
          "name": "G#4",
          "midi": 68,
          "time": 39.73137918749996,
          "velocity": 0.9606299212598425,
          "duration": 0.01689187499999889
        },
        {
          "name": "D#4",
          "midi": 63,
          "time": 40.13171662499996,
          "velocity": 0.9921259842519685,
          "duration": 1.5962821874999946
        },
        {
          "name": "B2",
          "midi": 47,
          "time": 40.13340581249996,
          "velocity": 0.968503937007874,
          "duration": 1.5962821874999946
        },
        {
          "name": "B3",
          "midi": 59,
          "time": 40.13340581249996,
          "velocity": 0.968503937007874,
          "duration": 1.5962821874999946
        },
        {
          "name": "F#4",
          "midi": 66,
          "time": 40.13509499999996,
          "velocity": 0.952755905511811,
          "duration": 1.5962821874999946
        },
        {
          "name": "B2",
          "midi": 47,
          "time": 41.75502581249995,
          "velocity": 0.984251968503937,
          "duration": 0.01689187499999889
        },
        {
          "name": "B3",
          "midi": 59,
          "time": 41.75840418749995,
          "velocity": 0.9133858267716536,
          "duration": 0.01689187499999889
        },
        {
          "name": "D#4",
          "midi": 63,
          "time": 41.75840418749995,
          "velocity": 0.9133858267716536,
          "duration": 0.01689187499999889
        },
        {
          "name": "F#4",
          "midi": 66,
          "time": 41.75840418749995,
          "velocity": 0.9606299212598425,
          "duration": 0.01689187499999889
        },
        {
          "name": "C#3",
          "midi": 49,
          "time": 42.162119999999945,
          "velocity": 0.9763779527559056,
          "duration": 0.7854721874999981
        },
        {
          "name": "G#3",
          "midi": 56,
          "time": 42.162119999999945,
          "velocity": 0.9763779527559056,
          "duration": 0.7854721874999981
        },
        {
          "name": "G#4",
          "midi": 68,
          "time": 42.162119999999945,
          "velocity": 0.9763779527559056,
          "duration": 0.7854721874999981
        },
        {
          "name": "C#4",
          "midi": 61,
          "time": 42.16380918749994,
          "velocity": 0.9606299212598425,
          "duration": 0.7854721874999981
        },
        {
          "name": "E4",
          "midi": 64,
          "time": 42.16380918749994,
          "velocity": 0.9763779527559056,
          "duration": 0.7854721874999981
        },
        {
          "name": "A2",
          "midi": 45,
          "time": 43.376645812499945,
          "velocity": 0.9448818897637795,
          "duration": 1.5962821875000017
        },
        {
          "name": "E3",
          "midi": 52,
          "time": 43.376645812499945,
          "velocity": 0.984251968503937,
          "duration": 1.5962821875000017
        },
        {
          "name": "A3",
          "midi": 57,
          "time": 43.376645812499945,
          "velocity": 0.9448818897637795,
          "duration": 1.5962821875000017
        },
        {
          "name": "C#4",
          "midi": 61,
          "time": 43.376645812499945,
          "velocity": 0.9763779527559056,
          "duration": 1.5962821875000017
        },
        {
          "name": "E4",
          "midi": 64,
          "time": 43.376645812499945,
          "velocity": 0.984251968503937,
          "duration": 1.5962821875000017
        },
        {
          "name": "E3",
          "midi": 52,
          "time": 44.998265812499945,
          "velocity": 0.9133858267716536,
          "duration": 0.01689187499999889
        },
        {
          "name": "C#4",
          "midi": 61,
          "time": 44.998265812499945,
          "velocity": 0.8582677165354331,
          "duration": 0.01689187499999889
        },
        {
          "name": "E4",
          "midi": 64,
          "time": 44.998265812499945,
          "velocity": 0.9133858267716536,
          "duration": 0.01689187499999889
        },
        {
          "name": "A2",
          "midi": 45,
          "time": 44.99995499999994,
          "velocity": 0.9133858267716536,
          "duration": 0.01689187499999889
        },
        {
          "name": "A3",
          "midi": 57,
          "time": 44.99995499999994,
          "velocity": 0.8503937007874016,
          "duration": 0.01689187499999889
        },
        {
          "name": "E4",
          "midi": 64,
          "time": 45.405359999999945,
          "velocity": 0.8818897637795275,
          "duration": 0.7854721874999981
        },
        {
          "name": "E3",
          "midi": 52,
          "time": 45.40704918749994,
          "velocity": 0.9448818897637795,
          "duration": 0.7854721874999981
        },
        {
          "name": "B3",
          "midi": 59,
          "time": 45.40704918749994,
          "velocity": 0.9133858267716536,
          "duration": 0.7854721874999981
        },
        {
          "name": "G#4",
          "midi": 68,
          "time": 45.40704918749994,
          "velocity": 0.9606299212598425,
          "duration": 0.7854721874999981
        },
        {
          "name": "E4",
          "midi": 64,
          "time": 46.212791624999944,
          "velocity": 0.9133858267716536,
          "duration": 0.01689187499999889
        },
        {
          "name": "G#4",
          "midi": 68,
          "time": 46.212791624999944,
          "velocity": 0.9606299212598425,
          "duration": 0.01689187499999889
        },
        {
          "name": "B2",
          "midi": 47,
          "time": 46.21616999999994,
          "velocity": 0.984251968503937,
          "duration": 0.01689187499999889
        },
        {
          "name": "B3",
          "midi": 59,
          "time": 46.21785918749994,
          "velocity": 0.9133858267716536,
          "duration": 0.01689187499999889
        },
        {
          "name": "B2",
          "midi": 47,
          "time": 46.61988581249994,
          "velocity": 0.9763779527559056,
          "duration": 1.5962821874999946
        },
        {
          "name": "D#4",
          "midi": 63,
          "time": 46.61988581249994,
          "velocity": 0.984251968503937,
          "duration": 1.5962821874999946
        },
        {
          "name": "F#4",
          "midi": 66,
          "time": 46.61988581249994,
          "velocity": 0.952755905511811,
          "duration": 1.5962821874999946
        },
        {
          "name": "B3",
          "midi": 59,
          "time": 46.623264187499935,
          "velocity": 0.984251968503937,
          "duration": 1.5962821874999946
        },
        {
          "name": "B2",
          "midi": 47,
          "time": 48.23981662499993,
          "velocity": 0.984251968503937,
          "duration": 0.01689187499999889
        },
        {
          "name": "B3",
          "midi": 59,
          "time": 48.23981662499993,
          "velocity": 0.9133858267716536,
          "duration": 0.01689187499999889
        },
        {
          "name": "F#4",
          "midi": 66,
          "time": 48.24319499999993,
          "velocity": 0.9606299212598425,
          "duration": 0.01689187499999889
        },
        {
          "name": "D#4",
          "midi": 63,
          "time": 48.24488418749993,
          "velocity": 0.9133858267716536,
          "duration": 0.01689187499999889
        },
        {
          "name": "C#3",
          "midi": 49,
          "time": 48.646910812499925,
          "velocity": 0.984251968503937,
          "duration": 0.7854721874999981
        },
        {
          "name": "G#3",
          "midi": 56,
          "time": 48.646910812499925,
          "velocity": 0.984251968503937,
          "duration": 0.7854721874999981
        },
        {
          "name": "C#4",
          "midi": 61,
          "time": 48.646910812499925,
          "velocity": 0.968503937007874,
          "duration": 0.7854721874999981
        },
        {
          "name": "E4",
          "midi": 64,
          "time": 48.646910812499925,
          "velocity": 0.9606299212598425,
          "duration": 0.7854721874999981
        },
        {
          "name": "G#4",
          "midi": 68,
          "time": 48.646910812499925,
          "velocity": 0.9763779527559056,
          "duration": 0.7854721874999981
        },
        {
          "name": "C#3",
          "midi": 49,
          "time": 49.45940999999992,
          "velocity": 0.9763779527559056,
          "duration": 0.015202687500000422
        },
        {
          "name": "G#3",
          "midi": 56,
          "time": 49.45940999999992,
          "velocity": 0.9763779527559056,
          "duration": 0.015202687500000422
        },
        {
          "name": "E4",
          "midi": 64,
          "time": 49.45940999999992,
          "velocity": 0.984251968503937,
          "duration": 0.015202687500000422
        },
        {
          "name": "G#4",
          "midi": 68,
          "time": 49.45940999999992,
          "velocity": 0.9606299212598425,
          "duration": 0.015202687500000422
        },
        {
          "name": "C#4",
          "midi": 61,
          "time": 49.46109918749992,
          "velocity": 0.9606299212598425,
          "duration": 0.018581062500004464
        },
        {
          "name": "B2",
          "midi": 47,
          "time": 49.86481499999992,
          "velocity": 0.984251968503937,
          "duration": 0.7837829999999997
        },
        {
          "name": "F#3",
          "midi": 54,
          "time": 49.86481499999992,
          "velocity": 0.9763779527559056,
          "duration": 0.7837829999999997
        },
        {
          "name": "B3",
          "midi": 59,
          "time": 49.86481499999992,
          "velocity": 0.9606299212598425,
          "duration": 0.7837829999999997
        },
        {
          "name": "F#4",
          "midi": 66,
          "time": 49.86481499999992,
          "velocity": 0.952755905511811,
          "duration": 0.7837829999999997
        },
        {
          "name": "D#4",
          "midi": 63,
          "time": 49.86650418749992,
          "velocity": 0.9763779527559056,
          "duration": 0.7871613750000037
        },
        {
          "name": "E4",
          "midi": 64,
          "time": 50.67393581249993,
          "velocity": 0.9448818897637795,
          "duration": 0.7837829999999997
        },
        {
          "name": "A2",
          "midi": 45,
          "time": 50.675624999999926,
          "velocity": 0.9448818897637795,
          "duration": 0.7854721874999981
        },
        {
          "name": "A3",
          "midi": 57,
          "time": 50.675624999999926,
          "velocity": 0.8818897637795275,
          "duration": 0.7854721874999981
        },
        {
          "name": "C#4",
          "midi": 61,
          "time": 50.675624999999926,
          "velocity": 0.9606299212598425,
          "duration": 0.7854721874999981
        },
        {
          "name": "E3",
          "midi": 52,
          "time": 50.677314187499924,
          "velocity": 0.984251968503937,
          "duration": 0.7854721874999981
        },
        {
          "name": "E4",
          "midi": 64,
          "time": 51.483056624999925,
          "velocity": 0.984251968503937,
          "duration": 0.018581062500004464
        },
        {
          "name": "A2",
          "midi": 45,
          "time": 51.48474581249992,
          "velocity": 0.9606299212598425,
          "duration": 0.018581062500004464
        },
        {
          "name": "E3",
          "midi": 52,
          "time": 51.48474581249992,
          "velocity": 0.9606299212598425,
          "duration": 0.018581062500004464
        },
        {
          "name": "C#4",
          "midi": 61,
          "time": 51.48474581249992,
          "velocity": 0.952755905511811,
          "duration": 0.018581062500004464
        },
        {
          "name": "A3",
          "midi": 57,
          "time": 51.489813374999926,
          "velocity": 0.8818897637795275,
          "duration": 0.015202687500000422
        },
        {
          "name": "E3",
          "midi": 52,
          "time": 51.890150812499925,
          "velocity": 0.9448818897637795,
          "duration": 0.7854721874999981
        },
        {
          "name": "B3",
          "midi": 59,
          "time": 51.89352918749992,
          "velocity": 0.9133858267716536,
          "duration": 0.7854721874999981
        },
        {
          "name": "E4",
          "midi": 64,
          "time": 51.89352918749992,
          "velocity": 0.8818897637795275,
          "duration": 0.7854721874999981
        },
        {
          "name": "G#4",
          "midi": 68,
          "time": 51.89352918749992,
          "velocity": 0.9606299212598425,
          "duration": 0.7854721874999981
        },
        {
          "name": "B2",
          "midi": 47,
          "time": 52.69927162499992,
          "velocity": 0.984251968503937,
          "duration": 0.01689187499999889
        },
        {
          "name": "G#4",
          "midi": 68,
          "time": 52.69927162499992,
          "velocity": 0.9606299212598425,
          "duration": 0.01689187499999889
        },
        {
          "name": "E4",
          "midi": 64,
          "time": 52.70264999999992,
          "velocity": 0.9133858267716536,
          "duration": 0.01689187499999889
        },
        {
          "name": "B3",
          "midi": 59,
          "time": 52.70433918749992,
          "velocity": 0.9133858267716536,
          "duration": 0.01689187499999889
        },
        {
          "name": "B2",
          "midi": 47,
          "time": 53.108054999999915,
          "velocity": 0.9763779527559056,
          "duration": 1.5962821875000017
        },
        {
          "name": "B3",
          "midi": 59,
          "time": 53.108054999999915,
          "velocity": 0.9921259842519685,
          "duration": 1.5962821875000017
        },
        {
          "name": "D#4",
          "midi": 63,
          "time": 53.108054999999915,
          "velocity": 0.968503937007874,
          "duration": 1.5962821875000017
        },
        {
          "name": "F#4",
          "midi": 66,
          "time": 53.108054999999915,
          "velocity": 0.952755905511811,
          "duration": 1.5962821875000017
        },
        {
          "name": "B2",
          "midi": 47,
          "time": 54.729674999999915,
          "velocity": 0.984251968503937,
          "duration": 0.01689187499999889
        },
        {
          "name": "B3",
          "midi": 59,
          "time": 54.729674999999915,
          "velocity": 0.9133858267716536,
          "duration": 0.01689187499999889
        },
        {
          "name": "D#4",
          "midi": 63,
          "time": 54.729674999999915,
          "velocity": 0.9133858267716536,
          "duration": 0.01689187499999889
        },
        {
          "name": "F#4",
          "midi": 66,
          "time": 54.729674999999915,
          "velocity": 0.9606299212598425,
          "duration": 0.01689187499999889
        },
        {
          "name": "C#3",
          "midi": 49,
          "time": 55.13507999999992,
          "velocity": 0.9763779527559056,
          "duration": 0.7854721874999981
        },
        {
          "name": "G#3",
          "midi": 56,
          "time": 55.13507999999992,
          "velocity": 0.9763779527559056,
          "duration": 0.7854721874999981
        },
        {
          "name": "C#4",
          "midi": 61,
          "time": 55.13507999999992,
          "velocity": 0.9763779527559056,
          "duration": 0.7854721874999981
        },
        {
          "name": "E4",
          "midi": 64,
          "time": 55.13507999999992,
          "velocity": 0.9921259842519685,
          "duration": 0.7854721874999981
        },
        {
          "name": "G#4",
          "midi": 68,
          "time": 55.13507999999992,
          "velocity": 0.9763779527559056,
          "duration": 0.7854721874999981
        },
        {
          "name": "A3",
          "midi": 57,
          "time": 56.351294999999915,
          "velocity": 0.9448818897637795,
          "duration": 1.5962821875000017
        },
        {
          "name": "E4",
          "midi": 64,
          "time": 56.351294999999915,
          "velocity": 0.984251968503937,
          "duration": 1.5962821875000017
        },
        {
          "name": "A2",
          "midi": 45,
          "time": 56.352984187499914,
          "velocity": 0.9448818897637795,
          "duration": 1.5962821875000017
        },
        {
          "name": "E3",
          "midi": 52,
          "time": 56.352984187499914,
          "velocity": 0.984251968503937,
          "duration": 1.5962821875000017
        },
        {
          "name": "C#4",
          "midi": 61,
          "time": 56.352984187499914,
          "velocity": 0.9763779527559056,
          "duration": 1.5962821875000017
        },
        {
          "name": "E3",
          "midi": 52,
          "time": 57.97122581249992,
          "velocity": 0.9133858267716536,
          "duration": 0.01689187499999889
        },
        {
          "name": "A3",
          "midi": 57,
          "time": 57.97122581249992,
          "velocity": 0.8503937007874016,
          "duration": 0.01689187499999889
        },
        {
          "name": "C#4",
          "midi": 61,
          "time": 57.97122581249992,
          "velocity": 0.8582677165354331,
          "duration": 0.01689187499999889
        },
        {
          "name": "A2",
          "midi": 45,
          "time": 57.974604187499914,
          "velocity": 0.9133858267716536,
          "duration": 0.01689187499999889
        },
        {
          "name": "E4",
          "midi": 64,
          "time": 57.974604187499914,
          "velocity": 0.9133858267716536,
          "duration": 0.01689187499999889
        },
        {
          "name": "E3",
          "midi": 52,
          "time": 58.37494162499991,
          "velocity": 0.9606299212598425,
          "duration": 4.054049999999997
        },
        {
          "name": "B3",
          "midi": 59,
          "time": 58.37663081249991,
          "velocity": 0.968503937007874,
          "duration": 4.052360812499998
        },
        {
          "name": "D#4",
          "midi": 63,
          "time": 58.37663081249991,
          "velocity": 0.968503937007874,
          "duration": 4.052360812499998
        },
        {
          "name": "G#4",
          "midi": 68,
          "time": 58.37663081249991,
          "velocity": 0.9606299212598425,
          "duration": 4.052360812499998
        },
        {
          "name": "E3",
          "midi": 52,
          "time": 64.8614216249999,
          "velocity": 1,
          "duration": 0.5878372500000069
        },
        {
          "name": "B3",
          "midi": 59,
          "time": 64.8614216249999,
          "velocity": 0.905511811023622,
          "duration": 0.5878372500000069
        },
        {
          "name": "E4",
          "midi": 64,
          "time": 64.8614216249999,
          "velocity": 0.905511811023622,
          "duration": 0.5878372500000069
        },
        {
          "name": "G#4",
          "midi": 68,
          "time": 64.8614216249999,
          "velocity": 0.9606299212598425,
          "duration": 0.5878372500000069
        },
        {
          "name": "E3",
          "midi": 52,
          "time": 65.47121831249991,
          "velocity": 1,
          "duration": 0.1807430624999995
        },
        {
          "name": "B3",
          "midi": 59,
          "time": 65.47121831249991,
          "velocity": 0.9448818897637795,
          "duration": 0.1807430624999995
        },
        {
          "name": "G#4",
          "midi": 68,
          "time": 65.47121831249991,
          "velocity": 1,
          "duration": 0.1807430624999995
        },
        {
          "name": "E4",
          "midi": 64,
          "time": 65.47459668749991,
          "velocity": 1,
          "duration": 0.1807430624999995
        },
        {
          "name": "F#3",
          "midi": 54,
          "time": 66.07932581249992,
          "velocity": 0.9606299212598425,
          "duration": 0.5861480625000013
        },
        {
          "name": "B2",
          "midi": 47,
          "time": 66.08101499999992,
          "velocity": 0.8818897637795275,
          "duration": 0.5861480625000013
        },
        {
          "name": "B3",
          "midi": 59,
          "time": 66.08101499999992,
          "velocity": 0.9448818897637795,
          "duration": 0.5861480625000013
        },
        {
          "name": "D#4",
          "midi": 63,
          "time": 66.08101499999992,
          "velocity": 0.9606299212598425,
          "duration": 0.5861480625000013
        },
        {
          "name": "F#4",
          "midi": 66,
          "time": 66.08101499999992,
          "velocity": 0.9133858267716536,
          "duration": 0.5861480625000013
        },
        {
          "name": "F#4",
          "midi": 66,
          "time": 66.68912249999993,
          "velocity": 0.8818897637795275,
          "duration": 0.3834455625000004
        },
        {
          "name": "D#4",
          "midi": 63,
          "time": 66.69081168749993,
          "velocity": 1,
          "duration": 0.3834455625000004
        },
        {
          "name": "F#3",
          "midi": 54,
          "time": 67.09621668749993,
          "velocity": 0.9606299212598425,
          "duration": 0.5861480625000155
        },
        {
          "name": "D#4",
          "midi": 63,
          "time": 67.29554081249994,
          "velocity": 1,
          "duration": 0.11317556250000393
        },
        {
          "name": "F#4",
          "midi": 66,
          "time": 67.29722999999994,
          "velocity": 1,
          "duration": 0.3834455625000004
        },
        {
          "name": "E4",
          "midi": 64,
          "time": 67.42898662499994,
          "velocity": 0.952755905511811,
          "duration": 0.11317556250000393
        },
        {
          "name": "D#4",
          "midi": 63,
          "time": 67.56412162499994,
          "velocity": 1,
          "duration": 0.11317556250000393
        },
        {
          "name": "B3",
          "midi": 59,
          "time": 67.70094581249995,
          "velocity": 1,
          "duration": 0.3834455625000004
        },
        {
          "name": "D#4",
          "midi": 63,
          "time": 67.90702668749995,
          "velocity": 1,
          "duration": 0.1807430624999995
        },
        {
          "name": "C#4",
          "midi": 61,
          "time": 68.10466162499995,
          "velocity": 0.9606299212598425,
          "duration": 0.3834455624999862
        },
        {
          "name": "G#3",
          "midi": 56,
          "time": 68.10803999999995,
          "velocity": 1,
          "duration": 0.3834455624999862
        },
        {
          "name": "C#4",
          "midi": 61,
          "time": 68.51175581249993,
          "velocity": 0.952755905511811,
          "duration": 0.1807430624999995
        },
        {
          "name": "E4",
          "midi": 64,
          "time": 68.51344499999993,
          "velocity": 0.9448818897637795,
          "duration": 0.1807430624999995
        },
        {
          "name": "G#4",
          "midi": 68,
          "time": 68.51344499999993,
          "velocity": 1,
          "duration": 0.1807430624999995
        },
        {
          "name": "C#4",
          "midi": 61,
          "time": 68.71783668749994,
          "velocity": 1,
          "duration": 0.1807430624999995
        },
        {
          "name": "G#3",
          "midi": 56,
          "time": 68.71952587499995,
          "velocity": 1,
          "duration": 0.1807430624999995
        },
        {
          "name": "G#4",
          "midi": 68,
          "time": 68.91716081249994,
          "velocity": 1,
          "duration": 0.38175637500000903
        },
        {
          "name": "C#4",
          "midi": 61,
          "time": 68.91884999999995,
          "velocity": 1,
          "duration": 0.3834455625000004
        },
        {
          "name": "E4",
          "midi": 64,
          "time": 68.92053918749995,
          "velocity": 1,
          "duration": 0.3834455625000004
        },
        {
          "name": "B3",
          "midi": 59,
          "time": 69.32256581249996,
          "velocity": 0.952755905511811,
          "duration": 0.3834455625000004
        },
        {
          "name": "F#4",
          "midi": 66,
          "time": 69.32256581249996,
          "velocity": 0.8818897637795275,
          "duration": 0.3834455625000004
        },
        {
          "name": "F#3",
          "midi": 54,
          "time": 69.32594418749996,
          "velocity": 1,
          "duration": 0.3834455625000004
        },
        {
          "name": "D#4",
          "midi": 63,
          "time": 69.32594418749996,
          "velocity": 0.9606299212598425,
          "duration": 0.3834455625000004
        },
        {
          "name": "C#4",
          "midi": 61,
          "time": 70.13337581249996,
          "velocity": 0.9133858267716536,
          "duration": 0.3834455625000146
        },
        {
          "name": "E3",
          "midi": 52,
          "time": 70.13506499999997,
          "velocity": 0.9448818897637795,
          "duration": 0.3834455625000146
        },
        {
          "name": "A3",
          "midi": 57,
          "time": 70.13675418749997,
          "velocity": 0.889763779527559,
          "duration": 0.3834455625000146
        },
        {
          "name": "E4",
          "midi": 64,
          "time": 70.13675418749997,
          "velocity": 0.8740157480314961,
          "duration": 0.3834455625000146
        },
        {
          "name": "A4",
          "midi": 69,
          "time": 70.54046999999998,
          "velocity": 0.9448818897637795,
          "duration": 0.11317556250000393
        },
        {
          "name": "B4",
          "midi": 71,
          "time": 70.672226625,
          "velocity": 1,
          "duration": 0.11317556250000393
        },
        {
          "name": "A4",
          "midi": 69,
          "time": 70.8090508125,
          "velocity": 1,
          "duration": 0.31587806250000483
        },
        {
          "name": "E4",
          "midi": 64,
          "time": 70.94418581250001,
          "velocity": 1,
          "duration": 0.3834455625000004
        },
        {
          "name": "C#4",
          "midi": 61,
          "time": 70.9475641875,
          "velocity": 1,
          "duration": 0.3834455625000004
        },
        {
          "name": "E3",
          "midi": 52,
          "time": 71.34959081250001,
          "velocity": 1,
          "duration": 0.5861480625000013
        },
        {
          "name": "G#4",
          "midi": 68,
          "time": 71.34959081250001,
          "velocity": 0.9606299212598425,
          "duration": 0.5861480625000013
        },
        {
          "name": "B3",
          "midi": 59,
          "time": 71.35128000000002,
          "velocity": 0.905511811023622,
          "duration": 0.5861480625000013
        },
        {
          "name": "E4",
          "midi": 64,
          "time": 71.35128000000002,
          "velocity": 0.905511811023622,
          "duration": 0.5861480625000013
        },
        {
          "name": "E3",
          "midi": 52,
          "time": 71.95769831250001,
          "velocity": 1,
          "duration": 0.1807430625000137
        },
        {
          "name": "B3",
          "midi": 59,
          "time": 71.95769831250001,
          "velocity": 0.9448818897637795,
          "duration": 0.1807430625000137
        },
        {
          "name": "E4",
          "midi": 64,
          "time": 71.95938750000002,
          "velocity": 1,
          "duration": 0.1807430625000137
        },
        {
          "name": "G#4",
          "midi": 68,
          "time": 71.96107668750003,
          "velocity": 1,
          "duration": 0.1807430625000137
        },
        {
          "name": "B2",
          "midi": 47,
          "time": 72.56580581250005,
          "velocity": 0.889763779527559,
          "duration": 0.5861480625000155
        },
        {
          "name": "F#3",
          "midi": 54,
          "time": 72.56580581250005,
          "velocity": 0.9606299212598425,
          "duration": 0.5861480625000155
        },
        {
          "name": "D#4",
          "midi": 63,
          "time": 72.56580581250005,
          "velocity": 0.9606299212598425,
          "duration": 0.5861480625000155
        },
        {
          "name": "B3",
          "midi": 59,
          "time": 72.56749500000005,
          "velocity": 0.905511811023622,
          "duration": 0.5861480625000155
        },
        {
          "name": "F#4",
          "midi": 66,
          "time": 72.56918418750006,
          "velocity": 0.889763779527559,
          "duration": 0.5861480625000155
        },
        {
          "name": "D#4",
          "midi": 63,
          "time": 73.17391331250008,
          "velocity": 1,
          "duration": 0.3834455625000004
        },
        {
          "name": "F#4",
          "midi": 66,
          "time": 73.17560250000008,
          "velocity": 0.8818897637795275,
          "duration": 0.3834455625000004
        },
        {
          "name": "F#3",
          "midi": 54,
          "time": 73.57931831250008,
          "velocity": 0.9606299212598425,
          "duration": 0.5844588750000099
        },
        {
          "name": "D#4",
          "midi": 63,
          "time": 73.78202081250008,
          "velocity": 1,
          "duration": 0.1148647499999953
        },
        {
          "name": "F#4",
          "midi": 66,
          "time": 73.78202081250008,
          "velocity": 1,
          "duration": 0.38175637500000903
        },
        {
          "name": "E4",
          "midi": 64,
          "time": 73.92053418750008,
          "velocity": 0.905511811023622,
          "duration": 0.11317556250000393
        },
        {
          "name": "D#4",
          "midi": 63,
          "time": 74.05060162500008,
          "velocity": 1,
          "duration": 0.11317556250000393
        },
        {
          "name": "B3",
          "midi": 59,
          "time": 74.19249337500008,
          "velocity": 1,
          "duration": 0.38175637500000903
        },
        {
          "name": "D#4",
          "midi": 63,
          "time": 74.39181750000009,
          "velocity": 1,
          "duration": 0.1807430624999995
        },
        {
          "name": "G#3",
          "midi": 56,
          "time": 74.59452000000009,
          "velocity": 1,
          "duration": 0.3834455625000004
        },
        {
          "name": "C#4",
          "midi": 61,
          "time": 74.59452000000009,
          "velocity": 0.9606299212598425,
          "duration": 0.38513475000000597
        },
        {
          "name": "G#4",
          "midi": 68,
          "time": 74.99992500000009,
          "velocity": 1,
          "duration": 0.1807430624999995
        },
        {
          "name": "C#4",
          "midi": 61,
          "time": 75.0016141875001,
          "velocity": 0.9133858267716536,
          "duration": 0.1807430624999995
        },
        {
          "name": "E4",
          "midi": 64,
          "time": 75.0016141875001,
          "velocity": 0.9448818897637795,
          "duration": 0.1807430624999995
        },
        {
          "name": "G#3",
          "midi": 56,
          "time": 75.20262750000009,
          "velocity": 1,
          "duration": 0.1807430624999995
        },
        {
          "name": "C#4",
          "midi": 61,
          "time": 75.20262750000009,
          "velocity": 1,
          "duration": 0.1807430624999995
        },
        {
          "name": "C#4",
          "midi": 61,
          "time": 75.4019516250001,
          "velocity": 1,
          "duration": 0.1807430624999995
        },
        {
          "name": "E4",
          "midi": 64,
          "time": 75.4019516250001,
          "velocity": 1,
          "duration": 0.1807430624999995
        },
        {
          "name": "G#4",
          "midi": 68,
          "time": 75.4019516250001,
          "velocity": 1,
          "duration": 0.1807430624999995
        },
        {
          "name": "E3",
          "midi": 52,
          "time": 75.8124241875001,
          "velocity": 1,
          "duration": 1.3952688750000135
        },
        {
          "name": "A3",
          "midi": 57,
          "time": 75.8124241875001,
          "velocity": 0.8582677165354331,
          "duration": 1.3952688750000135
        },
        {
          "name": "C#4",
          "midi": 61,
          "time": 75.8124241875001,
          "velocity": 0.9606299212598425,
          "duration": 0.7871613750000108
        },
        {
          "name": "E4",
          "midi": 64,
          "time": 75.8141133750001,
          "velocity": 0.8818897637795275,
          "duration": 0.7871613750000108
        },
        {
          "name": "A4",
          "midi": 69,
          "time": 76.61985581250012,
          "velocity": 1,
          "duration": 1.1942555624999898
        },
        {
          "name": "E4",
          "midi": 64,
          "time": 77.02695000000011,
          "velocity": 0.9921259842519685,
          "duration": 0.7888505625000022
        },
        {
          "name": "C#4",
          "midi": 61,
          "time": 77.43235500000011,
          "velocity": 1,
          "duration": 0.38513475000000597
        },
        {
          "name": "E3",
          "midi": 52,
          "time": 77.83776000000012,
          "velocity": 1,
          "duration": 0.5861480625000013
        },
        {
          "name": "B3",
          "midi": 59,
          "time": 77.83776000000012,
          "velocity": 0.905511811023622,
          "duration": 0.5861480625000013
        },
        {
          "name": "E4",
          "midi": 64,
          "time": 77.83776000000012,
          "velocity": 0.905511811023622,
          "duration": 0.5861480625000013
        },
        {
          "name": "G#4",
          "midi": 68,
          "time": 77.83776000000012,
          "velocity": 0.9606299212598425,
          "duration": 0.5861480625000013
        },
        {
          "name": "B3",
          "midi": 59,
          "time": 78.44248912500012,
          "velocity": 0.9448818897637795,
          "duration": 0.18243224999999086
        },
        {
          "name": "G#4",
          "midi": 68,
          "time": 78.44248912500012,
          "velocity": 1,
          "duration": 0.18243224999999086
        },
        {
          "name": "E3",
          "midi": 52,
          "time": 78.44586750000012,
          "velocity": 1,
          "duration": 0.18243224999999086
        },
        {
          "name": "E4",
          "midi": 64,
          "time": 78.44586750000012,
          "velocity": 1,
          "duration": 0.18243224999999086
        },
        {
          "name": "B2",
          "midi": 47,
          "time": 79.05059662500011,
          "velocity": 0.905511811023622,
          "duration": 0.5861480625000013
        },
        {
          "name": "F#3",
          "midi": 54,
          "time": 79.05059662500011,
          "velocity": 0.9606299212598425,
          "duration": 0.5861480625000013
        },
        {
          "name": "B3",
          "midi": 59,
          "time": 79.05059662500011,
          "velocity": 0.905511811023622,
          "duration": 0.5861480625000013
        },
        {
          "name": "D#4",
          "midi": 63,
          "time": 79.05059662500011,
          "velocity": 0.9606299212598425,
          "duration": 0.5861480625000013
        },
        {
          "name": "F#4",
          "midi": 66,
          "time": 79.05059662500011,
          "velocity": 0.9133858267716536,
          "duration": 0.5861480625000013
        },
        {
          "name": "F#4",
          "midi": 66,
          "time": 79.66039331250012,
          "velocity": 0.8818897637795275,
          "duration": 0.3817563749999948
        },
        {
          "name": "D#4",
          "midi": 63,
          "time": 79.66377168750012,
          "velocity": 1,
          "duration": 0.3834455625000004
        },
        {
          "name": "F#3",
          "midi": 54,
          "time": 80.06917668750012,
          "velocity": 0.9606299212598425,
          "duration": 0.5861480625000155
        },
        {
          "name": "F#4",
          "midi": 66,
          "time": 80.26850081250012,
          "velocity": 1,
          "duration": 0.38513475000000597
        },
        {
          "name": "D#4",
          "midi": 63,
          "time": 80.27187918750012,
          "velocity": 1,
          "duration": 0.11317556250000393
        },
        {
          "name": "E4",
          "midi": 64,
          "time": 80.40363581250013,
          "velocity": 0.905511811023622,
          "duration": 0.11317556250000393
        },
        {
          "name": "D#4",
          "midi": 63,
          "time": 80.53708162500013,
          "velocity": 1,
          "duration": 0.11317556250000393
        },
        {
          "name": "B3",
          "midi": 59,
          "time": 80.67559500000013,
          "velocity": 1,
          "duration": 0.3834455625000004
        },
        {
          "name": "D#4",
          "midi": 63,
          "time": 80.87998668750014,
          "velocity": 1,
          "duration": 0.1807430624999995
        },
        {
          "name": "G#3",
          "midi": 56,
          "time": 81.08100000000013,
          "velocity": 1,
          "duration": 0.3834455625000004
        },
        {
          "name": "C#4",
          "midi": 61,
          "time": 81.08100000000013,
          "velocity": 0.9606299212598425,
          "duration": 0.3834455625000004
        },
        {
          "name": "C#4",
          "midi": 61,
          "time": 81.48471581250013,
          "velocity": 0.9133858267716536,
          "duration": 0.1807430624999995
        },
        {
          "name": "E4",
          "midi": 64,
          "time": 81.48471581250013,
          "velocity": 0.9448818897637795,
          "duration": 0.1807430624999995
        },
        {
          "name": "G#4",
          "midi": 68,
          "time": 81.48471581250013,
          "velocity": 1,
          "duration": 0.1807430624999995
        },
        {
          "name": "G#3",
          "midi": 56,
          "time": 81.68741831250013,
          "velocity": 1,
          "duration": 0.17905387499999392
        },
        {
          "name": "C#4",
          "midi": 61,
          "time": 81.69079668750013,
          "velocity": 1,
          "duration": 0.1807430624999995
        },
        {
          "name": "C#4",
          "midi": 61,
          "time": 81.88843162500012,
          "velocity": 1,
          "duration": 0.3834455625000004
        },
        {
          "name": "G#4",
          "midi": 68,
          "time": 81.89181000000012,
          "velocity": 1,
          "duration": 0.3834455625000004
        },
        {
          "name": "E4",
          "midi": 64,
          "time": 81.89349918750013,
          "velocity": 1,
          "duration": 0.3834455625000004
        },
        {
          "name": "D#4",
          "midi": 63,
          "time": 82.29552581250013,
          "velocity": 0.9606299212598425,
          "duration": 0.3834455625000004
        },
        {
          "name": "F#3",
          "midi": 54,
          "time": 82.29721500000014,
          "velocity": 1,
          "duration": 0.3834455625000004
        },
        {
          "name": "B3",
          "midi": 59,
          "time": 82.29721500000014,
          "velocity": 0.8976377952755905,
          "duration": 0.3834455625000004
        },
        {
          "name": "F#4",
          "midi": 66,
          "time": 82.29721500000014,
          "velocity": 0.8818897637795275,
          "duration": 0.3834455625000004
        },
        {
          "name": "E3",
          "midi": 52,
          "time": 83.10633581250013,
          "velocity": 0.9448818897637795,
          "duration": 0.38513475000000597
        },
        {
          "name": "A3",
          "midi": 57,
          "time": 83.10633581250013,
          "velocity": 0.9133858267716536,
          "duration": 0.38513475000000597
        },
        {
          "name": "C#4",
          "midi": 61,
          "time": 83.10633581250013,
          "velocity": 0.9133858267716536,
          "duration": 0.38513475000000597
        },
        {
          "name": "E4",
          "midi": 64,
          "time": 83.11140337500014,
          "velocity": 0.8740157480314961,
          "duration": 0.38175637500000903
        },
        {
          "name": "A4",
          "midi": 69,
          "time": 83.51343000000014,
          "velocity": 0.9448818897637795,
          "duration": 0.11317556250000393
        },
        {
          "name": "B4",
          "midi": 71,
          "time": 83.64518662500015,
          "velocity": 1,
          "duration": 0.11317556250000393
        },
        {
          "name": "A4",
          "midi": 69,
          "time": 83.78201081250016,
          "velocity": 1,
          "duration": 0.31587806250000483
        },
        {
          "name": "C#4",
          "midi": 61,
          "time": 83.91714581250017,
          "velocity": 1,
          "duration": 0.3834455625000004
        },
        {
          "name": "E4",
          "midi": 64,
          "time": 83.91714581250017,
          "velocity": 1,
          "duration": 0.3834455625000004
        },
        {
          "name": "E4",
          "midi": 64,
          "time": 84.32086162500016,
          "velocity": 0.905511811023622,
          "duration": 0.5861480625000013
        },
        {
          "name": "G#4",
          "midi": 68,
          "time": 84.32086162500016,
          "velocity": 0.9606299212598425,
          "duration": 0.5861480625000013
        },
        {
          "name": "B3",
          "midi": 59,
          "time": 84.32424000000016,
          "velocity": 0.905511811023622,
          "duration": 0.5861480625000013
        },
        {
          "name": "E3",
          "midi": 52,
          "time": 84.32592918750017,
          "velocity": 1,
          "duration": 0.5861480625000013
        },
        {
          "name": "E3",
          "midi": 52,
          "time": 84.93065831250017,
          "velocity": 1,
          "duration": 0.1807430624999995
        },
        {
          "name": "B3",
          "midi": 59,
          "time": 84.93065831250017,
          "velocity": 0.9448818897637795,
          "duration": 0.1807430624999995
        },
        {
          "name": "E4",
          "midi": 64,
          "time": 84.93065831250017,
          "velocity": 1,
          "duration": 0.1807430624999995
        },
        {
          "name": "G#4",
          "midi": 68,
          "time": 84.93065831250017,
          "velocity": 1,
          "duration": 0.1807430624999995
        },
        {
          "name": "F#3",
          "midi": 54,
          "time": 85.53876581250017,
          "velocity": 1,
          "duration": 0.5861480625000013
        },
        {
          "name": "F#4",
          "midi": 66,
          "time": 86.14518412500017,
          "velocity": 0.984251968503937,
          "duration": 0.3834455625000004
        },
        {
          "name": "F#3",
          "midi": 54,
          "time": 86.55227831250018,
          "velocity": 1,
          "duration": 0.1807430624999995
        },
        {
          "name": "D#4",
          "midi": 63,
          "time": 86.75667000000018,
          "velocity": 1,
          "duration": 0.3834455625000004
        },
        {
          "name": "F#4",
          "midi": 66,
          "time": 86.75667000000018,
          "velocity": 1,
          "duration": 0.3834455625000004
        },
        {
          "name": "D#4",
          "midi": 63,
          "time": 87.16207500000019,
          "velocity": 1,
          "duration": 0.3834455625000004
        },
        {
          "name": "B3",
          "midi": 59,
          "time": 87.16376418750019,
          "velocity": 1,
          "duration": 0.3834455625000004
        },
        {
          "name": "G#3",
          "midi": 56,
          "time": 87.56748000000019,
          "velocity": 1,
          "duration": 0.5861480625000013
        },
        {
          "name": "C#4",
          "midi": 61,
          "time": 87.56748000000019,
          "velocity": 0.9606299212598425,
          "duration": 0.5861480625000013
        },
        {
          "name": "G#4",
          "midi": 68,
          "time": 88.17389831250019,
          "velocity": 1,
          "duration": 0.1807430625000137
        },
        {
          "name": "E4",
          "midi": 64,
          "time": 88.17558750000019,
          "velocity": 0.9448818897637795,
          "duration": 0.1807430625000137
        },
        {
          "name": "C#4",
          "midi": 61,
          "time": 88.1772766875002,
          "velocity": 0.9133858267716536,
          "duration": 0.1807430625000137
        },
        {
          "name": "E3",
          "midi": 52,
          "time": 88.78369500000021,
          "velocity": 1,
          "duration": 1.194255562500004
        },
        {
          "name": "A2",
          "midi": 45,
          "time": 88.78538418750021,
          "velocity": 1,
          "duration": 1.194255562500004
        },
        {
          "name": "A3",
          "midi": 57,
          "time": 88.78538418750021,
          "velocity": 0.9133858267716536,
          "duration": 1.194255562500004
        },
        {
          "name": "C#4",
          "midi": 61,
          "time": 88.78538418750021,
          "velocity": 0.9606299212598425,
          "duration": 0.9915530625000031
        },
        {
          "name": "E4",
          "midi": 64,
          "time": 88.78538418750021,
          "velocity": 0.8818897637795275,
          "duration": 0.9915530625000031
        },
        {
          "name": "A4",
          "midi": 69,
          "time": 89.59619418750022,
          "velocity": 1,
          "duration": 0.7888505625000022
        },
        {
          "name": "E4",
          "midi": 64,
          "time": 89.99822081250022,
          "velocity": 0.9921259842519685,
          "duration": 0.3834455625000004
        },
        {
          "name": "E3",
          "midi": 52,
          "time": 90.81072000000022,
          "velocity": 1,
          "duration": 0.7888505625000022
        },
        {
          "name": "D#4",
          "midi": 63,
          "time": 90.81072000000022,
          "velocity": 0.9133858267716536,
          "duration": 4.032090562500002
        },
        {
          "name": "G#4",
          "midi": 68,
          "time": 90.81072000000022,
          "velocity": 0.9133858267716536,
          "duration": 4.032090562500002
        },
        {
          "name": "B3",
          "midi": 59,
          "time": 90.81240918750022,
          "velocity": 0.8740157480314961,
          "duration": 4.032090562500002
        },
        {
          "name": "E3",
          "midi": 52,
          "time": 91.62153000000022,
          "velocity": 0.952755905511811,
          "duration": 3.2212805624999987
        },
        {
          "name": "F#3",
          "midi": 54,
          "time": 97.70091581250023,
          "velocity": 1,
          "duration": 0.38006718750000346
        },
        {
          "name": "C#4",
          "midi": 61,
          "time": 97.70091581250023,
          "velocity": 1,
          "duration": 0.38006718750000346
        },
        {
          "name": "F#4",
          "midi": 66,
          "time": 97.70091581250023,
          "velocity": 1,
          "duration": 0.38006718750000346
        },
        {
          "name": "A4",
          "midi": 69,
          "time": 97.70091581250023,
          "velocity": 1,
          "duration": 0.38175637500000903
        },
        {
          "name": "E4",
          "midi": 64,
          "time": 98.51003662500024,
          "velocity": 1,
          "duration": 0.38006718750000346
        },
        {
          "name": "G#4",
          "midi": 68,
          "time": 98.51003662500024,
          "velocity": 1,
          "duration": 0.38006718750000346
        },
        {
          "name": "B3",
          "midi": 59,
          "time": 98.51172581250025,
          "velocity": 1,
          "duration": 0.38006718750000346
        },
        {
          "name": "E3",
          "midi": 52,
          "time": 98.51510418750024,
          "velocity": 1,
          "duration": 0.38006718750000346
        },
        {
          "name": "B3",
          "midi": 59,
          "time": 98.91544162500024,
          "velocity": 1,
          "duration": 0.7888505625000022
        },
        {
          "name": "E4",
          "midi": 64,
          "time": 98.91544162500024,
          "velocity": 1,
          "duration": 0.7871613749999966
        },
        {
          "name": "G#4",
          "midi": 68,
          "time": 98.91544162500024,
          "velocity": 1,
          "duration": 0.7888505625000022
        },
        {
          "name": "E3",
          "midi": 52,
          "time": 98.92050918750024,
          "velocity": 1,
          "duration": 0.7854721875000052
        },
        {
          "name": "G#4",
          "midi": 68,
          "time": 99.72625162500024,
          "velocity": 1,
          "duration": 0.38006718750000346
        },
        {
          "name": "E3",
          "midi": 52,
          "time": 99.72963000000024,
          "velocity": 1,
          "duration": 0.38006718750000346
        },
        {
          "name": "B3",
          "midi": 59,
          "time": 99.72963000000024,
          "velocity": 1,
          "duration": 0.38006718750000346
        },
        {
          "name": "E4",
          "midi": 64,
          "time": 99.72963000000024,
          "velocity": 1,
          "duration": 0.38006718750000346
        },
        {
          "name": "B3",
          "midi": 59,
          "time": 100.53706162500025,
          "velocity": 1,
          "duration": 0.17736468750000256
        },
        {
          "name": "F#4",
          "midi": 66,
          "time": 100.54044000000025,
          "velocity": 1,
          "duration": 0.17736468750000256
        },
        {
          "name": "D#5",
          "midi": 75,
          "time": 100.54044000000025,
          "velocity": 1,
          "duration": 0.17736468750000256
        },
        {
          "name": "B4",
          "midi": 71,
          "time": 100.54212918750025,
          "velocity": 1,
          "duration": 0.17736468750000256
        },
        {
          "name": "F#4",
          "midi": 66,
          "time": 100.74145331250025,
          "velocity": 1,
          "duration": 0.17905387500000813
        },
        {
          "name": "B3",
          "midi": 59,
          "time": 100.74314250000026,
          "velocity": 1,
          "duration": 0.17905387500000813
        },
        {
          "name": "B4",
          "midi": 71,
          "time": 100.74314250000026,
          "velocity": 1,
          "duration": 0.17905387500000813
        },
        {
          "name": "D#5",
          "midi": 75,
          "time": 100.74314250000026,
          "velocity": 1,
          "duration": 0.17905387500000813
        },
        {
          "name": "B3",
          "midi": 59,
          "time": 100.94415581250027,
          "velocity": 1,
          "duration": 0.17736468750000256
        },
        {
          "name": "F#4",
          "midi": 66,
          "time": 100.94415581250027,
          "velocity": 1,
          "duration": 0.17736468750000256
        },
        {
          "name": "B4",
          "midi": 71,
          "time": 100.94415581250027,
          "velocity": 1,
          "duration": 0.17736468750000256
        },
        {
          "name": "D#5",
          "midi": 75,
          "time": 100.94415581250027,
          "velocity": 1,
          "duration": 0.17736468750000256
        },
        {
          "name": "B3",
          "midi": 59,
          "time": 101.14854750000028,
          "velocity": 1,
          "duration": 0.17736468750000256
        },
        {
          "name": "F#4",
          "midi": 66,
          "time": 101.14854750000028,
          "velocity": 1,
          "duration": 0.17736468750000256
        },
        {
          "name": "B4",
          "midi": 71,
          "time": 101.14854750000028,
          "velocity": 1,
          "duration": 0.17736468750000256
        },
        {
          "name": "D#5",
          "midi": 75,
          "time": 101.14854750000028,
          "velocity": 1,
          "duration": 0.17736468750000256
        },
        {
          "name": "F#4",
          "midi": 66,
          "time": 101.75327662500028,
          "velocity": 1,
          "duration": 0.7871613749999966
        },
        {
          "name": "F#3",
          "midi": 54,
          "time": 101.75665500000028,
          "velocity": 1,
          "duration": 0.7854721875000052
        },
        {
          "name": "C#4",
          "midi": 61,
          "time": 101.75665500000028,
          "velocity": 1,
          "duration": 0.7854721875000052
        },
        {
          "name": "A4",
          "midi": 69,
          "time": 101.75665500000028,
          "velocity": 1,
          "duration": 0.7854721875000052
        },
        {
          "name": "C#5",
          "midi": 73,
          "time": 101.75665500000028,
          "velocity": 1,
          "duration": 0.7854721875000052
        },
        {
          "name": "F#3",
          "midi": 54,
          "time": 102.56577581250029,
          "velocity": 0.952755905511811,
          "duration": 0.38006718750000346
        },
        {
          "name": "C#4",
          "midi": 61,
          "time": 102.5674650000003,
          "velocity": 0.952755905511811,
          "duration": 0.38006718750000346
        },
        {
          "name": "F#4",
          "midi": 66,
          "time": 102.5674650000003,
          "velocity": 0.952755905511811,
          "duration": 0.38175637500000903
        },
        {
          "name": "A4",
          "midi": 69,
          "time": 102.5674650000003,
          "velocity": 0.952755905511811,
          "duration": 0.38006718750000346
        },
        {
          "name": "C#5",
          "midi": 73,
          "time": 102.5674650000003,
          "velocity": 0.952755905511811,
          "duration": 0.38006718750000346
        },
        {
          "name": "C#4",
          "midi": 61,
          "time": 102.9694916250003,
          "velocity": 0.952755905511811,
          "duration": 0.38006718750000346
        },
        {
          "name": "F#4",
          "midi": 66,
          "time": 102.9694916250003,
          "velocity": 0.952755905511811,
          "duration": 0.38006718750000346
        },
        {
          "name": "A4",
          "midi": 69,
          "time": 102.9694916250003,
          "velocity": 0.952755905511811,
          "duration": 0.38006718750000346
        },
        {
          "name": "C#5",
          "midi": 73,
          "time": 102.9694916250003,
          "velocity": 0.952755905511811,
          "duration": 0.38006718750000346
        },
        {
          "name": "F#3",
          "midi": 54,
          "time": 102.9728700000003,
          "velocity": 0.952755905511811,
          "duration": 0.38006718750000346
        },
        {
          "name": "F#3",
          "midi": 54,
          "time": 103.3748966250003,
          "velocity": 0.9606299212598425,
          "duration": 0.018581062500004464
        },
        {
          "name": "C#4",
          "midi": 61,
          "time": 103.3748966250003,
          "velocity": 0.9606299212598425,
          "duration": 0.018581062500004464
        },
        {
          "name": "F#4",
          "midi": 66,
          "time": 103.3748966250003,
          "velocity": 0.9606299212598425,
          "duration": 0.018581062500004464
        },
        {
          "name": "A4",
          "midi": 69,
          "time": 103.3748966250003,
          "velocity": 0.9606299212598425,
          "duration": 0.018581062500004464
        },
        {
          "name": "C#5",
          "midi": 73,
          "time": 103.3748966250003,
          "velocity": 0.9606299212598425,
          "duration": 0.018581062500004464
        },
        {
          "name": "F#3",
          "midi": 54,
          "time": 103.5809775000003,
          "velocity": 0.968503937007874,
          "duration": 0.01689187499999889
        },
        {
          "name": "C#4",
          "midi": 61,
          "time": 103.5809775000003,
          "velocity": 0.968503937007874,
          "duration": 0.01689187499999889
        },
        {
          "name": "F#4",
          "midi": 66,
          "time": 103.5809775000003,
          "velocity": 0.968503937007874,
          "duration": 0.01689187499999889
        },
        {
          "name": "A4",
          "midi": 69,
          "time": 103.5809775000003,
          "velocity": 0.968503937007874,
          "duration": 0.01689187499999889
        },
        {
          "name": "C#5",
          "midi": 73,
          "time": 103.5809775000003,
          "velocity": 0.968503937007874,
          "duration": 0.01689187499999889
        },
        {
          "name": "A4",
          "midi": 69,
          "time": 103.7819908125003,
          "velocity": 0.9606299212598425,
          "duration": 0.015202687500007528
        },
        {
          "name": "C#5",
          "midi": 73,
          "time": 103.7819908125003,
          "velocity": 0.9606299212598425,
          "duration": 0.015202687500007528
        },
        {
          "name": "C#4",
          "midi": 61,
          "time": 103.7836800000003,
          "velocity": 0.9606299212598425,
          "duration": 0.018581062500004464
        },
        {
          "name": "F#3",
          "midi": 54,
          "time": 103.78536918750031,
          "velocity": 0.9606299212598425,
          "duration": 0.018581062500004464
        },
        {
          "name": "F#4",
          "midi": 66,
          "time": 103.78536918750031,
          "velocity": 0.9606299212598425,
          "duration": 0.018581062500004464
        },
        {
          "name": "C#5",
          "midi": 73,
          "time": 103.98469331250031,
          "velocity": 0.968503937007874,
          "duration": 0.015202687500007528
        },
        {
          "name": "C#4",
          "midi": 61,
          "time": 103.98638250000032,
          "velocity": 0.968503937007874,
          "duration": 0.015202687500007528
        },
        {
          "name": "F#4",
          "midi": 66,
          "time": 103.98638250000032,
          "velocity": 0.968503937007874,
          "duration": 0.015202687500007528
        },
        {
          "name": "A4",
          "midi": 69,
          "time": 103.98638250000032,
          "velocity": 0.968503937007874,
          "duration": 0.015202687500007528
        },
        {
          "name": "F#3",
          "midi": 54,
          "time": 103.98807168750032,
          "velocity": 0.968503937007874,
          "duration": 0.018581062500004464
        },
        {
          "name": "F#3",
          "midi": 54,
          "time": 104.18739581250033,
          "velocity": 1,
          "duration": 0.3783780000000121
        },
        {
          "name": "C#4",
          "midi": 61,
          "time": 104.18908500000033,
          "velocity": 1,
          "duration": 0.38006718750000346
        },
        {
          "name": "A4",
          "midi": 69,
          "time": 104.18908500000033,
          "velocity": 1,
          "duration": 0.38006718750000346
        },
        {
          "name": "F#4",
          "midi": 66,
          "time": 104.19077418750034,
          "velocity": 1,
          "duration": 0.38006718750000346
        },
        {
          "name": "E4",
          "midi": 64,
          "time": 104.99820581250034,
          "velocity": 1,
          "duration": 0.3817563749999948
        },
        {
          "name": "E3",
          "midi": 52,
          "time": 105.00158418750034,
          "velocity": 1,
          "duration": 0.38006718750000346
        },
        {
          "name": "B3",
          "midi": 59,
          "time": 105.00158418750034,
          "velocity": 1,
          "duration": 0.38006718750000346
        },
        {
          "name": "G#4",
          "midi": 68,
          "time": 105.00158418750034,
          "velocity": 1,
          "duration": 0.38006718750000346
        },
        {
          "name": "E3",
          "midi": 52,
          "time": 105.40192162500034,
          "velocity": 1,
          "duration": 0.785472187499991
        },
        {
          "name": "B3",
          "midi": 59,
          "time": 105.40192162500034,
          "velocity": 1,
          "duration": 0.785472187499991
        },
        {
          "name": "E4",
          "midi": 64,
          "time": 105.40192162500034,
          "velocity": 1,
          "duration": 0.785472187499991
        },
        {
          "name": "G#4",
          "midi": 68,
          "time": 105.40530000000034,
          "velocity": 1,
          "duration": 0.785472187499991
        },
        {
          "name": "E3",
          "midi": 52,
          "time": 106.21273162500033,
          "velocity": 1,
          "duration": 0.38006718750000346
        },
        {
          "name": "B3",
          "midi": 59,
          "time": 106.21273162500033,
          "velocity": 1,
          "duration": 0.38006718750000346
        },
        {
          "name": "E4",
          "midi": 64,
          "time": 106.21273162500033,
          "velocity": 1,
          "duration": 0.38006718750000346
        },
        {
          "name": "G#4",
          "midi": 68,
          "time": 106.21611000000033,
          "velocity": 1,
          "duration": 0.38175637500000903
        },
        {
          "name": "B3",
          "midi": 59,
          "time": 107.02354162500033,
          "velocity": 1,
          "duration": 0.17736468750000256
        },
        {
          "name": "B4",
          "midi": 71,
          "time": 107.02354162500033,
          "velocity": 1,
          "duration": 0.17736468750000256
        },
        {
          "name": "F#4",
          "midi": 66,
          "time": 107.02860918750034,
          "velocity": 1,
          "duration": 0.17736468750000256
        },
        {
          "name": "D#5",
          "midi": 75,
          "time": 107.02860918750034,
          "velocity": 1,
          "duration": 0.17736468750000256
        },
        {
          "name": "B3",
          "midi": 59,
          "time": 107.22793331250034,
          "velocity": 1,
          "duration": 0.17736468750000256
        },
        {
          "name": "F#4",
          "midi": 66,
          "time": 107.22793331250034,
          "velocity": 1,
          "duration": 0.17736468750000256
        },
        {
          "name": "B4",
          "midi": 71,
          "time": 107.22793331250034,
          "velocity": 1,
          "duration": 0.17736468750000256
        },
        {
          "name": "D#5",
          "midi": 75,
          "time": 107.22793331250034,
          "velocity": 1,
          "duration": 0.17736468750000256
        },
        {
          "name": "F#4",
          "midi": 66,
          "time": 107.43063581250034,
          "velocity": 1,
          "duration": 0.1756755000000112
        },
        {
          "name": "D#5",
          "midi": 75,
          "time": 107.43063581250034,
          "velocity": 1,
          "duration": 0.17736468750001677
        },
        {
          "name": "B3",
          "midi": 59,
          "time": 107.43232500000035,
          "velocity": 1,
          "duration": 0.17736468750001677
        },
        {
          "name": "B4",
          "midi": 71,
          "time": 107.43401418750035,
          "velocity": 1,
          "duration": 0.17736468750001677
        },
        {
          "name": "B3",
          "midi": 59,
          "time": 107.63502750000038,
          "velocity": 1,
          "duration": 0.17736468750000256
        },
        {
          "name": "F#4",
          "midi": 66,
          "time": 107.63502750000038,
          "velocity": 1,
          "duration": 0.17736468750000256
        },
        {
          "name": "B4",
          "midi": 71,
          "time": 107.63502750000038,
          "velocity": 1,
          "duration": 0.17736468750000256
        },
        {
          "name": "D#5",
          "midi": 75,
          "time": 107.63502750000038,
          "velocity": 1,
          "duration": 0.17736468750000256
        },
        {
          "name": "F#3",
          "midi": 54,
          "time": 108.23975662500038,
          "velocity": 1,
          "duration": 0.785472187499991
        },
        {
          "name": "F#4",
          "midi": 66,
          "time": 108.23975662500038,
          "velocity": 1,
          "duration": 0.785472187499991
        },
        {
          "name": "C#5",
          "midi": 73,
          "time": 108.23975662500038,
          "velocity": 1,
          "duration": 0.785472187499991
        },
        {
          "name": "C#4",
          "midi": 61,
          "time": 108.24313500000038,
          "velocity": 1,
          "duration": 0.785472187499991
        },
        {
          "name": "A4",
          "midi": 69,
          "time": 108.24313500000038,
          "velocity": 1,
          "duration": 0.785472187499991
        },
        {
          "name": "F#3",
          "midi": 54,
          "time": 109.05056662500037,
          "velocity": 0.952755905511811,
          "duration": 0.38006718749998925
        },
        {
          "name": "C#4",
          "midi": 61,
          "time": 109.05056662500037,
          "velocity": 0.952755905511811,
          "duration": 0.3817563749999948
        },
        {
          "name": "F#4",
          "midi": 66,
          "time": 109.05056662500037,
          "velocity": 0.952755905511811,
          "duration": 0.3817563749999948
        },
        {
          "name": "A4",
          "midi": 69,
          "time": 109.05732337500037,
          "velocity": 0.952755905511811,
          "duration": 0.38006718750000346
        },
        {
          "name": "C#5",
          "midi": 73,
          "time": 109.05732337500037,
          "velocity": 0.952755905511811,
          "duration": 0.38006718750000346
        },
        {
          "name": "F#3",
          "midi": 54,
          "time": 109.45766081250036,
          "velocity": 0.952755905511811,
          "duration": 0.38006718750000346
        },
        {
          "name": "C#4",
          "midi": 61,
          "time": 109.45766081250036,
          "velocity": 0.952755905511811,
          "duration": 0.38006718750000346
        },
        {
          "name": "F#4",
          "midi": 66,
          "time": 109.45766081250036,
          "velocity": 0.952755905511811,
          "duration": 0.38006718750000346
        },
        {
          "name": "A4",
          "midi": 69,
          "time": 109.45766081250036,
          "velocity": 0.952755905511811,
          "duration": 0.38006718750000346
        },
        {
          "name": "C#5",
          "midi": 73,
          "time": 109.45766081250036,
          "velocity": 0.952755905511811,
          "duration": 0.38006718750000346
        },
        {
          "name": "F#3",
          "midi": 54,
          "time": 109.86306581250037,
          "velocity": 0.9606299212598425,
          "duration": 0.018581062499990253
        },
        {
          "name": "C#4",
          "midi": 61,
          "time": 109.86306581250037,
          "velocity": 0.9606299212598425,
          "duration": 0.015202687499993317
        },
        {
          "name": "F#4",
          "midi": 66,
          "time": 109.86306581250037,
          "velocity": 0.9606299212598425,
          "duration": 0.015202687499993317
        },
        {
          "name": "A4",
          "midi": 69,
          "time": 109.86306581250037,
          "velocity": 0.9606299212598425,
          "duration": 0.018581062499990253
        },
        {
          "name": "C#5",
          "midi": 73,
          "time": 109.86644418750036,
          "velocity": 0.9606299212598425,
          "duration": 0.01689187499999889
        },
        {
          "name": "F#3",
          "midi": 54,
          "time": 110.06407912500036,
          "velocity": 0.968503937007874,
          "duration": 0.018581062500004464
        },
        {
          "name": "C#4",
          "midi": 61,
          "time": 110.06576831250037,
          "velocity": 0.968503937007874,
          "duration": 0.018581062500004464
        },
        {
          "name": "F#4",
          "midi": 66,
          "time": 110.06576831250037,
          "velocity": 0.968503937007874,
          "duration": 0.018581062500004464
        },
        {
          "name": "A4",
          "midi": 69,
          "time": 110.06576831250037,
          "velocity": 0.968503937007874,
          "duration": 0.018581062500004464
        },
        {
          "name": "C#5",
          "midi": 73,
          "time": 110.06576831250037,
          "velocity": 0.968503937007874,
          "duration": 0.018581062500004464
        },
        {
          "name": "A4",
          "midi": 69,
          "time": 110.26847081250037,
          "velocity": 0.9606299212598425,
          "duration": 0.01689187499999889
        },
        {
          "name": "C#5",
          "midi": 73,
          "time": 110.26847081250037,
          "velocity": 0.9606299212598425,
          "duration": 0.01689187499999889
        },
        {
          "name": "F#3",
          "midi": 54,
          "time": 110.27184918750037,
          "velocity": 0.9606299212598425,
          "duration": 0.01689187499999889
        },
        {
          "name": "C#4",
          "midi": 61,
          "time": 110.27184918750037,
          "velocity": 0.9606299212598425,
          "duration": 0.01689187499999889
        },
        {
          "name": "F#4",
          "midi": 66,
          "time": 110.27184918750037,
          "velocity": 0.9606299212598425,
          "duration": 0.01689187499999889
        },
        {
          "name": "F#4",
          "midi": 66,
          "time": 110.47117331250037,
          "velocity": 0.968503937007874,
          "duration": 0.01689187499999889
        },
        {
          "name": "A4",
          "midi": 69,
          "time": 110.47117331250037,
          "velocity": 0.968503937007874,
          "duration": 0.01689187499999889
        },
        {
          "name": "F#3",
          "midi": 54,
          "time": 110.47455168750037,
          "velocity": 0.968503937007874,
          "duration": 0.01689187499999889
        },
        {
          "name": "C#4",
          "midi": 61,
          "time": 110.47455168750037,
          "velocity": 0.968503937007874,
          "duration": 0.01689187499999889
        },
        {
          "name": "C#5",
          "midi": 73,
          "time": 110.47455168750037,
          "velocity": 0.968503937007874,
          "duration": 0.01689187499999889
        },
        {
          "name": "F#3",
          "midi": 54,
          "time": 110.67218662500036,
          "velocity": 1,
          "duration": 0.38513475000000597
        },
        {
          "name": "C#4",
          "midi": 61,
          "time": 110.67218662500036,
          "velocity": 1,
          "duration": 0.38006718750000346
        },
        {
          "name": "F#4",
          "midi": 66,
          "time": 110.67218662500036,
          "velocity": 1,
          "duration": 0.3834455625000004
        },
        {
          "name": "A4",
          "midi": 69,
          "time": 110.67218662500036,
          "velocity": 1,
          "duration": 0.38006718750000346
        },
        {
          "name": "E3",
          "midi": 52,
          "time": 111.48468581250037,
          "velocity": 1,
          "duration": 0.38006718750000346
        },
        {
          "name": "B3",
          "midi": 59,
          "time": 111.48468581250037,
          "velocity": 1,
          "duration": 0.38006718750000346
        },
        {
          "name": "E4",
          "midi": 64,
          "time": 111.48468581250037,
          "velocity": 1,
          "duration": 0.38006718750000346
        },
        {
          "name": "G#4",
          "midi": 68,
          "time": 111.48468581250037,
          "velocity": 1,
          "duration": 0.38006718750000346
        },
        {
          "name": "E3",
          "midi": 52,
          "time": 111.89009081250038,
          "velocity": 1,
          "duration": 0.7871613749999966
        },
        {
          "name": "B3",
          "midi": 59,
          "time": 111.89009081250038,
          "velocity": 1,
          "duration": 0.7871613749999966
        },
        {
          "name": "E4",
          "midi": 64,
          "time": 111.89009081250038,
          "velocity": 1,
          "duration": 0.7871613749999966
        },
        {
          "name": "G#4",
          "midi": 68,
          "time": 111.89009081250038,
          "velocity": 1,
          "duration": 0.7888505625000022
        },
        {
          "name": "B3",
          "midi": 59,
          "time": 112.69921162500037,
          "velocity": 1,
          "duration": 0.38175637500000903
        },
        {
          "name": "E3",
          "midi": 52,
          "time": 112.70090081250038,
          "velocity": 1,
          "duration": 0.38175637500000903
        },
        {
          "name": "E4",
          "midi": 64,
          "time": 112.70090081250038,
          "velocity": 1,
          "duration": 0.38175637500000903
        },
        {
          "name": "G#4",
          "midi": 68,
          "time": 112.70427918750038,
          "velocity": 1,
          "duration": 0.38006718750001767
        },
        {
          "name": "F#4",
          "midi": 66,
          "time": 113.51002162500039,
          "velocity": 1,
          "duration": 0.17905387500000813
        },
        {
          "name": "D#5",
          "midi": 75,
          "time": 113.51002162500039,
          "velocity": 1,
          "duration": 0.17905387500000813
        },
        {
          "name": "B3",
          "midi": 59,
          "time": 113.5150891875004,
          "velocity": 1,
          "duration": 0.17736468750000256
        },
        {
          "name": "B4",
          "midi": 71,
          "time": 113.5150891875004,
          "velocity": 1,
          "duration": 0.17736468750000256
        },
        {
          "name": "B4",
          "midi": 71,
          "time": 113.7144133125004,
          "velocity": 1,
          "duration": 0.17736468750001677
        },
        {
          "name": "F#4",
          "midi": 66,
          "time": 113.7161025000004,
          "velocity": 1,
          "duration": 0.17736468750001677
        },
        {
          "name": "D#5",
          "midi": 75,
          "time": 113.7161025000004,
          "velocity": 1,
          "duration": 0.17736468750001677
        },
        {
          "name": "B3",
          "midi": 59,
          "time": 113.71779168750041,
          "velocity": 1,
          "duration": 0.17736468750001677
        },
        {
          "name": "B3",
          "midi": 59,
          "time": 113.91542662500042,
          "velocity": 1,
          "duration": 0.17905387499999392
        },
        {
          "name": "F#4",
          "midi": 66,
          "time": 113.91542662500042,
          "velocity": 1,
          "duration": 0.17905387499999392
        },
        {
          "name": "B4",
          "midi": 71,
          "time": 113.91542662500042,
          "velocity": 1,
          "duration": 0.17905387499999392
        },
        {
          "name": "D#5",
          "midi": 75,
          "time": 113.91542662500042,
          "velocity": 1,
          "duration": 0.17905387499999392
        },
        {
          "name": "F#4",
          "midi": 66,
          "time": 114.11981831250041,
          "velocity": 1,
          "duration": 0.1756755000000112
        },
        {
          "name": "B4",
          "midi": 71,
          "time": 114.12150750000042,
          "velocity": 1,
          "duration": 0.17736468750000256
        },
        {
          "name": "B3",
          "midi": 59,
          "time": 114.12319668750042,
          "velocity": 1,
          "duration": 0.17736468750000256
        },
        {
          "name": "D#5",
          "midi": 75,
          "time": 114.12319668750042,
          "velocity": 1,
          "duration": 0.17736468750000256
        },
        {
          "name": "F#3",
          "midi": 54,
          "time": 114.72623662500042,
          "velocity": 1,
          "duration": 0.7871613749999966
        },
        {
          "name": "C#4",
          "midi": 61,
          "time": 114.72623662500042,
          "velocity": 1,
          "duration": 0.7871613749999966
        },
        {
          "name": "F#4",
          "midi": 66,
          "time": 114.72623662500042,
          "velocity": 1,
          "duration": 0.7871613749999966
        },
        {
          "name": "C#5",
          "midi": 73,
          "time": 114.72623662500042,
          "velocity": 1,
          "duration": 0.7871613749999966
        },
        {
          "name": "A4",
          "midi": 69,
          "time": 114.73299337500042,
          "velocity": 1,
          "duration": 0.7854721875000052
        },
        {
          "name": "F#3",
          "midi": 54,
          "time": 115.53873581250042,
          "velocity": 0.952755905511811,
          "duration": 0.38006718750000346
        },
        {
          "name": "C#4",
          "midi": 61,
          "time": 115.53873581250042,
          "velocity": 0.952755905511811,
          "duration": 0.38006718750000346
        },
        {
          "name": "A4",
          "midi": 69,
          "time": 115.53873581250042,
          "velocity": 0.952755905511811,
          "duration": 0.38006718750000346
        },
        {
          "name": "C#5",
          "midi": 73,
          "time": 115.53873581250042,
          "velocity": 0.952755905511811,
          "duration": 0.38006718750000346
        },
        {
          "name": "F#4",
          "midi": 66,
          "time": 115.54380337500042,
          "velocity": 0.952755905511811,
          "duration": 0.38006718750000346
        },
        {
          "name": "F#4",
          "midi": 66,
          "time": 115.94414081250042,
          "velocity": 0.952755905511811,
          "duration": 0.3783780000000121
        },
        {
          "name": "F#3",
          "midi": 54,
          "time": 115.94583000000043,
          "velocity": 0.952755905511811,
          "duration": 0.38006718750000346
        },
        {
          "name": "A4",
          "midi": 69,
          "time": 115.94583000000043,
          "velocity": 0.952755905511811,
          "duration": 0.38006718750000346
        },
        {
          "name": "C#4",
          "midi": 61,
          "time": 115.94751918750043,
          "velocity": 0.952755905511811,
          "duration": 0.38006718750000346
        },
        {
          "name": "C#5",
          "midi": 73,
          "time": 115.94751918750043,
          "velocity": 0.952755905511811,
          "duration": 0.38006718750000346
        },
        {
          "name": "A4",
          "midi": 69,
          "time": 116.34785662500043,
          "velocity": 0.9606299212598425,
          "duration": 0.01689187499999889
        },
        {
          "name": "C#5",
          "midi": 73,
          "time": 116.34785662500043,
          "velocity": 0.9606299212598425,
          "duration": 0.01689187499999889
        },
        {
          "name": "F#3",
          "midi": 54,
          "time": 116.35123500000043,
          "velocity": 0.9606299212598425,
          "duration": 0.01689187499999889
        },
        {
          "name": "C#4",
          "midi": 61,
          "time": 116.35123500000043,
          "velocity": 0.9606299212598425,
          "duration": 0.01689187499999889
        },
        {
          "name": "F#4",
          "midi": 66,
          "time": 116.35292418750043,
          "velocity": 0.9606299212598425,
          "duration": 0.01689187499999889
        },
        {
          "name": "F#3",
          "midi": 54,
          "time": 116.55393750000043,
          "velocity": 0.968503937007874,
          "duration": 0.01689187499999889
        },
        {
          "name": "F#4",
          "midi": 66,
          "time": 116.55393750000043,
          "velocity": 0.968503937007874,
          "duration": 0.01689187499999889
        },
        {
          "name": "C#5",
          "midi": 73,
          "time": 116.55393750000043,
          "velocity": 0.968503937007874,
          "duration": 0.01689187499999889
        },
        {
          "name": "C#4",
          "midi": 61,
          "time": 116.55562668750044,
          "velocity": 0.968503937007874,
          "duration": 0.01689187499999889
        },
        {
          "name": "A4",
          "midi": 69,
          "time": 116.55562668750044,
          "velocity": 0.968503937007874,
          "duration": 0.01689187499999889
        },
        {
          "name": "F#3",
          "midi": 54,
          "time": 116.75326162500043,
          "velocity": 0.9606299212598425,
          "duration": 0.020270250000010037
        },
        {
          "name": "C#4",
          "midi": 61,
          "time": 116.75326162500043,
          "velocity": 0.9606299212598425,
          "duration": 0.018581062500004464
        },
        {
          "name": "F#4",
          "midi": 66,
          "time": 116.75326162500043,
          "velocity": 0.9606299212598425,
          "duration": 0.020270250000010037
        },
        {
          "name": "A4",
          "midi": 69,
          "time": 116.75326162500043,
          "velocity": 0.9606299212598425,
          "duration": 0.020270250000010037
        },
        {
          "name": "C#5",
          "midi": 73,
          "time": 116.75326162500043,
          "velocity": 0.9606299212598425,
          "duration": 0.018581062500004464
        },
        {
          "name": "F#3",
          "midi": 54,
          "time": 116.95765331250044,
          "velocity": 0.968503937007874,
          "duration": 0.018581062500004464
        },
        {
          "name": "C#4",
          "midi": 61,
          "time": 116.95765331250044,
          "velocity": 0.968503937007874,
          "duration": 0.018581062500004464
        },
        {
          "name": "F#4",
          "midi": 66,
          "time": 116.95765331250044,
          "velocity": 0.968503937007874,
          "duration": 0.018581062500004464
        },
        {
          "name": "A4",
          "midi": 69,
          "time": 116.95765331250044,
          "velocity": 0.968503937007874,
          "duration": 0.018581062500004464
        },
        {
          "name": "C#5",
          "midi": 73,
          "time": 116.95765331250044,
          "velocity": 0.968503937007874,
          "duration": 0.018581062500004464
        },
        {
          "name": "F#3",
          "midi": 54,
          "time": 117.15866662500045,
          "velocity": 1,
          "duration": 0.38006718750000346
        },
        {
          "name": "C#4",
          "midi": 61,
          "time": 117.15866662500045,
          "velocity": 1,
          "duration": 0.38006718750000346
        },
        {
          "name": "F#4",
          "midi": 66,
          "time": 117.16035581250046,
          "velocity": 1,
          "duration": 0.3817563749999948
        },
        {
          "name": "A4",
          "midi": 69,
          "time": 117.16035581250046,
          "velocity": 1,
          "duration": 0.3834455625000004
        },
        {
          "name": "E3",
          "midi": 52,
          "time": 117.96947662500045,
          "velocity": 1,
          "duration": 0.38006718750000346
        },
        {
          "name": "G#4",
          "midi": 68,
          "time": 117.96947662500045,
          "velocity": 1,
          "duration": 0.38006718750000346
        },
        {
          "name": "B3",
          "midi": 59,
          "time": 117.97285500000045,
          "velocity": 1,
          "duration": 0.38006718750000346
        },
        {
          "name": "E4",
          "midi": 64,
          "time": 117.97285500000045,
          "velocity": 1,
          "duration": 0.38006718750000346
        },
        {
          "name": "E3",
          "midi": 52,
          "time": 118.37488162500046,
          "velocity": 1,
          "duration": 0.7854721875000052
        },
        {
          "name": "B3",
          "midi": 59,
          "time": 118.37488162500046,
          "velocity": 1,
          "duration": 0.7871613750000108
        },
        {
          "name": "E4",
          "midi": 64,
          "time": 118.37488162500046,
          "velocity": 1,
          "duration": 0.7871613750000108
        },
        {
          "name": "G#4",
          "midi": 68,
          "time": 118.37488162500046,
          "velocity": 1,
          "duration": 0.7871613750000108
        },
        {
          "name": "E3",
          "midi": 52,
          "time": 119.18907000000047,
          "velocity": 1,
          "duration": 0.3817563749999948
        },
        {
          "name": "B3",
          "midi": 59,
          "time": 119.18907000000047,
          "velocity": 1,
          "duration": 0.3817563749999948
        },
        {
          "name": "E4",
          "midi": 64,
          "time": 119.18907000000047,
          "velocity": 1,
          "duration": 0.3817563749999948
        },
        {
          "name": "G#4",
          "midi": 68,
          "time": 119.18907000000047,
          "velocity": 1,
          "duration": 0.3817563749999948
        },
        {
          "name": "D#5",
          "midi": 75,
          "time": 119.99819081250047,
          "velocity": 1,
          "duration": 0.1756755000000112
        },
        {
          "name": "B3",
          "midi": 59,
          "time": 119.99988000000047,
          "velocity": 1,
          "duration": 0.17736468750000256
        },
        {
          "name": "F#4",
          "midi": 66,
          "time": 119.99988000000047,
          "velocity": 1,
          "duration": 0.17736468750000256
        },
        {
          "name": "B4",
          "midi": 71,
          "time": 119.99988000000047,
          "velocity": 1,
          "duration": 0.17736468750000256
        },
        {
          "name": "B3",
          "midi": 59,
          "time": 120.20089331250048,
          "velocity": 1,
          "duration": 0.17736468750001677
        },
        {
          "name": "F#4",
          "midi": 66,
          "time": 120.20089331250048,
          "velocity": 1,
          "duration": 0.17736468750001677
        },
        {
          "name": "B4",
          "midi": 71,
          "time": 120.20258250000049,
          "velocity": 1,
          "duration": 0.17736468750001677
        },
        {
          "name": "D#5",
          "midi": 75,
          "time": 120.2042716875005,
          "velocity": 1,
          "duration": 0.17736468750001677
        },
        {
          "name": "B3",
          "midi": 59,
          "time": 120.40359581250051,
          "velocity": 1,
          "duration": 0.1807430624999995
        },
        {
          "name": "F#4",
          "midi": 66,
          "time": 120.40359581250051,
          "velocity": 1,
          "duration": 0.17905387499999392
        },
        {
          "name": "B4",
          "midi": 71,
          "time": 120.40359581250051,
          "velocity": 1,
          "duration": 0.17905387499999392
        },
        {
          "name": "D#5",
          "midi": 75,
          "time": 120.40359581250051,
          "velocity": 1,
          "duration": 0.17905387499999392
        },
        {
          "name": "B3",
          "midi": 59,
          "time": 120.60629831250051,
          "velocity": 1,
          "duration": 0.17736468750001677
        },
        {
          "name": "B4",
          "midi": 71,
          "time": 120.60798750000052,
          "velocity": 1,
          "duration": 0.17736468750001677
        },
        {
          "name": "D#5",
          "midi": 75,
          "time": 120.60798750000052,
          "velocity": 1,
          "duration": 0.17736468750001677
        },
        {
          "name": "F#4",
          "midi": 66,
          "time": 120.60967668750052,
          "velocity": 1,
          "duration": 0.17736468750001677
        },
        {
          "name": "F#3",
          "midi": 54,
          "time": 121.21271662500054,
          "velocity": 1,
          "duration": 0.785472187499991
        },
        {
          "name": "C#4",
          "midi": 61,
          "time": 121.21271662500054,
          "velocity": 1,
          "duration": 0.785472187499991
        },
        {
          "name": "F#4",
          "midi": 66,
          "time": 121.21271662500054,
          "velocity": 1,
          "duration": 0.785472187499991
        },
        {
          "name": "C#5",
          "midi": 73,
          "time": 121.21271662500054,
          "velocity": 1,
          "duration": 0.785472187499991
        },
        {
          "name": "A4",
          "midi": 69,
          "time": 121.21609500000054,
          "velocity": 1,
          "duration": 0.785472187499991
        },
        {
          "name": "C#4",
          "midi": 61,
          "time": 122.02521581250053,
          "velocity": 0.952755905511811,
          "duration": 0.38006718750000346
        },
        {
          "name": "F#4",
          "midi": 66,
          "time": 122.02521581250053,
          "velocity": 0.952755905511811,
          "duration": 0.38006718750000346
        },
        {
          "name": "A4",
          "midi": 69,
          "time": 122.02521581250053,
          "velocity": 0.952755905511811,
          "duration": 0.38006718750000346
        },
        {
          "name": "F#3",
          "midi": 54,
          "time": 122.02859418750053,
          "velocity": 0.952755905511811,
          "duration": 0.38006718750000346
        },
        {
          "name": "C#5",
          "midi": 73,
          "time": 122.02859418750053,
          "velocity": 0.952755905511811,
          "duration": 0.38006718750000346
        },
        {
          "name": "F#3",
          "midi": 54,
          "time": 122.43062081250054,
          "velocity": 0.952755905511811,
          "duration": 0.38006718750000346
        },
        {
          "name": "F#4",
          "midi": 66,
          "time": 122.43062081250054,
          "velocity": 0.952755905511811,
          "duration": 0.38006718750000346
        },
        {
          "name": "A4",
          "midi": 69,
          "time": 122.43062081250054,
          "velocity": 0.952755905511811,
          "duration": 0.38006718750000346
        },
        {
          "name": "C#4",
          "midi": 61,
          "time": 122.43399918750053,
          "velocity": 0.952755905511811,
          "duration": 0.38006718750000346
        },
        {
          "name": "C#5",
          "midi": 73,
          "time": 122.43399918750053,
          "velocity": 0.952755905511811,
          "duration": 0.38006718750000346
        },
        {
          "name": "C#5",
          "midi": 73,
          "time": 122.83433662500053,
          "velocity": 0.9606299212598425,
          "duration": 0.018581062500004464
        },
        {
          "name": "F#3",
          "midi": 54,
          "time": 122.83771500000053,
          "velocity": 0.9606299212598425,
          "duration": 0.0168918750000131
        },
        {
          "name": "C#4",
          "midi": 61,
          "time": 122.83771500000053,
          "velocity": 0.9606299212598425,
          "duration": 0.0168918750000131
        },
        {
          "name": "F#4",
          "midi": 66,
          "time": 122.83771500000053,
          "velocity": 0.9606299212598425,
          "duration": 0.0168918750000131
        },
        {
          "name": "A4",
          "midi": 69,
          "time": 122.83940418750053,
          "velocity": 0.9606299212598425,
          "duration": 0.0168918750000131
        },
        {
          "name": "F#4",
          "midi": 66,
          "time": 123.03872831250055,
          "velocity": 0.968503937007874,
          "duration": 0.01689187499999889
        },
        {
          "name": "F#3",
          "midi": 54,
          "time": 123.04041750000056,
          "velocity": 0.968503937007874,
          "duration": 0.01689187499999889
        },
        {
          "name": "C#4",
          "midi": 61,
          "time": 123.04041750000056,
          "velocity": 0.968503937007874,
          "duration": 0.01689187499999889
        },
        {
          "name": "A4",
          "midi": 69,
          "time": 123.04041750000056,
          "velocity": 0.968503937007874,
          "duration": 0.01689187499999889
        },
        {
          "name": "C#5",
          "midi": 73,
          "time": 123.04041750000056,
          "velocity": 0.968503937007874,
          "duration": 0.01689187499999889
        },
        {
          "name": "E3",
          "midi": 52,
          "time": 123.24143081250055,
          "velocity": 1,
          "duration": 0.5861480625000013
        },
        {
          "name": "B3",
          "midi": 59,
          "time": 123.24143081250055,
          "velocity": 0.905511811023622,
          "duration": 0.5861480625000013
        },
        {
          "name": "E4",
          "midi": 64,
          "time": 123.24143081250055,
          "velocity": 0.905511811023622,
          "duration": 0.5861480625000013
        },
        {
          "name": "G#4",
          "midi": 68,
          "time": 123.24143081250055,
          "velocity": 0.9606299212598425,
          "duration": 0.5861480625000013
        },
        {
          "name": "E3",
          "midi": 52,
          "time": 123.85122750000056,
          "velocity": 1,
          "duration": 0.1807430624999995
        },
        {
          "name": "B3",
          "midi": 59,
          "time": 123.85122750000056,
          "velocity": 0.9448818897637795,
          "duration": 0.1807430624999995
        },
        {
          "name": "E4",
          "midi": 64,
          "time": 123.85122750000056,
          "velocity": 1,
          "duration": 0.1807430624999995
        },
        {
          "name": "G#4",
          "midi": 68,
          "time": 123.85122750000056,
          "velocity": 1,
          "duration": 0.1807430624999995
        },
        {
          "name": "F#3",
          "midi": 54,
          "time": 124.45764581250056,
          "velocity": 0.9606299212598425,
          "duration": 0.5861480625000013
        },
        {
          "name": "D#4",
          "midi": 63,
          "time": 124.45764581250056,
          "velocity": 0.9606299212598425,
          "duration": 0.5861480625000013
        },
        {
          "name": "F#4",
          "midi": 66,
          "time": 124.45764581250056,
          "velocity": 0.9133858267716536,
          "duration": 0.5861480625000013
        },
        {
          "name": "B2",
          "midi": 47,
          "time": 124.46102418750056,
          "velocity": 0.8818897637795275,
          "duration": 0.5861480625000013
        },
        {
          "name": "B3",
          "midi": 59,
          "time": 124.46102418750056,
          "velocity": 0.9448818897637795,
          "duration": 0.5861480625000013
        },
        {
          "name": "D#4",
          "midi": 63,
          "time": 125.06406412500056,
          "velocity": 1,
          "duration": 0.3834455625000004
        },
        {
          "name": "F#4",
          "midi": 66,
          "time": 125.06575331250056,
          "velocity": 0.8818897637795275,
          "duration": 0.3834455625000004
        },
        {
          "name": "F#3",
          "midi": 54,
          "time": 125.47115831250056,
          "velocity": 0.9606299212598425,
          "duration": 0.5844588750000099
        },
        {
          "name": "D#4",
          "midi": 63,
          "time": 125.67217162500056,
          "velocity": 1,
          "duration": 0.11317556250000393
        },
        {
          "name": "F#4",
          "midi": 66,
          "time": 125.67217162500056,
          "velocity": 1,
          "duration": 0.3834455625000146
        },
        {
          "name": "E4",
          "midi": 64,
          "time": 125.81237418750057,
          "velocity": 0.952755905511811,
          "duration": 0.11317556250000393
        },
        {
          "name": "D#4",
          "midi": 63,
          "time": 125.94582000000057,
          "velocity": 1,
          "duration": 0.11317556250000393
        },
        {
          "name": "B3",
          "midi": 59,
          "time": 126.08264418750058,
          "velocity": 1,
          "duration": 0.3834455625000004
        },
        {
          "name": "D#4",
          "midi": 63,
          "time": 126.28365750000057,
          "velocity": 1,
          "duration": 0.1807430624999995
        },
        {
          "name": "G#3",
          "midi": 56,
          "time": 126.48636000000057,
          "velocity": 1,
          "duration": 0.3834455624999862
        },
        {
          "name": "C#4",
          "midi": 61,
          "time": 126.48804918750058,
          "velocity": 0.9606299212598425,
          "duration": 0.3834455624999862
        },
        {
          "name": "E4",
          "midi": 64,
          "time": 126.88838662500056,
          "velocity": 0.9448818897637795,
          "duration": 0.1807430624999995
        },
        {
          "name": "C#4",
          "midi": 61,
          "time": 126.89176500000056,
          "velocity": 0.952755905511811,
          "duration": 0.1807430624999995
        },
        {
          "name": "G#4",
          "midi": 68,
          "time": 126.89176500000056,
          "velocity": 1,
          "duration": 0.1807430624999995
        },
        {
          "name": "G#3",
          "midi": 56,
          "time": 127.09108912500056,
          "velocity": 1,
          "duration": 0.18243225000000507
        },
        {
          "name": "C#4",
          "midi": 61,
          "time": 127.09108912500056,
          "velocity": 1,
          "duration": 0.18243225000000507
        },
        {
          "name": "C#4",
          "midi": 61,
          "time": 127.29379162500057,
          "velocity": 1,
          "duration": 0.3834455625000004
        },
        {
          "name": "E4",
          "midi": 64,
          "time": 127.29717000000056,
          "velocity": 1,
          "duration": 0.3834455625000004
        },
        {
          "name": "G#4",
          "midi": 68,
          "time": 127.29717000000056,
          "velocity": 1,
          "duration": 0.38513475000000597
        },
        {
          "name": "F#3",
          "midi": 54,
          "time": 127.70257500000056,
          "velocity": 1,
          "duration": 0.38513474999999175
        },
        {
          "name": "B3",
          "midi": 59,
          "time": 127.70257500000056,
          "velocity": 0.952755905511811,
          "duration": 0.38513474999999175
        },
        {
          "name": "D#4",
          "midi": 63,
          "time": 127.70257500000056,
          "velocity": 0.9606299212598425,
          "duration": 0.38513474999999175
        },
        {
          "name": "F#4",
          "midi": 66,
          "time": 127.70257500000056,
          "velocity": 0.8818897637795275,
          "duration": 0.38513474999999175
        },
        {
          "name": "A3",
          "midi": 57,
          "time": 128.51169581250056,
          "velocity": 0.889763779527559,
          "duration": 0.3834455625000146
        },
        {
          "name": "C#4",
          "midi": 61,
          "time": 128.51169581250056,
          "velocity": 0.9133858267716536,
          "duration": 0.3834455625000146
        },
        {
          "name": "E3",
          "midi": 52,
          "time": 128.51507418750057,
          "velocity": 0.9448818897637795,
          "duration": 0.3834455625000146
        },
        {
          "name": "E4",
          "midi": 64,
          "time": 128.51507418750057,
          "velocity": 0.8740157480314961,
          "duration": 0.3834455625000146
        },
        {
          "name": "A4",
          "midi": 69,
          "time": 128.9187900000006,
          "velocity": 0.9448818897637795,
          "duration": 0.11317556250000393
        },
        {
          "name": "B4",
          "midi": 71,
          "time": 129.0505466250006,
          "velocity": 1,
          "duration": 0.11317556250000393
        },
        {
          "name": "A4",
          "midi": 69,
          "time": 129.1873708125006,
          "velocity": 1,
          "duration": 0.3158780624999906
        },
        {
          "name": "C#4",
          "midi": 61,
          "time": 129.3225058125006,
          "velocity": 1,
          "duration": 0.3834455624999862
        },
        {
          "name": "E4",
          "midi": 64,
          "time": 129.3225058125006,
          "velocity": 1,
          "duration": 0.3834455624999862
        },
        {
          "name": "E3",
          "midi": 52,
          "time": 129.72791081250057,
          "velocity": 1,
          "duration": 0.5844588750000241
        },
        {
          "name": "B3",
          "midi": 59,
          "time": 129.72791081250057,
          "velocity": 0.905511811023622,
          "duration": 0.5844588750000241
        },
        {
          "name": "G#4",
          "midi": 68,
          "time": 129.72791081250057,
          "velocity": 0.9606299212598425,
          "duration": 0.5878372500000353
        },
        {
          "name": "E4",
          "midi": 64,
          "time": 129.73128918750058,
          "velocity": 0.905511811023622,
          "duration": 0.5861480625000297
        },
        {
          "name": "B3",
          "midi": 59,
          "time": 130.3360183125006,
          "velocity": 0.9448818897637795,
          "duration": 0.1807430624999995
        },
        {
          "name": "E3",
          "midi": 52,
          "time": 130.33770750000062,
          "velocity": 1,
          "duration": 0.1807430624999995
        },
        {
          "name": "E4",
          "midi": 64,
          "time": 130.33770750000062,
          "velocity": 1,
          "duration": 0.1807430624999995
        },
        {
          "name": "G#4",
          "midi": 68,
          "time": 130.33939668750062,
          "velocity": 1,
          "duration": 0.1807430624999995
        },
        {
          "name": "F#3",
          "midi": 54,
          "time": 130.94243662500062,
          "velocity": 0.9606299212598425,
          "duration": 0.5878372500000069
        },
        {
          "name": "B3",
          "midi": 59,
          "time": 130.94243662500062,
          "velocity": 0.905511811023622,
          "duration": 0.5878372500000069
        },
        {
          "name": "D#4",
          "midi": 63,
          "time": 130.94243662500062,
          "velocity": 0.9606299212598425,
          "duration": 0.5878372500000069
        },
        {
          "name": "F#4",
          "midi": 66,
          "time": 130.94243662500062,
          "velocity": 0.889763779527559,
          "duration": 0.5878372500000069
        },
        {
          "name": "B2",
          "midi": 47,
          "time": 130.94919337500062,
          "velocity": 0.889763779527559,
          "duration": 0.5861480625000013
        },
        {
          "name": "F#4",
          "midi": 66,
          "time": 131.55392250000062,
          "velocity": 0.8818897637795275,
          "duration": 0.3834455625000146
        },
        {
          "name": "D#4",
          "midi": 63,
          "time": 131.55561168750063,
          "velocity": 1,
          "duration": 0.3834455625000146
        },
        {
          "name": "F#3",
          "midi": 54,
          "time": 131.95932750000065,
          "velocity": 0.9606299212598425,
          "duration": 0.5844588749999957
        },
        {
          "name": "D#4",
          "midi": 63,
          "time": 132.16371918750065,
          "velocity": 1,
          "duration": 0.11317556250000393
        },
        {
          "name": "F#4",
          "midi": 66,
          "time": 132.16371918750065,
          "velocity": 1,
          "duration": 0.38513474999999175
        },
        {
          "name": "E4",
          "midi": 64,
          "time": 132.29716500000066,
          "velocity": 0.905511811023622,
          "duration": 0.11317556250000393
        },
        {
          "name": "D#4",
          "midi": 63,
          "time": 132.43230000000065,
          "velocity": 1,
          "duration": 0.11148637499999836
        },
        {
          "name": "B3",
          "midi": 59,
          "time": 132.56574581250064,
          "velocity": 1,
          "duration": 0.3834455624999862
        },
        {
          "name": "D#4",
          "midi": 63,
          "time": 132.77182668750063,
          "velocity": 1,
          "duration": 0.1807430624999995
        },
        {
          "name": "C#4",
          "midi": 61,
          "time": 132.97115081250064,
          "velocity": 0.9606299212598425,
          "duration": 0.3834455624999862
        },
        {
          "name": "G#3",
          "midi": 56,
          "time": 132.97284000000064,
          "velocity": 1,
          "duration": 0.3834455624999862
        },
        {
          "name": "C#4",
          "midi": 61,
          "time": 133.37824500000062,
          "velocity": 0.9133858267716536,
          "duration": 0.1807430624999995
        },
        {
          "name": "E4",
          "midi": 64,
          "time": 133.37993418750062,
          "velocity": 0.9448818897637795,
          "duration": 0.1807430624999995
        },
        {
          "name": "G#4",
          "midi": 68,
          "time": 133.37993418750062,
          "velocity": 1,
          "duration": 0.1807430624999995
        },
        {
          "name": "G#3",
          "midi": 56,
          "time": 133.58094750000063,
          "velocity": 1,
          "duration": 0.1807430624999995
        },
        {
          "name": "C#4",
          "midi": 61,
          "time": 133.58263668750064,
          "velocity": 1,
          "duration": 0.1807430624999995
        },
        {
          "name": "C#4",
          "midi": 61,
          "time": 133.78365000000065,
          "velocity": 1,
          "duration": 0.1807430624999995
        },
        {
          "name": "E4",
          "midi": 64,
          "time": 133.78365000000065,
          "velocity": 1,
          "duration": 0.1807430624999995
        },
        {
          "name": "G#4",
          "midi": 68,
          "time": 133.78365000000065,
          "velocity": 1,
          "duration": 0.18243225000000507
        },
        {
          "name": "E3",
          "midi": 52,
          "time": 134.18736581250064,
          "velocity": 1,
          "duration": 1.3969580625000049
        },
        {
          "name": "C#4",
          "midi": 61,
          "time": 134.18736581250064,
          "velocity": 0.9606299212598425,
          "duration": 0.7888505625000164
        },
        {
          "name": "E4",
          "midi": 64,
          "time": 134.18736581250064,
          "velocity": 0.8818897637795275,
          "duration": 0.7888505625000164
        },
        {
          "name": "A3",
          "midi": 57,
          "time": 134.19074418750066,
          "velocity": 0.8582677165354331,
          "duration": 1.3969580625000049
        },
        {
          "name": "A4",
          "midi": 69,
          "time": 134.99817581250065,
          "velocity": 1,
          "duration": 1.1925663750000126
        },
        {
          "name": "E4",
          "midi": 64,
          "time": 135.40695918750066,
          "velocity": 0.9921259842519685,
          "duration": 0.788850562499988
        },
        {
          "name": "C#4",
          "midi": 61,
          "time": 135.81236418750066,
          "velocity": 1,
          "duration": 0.3834455624999862
        },
        {
          "name": "E3",
          "midi": 52,
          "time": 136.21270162500065,
          "velocity": 1,
          "duration": 0.5895264375000124
        },
        {
          "name": "B3",
          "midi": 59,
          "time": 136.21270162500065,
          "velocity": 0.905511811023622,
          "duration": 0.5895264375000124
        },
        {
          "name": "E4",
          "midi": 64,
          "time": 136.21270162500065,
          "velocity": 0.905511811023622,
          "duration": 0.5895264375000124
        },
        {
          "name": "G#4",
          "midi": 68,
          "time": 136.21270162500065,
          "velocity": 0.9606299212598425,
          "duration": 0.5895264375000124
        },
        {
          "name": "B3",
          "midi": 59,
          "time": 136.82249831250067,
          "velocity": 0.9448818897637795,
          "duration": 0.17905387500002234
        },
        {
          "name": "E3",
          "midi": 52,
          "time": 136.82418750000068,
          "velocity": 1,
          "duration": 0.17905387500002234
        },
        {
          "name": "E4",
          "midi": 64,
          "time": 136.82587668750068,
          "velocity": 1,
          "duration": 0.17905387500002234
        },
        {
          "name": "G#4",
          "midi": 68,
          "time": 136.82587668750068,
          "velocity": 1,
          "duration": 0.17905387500002234
        },
        {
          "name": "B2",
          "midi": 47,
          "time": 137.4322950000007,
          "velocity": 0.8818897637795275,
          "duration": 0.5844588749999957
        },
        {
          "name": "F#3",
          "midi": 54,
          "time": 137.4322950000007,
          "velocity": 0.9606299212598425,
          "duration": 0.5861480625000013
        },
        {
          "name": "B3",
          "midi": 59,
          "time": 137.4322950000007,
          "velocity": 0.9448818897637795,
          "duration": 0.5861480625000013
        },
        {
          "name": "D#4",
          "midi": 63,
          "time": 137.4322950000007,
          "velocity": 0.9606299212598425,
          "duration": 0.5844588749999957
        },
        {
          "name": "F#4",
          "midi": 66,
          "time": 137.4322950000007,
          "velocity": 0.9133858267716536,
          "duration": 0.5861480625000013
        },
        {
          "name": "F#4",
          "midi": 66,
          "time": 138.04040250000068,
          "velocity": 0.8818897637795275,
          "duration": 0.3834455625000146
        },
        {
          "name": "D#4",
          "midi": 63,
          "time": 138.0420916875007,
          "velocity": 1,
          "duration": 0.3834455625000146
        },
        {
          "name": "F#3",
          "midi": 54,
          "time": 138.4458075000007,
          "velocity": 0.9606299212598425,
          "duration": 0.5861480625000297
        },
        {
          "name": "D#4",
          "midi": 63,
          "time": 138.64682081250072,
          "velocity": 1,
          "duration": 0.11317556250000393
        },
        {
          "name": "F#4",
          "midi": 66,
          "time": 138.64682081250072,
          "velocity": 1,
          "duration": 0.3851347500000202
        },
        {
          "name": "E4",
          "midi": 64,
          "time": 138.78026662500073,
          "velocity": 0.952755905511811,
          "duration": 0.11317556250000393
        },
        {
          "name": "D#4",
          "midi": 63,
          "time": 138.91878000000074,
          "velocity": 1,
          "duration": 0.11317556250000393
        },
        {
          "name": "B3",
          "midi": 59,
          "time": 139.05053662500075,
          "velocity": 1,
          "duration": 0.3834455624999862
        },
        {
          "name": "D#4",
          "midi": 63,
          "time": 139.25492831250074,
          "velocity": 1,
          "duration": 0.17905387499999392
        },
        {
          "name": "C#4",
          "midi": 61,
          "time": 139.45763081250072,
          "velocity": 0.9606299212598425,
          "duration": 0.3834455624999862
        },
        {
          "name": "G#3",
          "midi": 56,
          "time": 139.45932000000073,
          "velocity": 1,
          "duration": 0.3834455624999862
        },
        {
          "name": "C#4",
          "midi": 61,
          "time": 139.86303581250073,
          "velocity": 0.952755905511811,
          "duration": 0.1807430624999995
        },
        {
          "name": "E4",
          "midi": 64,
          "time": 139.86303581250073,
          "velocity": 0.9448818897637795,
          "duration": 0.1807430624999995
        },
        {
          "name": "G#4",
          "midi": 68,
          "time": 139.86303581250073,
          "velocity": 1,
          "duration": 0.1807430624999995
        },
        {
          "name": "G#3",
          "midi": 56,
          "time": 140.06911668750072,
          "velocity": 1,
          "duration": 0.1807430624999995
        },
        {
          "name": "C#4",
          "midi": 61,
          "time": 140.06911668750072,
          "velocity": 1,
          "duration": 0.1807430624999995
        },
        {
          "name": "G#4",
          "midi": 68,
          "time": 140.26844081250073,
          "velocity": 1,
          "duration": 0.3834455625000146
        },
        {
          "name": "C#4",
          "midi": 61,
          "time": 140.27013000000073,
          "velocity": 1,
          "duration": 0.3851347500000202
        },
        {
          "name": "E4",
          "midi": 64,
          "time": 140.27013000000073,
          "velocity": 1,
          "duration": 0.3834455625000146
        },
        {
          "name": "B3",
          "midi": 59,
          "time": 140.67553500000076,
          "velocity": 0.952755905511811,
          "duration": 0.3834455625000146
        },
        {
          "name": "D#4",
          "midi": 63,
          "time": 140.67553500000076,
          "velocity": 0.9606299212598425,
          "duration": 0.3834455625000146
        },
        {
          "name": "F#3",
          "midi": 54,
          "time": 140.67722418750077,
          "velocity": 1,
          "duration": 0.3834455625000146
        },
        {
          "name": "F#4",
          "midi": 66,
          "time": 140.67722418750077,
          "velocity": 0.8818897637795275,
          "duration": 0.3834455625000146
        },
        {
          "name": "A3",
          "midi": 57,
          "time": 141.4846558125008,
          "velocity": 0.889763779527559,
          "duration": 0.3834455625000146
        },
        {
          "name": "C#4",
          "midi": 61,
          "time": 141.4863450000008,
          "velocity": 0.9133858267716536,
          "duration": 0.3834455625000146
        },
        {
          "name": "E3",
          "midi": 52,
          "time": 141.4880341875008,
          "velocity": 0.9448818897637795,
          "duration": 0.3834455625000146
        },
        {
          "name": "E4",
          "midi": 64,
          "time": 141.4880341875008,
          "velocity": 0.8740157480314961,
          "duration": 0.3834455625000146
        },
        {
          "name": "A4",
          "midi": 69,
          "time": 141.8934391875008,
          "velocity": 0.9448818897637795,
          "duration": 0.11317556250000393
        },
        {
          "name": "B4",
          "midi": 71,
          "time": 142.02688500000082,
          "velocity": 1,
          "duration": 0.11317556250000393
        },
        {
          "name": "A4",
          "midi": 69,
          "time": 142.16033081250083,
          "velocity": 1,
          "duration": 0.3158780624999906
        },
        {
          "name": "C#4",
          "midi": 61,
          "time": 142.29546581250082,
          "velocity": 1,
          "duration": 0.3834455624999862
        },
        {
          "name": "E4",
          "midi": 64,
          "time": 142.3005333750008,
          "velocity": 1,
          "duration": 0.38175637500000903
        },
        {
          "name": "E3",
          "midi": 52,
          "time": 142.69918162500082,
          "velocity": 1,
          "duration": 0.5895264375000124
        },
        {
          "name": "B3",
          "midi": 59,
          "time": 142.69918162500082,
          "velocity": 0.905511811023622,
          "duration": 0.5878372500000069
        },
        {
          "name": "E4",
          "midi": 64,
          "time": 142.69918162500082,
          "velocity": 0.905511811023622,
          "duration": 0.5861480625000013
        },
        {
          "name": "G#4",
          "midi": 68,
          "time": 142.69918162500082,
          "velocity": 0.9606299212598425,
          "duration": 0.5861480625000013
        },
        {
          "name": "E4",
          "midi": 64,
          "time": 143.30897831250084,
          "velocity": 1,
          "duration": 0.1807430624999995
        },
        {
          "name": "G#4",
          "midi": 68,
          "time": 143.30897831250084,
          "velocity": 1,
          "duration": 0.1807430624999995
        },
        {
          "name": "E3",
          "midi": 52,
          "time": 143.31066750000085,
          "velocity": 1,
          "duration": 0.1807430624999995
        },
        {
          "name": "B3",
          "midi": 59,
          "time": 143.31066750000085,
          "velocity": 0.9448818897637795,
          "duration": 0.1807430624999995
        },
        {
          "name": "B2",
          "midi": 47,
          "time": 143.91539662500085,
          "velocity": 0.889763779527559,
          "duration": 0.5878372499999784
        },
        {
          "name": "F#3",
          "midi": 54,
          "time": 143.91539662500085,
          "velocity": 0.9606299212598425,
          "duration": 0.5878372499999784
        },
        {
          "name": "B3",
          "midi": 59,
          "time": 143.91539662500085,
          "velocity": 0.905511811023622,
          "duration": 0.5878372499999784
        },
        {
          "name": "F#4",
          "midi": 66,
          "time": 143.91539662500085,
          "velocity": 0.889763779527559,
          "duration": 0.5878372499999784
        },
        {
          "name": "D#4",
          "midi": 63,
          "time": 143.92046418750084,
          "velocity": 0.9606299212598425,
          "duration": 0.5878372499999784
        },
        {
          "name": "D#4",
          "midi": 63,
          "time": 144.52688250000082,
          "velocity": 1,
          "duration": 0.38175637500000903
        },
        {
          "name": "F#4",
          "midi": 66,
          "time": 144.52857168750083,
          "velocity": 0.8818897637795275,
          "duration": 0.3834455625000146
        },
        {
          "name": "F#3",
          "midi": 54,
          "time": 144.93397668750083,
          "velocity": 0.9606299212598425,
          "duration": 0.5861480625000297
        },
        {
          "name": "D#4",
          "midi": 63,
          "time": 145.13330081250083,
          "velocity": 1,
          "duration": 0.11317556250000393
        },
        {
          "name": "F#4",
          "midi": 66,
          "time": 145.13667918750085,
          "velocity": 1,
          "duration": 0.3834455625000146
        },
        {
          "name": "E4",
          "midi": 64,
          "time": 145.27181418750084,
          "velocity": 0.905511811023622,
          "duration": 0.11317556250000393
        },
        {
          "name": "D#4",
          "midi": 63,
          "time": 145.40526000000085,
          "velocity": 1,
          "duration": 0.11317556250000393
        },
        {
          "name": "B3",
          "midi": 59,
          "time": 145.53870581250087,
          "velocity": 1,
          "duration": 0.3834455624999862
        },
        {
          "name": "D#4",
          "midi": 63,
          "time": 145.74309750000086,
          "velocity": 1,
          "duration": 0.17905387499999392
        },
        {
          "name": "G#3",
          "midi": 56,
          "time": 145.94580000000084,
          "velocity": 1,
          "duration": 0.3817563749999806
        },
        {
          "name": "C#4",
          "midi": 61,
          "time": 145.94580000000084,
          "velocity": 0.9606299212598425,
          "duration": 0.3817563749999806
        },
        {
          "name": "C#4",
          "midi": 61,
          "time": 146.3495158125008,
          "velocity": 0.9133858267716536,
          "duration": 0.1807430624999995
        },
        {
          "name": "G#4",
          "midi": 68,
          "time": 146.3495158125008,
          "velocity": 1,
          "duration": 0.18243225000000507
        },
        {
          "name": "E4",
          "midi": 64,
          "time": 146.35289418750082,
          "velocity": 0.9448818897637795,
          "duration": 0.1807430624999995
        },
        {
          "name": "G#3",
          "midi": 56,
          "time": 146.55390750000083,
          "velocity": 1,
          "duration": 0.1807430624999995
        },
        {
          "name": "C#4",
          "midi": 61,
          "time": 146.55390750000083,
          "velocity": 1,
          "duration": 0.1807430624999995
        },
        {
          "name": "E4",
          "midi": 64,
          "time": 146.75323162500084,
          "velocity": 1,
          "duration": 0.1807430624999995
        },
        {
          "name": "G#4",
          "midi": 68,
          "time": 146.75323162500084,
          "velocity": 1,
          "duration": 0.1807430624999995
        },
        {
          "name": "C#4",
          "midi": 61,
          "time": 146.75661000000085,
          "velocity": 1,
          "duration": 0.1807430624999995
        },
        {
          "name": "A3",
          "midi": 57,
          "time": 147.16032581250084,
          "velocity": 0.8582677165354331,
          "duration": 1.3969580624999764
        },
        {
          "name": "E3",
          "midi": 52,
          "time": 147.16201500000085,
          "velocity": 1,
          "duration": 1.3969580624999764
        },
        {
          "name": "C#4",
          "midi": 61,
          "time": 147.16201500000085,
          "velocity": 0.9606299212598425,
          "duration": 0.788850562499988
        },
        {
          "name": "E4",
          "midi": 64,
          "time": 147.16201500000085,
          "velocity": 0.8818897637795275,
          "duration": 0.788850562499988
        },
        {
          "name": "A4",
          "midi": 69,
          "time": 147.97282500000082,
          "velocity": 1,
          "duration": 1.1942555624999898
        },
        {
          "name": "E4",
          "midi": 64,
          "time": 148.37654081250082,
          "velocity": 0.9921259842519685,
          "duration": 0.788850562499988
        },
        {
          "name": "C#4",
          "midi": 61,
          "time": 148.78194581250082,
          "velocity": 1,
          "duration": 0.3834455624999862
        },
        {
          "name": "B3",
          "midi": 59,
          "time": 149.18566162500082,
          "velocity": 0.905511811023622,
          "duration": 0.5861480625000013
        },
        {
          "name": "E3",
          "midi": 52,
          "time": 149.18735081250082,
          "velocity": 1,
          "duration": 0.5861480625000013
        },
        {
          "name": "E4",
          "midi": 64,
          "time": 149.18735081250082,
          "velocity": 0.905511811023622,
          "duration": 0.5861480625000013
        },
        {
          "name": "G#4",
          "midi": 68,
          "time": 149.1924183750008,
          "velocity": 0.9606299212598425,
          "duration": 0.5861480625000013
        },
        {
          "name": "E3",
          "midi": 52,
          "time": 149.7954583125008,
          "velocity": 1,
          "duration": 0.1807430624999995
        },
        {
          "name": "B3",
          "midi": 59,
          "time": 149.7954583125008,
          "velocity": 0.9448818897637795,
          "duration": 0.1807430624999995
        },
        {
          "name": "E4",
          "midi": 64,
          "time": 149.7954583125008,
          "velocity": 1,
          "duration": 0.1807430624999995
        },
        {
          "name": "G#4",
          "midi": 68,
          "time": 149.7954583125008,
          "velocity": 1,
          "duration": 0.1807430624999995
        },
        {
          "name": "B2",
          "midi": 47,
          "time": 150.4035658125008,
          "velocity": 0.905511811023622,
          "duration": 0.5844588749999957
        },
        {
          "name": "F#3",
          "midi": 54,
          "time": 150.4035658125008,
          "velocity": 0.9606299212598425,
          "duration": 0.5878372500000069
        },
        {
          "name": "B3",
          "midi": 59,
          "time": 150.4035658125008,
          "velocity": 0.905511811023622,
          "duration": 0.5844588749999957
        },
        {
          "name": "D#4",
          "midi": 63,
          "time": 150.4035658125008,
          "velocity": 0.9606299212598425,
          "duration": 0.5878372500000069
        },
        {
          "name": "F#4",
          "midi": 66,
          "time": 150.4035658125008,
          "velocity": 0.9133858267716536,
          "duration": 0.5878372500000069
        },
        {
          "name": "F#4",
          "midi": 66,
          "time": 151.0133625000008,
          "velocity": 0.8818897637795275,
          "duration": 0.38175637500000903
        },
        {
          "name": "D#4",
          "midi": 63,
          "time": 151.0150516875008,
          "velocity": 1,
          "duration": 0.3834455625000146
        },
        {
          "name": "F#3",
          "midi": 54,
          "time": 151.41876750000083,
          "velocity": 0.9606299212598425,
          "duration": 0.5861480625000297
        },
        {
          "name": "D#4",
          "midi": 63,
          "time": 151.61978081250084,
          "velocity": 1,
          "duration": 0.11486475000000951
        },
        {
          "name": "F#4",
          "midi": 66,
          "time": 151.61978081250084,
          "velocity": 1,
          "duration": 0.3851347500000202
        },
        {
          "name": "E4",
          "midi": 64,
          "time": 151.75660500000083,
          "velocity": 0.905511811023622,
          "duration": 0.11317556250000393
        },
        {
          "name": "D#4",
          "midi": 63,
          "time": 151.88836162500084,
          "velocity": 1,
          "duration": 0.11317556250000393
        },
        {
          "name": "B3",
          "midi": 59,
          "time": 152.02687500000084,
          "velocity": 1,
          "duration": 0.38175637500000903
        },
        {
          "name": "D#4",
          "midi": 63,
          "time": 152.22788831250085,
          "velocity": 1,
          "duration": 0.1807430624999995
        },
        {
          "name": "G#3",
          "midi": 56,
          "time": 152.43059081250084,
          "velocity": 1,
          "duration": 0.38513474999999175
        },
        {
          "name": "C#4",
          "midi": 61,
          "time": 152.43059081250084,
          "velocity": 0.9606299212598425,
          "duration": 0.3834455624999862
        },
        {
          "name": "C#4",
          "midi": 61,
          "time": 152.83768500000082,
          "velocity": 0.9133858267716536,
          "duration": 0.18243225000000507
        },
        {
          "name": "E4",
          "midi": 64,
          "time": 152.83768500000082,
          "velocity": 0.9448818897637795,
          "duration": 0.18243225000000507
        },
        {
          "name": "G#4",
          "midi": 68,
          "time": 152.83768500000082,
          "velocity": 1,
          "duration": 0.18243225000000507
        },
        {
          "name": "G#3",
          "midi": 56,
          "time": 153.04038750000083,
          "velocity": 1,
          "duration": 0.1807430624999995
        },
        {
          "name": "C#4",
          "midi": 61,
          "time": 153.04207668750084,
          "velocity": 1,
          "duration": 0.1807430624999995
        },
        {
          "name": "C#4",
          "midi": 61,
          "time": 153.24140081250084,
          "velocity": 1,
          "duration": 0.38513474999999175
        },
        {
          "name": "E4",
          "midi": 64,
          "time": 153.24140081250084,
          "velocity": 1,
          "duration": 0.38513474999999175
        },
        {
          "name": "G#4",
          "midi": 68,
          "time": 153.24140081250084,
          "velocity": 1,
          "duration": 0.38513474999999175
        },
        {
          "name": "B3",
          "midi": 59,
          "time": 153.64511662500084,
          "velocity": 0.8976377952755905,
          "duration": 0.3834455624999862
        },
        {
          "name": "F#4",
          "midi": 66,
          "time": 153.64511662500084,
          "velocity": 0.8818897637795275,
          "duration": 0.3834455624999862
        },
        {
          "name": "F#3",
          "midi": 54,
          "time": 153.65018418750083,
          "velocity": 1,
          "duration": 0.3834455624999862
        },
        {
          "name": "D#4",
          "midi": 63,
          "time": 153.65018418750083,
          "velocity": 0.9606299212598425,
          "duration": 0.3834455624999862
        },
        {
          "name": "A3",
          "midi": 57,
          "time": 154.4559266250008,
          "velocity": 0.9133858267716536,
          "duration": 0.3834455625000146
        },
        {
          "name": "C#4",
          "midi": 61,
          "time": 154.4559266250008,
          "velocity": 0.9133858267716536,
          "duration": 0.3834455625000146
        },
        {
          "name": "E3",
          "midi": 52,
          "time": 154.45930500000082,
          "velocity": 0.9448818897637795,
          "duration": 0.3834455625000146
        },
        {
          "name": "E4",
          "midi": 64,
          "time": 154.45930500000082,
          "velocity": 0.8740157480314961,
          "duration": 0.3834455625000146
        },
        {
          "name": "A4",
          "midi": 69,
          "time": 154.86302081250085,
          "velocity": 0.9448818897637795,
          "duration": 0.11317556250000393
        },
        {
          "name": "B4",
          "midi": 71,
          "time": 155.00153418750085,
          "velocity": 1,
          "duration": 0.11317556250000393
        },
        {
          "name": "A4",
          "midi": 69,
          "time": 155.13329081250086,
          "velocity": 1,
          "duration": 0.3158780624999906
        },
        {
          "name": "C#4",
          "midi": 61,
          "time": 155.27011500000086,
          "velocity": 1,
          "duration": 0.3834455624999862
        },
        {
          "name": "E4",
          "midi": 64,
          "time": 155.27180418750086,
          "velocity": 1,
          "duration": 0.3834455624999862
        },
        {
          "name": "E3",
          "midi": 52,
          "time": 155.67383081250085,
          "velocity": 1,
          "duration": 0.5861480625000013
        },
        {
          "name": "B3",
          "midi": 59,
          "time": 155.67383081250085,
          "velocity": 0.905511811023622,
          "duration": 0.5861480625000013
        },
        {
          "name": "E4",
          "midi": 64,
          "time": 155.67383081250085,
          "velocity": 0.905511811023622,
          "duration": 0.5861480625000013
        },
        {
          "name": "G#4",
          "midi": 68,
          "time": 155.67383081250085,
          "velocity": 0.9606299212598425,
          "duration": 0.5861480625000013
        },
        {
          "name": "E3",
          "midi": 52,
          "time": 156.28362750000085,
          "velocity": 1,
          "duration": 0.1807430624999995
        },
        {
          "name": "B3",
          "midi": 59,
          "time": 156.28362750000085,
          "velocity": 0.9448818897637795,
          "duration": 0.1807430624999995
        },
        {
          "name": "E4",
          "midi": 64,
          "time": 156.28362750000085,
          "velocity": 1,
          "duration": 0.1807430624999995
        },
        {
          "name": "G#4",
          "midi": 68,
          "time": 156.28362750000085,
          "velocity": 1,
          "duration": 0.1807430624999995
        },
        {
          "name": "F#3",
          "midi": 54,
          "time": 156.89004581250086,
          "velocity": 1,
          "duration": 0.5878372500000069
        },
        {
          "name": "F#4",
          "midi": 66,
          "time": 157.49984250000085,
          "velocity": 0.984251968503937,
          "duration": 0.3834455624999862
        },
        {
          "name": "F#3",
          "midi": 54,
          "time": 157.90524750000083,
          "velocity": 1,
          "duration": 0.1807430624999995
        },
        {
          "name": "D#4",
          "midi": 63,
          "time": 158.10626081250084,
          "velocity": 1,
          "duration": 0.38513474999999175
        },
        {
          "name": "F#4",
          "midi": 66,
          "time": 158.10626081250084,
          "velocity": 1,
          "duration": 0.3834455624999862
        },
        {
          "name": "B3",
          "midi": 59,
          "time": 158.50997662500083,
          "velocity": 1,
          "duration": 0.3834455624999862
        },
        {
          "name": "D#4",
          "midi": 63,
          "time": 158.50997662500083,
          "velocity": 1,
          "duration": 0.3834455624999862
        },
        {
          "name": "G#3",
          "midi": 56,
          "time": 158.9153816250008,
          "velocity": 1,
          "duration": 0.5861480625000013
        },
        {
          "name": "C#4",
          "midi": 61,
          "time": 158.91876000000082,
          "velocity": 0.9606299212598425,
          "duration": 0.5861480625000013
        },
        {
          "name": "C#4",
          "midi": 61,
          "time": 159.52517831250083,
          "velocity": 0.9133858267716536,
          "duration": 0.18243224999997665
        },
        {
          "name": "E4",
          "midi": 64,
          "time": 159.52517831250083,
          "velocity": 0.9448818897637795,
          "duration": 0.18243224999997665
        },
        {
          "name": "G#4",
          "midi": 68,
          "time": 159.53024587500082,
          "velocity": 1,
          "duration": 0.17905387499999392
        },
        {
          "name": "E3",
          "midi": 52,
          "time": 160.13328581250082,
          "velocity": 1,
          "duration": 1.1942555625000182
        },
        {
          "name": "E4",
          "midi": 64,
          "time": 160.13328581250082,
          "velocity": 0.8818897637795275,
          "duration": 0.9915530625000031
        },
        {
          "name": "A2",
          "midi": 45,
          "time": 160.13497500000082,
          "velocity": 1,
          "duration": 1.1942555625000182
        },
        {
          "name": "C#4",
          "midi": 61,
          "time": 160.13497500000082,
          "velocity": 0.9606299212598425,
          "duration": 0.9915530625000031
        },
        {
          "name": "A3",
          "midi": 57,
          "time": 160.13666418750083,
          "velocity": 0.9133858267716536,
          "duration": 1.1942555625000182
        },
        {
          "name": "A4",
          "midi": 69,
          "time": 160.94409581250082,
          "velocity": 1,
          "duration": 0.790539750000022
        },
        {
          "name": "E4",
          "midi": 64,
          "time": 161.35287918750083,
          "velocity": 0.9921259842519685,
          "duration": 0.3834455625000146
        },
        {
          "name": "E3",
          "midi": 52,
          "time": 162.15862162500085,
          "velocity": 1,
          "duration": 0.788850562499988
        },
        {
          "name": "B3",
          "midi": 59,
          "time": 162.15862162500085,
          "velocity": 0.8740157480314961,
          "duration": 4.035468937499985
        },
        {
          "name": "D#4",
          "midi": 63,
          "time": 162.15862162500085,
          "velocity": 0.9133858267716536,
          "duration": 4.035468937499985
        },
        {
          "name": "G#4",
          "midi": 68,
          "time": 162.15862162500085,
          "velocity": 0.9133858267716536,
          "duration": 4.0337797499999795
        },
        {
          "name": "E3",
          "midi": 52,
          "time": 162.97112081250083,
          "velocity": 0.952755905511811,
          "duration": 3.22465893750001
        },
        {
          "name": "F#3",
          "midi": 54,
          "time": 169.05219581250083,
          "velocity": 1,
          "duration": 0.3783779999999979
        },
        {
          "name": "A4",
          "midi": 69,
          "time": 169.05219581250083,
          "velocity": 1,
          "duration": 0.3783779999999979
        },
        {
          "name": "C#4",
          "midi": 61,
          "time": 169.05388500000083,
          "velocity": 1,
          "duration": 0.38006718750000346
        },
        {
          "name": "F#4",
          "midi": 66,
          "time": 169.05557418750084,
          "velocity": 1,
          "duration": 0.38006718750000346
        },
        {
          "name": "G#4",
          "midi": 68,
          "time": 169.86131662500085,
          "velocity": 1,
          "duration": 0.38006718750000346
        },
        {
          "name": "E3",
          "midi": 52,
          "time": 169.86300581250086,
          "velocity": 1,
          "duration": 0.38175637500000903
        },
        {
          "name": "B3",
          "midi": 59,
          "time": 169.86300581250086,
          "velocity": 1,
          "duration": 0.38175637500000903
        },
        {
          "name": "E4",
          "midi": 64,
          "time": 169.86300581250086,
          "velocity": 1,
          "duration": 0.38175637500000903
        },
        {
          "name": "E3",
          "midi": 52,
          "time": 170.26672162500086,
          "velocity": 1,
          "duration": 0.7888505625000164
        },
        {
          "name": "B3",
          "midi": 59,
          "time": 170.26672162500086,
          "velocity": 1,
          "duration": 0.7888505625000164
        },
        {
          "name": "E4",
          "midi": 64,
          "time": 170.26672162500086,
          "velocity": 1,
          "duration": 0.7854721875000052
        },
        {
          "name": "G#4",
          "midi": 68,
          "time": 170.26672162500086,
          "velocity": 1,
          "duration": 0.7854721875000052
        },
        {
          "name": "E3",
          "midi": 52,
          "time": 171.07753162500086,
          "velocity": 1,
          "duration": 0.38175637500000903
        },
        {
          "name": "B3",
          "midi": 59,
          "time": 171.07753162500086,
          "velocity": 1,
          "duration": 0.38175637500000903
        },
        {
          "name": "E4",
          "midi": 64,
          "time": 171.07753162500086,
          "velocity": 1,
          "duration": 0.38175637500000903
        },
        {
          "name": "G#4",
          "midi": 68,
          "time": 171.07753162500086,
          "velocity": 1,
          "duration": 0.38175637500000903
        },
        {
          "name": "B3",
          "midi": 59,
          "time": 171.88834162500086,
          "velocity": 1,
          "duration": 0.17905387499999392
        },
        {
          "name": "F#4",
          "midi": 66,
          "time": 171.88834162500086,
          "velocity": 1,
          "duration": 0.17905387499999392
        },
        {
          "name": "B4",
          "midi": 71,
          "time": 171.88834162500086,
          "velocity": 1,
          "duration": 0.17905387499999392
        },
        {
          "name": "D#5",
          "midi": 75,
          "time": 171.89509837500086,
          "velocity": 1,
          "duration": 0.1756755000000112
        },
        {
          "name": "B4",
          "midi": 71,
          "time": 172.09104412500088,
          "velocity": 1,
          "duration": 0.17905387499999392
        },
        {
          "name": "B3",
          "midi": 59,
          "time": 172.09273331250088,
          "velocity": 1,
          "duration": 0.17905387499999392
        },
        {
          "name": "F#4",
          "midi": 66,
          "time": 172.09273331250088,
          "velocity": 1,
          "duration": 0.17905387499999392
        },
        {
          "name": "D#5",
          "midi": 75,
          "time": 172.09273331250088,
          "velocity": 1,
          "duration": 0.17905387499999392
        },
        {
          "name": "B3",
          "midi": 59,
          "time": 172.29712500000088,
          "velocity": 1,
          "duration": 0.17736468749998835
        },
        {
          "name": "F#4",
          "midi": 66,
          "time": 172.29712500000088,
          "velocity": 1,
          "duration": 0.17905387499999392
        },
        {
          "name": "B4",
          "midi": 71,
          "time": 172.29712500000088,
          "velocity": 1,
          "duration": 0.17736468749998835
        },
        {
          "name": "D#5",
          "midi": 75,
          "time": 172.29712500000088,
          "velocity": 1,
          "duration": 0.17905387499999392
        },
        {
          "name": "F#4",
          "midi": 66,
          "time": 172.49813831250086,
          "velocity": 1,
          "duration": 0.17736468750001677
        },
        {
          "name": "B4",
          "midi": 71,
          "time": 172.49813831250086,
          "velocity": 1,
          "duration": 0.17736468750001677
        },
        {
          "name": "B3",
          "midi": 59,
          "time": 172.49982750000086,
          "velocity": 1,
          "duration": 0.17736468750001677
        },
        {
          "name": "D#5",
          "midi": 75,
          "time": 172.49982750000086,
          "velocity": 1,
          "duration": 0.17736468750001677
        },
        {
          "name": "F#3",
          "midi": 54,
          "time": 173.10455662500087,
          "velocity": 1,
          "duration": 0.7888505625000164
        },
        {
          "name": "C#4",
          "midi": 61,
          "time": 173.10455662500087,
          "velocity": 1,
          "duration": 0.7871613750000108
        },
        {
          "name": "F#4",
          "midi": 66,
          "time": 173.10455662500087,
          "velocity": 1,
          "duration": 0.7888505625000164
        },
        {
          "name": "A4",
          "midi": 69,
          "time": 173.10455662500087,
          "velocity": 1,
          "duration": 0.7871613750000108
        },
        {
          "name": "C#5",
          "midi": 73,
          "time": 173.10455662500087,
          "velocity": 1,
          "duration": 0.7888505625000164
        },
        {
          "name": "F#3",
          "midi": 54,
          "time": 173.91874500000088,
          "velocity": 0.952755905511811,
          "duration": 0.3783779999999979
        },
        {
          "name": "C#4",
          "midi": 61,
          "time": 173.91874500000088,
          "velocity": 0.952755905511811,
          "duration": 0.3783779999999979
        },
        {
          "name": "F#4",
          "midi": 66,
          "time": 173.91874500000088,
          "velocity": 0.952755905511811,
          "duration": 0.3783779999999979
        },
        {
          "name": "A4",
          "midi": 69,
          "time": 173.91874500000088,
          "velocity": 0.952755905511811,
          "duration": 0.3783779999999979
        },
        {
          "name": "C#5",
          "midi": 73,
          "time": 173.91874500000088,
          "velocity": 0.952755905511811,
          "duration": 0.3783779999999979
        },
        {
          "name": "F#3",
          "midi": 54,
          "time": 174.32246081250088,
          "velocity": 0.952755905511811,
          "duration": 0.38006718750000346
        },
        {
          "name": "C#4",
          "midi": 61,
          "time": 174.32246081250088,
          "velocity": 0.952755905511811,
          "duration": 0.38006718750000346
        },
        {
          "name": "F#4",
          "midi": 66,
          "time": 174.32246081250088,
          "velocity": 0.952755905511811,
          "duration": 0.38006718750000346
        },
        {
          "name": "A4",
          "midi": 69,
          "time": 174.32246081250088,
          "velocity": 0.952755905511811,
          "duration": 0.38006718750000346
        },
        {
          "name": "C#5",
          "midi": 73,
          "time": 174.32246081250088,
          "velocity": 0.952755905511811,
          "duration": 0.38006718750000346
        },
        {
          "name": "F#3",
          "midi": 54,
          "time": 174.72786581250088,
          "velocity": 0.9606299212598425,
          "duration": 0.01689187499999889
        },
        {
          "name": "C#4",
          "midi": 61,
          "time": 174.72786581250088,
          "velocity": 0.9606299212598425,
          "duration": 0.01689187499999889
        },
        {
          "name": "F#4",
          "midi": 66,
          "time": 174.72786581250088,
          "velocity": 0.9606299212598425,
          "duration": 0.020270250000010037
        },
        {
          "name": "A4",
          "midi": 69,
          "time": 174.72786581250088,
          "velocity": 0.9606299212598425,
          "duration": 0.020270250000010037
        },
        {
          "name": "C#5",
          "midi": 73,
          "time": 174.72786581250088,
          "velocity": 0.9606299212598425,
          "duration": 0.01689187499999889
        },
        {
          "name": "F#3",
          "midi": 54,
          "time": 174.9288791250009,
          "velocity": 0.968503937007874,
          "duration": 0.016891875000027312
        },
        {
          "name": "C#4",
          "midi": 61,
          "time": 174.9288791250009,
          "velocity": 0.968503937007874,
          "duration": 0.016891875000027312
        },
        {
          "name": "A4",
          "midi": 69,
          "time": 174.9288791250009,
          "velocity": 0.968503937007874,
          "duration": 0.016891875000027312
        },
        {
          "name": "F#4",
          "midi": 66,
          "time": 174.9322575000009,
          "velocity": 0.968503937007874,
          "duration": 0.016891875000027312
        },
        {
          "name": "C#5",
          "midi": 73,
          "time": 174.9339466875009,
          "velocity": 0.968503937007874,
          "duration": 0.016891875000027312
        },
        {
          "name": "F#4",
          "midi": 66,
          "time": 175.13158162500093,
          "velocity": 0.9606299212598425,
          "duration": 0.018581062500004464
        },
        {
          "name": "F#3",
          "midi": 54,
          "time": 175.13496000000094,
          "velocity": 0.9606299212598425,
          "duration": 0.01689187499999889
        },
        {
          "name": "C#4",
          "midi": 61,
          "time": 175.13496000000094,
          "velocity": 0.9606299212598425,
          "duration": 0.01689187499999889
        },
        {
          "name": "A4",
          "midi": 69,
          "time": 175.13496000000094,
          "velocity": 0.9606299212598425,
          "duration": 0.01689187499999889
        },
        {
          "name": "C#5",
          "midi": 73,
          "time": 175.13496000000094,
          "velocity": 0.9606299212598425,
          "duration": 0.01689187499999889
        },
        {
          "name": "C#4",
          "midi": 61,
          "time": 175.33597331250095,
          "velocity": 0.968503937007874,
          "duration": 0.01689187499999889
        },
        {
          "name": "F#3",
          "midi": 54,
          "time": 175.33766250000096,
          "velocity": 0.968503937007874,
          "duration": 0.01689187499999889
        },
        {
          "name": "F#4",
          "midi": 66,
          "time": 175.33766250000096,
          "velocity": 0.968503937007874,
          "duration": 0.01689187499999889
        },
        {
          "name": "A4",
          "midi": 69,
          "time": 175.33766250000096,
          "velocity": 0.968503937007874,
          "duration": 0.01689187499999889
        },
        {
          "name": "C#5",
          "midi": 73,
          "time": 175.33766250000096,
          "velocity": 0.968503937007874,
          "duration": 0.01689187499999889
        },
        {
          "name": "F#3",
          "midi": 54,
          "time": 175.54036500000095,
          "velocity": 1,
          "duration": 0.3783779999999979
        },
        {
          "name": "F#4",
          "midi": 66,
          "time": 175.54036500000095,
          "velocity": 1,
          "duration": 0.3783779999999979
        },
        {
          "name": "A4",
          "midi": 69,
          "time": 175.54036500000095,
          "velocity": 1,
          "duration": 0.38006718750000346
        },
        {
          "name": "C#4",
          "midi": 61,
          "time": 175.54205418750095,
          "velocity": 1,
          "duration": 0.38006718750000346
        },
        {
          "name": "E3",
          "midi": 52,
          "time": 176.35117500000095,
          "velocity": 1,
          "duration": 0.38006718750000346
        },
        {
          "name": "B3",
          "midi": 59,
          "time": 176.35117500000095,
          "velocity": 1,
          "duration": 0.38006718750000346
        },
        {
          "name": "E4",
          "midi": 64,
          "time": 176.35117500000095,
          "velocity": 1,
          "duration": 0.38006718750000346
        },
        {
          "name": "G#4",
          "midi": 68,
          "time": 176.35117500000095,
          "velocity": 1,
          "duration": 0.38006718750000346
        },
        {
          "name": "E3",
          "midi": 52,
          "time": 176.75489081250095,
          "velocity": 1,
          "duration": 0.7871613750000108
        },
        {
          "name": "B3",
          "midi": 59,
          "time": 176.75489081250095,
          "velocity": 1,
          "duration": 0.7888505625000164
        },
        {
          "name": "E4",
          "midi": 64,
          "time": 176.75489081250095,
          "velocity": 1,
          "duration": 0.7888505625000164
        },
        {
          "name": "G#4",
          "midi": 68,
          "time": 176.75489081250095,
          "velocity": 1,
          "duration": 0.7871613750000108
        },
        {
          "name": "E3",
          "midi": 52,
          "time": 177.56570081250095,
          "velocity": 1,
          "duration": 0.3817563749999806
        },
        {
          "name": "E4",
          "midi": 64,
          "time": 177.56570081250095,
          "velocity": 1,
          "duration": 0.3817563749999806
        },
        {
          "name": "G#4",
          "midi": 68,
          "time": 177.56570081250095,
          "velocity": 1,
          "duration": 0.3817563749999806
        },
        {
          "name": "B3",
          "midi": 59,
          "time": 177.57076837500094,
          "velocity": 1,
          "duration": 0.3783779999999979
        },
        {
          "name": "B4",
          "midi": 71,
          "time": 178.37482162500095,
          "velocity": 1,
          "duration": 0.17736468750001677
        },
        {
          "name": "B3",
          "midi": 59,
          "time": 178.37820000000096,
          "velocity": 1,
          "duration": 0.17736468750001677
        },
        {
          "name": "F#4",
          "midi": 66,
          "time": 178.37820000000096,
          "velocity": 1,
          "duration": 0.17736468750001677
        },
        {
          "name": "D#5",
          "midi": 75,
          "time": 178.37820000000096,
          "velocity": 1,
          "duration": 0.17736468750001677
        },
        {
          "name": "B3",
          "midi": 59,
          "time": 178.58090250000097,
          "velocity": 1,
          "duration": 0.17736468749998835
        },
        {
          "name": "F#4",
          "midi": 66,
          "time": 178.58090250000097,
          "velocity": 1,
          "duration": 0.17736468749998835
        },
        {
          "name": "B4",
          "midi": 71,
          "time": 178.58090250000097,
          "velocity": 1,
          "duration": 0.17736468749998835
        },
        {
          "name": "D#5",
          "midi": 75,
          "time": 178.58090250000097,
          "velocity": 1,
          "duration": 0.17736468749998835
        },
        {
          "name": "B3",
          "midi": 59,
          "time": 178.78022662500095,
          "velocity": 1,
          "duration": 0.17905387499999392
        },
        {
          "name": "B4",
          "midi": 71,
          "time": 178.78022662500095,
          "velocity": 1,
          "duration": 0.17905387499999392
        },
        {
          "name": "D#5",
          "midi": 75,
          "time": 178.78022662500095,
          "velocity": 1,
          "duration": 0.17905387499999392
        },
        {
          "name": "F#4",
          "midi": 66,
          "time": 178.78698337500094,
          "velocity": 1,
          "duration": 0.1756755000000112
        },
        {
          "name": "B3",
          "midi": 59,
          "time": 178.98292912500096,
          "velocity": 1,
          "duration": 0.17736468750001677
        },
        {
          "name": "F#4",
          "midi": 66,
          "time": 178.98630750000098,
          "velocity": 1,
          "duration": 0.17736468750001677
        },
        {
          "name": "B4",
          "midi": 71,
          "time": 178.98630750000098,
          "velocity": 1,
          "duration": 0.17736468750001677
        },
        {
          "name": "D#5",
          "midi": 75,
          "time": 178.98799668750098,
          "velocity": 1,
          "duration": 0.17736468750001677
        },
        {
          "name": "F#3",
          "midi": 54,
          "time": 179.592725812501,
          "velocity": 1,
          "duration": 0.7854721875000052
        },
        {
          "name": "C#5",
          "midi": 73,
          "time": 179.594415000001,
          "velocity": 1,
          "duration": 0.7854721875000052
        },
        {
          "name": "C#4",
          "midi": 61,
          "time": 179.596104187501,
          "velocity": 1,
          "duration": 0.7854721875000052
        },
        {
          "name": "F#4",
          "midi": 66,
          "time": 179.596104187501,
          "velocity": 1,
          "duration": 0.7854721875000052
        },
        {
          "name": "A4",
          "midi": 69,
          "time": 179.596104187501,
          "velocity": 1,
          "duration": 0.7854721875000052
        },
        {
          "name": "F#4",
          "midi": 66,
          "time": 180.401846625001,
          "velocity": 0.952755905511811,
          "duration": 0.38006718750000346
        },
        {
          "name": "F#3",
          "midi": 54,
          "time": 180.40522500000102,
          "velocity": 0.952755905511811,
          "duration": 0.38006718750000346
        },
        {
          "name": "C#4",
          "midi": 61,
          "time": 180.40522500000102,
          "velocity": 0.952755905511811,
          "duration": 0.38006718750000346
        },
        {
          "name": "A4",
          "midi": 69,
          "time": 180.40522500000102,
          "velocity": 0.952755905511811,
          "duration": 0.38006718750000346
        },
        {
          "name": "C#5",
          "midi": 73,
          "time": 180.40522500000102,
          "velocity": 0.952755905511811,
          "duration": 0.38006718750000346
        },
        {
          "name": "A4",
          "midi": 69,
          "time": 180.80894081250102,
          "velocity": 0.952755905511811,
          "duration": 0.38006718750000346
        },
        {
          "name": "C#5",
          "midi": 73,
          "time": 180.80894081250102,
          "velocity": 0.952755905511811,
          "duration": 0.38006718750000346
        },
        {
          "name": "F#3",
          "midi": 54,
          "time": 180.81063000000103,
          "velocity": 0.952755905511811,
          "duration": 0.38006718750000346
        },
        {
          "name": "C#4",
          "midi": 61,
          "time": 180.81231918750103,
          "velocity": 0.952755905511811,
          "duration": 0.38006718750000346
        },
        {
          "name": "F#4",
          "midi": 66,
          "time": 180.81231918750103,
          "velocity": 0.952755905511811,
          "duration": 0.38006718750000346
        },
        {
          "name": "F#3",
          "midi": 54,
          "time": 181.21434581250102,
          "velocity": 0.9606299212598425,
          "duration": 0.018581062500004464
        },
        {
          "name": "C#4",
          "midi": 61,
          "time": 181.21434581250102,
          "velocity": 0.9606299212598425,
          "duration": 0.018581062500004464
        },
        {
          "name": "F#4",
          "midi": 66,
          "time": 181.21434581250102,
          "velocity": 0.9606299212598425,
          "duration": 0.018581062500004464
        },
        {
          "name": "A4",
          "midi": 69,
          "time": 181.21434581250102,
          "velocity": 0.9606299212598425,
          "duration": 0.018581062500004464
        },
        {
          "name": "C#5",
          "midi": 73,
          "time": 181.21434581250102,
          "velocity": 0.9606299212598425,
          "duration": 0.018581062500004464
        },
        {
          "name": "C#4",
          "midi": 61,
          "time": 181.41704831250104,
          "velocity": 0.968503937007874,
          "duration": 0.01689187499999889
        },
        {
          "name": "F#3",
          "midi": 54,
          "time": 181.41873750000104,
          "velocity": 0.968503937007874,
          "duration": 0.01689187499999889
        },
        {
          "name": "F#4",
          "midi": 66,
          "time": 181.41873750000104,
          "velocity": 0.968503937007874,
          "duration": 0.01689187499999889
        },
        {
          "name": "A4",
          "midi": 69,
          "time": 181.41873750000104,
          "velocity": 0.968503937007874,
          "duration": 0.01689187499999889
        },
        {
          "name": "C#5",
          "midi": 73,
          "time": 181.41873750000104,
          "velocity": 0.968503937007874,
          "duration": 0.01689187499999889
        },
        {
          "name": "F#3",
          "midi": 54,
          "time": 181.61975081250105,
          "velocity": 0.9606299212598425,
          "duration": 0.018581062500004464
        },
        {
          "name": "C#4",
          "midi": 61,
          "time": 181.61975081250105,
          "velocity": 0.9606299212598425,
          "duration": 0.018581062500004464
        },
        {
          "name": "F#4",
          "midi": 66,
          "time": 181.61975081250105,
          "velocity": 0.9606299212598425,
          "duration": 0.018581062500004464
        },
        {
          "name": "A4",
          "midi": 69,
          "time": 181.61975081250105,
          "velocity": 0.9606299212598425,
          "duration": 0.018581062500004464
        },
        {
          "name": "C#5",
          "midi": 73,
          "time": 181.61975081250105,
          "velocity": 0.9606299212598425,
          "duration": 0.018581062500004464
        },
        {
          "name": "C#4",
          "midi": 61,
          "time": 181.82245331250107,
          "velocity": 0.968503937007874,
          "duration": 0.018581062499976042
        },
        {
          "name": "F#4",
          "midi": 66,
          "time": 181.82245331250107,
          "velocity": 0.968503937007874,
          "duration": 0.018581062499976042
        },
        {
          "name": "A4",
          "midi": 69,
          "time": 181.82245331250107,
          "velocity": 0.968503937007874,
          "duration": 0.018581062499976042
        },
        {
          "name": "C#5",
          "midi": 73,
          "time": 181.82245331250107,
          "velocity": 0.968503937007874,
          "duration": 0.018581062499976042
        },
        {
          "name": "F#3",
          "midi": 54,
          "time": 181.82752087500106,
          "velocity": 0.968503937007874,
          "duration": 0.015202687499993317
        },
        {
          "name": "F#3",
          "midi": 54,
          "time": 182.02346662500105,
          "velocity": 1,
          "duration": 0.3817563749999806
        },
        {
          "name": "F#4",
          "midi": 66,
          "time": 182.02346662500105,
          "velocity": 1,
          "duration": 0.3817563749999806
        },
        {
          "name": "C#4",
          "midi": 61,
          "time": 182.02853418750104,
          "velocity": 1,
          "duration": 0.38006718750000346
        },
        {
          "name": "A4",
          "midi": 69,
          "time": 182.02853418750104,
          "velocity": 1,
          "duration": 0.38006718750000346
        },
        {
          "name": "E3",
          "midi": 52,
          "time": 182.83427662500105,
          "velocity": 1,
          "duration": 0.38175637500000903
        },
        {
          "name": "B3",
          "midi": 59,
          "time": 182.83427662500105,
          "velocity": 1,
          "duration": 0.38175637500000903
        },
        {
          "name": "E4",
          "midi": 64,
          "time": 182.83427662500105,
          "velocity": 1,
          "duration": 0.38175637500000903
        },
        {
          "name": "G#4",
          "midi": 68,
          "time": 182.83427662500105,
          "velocity": 1,
          "duration": 0.3834455625000146
        },
        {
          "name": "E3",
          "midi": 52,
          "time": 183.23968162500105,
          "velocity": 1,
          "duration": 0.7888505625000164
        },
        {
          "name": "B3",
          "midi": 59,
          "time": 183.23968162500105,
          "velocity": 1,
          "duration": 0.7888505625000164
        },
        {
          "name": "E4",
          "midi": 64,
          "time": 183.23968162500105,
          "velocity": 1,
          "duration": 0.7871613750000108
        },
        {
          "name": "G#4",
          "midi": 68,
          "time": 183.23968162500105,
          "velocity": 1,
          "duration": 0.7871613750000108
        },
        {
          "name": "E3",
          "midi": 52,
          "time": 184.05049162500106,
          "velocity": 1,
          "duration": 0.38006718750000346
        },
        {
          "name": "B3",
          "midi": 59,
          "time": 184.05049162500106,
          "velocity": 1,
          "duration": 0.38006718750000346
        },
        {
          "name": "E4",
          "midi": 64,
          "time": 184.05049162500106,
          "velocity": 1,
          "duration": 0.38513474999999175
        },
        {
          "name": "G#4",
          "midi": 68,
          "time": 184.05049162500106,
          "velocity": 1,
          "duration": 0.38006718750000346
        },
        {
          "name": "F#4",
          "midi": 66,
          "time": 184.86299081250104,
          "velocity": 1,
          "duration": 0.17736468750001677
        },
        {
          "name": "B4",
          "midi": 71,
          "time": 184.86299081250104,
          "velocity": 1,
          "duration": 0.17736468750001677
        },
        {
          "name": "D#5",
          "midi": 75,
          "time": 184.86299081250104,
          "velocity": 1,
          "duration": 0.17736468750001677
        },
        {
          "name": "B3",
          "midi": 59,
          "time": 184.86636918750105,
          "velocity": 1,
          "duration": 0.17905387499999392
        },
        {
          "name": "B3",
          "midi": 59,
          "time": 185.06569331250105,
          "velocity": 1,
          "duration": 0.17736468749998835
        },
        {
          "name": "F#4",
          "midi": 66,
          "time": 185.06569331250105,
          "velocity": 1,
          "duration": 0.17736468749998835
        },
        {
          "name": "B4",
          "midi": 71,
          "time": 185.06569331250105,
          "velocity": 1,
          "duration": 0.17736468749998835
        },
        {
          "name": "D#5",
          "midi": 75,
          "time": 185.06569331250105,
          "velocity": 1,
          "duration": 0.17736468749998835
        },
        {
          "name": "B3",
          "midi": 59,
          "time": 185.26839581250104,
          "velocity": 1,
          "duration": 0.17736468750001677
        },
        {
          "name": "F#4",
          "midi": 66,
          "time": 185.27008500000105,
          "velocity": 1,
          "duration": 0.17736468750001677
        },
        {
          "name": "B4",
          "midi": 71,
          "time": 185.27008500000105,
          "velocity": 1,
          "duration": 0.17736468750001677
        },
        {
          "name": "D#5",
          "midi": 75,
          "time": 185.27008500000105,
          "velocity": 1,
          "duration": 0.17736468750001677
        },
        {
          "name": "B3",
          "midi": 59,
          "time": 185.47109831250106,
          "velocity": 1,
          "duration": 0.17736468749998835
        },
        {
          "name": "F#4",
          "midi": 66,
          "time": 185.47109831250106,
          "velocity": 1,
          "duration": 0.17736468749998835
        },
        {
          "name": "B4",
          "midi": 71,
          "time": 185.47109831250106,
          "velocity": 1,
          "duration": 0.17736468749998835
        },
        {
          "name": "D#5",
          "midi": 75,
          "time": 185.47109831250106,
          "velocity": 1,
          "duration": 0.17736468749998835
        },
        {
          "name": "F#3",
          "midi": 54,
          "time": 186.07751662500104,
          "velocity": 1,
          "duration": 0.7871613750000108
        },
        {
          "name": "C#4",
          "midi": 61,
          "time": 186.07751662500104,
          "velocity": 1,
          "duration": 0.7871613750000108
        },
        {
          "name": "F#4",
          "midi": 66,
          "time": 186.07751662500104,
          "velocity": 1,
          "duration": 0.7871613750000108
        },
        {
          "name": "A4",
          "midi": 69,
          "time": 186.07751662500104,
          "velocity": 1,
          "duration": 0.7871613750000108
        },
        {
          "name": "C#5",
          "midi": 73,
          "time": 186.07751662500104,
          "velocity": 1,
          "duration": 0.7871613750000108
        },
        {
          "name": "C#4",
          "midi": 61,
          "time": 186.88832662500104,
          "velocity": 0.952755905511811,
          "duration": 0.38175637500000903
        },
        {
          "name": "F#4",
          "midi": 66,
          "time": 186.88832662500104,
          "velocity": 0.952755905511811,
          "duration": 0.38175637500000903
        },
        {
          "name": "A4",
          "midi": 69,
          "time": 186.88832662500104,
          "velocity": 0.952755905511811,
          "duration": 0.38006718750000346
        },
        {
          "name": "C#5",
          "midi": 73,
          "time": 186.88832662500104,
          "velocity": 0.952755905511811,
          "duration": 0.38175637500000903
        },
        {
          "name": "F#3",
          "midi": 54,
          "time": 186.89508337500104,
          "velocity": 0.952755905511811,
          "duration": 0.38006718750000346
        },
        {
          "name": "F#3",
          "midi": 54,
          "time": 187.29711000000103,
          "velocity": 0.952755905511811,
          "duration": 0.38006718750000346
        },
        {
          "name": "C#4",
          "midi": 61,
          "time": 187.29711000000103,
          "velocity": 0.952755905511811,
          "duration": 0.38006718750000346
        },
        {
          "name": "C#5",
          "midi": 73,
          "time": 187.29711000000103,
          "velocity": 0.952755905511811,
          "duration": 0.38006718750000346
        },
        {
          "name": "F#4",
          "midi": 66,
          "time": 187.29879918750103,
          "velocity": 0.952755905511811,
          "duration": 0.38006718750000346
        },
        {
          "name": "A4",
          "midi": 69,
          "time": 187.29879918750103,
          "velocity": 0.952755905511811,
          "duration": 0.38006718750000346
        },
        {
          "name": "F#3",
          "midi": 54,
          "time": 187.70082581250102,
          "velocity": 0.9606299212598425,
          "duration": 0.018581062500004464
        },
        {
          "name": "C#4",
          "midi": 61,
          "time": 187.70082581250102,
          "velocity": 0.9606299212598425,
          "duration": 0.018581062500004464
        },
        {
          "name": "C#5",
          "midi": 73,
          "time": 187.70082581250102,
          "velocity": 0.9606299212598425,
          "duration": 0.01689187499999889
        },
        {
          "name": "F#4",
          "midi": 66,
          "time": 187.705893375001,
          "velocity": 0.9606299212598425,
          "duration": 0.015202687500021739
        },
        {
          "name": "A4",
          "midi": 69,
          "time": 187.705893375001,
          "velocity": 0.9606299212598425,
          "duration": 0.015202687500021739
        },
        {
          "name": "A4",
          "midi": 69,
          "time": 187.90352831250104,
          "velocity": 0.968503937007874,
          "duration": 0.01689187499999889
        },
        {
          "name": "F#3",
          "midi": 54,
          "time": 187.90521750000104,
          "velocity": 0.968503937007874,
          "duration": 0.01689187499999889
        },
        {
          "name": "C#5",
          "midi": 73,
          "time": 187.90521750000104,
          "velocity": 0.968503937007874,
          "duration": 0.01689187499999889
        },
        {
          "name": "C#4",
          "midi": 61,
          "time": 187.90690668750105,
          "velocity": 0.968503937007874,
          "duration": 0.01689187499999889
        },
        {
          "name": "F#4",
          "midi": 66,
          "time": 187.90690668750105,
          "velocity": 0.968503937007874,
          "duration": 0.01689187499999889
        },
        {
          "name": "F#3",
          "midi": 54,
          "time": 188.10454162500105,
          "velocity": 0.9606299212598425,
          "duration": 0.018581062500004464
        },
        {
          "name": "C#4",
          "midi": 61,
          "time": 188.10454162500105,
          "velocity": 0.9606299212598425,
          "duration": 0.018581062500004464
        },
        {
          "name": "F#4",
          "midi": 66,
          "time": 188.10454162500105,
          "velocity": 0.9606299212598425,
          "duration": 0.018581062500004464
        },
        {
          "name": "A4",
          "midi": 69,
          "time": 188.10454162500105,
          "velocity": 0.9606299212598425,
          "duration": 0.018581062500004464
        },
        {
          "name": "C#5",
          "midi": 73,
          "time": 188.10454162500105,
          "velocity": 0.9606299212598425,
          "duration": 0.018581062500004464
        },
        {
          "name": "C#4",
          "midi": 61,
          "time": 188.31062250000105,
          "velocity": 0.968503937007874,
          "duration": 0.015202687499993317
        },
        {
          "name": "F#4",
          "midi": 66,
          "time": 188.31062250000105,
          "velocity": 0.968503937007874,
          "duration": 0.015202687499993317
        },
        {
          "name": "A4",
          "midi": 69,
          "time": 188.31062250000105,
          "velocity": 0.968503937007874,
          "duration": 0.015202687499993317
        },
        {
          "name": "F#3",
          "midi": 54,
          "time": 188.31231168750105,
          "velocity": 0.968503937007874,
          "duration": 0.018581062499976042
        },
        {
          "name": "C#5",
          "midi": 73,
          "time": 188.31231168750105,
          "velocity": 0.968503937007874,
          "duration": 0.018581062499976042
        },
        {
          "name": "C#4",
          "midi": 61,
          "time": 188.51163581250103,
          "velocity": 1,
          "duration": 0.3783779999999979
        },
        {
          "name": "F#3",
          "midi": 54,
          "time": 188.51332500000103,
          "velocity": 1,
          "duration": 0.38006718750000346
        },
        {
          "name": "F#4",
          "midi": 66,
          "time": 188.51332500000103,
          "velocity": 1,
          "duration": 0.38006718750000346
        },
        {
          "name": "A4",
          "midi": 69,
          "time": 188.51332500000103,
          "velocity": 1,
          "duration": 0.38006718750000346
        },
        {
          "name": "B3",
          "midi": 59,
          "time": 189.32075662500102,
          "velocity": 1,
          "duration": 0.38006718750000346
        },
        {
          "name": "E4",
          "midi": 64,
          "time": 189.32075662500102,
          "velocity": 1,
          "duration": 0.38006718750000346
        },
        {
          "name": "E3",
          "midi": 52,
          "time": 189.32413500000104,
          "velocity": 1,
          "duration": 0.38175637500000903
        },
        {
          "name": "G#4",
          "midi": 68,
          "time": 189.32413500000104,
          "velocity": 1,
          "duration": 0.38006718750000346
        },
        {
          "name": "E3",
          "midi": 52,
          "time": 189.72616162500105,
          "velocity": 1,
          "duration": 0.7871613749999824
        },
        {
          "name": "B3",
          "midi": 59,
          "time": 189.73122918750104,
          "velocity": 1,
          "duration": 0.7854721875000052
        },
        {
          "name": "E4",
          "midi": 64,
          "time": 189.73122918750104,
          "velocity": 1,
          "duration": 0.7854721875000052
        },
        {
          "name": "G#4",
          "midi": 68,
          "time": 189.73122918750104,
          "velocity": 1,
          "duration": 0.7854721875000052
        },
        {
          "name": "E3",
          "midi": 52,
          "time": 190.54035000000104,
          "velocity": 1,
          "duration": 0.38006718750000346
        },
        {
          "name": "B3",
          "midi": 59,
          "time": 190.54035000000104,
          "velocity": 1,
          "duration": 0.38006718750000346
        },
        {
          "name": "E4",
          "midi": 64,
          "time": 190.54035000000104,
          "velocity": 1,
          "duration": 0.38006718750000346
        },
        {
          "name": "G#4",
          "midi": 68,
          "time": 190.54035000000104,
          "velocity": 1,
          "duration": 0.38006718750000346
        },
        {
          "name": "F#4",
          "midi": 66,
          "time": 191.34947081250104,
          "velocity": 1,
          "duration": 0.17905387499999392
        },
        {
          "name": "B4",
          "midi": 71,
          "time": 191.34947081250104,
          "velocity": 1,
          "duration": 0.17736468749998835
        },
        {
          "name": "B3",
          "midi": 59,
          "time": 191.35453837500103,
          "velocity": 1,
          "duration": 0.1756755000000112
        },
        {
          "name": "D#5",
          "midi": 75,
          "time": 191.35453837500103,
          "velocity": 1,
          "duration": 0.1756755000000112
        },
        {
          "name": "F#4",
          "midi": 66,
          "time": 191.55048412500105,
          "velocity": 1,
          "duration": 0.17736468750001677
        },
        {
          "name": "B4",
          "midi": 71,
          "time": 191.55386250000106,
          "velocity": 1,
          "duration": 0.17736468750001677
        },
        {
          "name": "D#5",
          "midi": 75,
          "time": 191.55386250000106,
          "velocity": 1,
          "duration": 0.17736468750001677
        },
        {
          "name": "B3",
          "midi": 59,
          "time": 191.55555168750107,
          "velocity": 1,
          "duration": 0.17736468750001677
        },
        {
          "name": "F#4",
          "midi": 66,
          "time": 191.75487581250107,
          "velocity": 1,
          "duration": 0.17736468750001677
        },
        {
          "name": "B3",
          "midi": 59,
          "time": 191.75656500000107,
          "velocity": 1,
          "duration": 0.17736468750001677
        },
        {
          "name": "B4",
          "midi": 71,
          "time": 191.75656500000107,
          "velocity": 1,
          "duration": 0.17736468750001677
        },
        {
          "name": "D#5",
          "midi": 75,
          "time": 191.75656500000107,
          "velocity": 1,
          "duration": 0.17736468750001677
        },
        {
          "name": "B4",
          "midi": 71,
          "time": 191.95757831250108,
          "velocity": 1,
          "duration": 0.17736468750001677
        },
        {
          "name": "B3",
          "midi": 59,
          "time": 191.9592675000011,
          "velocity": 1,
          "duration": 0.17736468750001677
        },
        {
          "name": "F#4",
          "midi": 66,
          "time": 191.9592675000011,
          "velocity": 1,
          "duration": 0.17736468750001677
        },
        {
          "name": "D#5",
          "midi": 75,
          "time": 191.9592675000011,
          "velocity": 1,
          "duration": 0.17736468750001677
        },
        {
          "name": "F#3",
          "midi": 54,
          "time": 192.5673750000011,
          "velocity": 1,
          "duration": 0.7854721875000052
        },
        {
          "name": "C#4",
          "midi": 61,
          "time": 192.5673750000011,
          "velocity": 1,
          "duration": 0.7854721875000052
        },
        {
          "name": "F#4",
          "midi": 66,
          "time": 192.5673750000011,
          "velocity": 1,
          "duration": 0.7854721875000052
        },
        {
          "name": "A4",
          "midi": 69,
          "time": 192.5673750000011,
          "velocity": 1,
          "duration": 0.7854721875000052
        },
        {
          "name": "C#5",
          "midi": 73,
          "time": 192.5673750000011,
          "velocity": 1,
          "duration": 0.7854721875000052
        },
        {
          "name": "A4",
          "midi": 69,
          "time": 193.3764958125011,
          "velocity": 0.952755905511811,
          "duration": 0.38006718750000346
        },
        {
          "name": "F#3",
          "midi": 54,
          "time": 193.3781850000011,
          "velocity": 0.952755905511811,
          "duration": 0.38006718750000346
        },
        {
          "name": "C#4",
          "midi": 61,
          "time": 193.3781850000011,
          "velocity": 0.952755905511811,
          "duration": 0.38006718750000346
        },
        {
          "name": "F#4",
          "midi": 66,
          "time": 193.3781850000011,
          "velocity": 0.952755905511811,
          "duration": 0.38006718750000346
        },
        {
          "name": "C#5",
          "midi": 73,
          "time": 193.3781850000011,
          "velocity": 0.952755905511811,
          "duration": 0.38006718750000346
        },
        {
          "name": "F#3",
          "midi": 54,
          "time": 193.7835900000011,
          "velocity": 0.952755905511811,
          "duration": 0.3783779999999979
        },
        {
          "name": "C#4",
          "midi": 61,
          "time": 193.7835900000011,
          "velocity": 0.952755905511811,
          "duration": 0.3783779999999979
        },
        {
          "name": "F#4",
          "midi": 66,
          "time": 193.7835900000011,
          "velocity": 0.952755905511811,
          "duration": 0.3783779999999979
        },
        {
          "name": "A4",
          "midi": 69,
          "time": 193.7835900000011,
          "velocity": 0.952755905511811,
          "duration": 0.3783779999999979
        },
        {
          "name": "C#5",
          "midi": 73,
          "time": 193.7835900000011,
          "velocity": 0.952755905511811,
          "duration": 0.3783779999999979
        },
        {
          "name": "F#3",
          "midi": 54,
          "time": 194.1873058125011,
          "velocity": 0.9606299212598425,
          "duration": 0.01689187499999889
        },
        {
          "name": "C#4",
          "midi": 61,
          "time": 194.1873058125011,
          "velocity": 0.9606299212598425,
          "duration": 0.01689187499999889
        },
        {
          "name": "F#4",
          "midi": 66,
          "time": 194.1873058125011,
          "velocity": 0.9606299212598425,
          "duration": 0.01689187499999889
        },
        {
          "name": "A4",
          "midi": 69,
          "time": 194.1873058125011,
          "velocity": 0.9606299212598425,
          "duration": 0.01689187499999889
        },
        {
          "name": "C#5",
          "midi": 73,
          "time": 194.1873058125011,
          "velocity": 0.9606299212598425,
          "duration": 0.01689187499999889
        },
        {
          "name": "C#4",
          "midi": 61,
          "time": 194.3900083125011,
          "velocity": 0.968503937007874,
          "duration": 0.01689187499999889
        },
        {
          "name": "A4",
          "midi": 69,
          "time": 194.3900083125011,
          "velocity": 0.968503937007874,
          "duration": 0.01689187499999889
        },
        {
          "name": "F#3",
          "midi": 54,
          "time": 194.3916975000011,
          "velocity": 0.968503937007874,
          "duration": 0.01689187499999889
        },
        {
          "name": "F#4",
          "midi": 66,
          "time": 194.3916975000011,
          "velocity": 0.968503937007874,
          "duration": 0.01689187499999889
        },
        {
          "name": "C#5",
          "midi": 73,
          "time": 194.3916975000011,
          "velocity": 0.968503937007874,
          "duration": 0.01689187499999889
        },
        {
          "name": "C#4",
          "midi": 61,
          "time": 194.5927108125011,
          "velocity": 1,
          "duration": 0.7922289374999991
        },
        {
          "name": "A3",
          "midi": 57,
          "time": 194.59440000000112,
          "velocity": 0.9763779527559056,
          "duration": 0.7939181250000047
        },
        {
          "name": "E4",
          "midi": 64,
          "time": 194.59440000000112,
          "velocity": 1,
          "duration": 0.7939181250000047
        },
        {
          "name": "A3",
          "midi": 57,
          "time": 195.4035208125011,
          "velocity": 0.9763779527559056,
          "duration": 0.39189150000001405
        },
        {
          "name": "C#4",
          "midi": 61,
          "time": 195.4035208125011,
          "velocity": 1,
          "duration": 0.3885131250000029
        },
        {
          "name": "E4",
          "midi": 64,
          "time": 195.4035208125011,
          "velocity": 0.9763779527559056,
          "duration": 0.3902023125000085
        },
        {
          "name": "G3",
          "midi": 55,
          "time": 195.80723662500114,
          "velocity": 1,
          "duration": 2.01013312500001
        },
        {
          "name": "C4",
          "midi": 60,
          "time": 195.80723662500114,
          "velocity": 1,
          "duration": 2.01013312500001
        },
        {
          "name": "G4",
          "midi": 67,
          "time": 195.81230418750113,
          "velocity": 1,
          "duration": 0.2027025000000151
        },
        {
          "name": "E4",
          "midi": 64,
          "time": 196.01162831250113,
          "velocity": 1,
          "duration": 1.7770252500000083
        },
        {
          "name": "G3",
          "midi": 55,
          "time": 197.83595081250115,
          "velocity": 0.9212598425196851,
          "duration": 0.5912156249999896
        },
        {
          "name": "D4",
          "midi": 62,
          "time": 197.83595081250115,
          "velocity": 0.9763779527559056,
          "duration": 0.5929048124999952
        },
        {
          "name": "E4",
          "midi": 64,
          "time": 197.83595081250115,
          "velocity": 0.9763779527559056,
          "duration": 0.5929048124999952
        },
        {
          "name": "B3",
          "midi": 59,
          "time": 197.84101837500114,
          "velocity": 1,
          "duration": 0.5895264375000124
        },
        {
          "name": "B3",
          "midi": 59,
          "time": 198.44405831250114,
          "velocity": 1,
          "duration": 0.18581062500001622
        },
        {
          "name": "G3",
          "midi": 55,
          "time": 198.44574750000115,
          "velocity": 1,
          "duration": 0.18581062500001622
        },
        {
          "name": "D4",
          "midi": 62,
          "time": 198.44743668750115,
          "velocity": 0.9212598425196851,
          "duration": 0.18581062500001622
        },
        {
          "name": "E4",
          "midi": 64,
          "time": 198.44743668750115,
          "velocity": 0.952755905511811,
          "duration": 0.18581062500001622
        },
        {
          "name": "G3",
          "midi": 55,
          "time": 198.64676081250116,
          "velocity": 1,
          "duration": 0.39189150000001405
        },
        {
          "name": "B3",
          "midi": 59,
          "time": 198.64676081250116,
          "velocity": 1,
          "duration": 0.3885131250000029
        },
        {
          "name": "D4",
          "midi": 62,
          "time": 198.64676081250116,
          "velocity": 1,
          "duration": 0.3885131250000029
        },
        {
          "name": "E4",
          "midi": 64,
          "time": 198.64676081250116,
          "velocity": 1,
          "duration": 0.3885131250000029
        },
        {
          "name": "E4",
          "midi": 64,
          "time": 199.05216581250116,
          "velocity": 1,
          "duration": 0.591215625000018
        },
        {
          "name": "F3",
          "midi": 53,
          "time": 199.05385500000116,
          "velocity": 1,
          "duration": 0.591215625000018
        },
        {
          "name": "A3",
          "midi": 57,
          "time": 199.05385500000116,
          "velocity": 1,
          "duration": 0.591215625000018
        },
        {
          "name": "C4",
          "midi": 60,
          "time": 199.05385500000116,
          "velocity": 1,
          "duration": 0.591215625000018
        },
        {
          "name": "F3",
          "midi": 53,
          "time": 199.66196250000118,
          "velocity": 0.9763779527559056,
          "duration": 0.5912156249999896
        },
        {
          "name": "A3",
          "midi": 57,
          "time": 199.66196250000118,
          "velocity": 1,
          "duration": 0.5912156249999896
        },
        {
          "name": "C4",
          "midi": 60,
          "time": 199.66196250000118,
          "velocity": 1,
          "duration": 0.5912156249999896
        },
        {
          "name": "A3",
          "midi": 57,
          "time": 200.26838081250116,
          "velocity": 0.9763779527559056,
          "duration": 0.3885131250000029
        },
        {
          "name": "E4",
          "midi": 64,
          "time": 200.26838081250116,
          "velocity": 0.9763779527559056,
          "duration": 0.3885131250000029
        },
        {
          "name": "F3",
          "midi": 53,
          "time": 200.27007000000117,
          "velocity": 1,
          "duration": 0.3885131250000029
        },
        {
          "name": "C4",
          "midi": 60,
          "time": 200.27007000000117,
          "velocity": 1,
          "duration": 0.3885131250000029
        },
        {
          "name": "C4",
          "midi": 60,
          "time": 200.67378581250117,
          "velocity": 0.9763779527559056,
          "duration": 0.38682393749999733
        },
        {
          "name": "A3",
          "midi": 57,
          "time": 201.07750162500116,
          "velocity": 0.9763779527559056,
          "duration": 0.7956073125000103
        },
        {
          "name": "C#4",
          "midi": 61,
          "time": 201.08088000000117,
          "velocity": 1,
          "duration": 0.7939181250000047
        },
        {
          "name": "E4",
          "midi": 64,
          "time": 201.08088000000117,
          "velocity": 1,
          "duration": 0.7939181250000047
        },
        {
          "name": "A3",
          "midi": 57,
          "time": 201.89000081250117,
          "velocity": 0.9763779527559056,
          "duration": 0.3885131250000029
        },
        {
          "name": "C#4",
          "midi": 61,
          "time": 201.89169000000118,
          "velocity": 1,
          "duration": 0.3885131250000029
        },
        {
          "name": "E4",
          "midi": 64,
          "time": 201.89169000000118,
          "velocity": 0.9763779527559056,
          "duration": 0.3885131250000029
        },
        {
          "name": "C4",
          "midi": 60,
          "time": 202.29371662500117,
          "velocity": 1,
          "duration": 2.01013312500001
        },
        {
          "name": "G3",
          "midi": 55,
          "time": 202.29709500000118,
          "velocity": 1,
          "duration": 2.01013312500001
        },
        {
          "name": "G4",
          "midi": 67,
          "time": 202.29878418750118,
          "velocity": 1,
          "duration": 0.20270249999998668
        },
        {
          "name": "E4",
          "midi": 64,
          "time": 202.50148668750117,
          "velocity": 1,
          "duration": 1.7770252500000083
        },
        {
          "name": "D4",
          "midi": 62,
          "time": 204.32074162500118,
          "velocity": 0.9763779527559056,
          "duration": 0.5929048125000236
        },
        {
          "name": "B3",
          "midi": 59,
          "time": 204.32243081250118,
          "velocity": 1,
          "duration": 0.5929048125000236
        },
        {
          "name": "G3",
          "midi": 55,
          "time": 204.3258091875012,
          "velocity": 0.9212598425196851,
          "duration": 0.591215625000018
        },
        {
          "name": "E4",
          "midi": 64,
          "time": 204.3258091875012,
          "velocity": 0.9763779527559056,
          "duration": 0.591215625000018
        },
        {
          "name": "E4",
          "midi": 64,
          "time": 204.92884912500122,
          "velocity": 0.952755905511811,
          "duration": 0.18749981249999337
        },
        {
          "name": "G3",
          "midi": 55,
          "time": 204.93053831250123,
          "velocity": 1,
          "duration": 0.18749981249999337
        },
        {
          "name": "B3",
          "midi": 59,
          "time": 204.93053831250123,
          "velocity": 1,
          "duration": 0.18749981249999337
        },
        {
          "name": "D4",
          "midi": 62,
          "time": 204.93053831250123,
          "velocity": 0.9212598425196851,
          "duration": 0.18749981249999337
        },
        {
          "name": "G3",
          "midi": 55,
          "time": 205.1315516250012,
          "velocity": 1,
          "duration": 0.3885131250000029
        },
        {
          "name": "B3",
          "midi": 59,
          "time": 205.1315516250012,
          "velocity": 1,
          "duration": 0.3885131250000029
        },
        {
          "name": "D4",
          "midi": 62,
          "time": 205.13493000000122,
          "velocity": 1,
          "duration": 0.3885131250000029
        },
        {
          "name": "E4",
          "midi": 64,
          "time": 205.13493000000122,
          "velocity": 1,
          "duration": 0.3885131250000029
        },
        {
          "name": "F3",
          "midi": 53,
          "time": 205.5369566250012,
          "velocity": 1,
          "duration": 0.5929048125000236
        },
        {
          "name": "C4",
          "midi": 60,
          "time": 205.5369566250012,
          "velocity": 1,
          "duration": 0.5929048125000236
        },
        {
          "name": "A3",
          "midi": 57,
          "time": 205.54033500000122,
          "velocity": 1,
          "duration": 0.591215625000018
        },
        {
          "name": "E4",
          "midi": 64,
          "time": 205.54033500000122,
          "velocity": 1,
          "duration": 0.591215625000018
        },
        {
          "name": "F3",
          "midi": 53,
          "time": 206.14675331250123,
          "velocity": 0.9763779527559056,
          "duration": 0.5929048124999952
        },
        {
          "name": "A3",
          "midi": 57,
          "time": 206.14675331250123,
          "velocity": 1,
          "duration": 0.5929048124999952
        },
        {
          "name": "C4",
          "midi": 60,
          "time": 206.14675331250123,
          "velocity": 1,
          "duration": 0.5929048124999952
        },
        {
          "name": "F3",
          "midi": 53,
          "time": 206.75486081250122,
          "velocity": 1,
          "duration": 0.3885131250000029
        },
        {
          "name": "A3",
          "midi": 57,
          "time": 206.75486081250122,
          "velocity": 0.9763779527559056,
          "duration": 0.3885131250000029
        },
        {
          "name": "C4",
          "midi": 60,
          "time": 206.75486081250122,
          "velocity": 1,
          "duration": 0.39189150000001405
        },
        {
          "name": "E4",
          "midi": 64,
          "time": 206.75486081250122,
          "velocity": 0.9763779527559056,
          "duration": 0.3885131250000029
        },
        {
          "name": "C4",
          "midi": 60,
          "time": 207.16026581250122,
          "velocity": 0.9763779527559056,
          "duration": 0.3885131250000029
        },
        {
          "name": "C#4",
          "midi": 61,
          "time": 207.56398162500122,
          "velocity": 1,
          "duration": 0.7939181250000047
        },
        {
          "name": "A3",
          "midi": 57,
          "time": 207.56736000000123,
          "velocity": 0.9763779527559056,
          "duration": 0.7939181250000047
        },
        {
          "name": "E4",
          "midi": 64,
          "time": 207.56736000000123,
          "velocity": 1,
          "duration": 0.7939181250000047
        },
        {
          "name": "A3",
          "midi": 57,
          "time": 208.37479162500122,
          "velocity": 0.9763779527559056,
          "duration": 0.3902023125000085
        },
        {
          "name": "E4",
          "midi": 64,
          "time": 208.37479162500122,
          "velocity": 0.9763779527559056,
          "duration": 0.3885131250000029
        },
        {
          "name": "C#4",
          "midi": 61,
          "time": 208.38154837500122,
          "velocity": 1,
          "duration": 0.38682393750002575
        },
        {
          "name": "G3",
          "midi": 55,
          "time": 208.78188581250123,
          "velocity": 1,
          "duration": 2.011822312499987
        },
        {
          "name": "C4",
          "midi": 60,
          "time": 208.78188581250123,
          "velocity": 1,
          "duration": 2.013511499999993
        },
        {
          "name": "G4",
          "midi": 67,
          "time": 208.78188581250123,
          "velocity": 1,
          "duration": 0.20439168749999226
        },
        {
          "name": "E4",
          "midi": 64,
          "time": 208.98627750000122,
          "velocity": 1,
          "duration": 1.7770252500000083
        },
        {
          "name": "G3",
          "midi": 55,
          "time": 210.8089108125012,
          "velocity": 0.9212598425196851,
          "duration": 0.5912156249999896
        },
        {
          "name": "B3",
          "midi": 59,
          "time": 210.8089108125012,
          "velocity": 1,
          "duration": 0.5912156249999896
        },
        {
          "name": "E4",
          "midi": 64,
          "time": 210.8089108125012,
          "velocity": 0.9763779527559056,
          "duration": 0.5912156249999896
        },
        {
          "name": "D4",
          "midi": 62,
          "time": 210.8139783750012,
          "velocity": 0.9763779527559056,
          "duration": 0.5912156249999896
        },
        {
          "name": "B3",
          "midi": 59,
          "time": 211.4170183125012,
          "velocity": 1,
          "duration": 0.18581062500001622
        },
        {
          "name": "E4",
          "midi": 64,
          "time": 211.4170183125012,
          "velocity": 0.952755905511811,
          "duration": 0.18581062500001622
        },
        {
          "name": "G3",
          "midi": 55,
          "time": 211.4187075000012,
          "velocity": 1,
          "duration": 0.18581062500001622
        },
        {
          "name": "D4",
          "midi": 62,
          "time": 211.4187075000012,
          "velocity": 0.9212598425196851,
          "duration": 0.18581062500001622
        },
        {
          "name": "G3",
          "midi": 55,
          "time": 211.6180316250012,
          "velocity": 1,
          "duration": 0.3902023125000085
        },
        {
          "name": "B3",
          "midi": 59,
          "time": 211.6180316250012,
          "velocity": 1,
          "duration": 0.3885131250000029
        },
        {
          "name": "D4",
          "midi": 62,
          "time": 211.6180316250012,
          "velocity": 1,
          "duration": 0.3902023125000085
        },
        {
          "name": "E4",
          "midi": 64,
          "time": 211.6180316250012,
          "velocity": 1,
          "duration": 0.3902023125000085
        },
        {
          "name": "F3",
          "midi": 53,
          "time": 212.02512581250122,
          "velocity": 1,
          "duration": 0.5912156249999896
        },
        {
          "name": "A3",
          "midi": 57,
          "time": 212.02512581250122,
          "velocity": 1,
          "duration": 0.5912156249999896
        },
        {
          "name": "C4",
          "midi": 60,
          "time": 212.02512581250122,
          "velocity": 1,
          "duration": 0.5912156249999896
        },
        {
          "name": "E4",
          "midi": 64,
          "time": 212.02512581250122,
          "velocity": 1,
          "duration": 0.5912156249999896
        },
        {
          "name": "F3",
          "midi": 53,
          "time": 212.6349225000012,
          "velocity": 0.9763779527559056,
          "duration": 0.5912156249999896
        },
        {
          "name": "A3",
          "midi": 57,
          "time": 212.6349225000012,
          "velocity": 1,
          "duration": 0.5912156249999896
        },
        {
          "name": "C4",
          "midi": 60,
          "time": 212.6349225000012,
          "velocity": 1,
          "duration": 0.5912156249999896
        },
        {
          "name": "F3",
          "midi": 53,
          "time": 213.2396516250012,
          "velocity": 1,
          "duration": 0.3885131250000029
        },
        {
          "name": "C4",
          "midi": 60,
          "time": 213.2396516250012,
          "velocity": 1,
          "duration": 0.3902023125000085
        },
        {
          "name": "E4",
          "midi": 64,
          "time": 213.2396516250012,
          "velocity": 0.9763779527559056,
          "duration": 0.3902023125000085
        },
        {
          "name": "A3",
          "midi": 57,
          "time": 213.24640837500118,
          "velocity": 0.9763779527559056,
          "duration": 0.3885131250000029
        },
        {
          "name": "C4",
          "midi": 60,
          "time": 213.6467458125012,
          "velocity": 0.9763779527559056,
          "duration": 0.38682393749999733
        },
        {
          "name": "G3",
          "midi": 55,
          "time": 225.60788250000118,
          "velocity": 1,
          "duration": 0.20101331250000953
        },
        {
          "name": "A3",
          "midi": 57,
          "time": 225.8088958125012,
          "velocity": 1,
          "duration": 0.20270249999998668
        },
        {
          "name": "C4",
          "midi": 60,
          "time": 226.01159831250118,
          "velocity": 1,
          "duration": 0.40878337500001294
        },
        {
          "name": "A3",
          "midi": 57,
          "time": 226.41869250000119,
          "velocity": 1,
          "duration": 0.19932412500000396
        },
        {
          "name": "G3",
          "midi": 55,
          "time": 226.6180166250012,
          "velocity": 1,
          "duration": 0.40709418750000737
        },
        {
          "name": "G3",
          "midi": 55,
          "time": 232.0943625000012,
          "velocity": 1,
          "duration": 0.20101331250000953
        },
        {
          "name": "A3",
          "midi": 57,
          "time": 232.29537581250122,
          "velocity": 1,
          "duration": 0.20608087499999783
        },
        {
          "name": "C4",
          "midi": 60,
          "time": 232.4980783125012,
          "velocity": 1,
          "duration": 0.20101331250000953
        },
        {
          "name": "A3",
          "midi": 57,
          "time": 232.69909162500122,
          "velocity": 1,
          "duration": 0.20439168749999226
        },
        {
          "name": "G3",
          "midi": 55,
          "time": 232.9034833125012,
          "velocity": 1,
          "duration": 0.20101331250000953
        },
        {
          "name": "A3",
          "midi": 57,
          "time": 233.10449662500122,
          "velocity": 1,
          "duration": 0.40709418750000737
        },
        {
          "name": "G3",
          "midi": 55,
          "time": 238.57746412500123,
          "velocity": 1,
          "duration": 0.20439168749999226
        },
        {
          "name": "A3",
          "midi": 57,
          "time": 238.78185581250122,
          "velocity": 1,
          "duration": 0.20101331250000953
        },
        {
          "name": "C4",
          "midi": 60,
          "time": 238.98286912500123,
          "velocity": 1,
          "duration": 0.40709418750000737
        },
        {
          "name": "A3",
          "midi": 57,
          "time": 239.38996331250124,
          "velocity": 1,
          "duration": 0.20101331250000953
        },
        {
          "name": "G3",
          "midi": 55,
          "time": 239.59097662500125,
          "velocity": 1,
          "duration": 0.4054050000000018
        },
        {
          "name": "G3",
          "midi": 55,
          "time": 245.06394412500126,
          "velocity": 1,
          "duration": 0.20439168749999226
        },
        {
          "name": "A3",
          "midi": 57,
          "time": 245.26833581250125,
          "velocity": 1,
          "duration": 0.20270249999998668
        },
        {
          "name": "C4",
          "midi": 60,
          "time": 245.47103831250124,
          "velocity": 1,
          "duration": 0.20101331250000953
        },
        {
          "name": "A3",
          "midi": 57,
          "time": 245.67205162500125,
          "velocity": 1,
          "duration": 0.20608087499999783
        },
        {
          "name": "G3",
          "midi": 55,
          "time": 245.87813250000124,
          "velocity": 1,
          "duration": 0.19932412500000396
        },
        {
          "name": "A3",
          "midi": 57,
          "time": 246.07745662500125,
          "velocity": 1,
          "duration": 0.4054050000000018
        },
        {
          "name": "G3",
          "midi": 55,
          "time": 251.55042412500126,
          "velocity": 1,
          "duration": 0.20270249999998668
        },
        {
          "name": "A3",
          "midi": 57,
          "time": 251.75312662500124,
          "velocity": 1,
          "duration": 0.20439168749999226
        },
        {
          "name": "C4",
          "midi": 60,
          "time": 251.95751831250124,
          "velocity": 1,
          "duration": 0.4054050000000018
        },
        {
          "name": "A3",
          "midi": 57,
          "time": 252.36123412500123,
          "velocity": 1,
          "duration": 0.2027025000000151
        },
        {
          "name": "G3",
          "midi": 55,
          "time": 252.56393662500125,
          "velocity": 1,
          "duration": 0.4054050000000018
        },
        {
          "name": "G3",
          "midi": 55,
          "time": 258.03690412500123,
          "velocity": 1,
          "duration": 0.20270249999998668
        },
        {
          "name": "A3",
          "midi": 57,
          "time": 258.2396066250012,
          "velocity": 1,
          "duration": 0.20270249999998668
        },
        {
          "name": "C4",
          "midi": 60,
          "time": 258.4423091250012,
          "velocity": 1,
          "duration": 0.20270249999998668
        },
        {
          "name": "A3",
          "midi": 57,
          "time": 258.6450116250012,
          "velocity": 1,
          "duration": 0.20608087499999783
        },
        {
          "name": "G3",
          "midi": 55,
          "time": 258.8510925000012,
          "velocity": 1,
          "duration": 0.2010133124999811
        },
        {
          "name": "A3",
          "midi": 57,
          "time": 259.05210581250117,
          "velocity": 1,
          "duration": 0.40371581250002464
        },
        {
          "name": "G3",
          "midi": 55,
          "time": 264.5233841250012,
          "velocity": 1,
          "duration": 0.20439168749999226
        },
        {
          "name": "A3",
          "midi": 57,
          "time": 264.7277758125012,
          "velocity": 1,
          "duration": 0.20439168749999226
        },
        {
          "name": "C4",
          "midi": 60,
          "time": 264.9304783125012,
          "velocity": 1,
          "duration": 0.4054050000000302
        },
        {
          "name": "A3",
          "midi": 57,
          "time": 265.3375725000012,
          "velocity": 1,
          "duration": 0.2010133124999811
        },
        {
          "name": "G3",
          "midi": 55,
          "time": 265.5368966250012,
          "velocity": 1,
          "duration": 0.4054050000000302
        },
        {
          "name": "G3",
          "midi": 55,
          "time": 271.00986412500123,
          "velocity": 1,
          "duration": 0.2077700625000034
        },
        {
          "name": "A3",
          "midi": 57,
          "time": 271.2142558125012,
          "velocity": 1,
          "duration": 0.20101331250003796
        },
        {
          "name": "C4",
          "midi": 60,
          "time": 271.41526912500126,
          "velocity": 1,
          "duration": 0.20608087499999783
        },
        {
          "name": "A3",
          "midi": 57,
          "time": 271.62135000000126,
          "velocity": 1,
          "duration": 0.20270249999998668
        },
        {
          "name": "G3",
          "midi": 55,
          "time": 271.82405250000124,
          "velocity": 1,
          "duration": 0.20439168749999226
        },
        {
          "name": "A3",
          "midi": 57,
          "time": 272.0250658125012,
          "velocity": 1,
          "duration": 0.40371581250002464
        },
        {
          "name": "A4",
          "midi": 69,
          "time": 272.42878162500125,
          "velocity": 1,
          "duration": 6.488169187499977
        }
]