[
        {
          "name": "F#2",
          "midi": 42,
          "time": 3.24324,
          "velocity": 0.7165354330708661,
          "duration": 0.028716187500000157
        },
        {
          "name": "F#2",
          "midi": 42,
          "time": 4.05405,
          "velocity": 0.8188976377952756,
          "duration": 0.028716187499999712
        },
        {
          "name": "F#2",
          "midi": 42,
          "time": 4.8665491874999995,
          "velocity": 0.84251968503937,
          "duration": 0.028716187499999712
        },
        {
          "name": "F#2",
          "midi": 42,
          "time": 5.672291625,
          "velocity": 0.8503937007874016,
          "duration": 0.028716187499999712
        },
        {
          "name": "G#2",
          "midi": 44,
          "time": 7.295600812499999,
          "velocity": 0.9212598425196851,
          "duration": 0.09121612499999987
        },
        {
          "name": "G#2",
          "midi": 44,
          "time": 8.918909999999999,
          "velocity": 0.889763779527559,
          "duration": 0.08445937499999978
        },
        {
          "name": "G#2",
          "midi": 44,
          "time": 10.540529999999999,
          "velocity": 0.9212598425196851,
          "duration": 0.09459449999999947
        },
        {
          "name": "G#2",
          "midi": 44,
          "time": 12.158771624999998,
          "velocity": 0.889763779527559,
          "duration": 0.08445937499999978
        },
        {
          "name": "G#2",
          "midi": 44,
          "time": 13.780391624999998,
          "velocity": 0.9212598425196851,
          "duration": 0.09290531249999923
        },
        {
          "name": "G#2",
          "midi": 44,
          "time": 15.403700812499997,
          "velocity": 0.889763779527559,
          "duration": 0.08445937499999978
        },
        {
          "name": "G#2",
          "midi": 44,
          "time": 17.023631624999997,
          "velocity": 0.9212598425196851,
          "duration": 0.092905312500001
        },
        {
          "name": "G#2",
          "midi": 44,
          "time": 18.645251624999997,
          "velocity": 0.889763779527559,
          "duration": 0.08614856250000003
        },
        {
          "name": "G#2",
          "midi": 44,
          "time": 20.270249999999997,
          "velocity": 0.9212598425196851,
          "duration": 0.09121612499999898
        },
        {
          "name": "G#2",
          "midi": 44,
          "time": 21.893559187499996,
          "velocity": 0.889763779527559,
          "duration": 0.08445937500000156
        },
        {
          "name": "G#2",
          "midi": 44,
          "time": 23.510111624999997,
          "velocity": 0.9212598425196851,
          "duration": 0.092905312500001
        },
        {
          "name": "G#2",
          "midi": 44,
          "time": 25.131731624999997,
          "velocity": 0.889763779527559,
          "duration": 0.08445937500000156
        },
        {
          "name": "G#2",
          "midi": 44,
          "time": 26.753351624999997,
          "velocity": 0.9212598425196851,
          "duration": 0.092905312500001
        },
        {
          "name": "G#2",
          "midi": 44,
          "time": 28.378349999999998,
          "velocity": 0.889763779527559,
          "duration": 0.08445937500000156
        },
        {
          "name": "G#2",
          "midi": 44,
          "time": 29.996591625,
          "velocity": 0.9212598425196851,
          "duration": 0.092905312500001
        },
        {
          "name": "G#2",
          "midi": 44,
          "time": 31.62159,
          "velocity": 0.889763779527559,
          "duration": 0.08445937500000156
        },
        {
          "name": "G#2",
          "midi": 44,
          "time": 33.2415208125,
          "velocity": 0.9212598425196851,
          "duration": 0.09121612500000253
        },
        {
          "name": "G#2",
          "midi": 44,
          "time": 34.8665191875,
          "velocity": 0.889763779527559,
          "duration": 0.08445937500000156
        },
        {
          "name": "G#2",
          "midi": 44,
          "time": 36.48476081250001,
          "velocity": 0.9212598425196851,
          "duration": 0.092905312500001
        },
        {
          "name": "G#2",
          "midi": 44,
          "time": 38.10638081250001,
          "velocity": 0.889763779527559,
          "duration": 0.08445937500000156
        },
        {
          "name": "G#2",
          "midi": 44,
          "time": 39.72631162500001,
          "velocity": 0.9212598425196851,
          "duration": 0.092905312500001
        },
        {
          "name": "G#2",
          "midi": 44,
          "time": 41.34962081250001,
          "velocity": 0.889763779527559,
          "duration": 0.08445937500000156
        },
        {
          "name": "G#2",
          "midi": 44,
          "time": 42.972930000000005,
          "velocity": 0.9212598425196851,
          "duration": 0.09121612500000253
        },
        {
          "name": "G#2",
          "midi": 44,
          "time": 44.59286081250001,
          "velocity": 0.889763779527559,
          "duration": 0.08445937500000156
        },
        {
          "name": "G#2",
          "midi": 44,
          "time": 46.21785918750001,
          "velocity": 0.9212598425196851,
          "duration": 0.092905312500001
        },
        {
          "name": "G#2",
          "midi": 44,
          "time": 47.83779000000001,
          "velocity": 0.889763779527559,
          "duration": 0.08445937500000156
        },
        {
          "name": "G#2",
          "midi": 44,
          "time": 49.45941000000001,
          "velocity": 0.9212598425196851,
          "duration": 0.092905312500001
        },
        {
          "name": "G#2",
          "midi": 44,
          "time": 51.079340812500014,
          "velocity": 0.889763779527559,
          "duration": 0.08445937500000156
        },
        {
          "name": "G#2",
          "midi": 44,
          "time": 52.70265000000001,
          "velocity": 0.9212598425196851,
          "duration": 0.092905312500001
        },
        {
          "name": "G#2",
          "midi": 44,
          "time": 54.32595918750001,
          "velocity": 0.889763779527559,
          "duration": 0.08445937500000156
        },
        {
          "name": "G#2",
          "midi": 44,
          "time": 55.94926837500001,
          "velocity": 0.9212598425196851,
          "duration": 0.09121612500000253
        },
        {
          "name": "G#2",
          "midi": 44,
          "time": 57.56751000000001,
          "velocity": 0.889763779527559,
          "duration": 0.08445937500000156
        },
        {
          "name": "C#2",
          "midi": 37,
          "time": 58.37663081250002,
          "velocity": 0.7480314960629921,
          "duration": 0.03209456249999931
        },
        {
          "name": "F#2",
          "midi": 42,
          "time": 58.38169837500002,
          "velocity": 0.6141732283464567,
          "duration": 0.02871618749999527
        },
        {
          "name": "F#2",
          "midi": 42,
          "time": 58.78372500000002,
          "velocity": 0.6141732283464567,
          "duration": 0.028716187500002377
        },
        {
          "name": "C#2",
          "midi": 37,
          "time": 59.18913000000002,
          "velocity": 0.7480314960629921,
          "duration": 0.028716187500002377
        },
        {
          "name": "F#2",
          "midi": 42,
          "time": 59.18913000000002,
          "velocity": 0.84251968503937,
          "duration": 0.028716187500002377
        },
        {
          "name": "F#2",
          "midi": 42,
          "time": 59.59284581250002,
          "velocity": 0.48031496062992124,
          "duration": 0.028716187500002377
        },
        {
          "name": "C#2",
          "midi": 37,
          "time": 59.998250812500025,
          "velocity": 0.7480314960629921,
          "duration": 0.030405375000000845
        },
        {
          "name": "F#2",
          "midi": 42,
          "time": 59.998250812500025,
          "velocity": 0.84251968503937,
          "duration": 0.030405375000000845
        },
        {
          "name": "F#2",
          "midi": 42,
          "time": 60.405345000000025,
          "velocity": 0.4015748031496063,
          "duration": 0.028716187500002377
        },
        {
          "name": "C#2",
          "midi": 37,
          "time": 60.80906081250003,
          "velocity": 0.6141732283464567,
          "duration": 0.02871618749999527
        },
        {
          "name": "F#2",
          "midi": 42,
          "time": 60.812439187500026,
          "velocity": 0.7086614173228346,
          "duration": 0.02871618749999527
        },
        {
          "name": "F#2",
          "midi": 42,
          "time": 61.21784418750002,
          "velocity": 0.4015748031496063,
          "duration": 0.028716187500002377
        },
        {
          "name": "C#2",
          "midi": 37,
          "time": 61.62324918750002,
          "velocity": 0.7480314960629921,
          "duration": 0.028716187500002377
        },
        {
          "name": "F#2",
          "midi": 42,
          "time": 61.62324918750002,
          "velocity": 0.84251968503937,
          "duration": 0.028716187500002377
        },
        {
          "name": "F#2",
          "midi": 42,
          "time": 62.026965000000025,
          "velocity": 0.4330708661417323,
          "duration": 0.028716187500002377
        },
        {
          "name": "C#2",
          "midi": 37,
          "time": 62.42899162500003,
          "velocity": 0.7480314960629921,
          "duration": 0.030405375000000845
        },
        {
          "name": "F#2",
          "midi": 42,
          "time": 62.42899162500003,
          "velocity": 0.7086614173228346,
          "duration": 0.030405375000000845
        },
        {
          "name": "F#2",
          "midi": 42,
          "time": 62.83777500000003,
          "velocity": 0.48031496062992124,
          "duration": 0.028716187500002377
        },
        {
          "name": "C#2",
          "midi": 37,
          "time": 63.24149081250003,
          "velocity": 0.7480314960629921,
          "duration": 0.030405375000000845
        },
        {
          "name": "F#2",
          "midi": 42,
          "time": 63.24149081250003,
          "velocity": 0.84251968503937,
          "duration": 0.030405375000000845
        },
        {
          "name": "F#2",
          "midi": 42,
          "time": 63.64858500000003,
          "velocity": 0.28346456692913385,
          "duration": 0.028716187500002377
        },
        {
          "name": "F#2",
          "midi": 42,
          "time": 64.05061162500003,
          "velocity": 0.84251968503937,
          "duration": 0.02871618749999527
        },
        {
          "name": "C#2",
          "midi": 37,
          "time": 64.05399000000003,
          "velocity": 0.8740157480314961,
          "duration": 0.02871618749999527
        },
        {
          "name": "A#2",
          "midi": 46,
          "time": 64.46108418750002,
          "velocity": 0.7874015748031497,
          "duration": 0.02871618749999527
        },
        {
          "name": "F#2",
          "midi": 42,
          "time": 64.86817837500001,
          "velocity": 0.968503937007874,
          "duration": 0.02871618749999527
        },
        {
          "name": "C#2",
          "midi": 37,
          "time": 65.67561,
          "velocity": 0.8740157480314961,
          "duration": 0.028716187500009482
        },
        {
          "name": "F#2",
          "midi": 42,
          "time": 65.67729918750001,
          "velocity": 0.84251968503937,
          "duration": 0.028716187500009482
        },
        {
          "name": "F#2",
          "midi": 42,
          "time": 66.48473081250002,
          "velocity": 0.7086614173228346,
          "duration": 0.02871618749999527
        },
        {
          "name": "C#2",
          "midi": 37,
          "time": 67.29723000000001,
          "velocity": 0.8740157480314961,
          "duration": 0.030405375000000845
        },
        {
          "name": "F#2",
          "midi": 42,
          "time": 67.29723000000001,
          "velocity": 0.968503937007874,
          "duration": 0.030405375000000845
        },
        {
          "name": "F#2",
          "midi": 42,
          "time": 68.10804000000002,
          "velocity": 0.84251968503937,
          "duration": 0.02871618749999527
        },
        {
          "name": "C#2",
          "midi": 37,
          "time": 68.92053918750001,
          "velocity": 0.8740157480314961,
          "duration": 0.02871618749999527
        },
        {
          "name": "F#2",
          "midi": 42,
          "time": 68.92053918750001,
          "velocity": 0.84251968503937,
          "duration": 0.02871618749999527
        },
        {
          "name": "F#2",
          "midi": 42,
          "time": 69.7279708125,
          "velocity": 0.7086614173228346,
          "duration": 0.02871618749999527
        },
        {
          "name": "C#2",
          "midi": 37,
          "time": 70.54047,
          "velocity": 0.8740157480314961,
          "duration": 0.030405375000000845
        },
        {
          "name": "F#2",
          "midi": 42,
          "time": 70.54047,
          "velocity": 0.7086614173228346,
          "duration": 0.02871618749999527
        },
        {
          "name": "F#2",
          "midi": 42,
          "time": 70.9441858125,
          "velocity": 0.6141732283464567,
          "duration": 0.030405375000000845
        },
        {
          "name": "F#2",
          "midi": 42,
          "time": 71.35128,
          "velocity": 0.6141732283464567,
          "duration": 0.030405375000000845
        },
        {
          "name": "C#2",
          "midi": 37,
          "time": 72.15871162500001,
          "velocity": 0.8740157480314961,
          "duration": 0.028716187500009482
        },
        {
          "name": "F#2",
          "midi": 42,
          "time": 72.16040081250001,
          "velocity": 0.968503937007874,
          "duration": 0.028716187500009482
        },
        {
          "name": "F#2",
          "midi": 42,
          "time": 72.97121081250002,
          "velocity": 0.6141732283464567,
          "duration": 0.02871618749999527
        },
        {
          "name": "C#2",
          "midi": 37,
          "time": 73.78202081250001,
          "velocity": 0.8740157480314961,
          "duration": 0.030405375000000845
        },
        {
          "name": "F#2",
          "midi": 42,
          "time": 73.7853991875,
          "velocity": 0.968503937007874,
          "duration": 0.028716187500009482
        },
        {
          "name": "F#2",
          "midi": 42,
          "time": 74.59452000000002,
          "velocity": 0.84251968503937,
          "duration": 0.030405375000000845
        },
        {
          "name": "C#2",
          "midi": 37,
          "time": 75.40195162500002,
          "velocity": 0.8740157480314961,
          "duration": 0.03209456250000642
        },
        {
          "name": "F#2",
          "midi": 42,
          "time": 75.40195162500002,
          "velocity": 0.968503937007874,
          "duration": 0.03209456250000642
        },
        {
          "name": "F#2",
          "midi": 42,
          "time": 76.21614000000002,
          "velocity": 0.84251968503937,
          "duration": 0.02871618749999527
        },
        {
          "name": "C#2",
          "midi": 37,
          "time": 77.02863918750002,
          "velocity": 0.8740157480314961,
          "duration": 0.02871618749999527
        },
        {
          "name": "F#2",
          "midi": 42,
          "time": 77.02863918750002,
          "velocity": 0.84251968503937,
          "duration": 0.02871618749999527
        },
        {
          "name": "F#2",
          "midi": 42,
          "time": 77.43235500000002,
          "velocity": 0.7086614173228346,
          "duration": 0.030405375000000845
        },
        {
          "name": "F#2",
          "midi": 42,
          "time": 77.83776000000002,
          "velocity": 0.84251968503937,
          "duration": 0.02871618749999527
        },
        {
          "name": "C#2",
          "midi": 37,
          "time": 78.64857,
          "velocity": 0.8740157480314961,
          "duration": 0.02871618749999527
        },
        {
          "name": "F#2",
          "midi": 42,
          "time": 78.64857,
          "velocity": 0.84251968503937,
          "duration": 0.02871618749999527
        },
        {
          "name": "F#2",
          "midi": 42,
          "time": 79.45938,
          "velocity": 0.84251968503937,
          "duration": 0.02871618749999527
        },
        {
          "name": "F#2",
          "midi": 42,
          "time": 80.26681162499999,
          "velocity": 0.968503937007874,
          "duration": 0.028716187500009482
        },
        {
          "name": "C#2",
          "midi": 37,
          "time": 80.2685008125,
          "velocity": 0.8740157480314961,
          "duration": 0.028716187500009482
        },
        {
          "name": "F#2",
          "midi": 42,
          "time": 81.08268918750001,
          "velocity": 0.968503937007874,
          "duration": 0.02871618749999527
        },
        {
          "name": "C#2",
          "midi": 37,
          "time": 81.88843162500001,
          "velocity": 0.8740157480314961,
          "duration": 0.030405375000000845
        },
        {
          "name": "F#2",
          "midi": 42,
          "time": 81.89349918750001,
          "velocity": 0.7086614173228346,
          "duration": 0.02871618749999527
        },
        {
          "name": "F#2",
          "midi": 42,
          "time": 82.7043091875,
          "velocity": 0.6141732283464567,
          "duration": 0.02871618749999527
        },
        {
          "name": "C#2",
          "midi": 37,
          "time": 83.51343,
          "velocity": 0.8740157480314961,
          "duration": 0.02871618749999527
        },
        {
          "name": "F#2",
          "midi": 42,
          "time": 83.51343,
          "velocity": 0.84251968503937,
          "duration": 0.02871618749999527
        },
        {
          "name": "F#2",
          "midi": 42,
          "time": 84.32086162499999,
          "velocity": 0.84251968503937,
          "duration": 0.02871618749999527
        },
        {
          "name": "F#2",
          "midi": 42,
          "time": 85.13336081249999,
          "velocity": 0.84251968503937,
          "duration": 0.028716187500009482
        },
        {
          "name": "C#2",
          "midi": 37,
          "time": 85.13504999999999,
          "velocity": 0.8740157480314961,
          "duration": 0.028716187500009482
        },
        {
          "name": "F#2",
          "midi": 42,
          "time": 85.94586,
          "velocity": 0.7086614173228346,
          "duration": 0.02871618749999527
        },
        {
          "name": "C#2",
          "midi": 37,
          "time": 86.75329162499999,
          "velocity": 0.8740157480314961,
          "duration": 0.02871618749999527
        },
        {
          "name": "F#2",
          "midi": 42,
          "time": 86.75329162499999,
          "velocity": 0.84251968503937,
          "duration": 0.02871618749999527
        },
        {
          "name": "F#2",
          "midi": 42,
          "time": 87.15869662499999,
          "velocity": 0.5354330708661418,
          "duration": 0.02871618749999527
        },
        {
          "name": "F#2",
          "midi": 42,
          "time": 87.56747999999999,
          "velocity": 0.968503937007874,
          "duration": 0.030405375000000845
        },
        {
          "name": "C#2",
          "midi": 37,
          "time": 88.37828999999999,
          "velocity": 0.8740157480314961,
          "duration": 0.02871618749999527
        },
        {
          "name": "F#2",
          "midi": 42,
          "time": 88.37828999999999,
          "velocity": 0.84251968503937,
          "duration": 0.02871618749999527
        },
        {
          "name": "F#2",
          "midi": 42,
          "time": 89.18741081249999,
          "velocity": 0.84251968503937,
          "duration": 0.02871618749999527
        },
        {
          "name": "C#2",
          "midi": 37,
          "time": 89.99990999999999,
          "velocity": 0.8740157480314961,
          "duration": 0.02871618749999527
        },
        {
          "name": "F#2",
          "midi": 42,
          "time": 89.99990999999999,
          "velocity": 0.84251968503937,
          "duration": 0.02871618749999527
        },
        {
          "name": "F#2",
          "midi": 42,
          "time": 90.40700418749998,
          "velocity": 0.6141732283464567,
          "duration": 0.02871618749999527
        },
        {
          "name": "F#2",
          "midi": 42,
          "time": 90.81240918749998,
          "velocity": 0.968503937007874,
          "duration": 0.02871618749999527
        },
        {
          "name": "F#2",
          "midi": 42,
          "time": 91.01342249999998,
          "velocity": 0.7086614173228346,
          "duration": 0.02871618749999527
        },
        {
          "name": "F#2",
          "midi": 42,
          "time": 91.21612499999998,
          "velocity": 0.48031496062992124,
          "duration": 0.02871618749999527
        },
        {
          "name": "F#2",
          "midi": 42,
          "time": 91.42051668749997,
          "velocity": 0.84251968503937,
          "duration": 0.02871618749999527
        },
        {
          "name": "C#2",
          "midi": 37,
          "time": 91.61984081249996,
          "velocity": 0.8740157480314961,
          "duration": 0.02871618749999527
        },
        {
          "name": "F#2",
          "midi": 42,
          "time": 91.62321918749996,
          "velocity": 0.7086614173228346,
          "duration": 0.02871618749999527
        },
        {
          "name": "F#2",
          "midi": 42,
          "time": 91.82254331249995,
          "velocity": 0.3700787401574803,
          "duration": 0.02871618749999527
        },
        {
          "name": "F#2",
          "midi": 42,
          "time": 92.02693499999994,
          "velocity": 0.31496062992125984,
          "duration": 0.02871618749999527
        },
        {
          "name": "C#2",
          "midi": 37,
          "time": 92.22794831249993,
          "velocity": 0.7716535433070866,
          "duration": 0.02871618749999527
        },
        {
          "name": "F#2",
          "midi": 42,
          "time": 92.23132668749993,
          "velocity": 0.968503937007874,
          "duration": 0.02871618749999527
        },
        {
          "name": "F#2",
          "midi": 42,
          "time": 92.43233999999993,
          "velocity": 0.6141732283464567,
          "duration": 0.02871618749999527
        },
        {
          "name": "C#2",
          "midi": 37,
          "time": 92.63504249999993,
          "velocity": 0.7795275590551181,
          "duration": 0.028716187500009482
        },
        {
          "name": "F#2",
          "midi": 42,
          "time": 92.63673168749993,
          "velocity": 0.33858267716535434,
          "duration": 0.028716187500009482
        },
        {
          "name": "F#2",
          "midi": 42,
          "time": 92.83605581249994,
          "velocity": 0.6141732283464567,
          "duration": 0.02871618749999527
        },
        {
          "name": "F#2",
          "midi": 42,
          "time": 93.03875831249994,
          "velocity": 0.84251968503937,
          "duration": 0.02871618749999527
        },
        {
          "name": "C#2",
          "midi": 37,
          "time": 93.24146081249994,
          "velocity": 0.8740157480314961,
          "duration": 0.028716187500009482
        },
        {
          "name": "F#2",
          "midi": 42,
          "time": 93.24314999999994,
          "velocity": 0.7086614173228346,
          "duration": 0.028716187500009482
        },
        {
          "name": "F#2",
          "midi": 42,
          "time": 93.44416331249995,
          "velocity": 0.4015748031496063,
          "duration": 0.02871618749999527
        },
        {
          "name": "F#2",
          "midi": 42,
          "time": 93.64855499999994,
          "velocity": 0.5354330708661418,
          "duration": 0.02871618749999527
        },
        {
          "name": "F#2",
          "midi": 42,
          "time": 93.84787912499993,
          "velocity": 0.968503937007874,
          "duration": 0.02871618749999527
        },
        {
          "name": "F#2",
          "midi": 42,
          "time": 94.05564918749992,
          "velocity": 0.6141732283464567,
          "duration": 0.02871618749999527
        },
        {
          "name": "F#2",
          "midi": 42,
          "time": 94.25497331249991,
          "velocity": 0.968503937007874,
          "duration": 0.02871618749999527
        },
        {
          "name": "F#2",
          "midi": 42,
          "time": 94.45767581249991,
          "velocity": 0.968503937007874,
          "duration": 0.02871618749999527
        },
        {
          "name": "F#2",
          "midi": 42,
          "time": 94.66375668749991,
          "velocity": 0.7086614173228346,
          "duration": 0.02871618749999527
        },
        {
          "name": "C#2",
          "midi": 37,
          "time": 94.86476999999991,
          "velocity": 0.8503937007874016,
          "duration": 0.02871618749999527
        },
        {
          "name": "F#2",
          "midi": 42,
          "time": 94.86476999999991,
          "velocity": 0.7086614173228346,
          "duration": 0.02871618749999527
        },
        {
          "name": "F#2",
          "midi": 42,
          "time": 95.0657833124999,
          "velocity": 0.4330708661417323,
          "duration": 0.02871618749999527
        },
        {
          "name": "F#2",
          "midi": 42,
          "time": 95.2701749999999,
          "velocity": 0.4330708661417323,
          "duration": 0.02871618749999527
        },
        {
          "name": "F#2",
          "midi": 42,
          "time": 95.47118831249989,
          "velocity": 0.84251968503937,
          "duration": 0.028716187500009482
        },
        {
          "name": "C#2",
          "midi": 37,
          "time": 95.4728774999999,
          "velocity": 0.7952755905511811,
          "duration": 0.028716187500009482
        },
        {
          "name": "F#2",
          "midi": 42,
          "time": 95.67557999999991,
          "velocity": 0.7086614173228346,
          "duration": 0.02871618749999527
        },
        {
          "name": "C#2",
          "midi": 37,
          "time": 95.87828249999991,
          "velocity": 0.7952755905511811,
          "duration": 0.02871618749999527
        },
        {
          "name": "F#2",
          "midi": 42,
          "time": 95.87828249999991,
          "velocity": 0.48031496062992124,
          "duration": 0.02871618749999527
        },
        {
          "name": "F#2",
          "midi": 42,
          "time": 96.08098499999991,
          "velocity": 0.5354330708661418,
          "duration": 0.02871618749999527
        },
        {
          "name": "F#2",
          "midi": 42,
          "time": 96.2803091249999,
          "velocity": 0.968503937007874,
          "duration": 0.02871618749999527
        },
        {
          "name": "C#2",
          "midi": 37,
          "time": 96.4863899999999,
          "velocity": 0.8740157480314961,
          "duration": 0.028716187500009482
        },
        {
          "name": "F#2",
          "midi": 42,
          "time": 96.4880791874999,
          "velocity": 0.48031496062992124,
          "duration": 0.028716187500009482
        },
        {
          "name": "F#2",
          "midi": 42,
          "time": 96.68909249999992,
          "velocity": 0.5354330708661418,
          "duration": 0.02871618749999527
        },
        {
          "name": "F#2",
          "midi": 42,
          "time": 96.89348418749991,
          "velocity": 0.48031496062992124,
          "duration": 0.02871618749999527
        },
        {
          "name": "F#2",
          "midi": 42,
          "time": 97.0944974999999,
          "velocity": 0.5354330708661418,
          "duration": 0.02871618749999527
        },
        {
          "name": "F#2",
          "midi": 42,
          "time": 97.2971999999999,
          "velocity": 0.84251968503937,
          "duration": 0.02871618749999527
        },
        {
          "name": "B1",
          "midi": 35,
          "time": 97.7009158124999,
          "velocity": 1,
          "duration": 0.030405375000000845
        },
        {
          "name": "A#2",
          "midi": 46,
          "time": 97.7009158124999,
          "velocity": 0.9133858267716536,
          "duration": 0.030405375000000845
        },
        {
          "name": "C#2",
          "midi": 37,
          "time": 98.1046316249999,
          "velocity": 0.7480314960629921,
          "duration": 0.02871618749999527
        },
        {
          "name": "F#2",
          "midi": 42,
          "time": 98.1046316249999,
          "velocity": 0.48031496062992124,
          "duration": 0.02871618749999527
        },
        {
          "name": "F#2",
          "midi": 42,
          "time": 98.5100366249999,
          "velocity": 0.84251968503937,
          "duration": 0.028716187500009482
        },
        {
          "name": "B1",
          "midi": 35,
          "time": 98.5117258124999,
          "velocity": 0.905511811023622,
          "duration": 0.030405375000000845
        },
        {
          "name": "B1",
          "midi": 35,
          "time": 98.9154416249999,
          "velocity": 1,
          "duration": 0.02871618749999527
        },
        {
          "name": "C#2",
          "midi": 37,
          "time": 98.9154416249999,
          "velocity": 0.8740157480314961,
          "duration": 0.030405375000000845
        },
        {
          "name": "F#2",
          "midi": 42,
          "time": 98.9154416249999,
          "velocity": 0.7086614173228346,
          "duration": 0.030405375000000845
        },
        {
          "name": "F#2",
          "midi": 42,
          "time": 99.3242249999999,
          "velocity": 0.6141732283464567,
          "duration": 0.02702700000000391
        },
        {
          "name": "C#2",
          "midi": 37,
          "time": 99.7296299999999,
          "velocity": 0.8740157480314961,
          "duration": 0.030405375000000845
        },
        {
          "name": "F#2",
          "midi": 42,
          "time": 99.7296299999999,
          "velocity": 0.84251968503937,
          "duration": 0.02871618749999527
        },
        {
          "name": "F#2",
          "midi": 42,
          "time": 100.1333458124999,
          "velocity": 0.5354330708661418,
          "duration": 0.02871618749999527
        },
        {
          "name": "C#2",
          "midi": 37,
          "time": 100.5370616249999,
          "velocity": 0.7480314960629921,
          "duration": 0.02871618749999527
        },
        {
          "name": "B1",
          "midi": 35,
          "time": 100.54043999999989,
          "velocity": 1,
          "duration": 0.02871618749999527
        },
        {
          "name": "F#2",
          "midi": 42,
          "time": 100.54043999999989,
          "velocity": 0.84251968503937,
          "duration": 0.02871618749999527
        },
        {
          "name": "F#2",
          "midi": 42,
          "time": 100.94415581249989,
          "velocity": 0.6141732283464567,
          "duration": 0.030405375000000845
        },
        {
          "name": "F#2",
          "midi": 42,
          "time": 101.3512499999999,
          "velocity": 0.84251968503937,
          "duration": 0.028716187500009482
        },
        {
          "name": "C#2",
          "midi": 37,
          "time": 101.3529391874999,
          "velocity": 0.8740157480314961,
          "duration": 0.028716187500009482
        },
        {
          "name": "B1",
          "midi": 35,
          "time": 101.75327662499991,
          "velocity": 1,
          "duration": 0.030405375000000845
        },
        {
          "name": "F#2",
          "midi": 42,
          "time": 101.75327662499991,
          "velocity": 0.6141732283464567,
          "duration": 0.030405375000000845
        },
        {
          "name": "F#2",
          "midi": 42,
          "time": 102.16037081249992,
          "velocity": 0.7086614173228346,
          "duration": 0.02871618749999527
        },
        {
          "name": "B1",
          "midi": 35,
          "time": 102.16374918749992,
          "velocity": 0.905511811023622,
          "duration": 0.02871618749999527
        },
        {
          "name": "C#2",
          "midi": 37,
          "time": 102.16374918749992,
          "velocity": 0.8740157480314961,
          "duration": 0.02871618749999527
        },
        {
          "name": "F#2",
          "midi": 42,
          "time": 102.56577581249991,
          "velocity": 0.6141732283464567,
          "duration": 0.02871618749999527
        },
        {
          "name": "F#2",
          "midi": 42,
          "time": 102.9728699999999,
          "velocity": 0.7086614173228346,
          "duration": 0.028716187500009482
        },
        {
          "name": "C#2",
          "midi": 37,
          "time": 102.9745591874999,
          "velocity": 0.8740157480314961,
          "duration": 0.028716187500009482
        },
        {
          "name": "F#2",
          "midi": 42,
          "time": 103.37489662499992,
          "velocity": 0.84251968503937,
          "duration": 0.030405375000000845
        },
        {
          "name": "C#2",
          "midi": 37,
          "time": 103.78199081249993,
          "velocity": 0.8740157480314961,
          "duration": 0.02871618749999527
        },
        {
          "name": "F#2",
          "midi": 42,
          "time": 103.78199081249993,
          "velocity": 0.7086614173228346,
          "duration": 0.030405375000000845
        },
        {
          "name": "B1",
          "midi": 35,
          "time": 104.18908499999993,
          "velocity": 1,
          "duration": 0.028716187500009482
        },
        {
          "name": "A#2",
          "midi": 46,
          "time": 104.19077418749994,
          "velocity": 0.7874015748031497,
          "duration": 0.028716187500009482
        },
        {
          "name": "C#2",
          "midi": 37,
          "time": 104.59111162499995,
          "velocity": 0.8740157480314961,
          "duration": 0.030405375000000845
        },
        {
          "name": "F#2",
          "midi": 42,
          "time": 104.59617918749996,
          "velocity": 0.7086614173228346,
          "duration": 0.02702700000000391
        },
        {
          "name": "B1",
          "midi": 35,
          "time": 104.99820581249996,
          "velocity": 1,
          "duration": 0.02871618749999527
        },
        {
          "name": "F#2",
          "midi": 42,
          "time": 104.99820581249996,
          "velocity": 0.968503937007874,
          "duration": 0.02871618749999527
        },
        {
          "name": "C#2",
          "midi": 37,
          "time": 105.40192162499996,
          "velocity": 0.8740157480314961,
          "duration": 0.02871618749999527
        },
        {
          "name": "B1",
          "midi": 35,
          "time": 105.40529999999995,
          "velocity": 1,
          "duration": 0.02871618749999527
        },
        {
          "name": "F#2",
          "midi": 42,
          "time": 105.40529999999995,
          "velocity": 0.84251968503937,
          "duration": 0.02871618749999527
        },
        {
          "name": "F#2",
          "midi": 42,
          "time": 105.80732662499994,
          "velocity": 0.7086614173228346,
          "duration": 0.02871618749999527
        },
        {
          "name": "C#2",
          "midi": 37,
          "time": 106.21273162499995,
          "velocity": 0.8740157480314961,
          "duration": 0.030405375000000845
        },
        {
          "name": "F#2",
          "midi": 42,
          "time": 106.21610999999994,
          "velocity": 0.7086614173228346,
          "duration": 0.028716187500009482
        },
        {
          "name": "F#2",
          "midi": 42,
          "time": 106.61813662499995,
          "velocity": 0.6141732283464567,
          "duration": 0.02871618749999527
        },
        {
          "name": "B1",
          "midi": 35,
          "time": 107.02354162499995,
          "velocity": 1,
          "duration": 0.030405375000000845
        },
        {
          "name": "C#2",
          "midi": 37,
          "time": 107.02354162499995,
          "velocity": 0.8740157480314961,
          "duration": 0.030405375000000845
        },
        {
          "name": "F#2",
          "midi": 42,
          "time": 107.02860918749995,
          "velocity": 0.7086614173228346,
          "duration": 0.02871618749999527
        },
        {
          "name": "F#2",
          "midi": 42,
          "time": 107.43232499999995,
          "velocity": 0.6141732283464567,
          "duration": 0.02871618749999527
        },
        {
          "name": "F#2",
          "midi": 42,
          "time": 107.83772999999995,
          "velocity": 0.84251968503937,
          "duration": 0.02702700000000391
        },
        {
          "name": "C#2",
          "midi": 37,
          "time": 107.83941918749996,
          "velocity": 0.8740157480314961,
          "duration": 0.02871618749999527
        },
        {
          "name": "B1",
          "midi": 35,
          "time": 108.23975662499996,
          "velocity": 0.905511811023622,
          "duration": 0.02871618749999527
        },
        {
          "name": "F#2",
          "midi": 42,
          "time": 108.23975662499996,
          "velocity": 0.7086614173228346,
          "duration": 0.02871618749999527
        },
        {
          "name": "C#2",
          "midi": 37,
          "time": 108.64516162499996,
          "velocity": 0.8740157480314961,
          "duration": 0.028716187500009482
        },
        {
          "name": "B1",
          "midi": 35,
          "time": 108.64853999999995,
          "velocity": 0.905511811023622,
          "duration": 0.028716187500009482
        },
        {
          "name": "F#2",
          "midi": 42,
          "time": 108.65022918749996,
          "velocity": 0.7086614173228346,
          "duration": 0.028716187500009482
        },
        {
          "name": "F#2",
          "midi": 42,
          "time": 109.05732337499997,
          "velocity": 0.7086614173228346,
          "duration": 0.02871618749999527
        },
        {
          "name": "C#2",
          "midi": 37,
          "time": 109.45766081249997,
          "velocity": 0.8740157480314961,
          "duration": 0.03209456250000642
        },
        {
          "name": "F#2",
          "midi": 42,
          "time": 109.45766081249997,
          "velocity": 0.84251968503937,
          "duration": 0.030405375000000845
        },
        {
          "name": "F#2",
          "midi": 42,
          "time": 109.86644418749998,
          "velocity": 0.84251968503937,
          "duration": 0.02871618749999527
        },
        {
          "name": "C#2",
          "midi": 37,
          "time": 110.26847081249997,
          "velocity": 0.8740157480314961,
          "duration": 0.02871618749999527
        },
        {
          "name": "F#2",
          "midi": 42,
          "time": 110.26847081249997,
          "velocity": 0.84251968503937,
          "duration": 0.02871618749999527
        },
        {
          "name": "B1",
          "midi": 35,
          "time": 110.67218662499997,
          "velocity": 0.905511811023622,
          "duration": 0.03378374999999778
        },
        {
          "name": "A#2",
          "midi": 46,
          "time": 110.67218662499997,
          "velocity": 0.9133858267716536,
          "duration": 0.03378374999999778
        },
        {
          "name": "C#2",
          "midi": 37,
          "time": 111.07759162499997,
          "velocity": 0.8740157480314961,
          "duration": 0.030405375000000845
        },
        {
          "name": "F#2",
          "midi": 42,
          "time": 111.07759162499997,
          "velocity": 0.84251968503937,
          "duration": 0.030405375000000845
        },
        {
          "name": "B1",
          "midi": 35,
          "time": 111.48468581249998,
          "velocity": 0.905511811023622,
          "duration": 0.030405375000000845
        },
        {
          "name": "F#2",
          "midi": 42,
          "time": 111.48468581249998,
          "velocity": 0.84251968503937,
          "duration": 0.03209456250000642
        },
        {
          "name": "B1",
          "midi": 35,
          "time": 111.89009081249998,
          "velocity": 1,
          "duration": 0.02871618749999527
        },
        {
          "name": "C#2",
          "midi": 37,
          "time": 111.89009081249998,
          "velocity": 0.8740157480314961,
          "duration": 0.02871618749999527
        },
        {
          "name": "F#2",
          "midi": 42,
          "time": 111.89009081249998,
          "velocity": 0.84251968503937,
          "duration": 0.02871618749999527
        },
        {
          "name": "F#2",
          "midi": 42,
          "time": 112.29887418749998,
          "velocity": 0.6141732283464567,
          "duration": 0.02871618749999527
        },
        {
          "name": "C#2",
          "midi": 37,
          "time": 112.70090081249997,
          "velocity": 0.8740157480314961,
          "duration": 0.02871618749999527
        },
        {
          "name": "F#2",
          "midi": 42,
          "time": 112.70090081249997,
          "velocity": 0.84251968503937,
          "duration": 0.02871618749999527
        },
        {
          "name": "F#2",
          "midi": 42,
          "time": 113.10630581249997,
          "velocity": 0.7086614173228346,
          "duration": 0.02871618749999527
        },
        {
          "name": "B1",
          "midi": 35,
          "time": 113.51002162499996,
          "velocity": 0.8346456692913385,
          "duration": 0.028716187500009482
        },
        {
          "name": "C#2",
          "midi": 37,
          "time": 113.51002162499996,
          "velocity": 0.8740157480314961,
          "duration": 0.03209456250000642
        },
        {
          "name": "F#2",
          "midi": 42,
          "time": 113.51508918749997,
          "velocity": 0.7086614173228346,
          "duration": 0.028716187500009482
        },
        {
          "name": "F#2",
          "midi": 42,
          "time": 113.92218337499997,
          "velocity": 0.7086614173228346,
          "duration": 0.02871618749999527
        },
        {
          "name": "C#2",
          "midi": 37,
          "time": 114.32252081249997,
          "velocity": 0.8740157480314961,
          "duration": 0.030405375000000845
        },
        {
          "name": "F#2",
          "midi": 42,
          "time": 114.32252081249997,
          "velocity": 0.84251968503937,
          "duration": 0.030405375000000845
        },
        {
          "name": "B1",
          "midi": 35,
          "time": 114.72623662499997,
          "velocity": 0.905511811023622,
          "duration": 0.030405375000000845
        },
        {
          "name": "F#2",
          "midi": 42,
          "time": 114.72623662499997,
          "velocity": 0.7086614173228346,
          "duration": 0.03209456250000642
        },
        {
          "name": "C#2",
          "midi": 37,
          "time": 115.13164162499997,
          "velocity": 0.8740157480314961,
          "duration": 0.030405375000000845
        },
        {
          "name": "B1",
          "midi": 35,
          "time": 115.13501999999997,
          "velocity": 1,
          "duration": 0.028716187500009482
        },
        {
          "name": "F#2",
          "midi": 42,
          "time": 115.13501999999997,
          "velocity": 0.84251968503937,
          "duration": 0.028716187500009482
        },
        {
          "name": "F#2",
          "midi": 42,
          "time": 115.54380337499998,
          "velocity": 0.6141732283464567,
          "duration": 0.02871618749999527
        },
        {
          "name": "F#2",
          "midi": 42,
          "time": 115.94582999999997,
          "velocity": 0.84251968503937,
          "duration": 0.028716187500009482
        },
        {
          "name": "C#2",
          "midi": 37,
          "time": 115.94751918749998,
          "velocity": 0.7480314960629921,
          "duration": 0.028716187500009482
        },
        {
          "name": "F#2",
          "midi": 42,
          "time": 116.3529241875,
          "velocity": 0.7086614173228346,
          "duration": 0.02871618749999527
        },
        {
          "name": "C#2",
          "midi": 37,
          "time": 116.753261625,
          "velocity": 0.8740157480314961,
          "duration": 0.030405375000000845
        },
        {
          "name": "F#2",
          "midi": 42,
          "time": 116.753261625,
          "velocity": 0.968503937007874,
          "duration": 0.030405375000000845
        },
        {
          "name": "B1",
          "midi": 35,
          "time": 117.1603558125,
          "velocity": 0.905511811023622,
          "duration": 0.03209456250000642
        },
        {
          "name": "A#2",
          "midi": 46,
          "time": 117.1603558125,
          "velocity": 0.7874015748031497,
          "duration": 0.030405375000000845
        },
        {
          "name": "F#2",
          "midi": 42,
          "time": 117.56407162500001,
          "velocity": 0.84251968503937,
          "duration": 0.02871618749999527
        },
        {
          "name": "C#2",
          "midi": 37,
          "time": 117.56745000000001,
          "velocity": 0.8740157480314961,
          "duration": 0.02871618749999527
        },
        {
          "name": "B1",
          "midi": 35,
          "time": 117.969476625,
          "velocity": 0.905511811023622,
          "duration": 0.030405375000000845
        },
        {
          "name": "F#2",
          "midi": 42,
          "time": 117.972855,
          "velocity": 0.7086614173228346,
          "duration": 0.028716187500009482
        },
        {
          "name": "B1",
          "midi": 35,
          "time": 118.374881625,
          "velocity": 1,
          "duration": 0.03209456250000642
        },
        {
          "name": "C#2",
          "midi": 37,
          "time": 118.374881625,
          "velocity": 0.8740157480314961,
          "duration": 0.030405375000000845
        },
        {
          "name": "F#2",
          "midi": 42,
          "time": 118.374881625,
          "velocity": 0.84251968503937,
          "duration": 0.030405375000000845
        },
        {
          "name": "F#2",
          "midi": 42,
          "time": 118.78366500000001,
          "velocity": 0.7086614173228346,
          "duration": 0.02871618749999527
        },
        {
          "name": "F#2",
          "midi": 42,
          "time": 119.18738081250001,
          "velocity": 0.968503937007874,
          "duration": 0.030405375000000845
        },
        {
          "name": "C#2",
          "midi": 37,
          "time": 119.18907000000002,
          "velocity": 0.8740157480314961,
          "duration": 0.03209456249999221
        },
        {
          "name": "F#2",
          "midi": 42,
          "time": 119.591096625,
          "velocity": 0.7086614173228346,
          "duration": 0.030405375000000845
        },
        {
          "name": "B1",
          "midi": 35,
          "time": 119.99988,
          "velocity": 1,
          "duration": 0.02871618749999527
        },
        {
          "name": "C#2",
          "midi": 37,
          "time": 119.99988,
          "velocity": 0.7480314960629921,
          "duration": 0.02871618749999527
        },
        {
          "name": "F#2",
          "midi": 42,
          "time": 119.99988,
          "velocity": 0.7086614173228346,
          "duration": 0.02871618749999527
        },
        {
          "name": "F#2",
          "midi": 42,
          "time": 120.4035958125,
          "velocity": 0.7086614173228346,
          "duration": 0.03209456250000642
        },
        {
          "name": "C#2",
          "midi": 37,
          "time": 120.80731162500001,
          "velocity": 0.8740157480314961,
          "duration": 0.030405375000000845
        },
        {
          "name": "F#2",
          "midi": 42,
          "time": 120.80731162500001,
          "velocity": 0.84251968503937,
          "duration": 0.030405375000000845
        },
        {
          "name": "B1",
          "midi": 35,
          "time": 121.21271662500001,
          "velocity": 1,
          "duration": 0.02871618749999527
        },
        {
          "name": "F#2",
          "midi": 42,
          "time": 121.21609500000001,
          "velocity": 0.84251968503937,
          "duration": 0.02871618749999527
        },
        {
          "name": "C#2",
          "midi": 37,
          "time": 121.618121625,
          "velocity": 0.8740157480314961,
          "duration": 0.028716187500009482
        },
        {
          "name": "F#2",
          "midi": 42,
          "time": 121.618121625,
          "velocity": 0.6141732283464567,
          "duration": 0.028716187500009482
        },
        {
          "name": "B1",
          "midi": 35,
          "time": 121.6231891875,
          "velocity": 0.905511811023622,
          "duration": 0.028716187500009482
        },
        {
          "name": "F#2",
          "midi": 42,
          "time": 122.02352662500002,
          "velocity": 0.968503937007874,
          "duration": 0.02871618749999527
        },
        {
          "name": "C#2",
          "midi": 37,
          "time": 122.43062081250001,
          "velocity": 0.7480314960629921,
          "duration": 0.02871618749999527
        },
        {
          "name": "F#2",
          "midi": 42,
          "time": 122.43062081250001,
          "velocity": 0.84251968503937,
          "duration": 0.02871618749999527
        },
        {
          "name": "A#2",
          "midi": 46,
          "time": 122.834336625,
          "velocity": 0.7874015748031497,
          "duration": 0.02871618749999527
        },
        {
          "name": "B1",
          "midi": 35,
          "time": 123.2414308125,
          "velocity": 0.905511811023622,
          "duration": 0.02871618749999527
        },
        {
          "name": "F#2",
          "midi": 42,
          "time": 123.2414308125,
          "velocity": 0.968503937007874,
          "duration": 0.030405375000000845
        },
        {
          "name": "F#2",
          "midi": 42,
          "time": 123.648525,
          "velocity": 0.5354330708661418,
          "duration": 0.02871618749999527
        },
        {
          "name": "C#2",
          "midi": 37,
          "time": 124.050551625,
          "velocity": 0.8740157480314961,
          "duration": 0.030405375000000845
        },
        {
          "name": "F#2",
          "midi": 42,
          "time": 124.050551625,
          "velocity": 0.84251968503937,
          "duration": 0.030405375000000845
        },
        {
          "name": "B1",
          "midi": 35,
          "time": 124.4576458125,
          "velocity": 0.905511811023622,
          "duration": 0.030405375000000845
        },
        {
          "name": "F#2",
          "midi": 42,
          "time": 124.4576458125,
          "velocity": 0.84251968503937,
          "duration": 0.030405375000000845
        },
        {
          "name": "F#2",
          "midi": 42,
          "time": 124.86474000000001,
          "velocity": 0.7086614173228346,
          "duration": 0.02871618749999527
        },
        {
          "name": "F#2",
          "midi": 42,
          "time": 125.266766625,
          "velocity": 0.7086614173228346,
          "duration": 0.02871618749999527
        },
        {
          "name": "C#2",
          "midi": 37,
          "time": 125.67555,
          "velocity": 0.8740157480314961,
          "duration": 0.02871618749999527
        },
        {
          "name": "F#2",
          "midi": 42,
          "time": 125.67555,
          "velocity": 0.84251968503937,
          "duration": 0.02871618749999527
        },
        {
          "name": "F#2",
          "midi": 42,
          "time": 126.0826441875,
          "velocity": 0.84251968503937,
          "duration": 0.02871618749999527
        },
        {
          "name": "F#2",
          "midi": 42,
          "time": 126.48635999999999,
          "velocity": 0.84251968503937,
          "duration": 0.02871618749999527
        },
        {
          "name": "F#2",
          "midi": 42,
          "time": 126.89176499999999,
          "velocity": 0.7086614173228346,
          "duration": 0.02871618749999527
        },
        {
          "name": "C#2",
          "midi": 37,
          "time": 127.29717,
          "velocity": 0.8740157480314961,
          "duration": 0.030405375000000845
        },
        {
          "name": "F#2",
          "midi": 42,
          "time": 127.29717,
          "velocity": 0.84251968503937,
          "duration": 0.030405375000000845
        },
        {
          "name": "F#2",
          "midi": 42,
          "time": 127.699196625,
          "velocity": 0.7086614173228346,
          "duration": 0.030405375000000845
        },
        {
          "name": "B1",
          "midi": 35,
          "time": 127.702575,
          "velocity": 0.905511811023622,
          "duration": 0.03209456250000642
        },
        {
          "name": "F#2",
          "midi": 42,
          "time": 128.10798,
          "velocity": 0.84251968503937,
          "duration": 0.028716187500009482
        },
        {
          "name": "F#2",
          "midi": 42,
          "time": 128.5116958125,
          "velocity": 0.7086614173228346,
          "duration": 0.030405375000015056
        },
        {
          "name": "B1",
          "midi": 35,
          "time": 128.5150741875,
          "velocity": 0.905511811023622,
          "duration": 0.028716187500009482
        },
        {
          "name": "F#2",
          "midi": 42,
          "time": 128.91879,
          "velocity": 0.968503937007874,
          "duration": 0.028716187500009482
        },
        {
          "name": "C#2",
          "midi": 37,
          "time": 128.9204791875,
          "velocity": 0.8740157480314961,
          "duration": 0.028716187500009482
        },
        {
          "name": "F#2",
          "midi": 42,
          "time": 129.32250581250003,
          "velocity": 0.7086614173228346,
          "duration": 0.030405374999986634
        },
        {
          "name": "B1",
          "midi": 35,
          "time": 129.7279108125,
          "velocity": 0.905511811023622,
          "duration": 0.028716187500009482
        },
        {
          "name": "F#2",
          "midi": 42,
          "time": 129.7279108125,
          "velocity": 0.84251968503937,
          "duration": 0.028716187500009482
        },
        {
          "name": "F#2",
          "midi": 42,
          "time": 130.135005,
          "velocity": 0.7086614173228346,
          "duration": 0.028716187500009482
        },
        {
          "name": "C#2",
          "midi": 37,
          "time": 130.5387208125,
          "velocity": 0.8740157480314961,
          "duration": 0.028716187500009482
        },
        {
          "name": "F#2",
          "midi": 42,
          "time": 130.5420991875,
          "velocity": 0.84251968503937,
          "duration": 0.028716187500009482
        },
        {
          "name": "B1",
          "midi": 35,
          "time": 130.94243662500003,
          "velocity": 0.905511811023622,
          "duration": 0.030405374999986634
        },
        {
          "name": "F#2",
          "midi": 42,
          "time": 130.94243662500003,
          "velocity": 0.7086614173228346,
          "duration": 0.030405374999986634
        },
        {
          "name": "F#2",
          "midi": 42,
          "time": 131.3495308125,
          "velocity": 0.84251968503937,
          "duration": 0.028716187500009482
        },
        {
          "name": "F#2",
          "midi": 42,
          "time": 131.756625,
          "velocity": 0.7086614173228346,
          "duration": 0.028716187500009482
        },
        {
          "name": "F#2",
          "midi": 42,
          "time": 132.1603408125,
          "velocity": 0.84251968503937,
          "duration": 0.02702700000000391
        },
        {
          "name": "C#2",
          "midi": 37,
          "time": 132.16203000000002,
          "velocity": 0.8740157480314961,
          "duration": 0.028716187500009482
        },
        {
          "name": "F#2",
          "midi": 42,
          "time": 132.5657458125,
          "velocity": 0.6141732283464567,
          "duration": 0.02702700000000391
        },
        {
          "name": "F#2",
          "midi": 42,
          "time": 132.97284000000002,
          "velocity": 0.7086614173228346,
          "duration": 0.028716187500009482
        },
        {
          "name": "F#2",
          "midi": 42,
          "time": 133.37993418750003,
          "velocity": 0.7086614173228346,
          "duration": 0.028716187500009482
        },
        {
          "name": "C#2",
          "midi": 37,
          "time": 133.78365000000002,
          "velocity": 0.8740157480314961,
          "duration": 0.028716187500009482
        },
        {
          "name": "F#2",
          "midi": 42,
          "time": 133.78365000000002,
          "velocity": 0.968503937007874,
          "duration": 0.028716187500009482
        },
        {
          "name": "F#2",
          "midi": 42,
          "time": 134.18736581250002,
          "velocity": 0.5354330708661418,
          "duration": 0.030405375000015056
        },
        {
          "name": "B1",
          "midi": 35,
          "time": 134.19074418750003,
          "velocity": 0.905511811023622,
          "duration": 0.028716187500009482
        },
        {
          "name": "F#2",
          "midi": 42,
          "time": 134.59277081250005,
          "velocity": 0.7086614173228346,
          "duration": 0.028716187500009482
        },
        {
          "name": "B1",
          "midi": 35,
          "time": 134.99986500000006,
          "velocity": 0.905511811023622,
          "duration": 0.028716187500009482
        },
        {
          "name": "F#2",
          "midi": 42,
          "time": 134.99986500000006,
          "velocity": 0.84251968503937,
          "duration": 0.028716187500009482
        },
        {
          "name": "C#2",
          "midi": 37,
          "time": 135.40527000000006,
          "velocity": 0.8740157480314961,
          "duration": 0.028716187500009482
        },
        {
          "name": "F#2",
          "midi": 42,
          "time": 135.40527000000006,
          "velocity": 0.968503937007874,
          "duration": 0.028716187500009482
        },
        {
          "name": "F#2",
          "midi": 42,
          "time": 135.81236418750007,
          "velocity": 0.84251968503937,
          "duration": 0.028716187500009482
        },
        {
          "name": "B1",
          "midi": 35,
          "time": 136.21270162500008,
          "velocity": 0.7716535433070866,
          "duration": 0.030405374999986634
        },
        {
          "name": "F#2",
          "midi": 42,
          "time": 136.21270162500008,
          "velocity": 0.84251968503937,
          "duration": 0.030405374999986634
        },
        {
          "name": "F#2",
          "midi": 42,
          "time": 136.62148500000006,
          "velocity": 0.7086614173228346,
          "duration": 0.028716187500009482
        },
        {
          "name": "C#2",
          "midi": 37,
          "time": 137.03026837500008,
          "velocity": 0.8740157480314961,
          "duration": 0.028716187500009482
        },
        {
          "name": "F#2",
          "midi": 42,
          "time": 137.03026837500008,
          "velocity": 0.7086614173228346,
          "duration": 0.028716187500009482
        },
        {
          "name": "F#2",
          "midi": 42,
          "time": 137.4306058125001,
          "velocity": 0.6141732283464567,
          "duration": 0.028716187500009482
        },
        {
          "name": "B1",
          "midi": 35,
          "time": 137.4322950000001,
          "velocity": 1,
          "duration": 0.028716187500009482
        },
        {
          "name": "F#2",
          "midi": 42,
          "time": 137.8377000000001,
          "velocity": 0.6141732283464567,
          "duration": 0.028716187500009482
        },
        {
          "name": "F#2",
          "midi": 42,
          "time": 138.2431050000001,
          "velocity": 0.84251968503937,
          "duration": 0.028716187500009482
        },
        {
          "name": "C#2",
          "midi": 37,
          "time": 138.6468208125001,
          "velocity": 0.8740157480314961,
          "duration": 0.030405374999986634
        },
        {
          "name": "F#2",
          "midi": 42,
          "time": 138.6468208125001,
          "velocity": 0.84251968503937,
          "duration": 0.030405374999986634
        },
        {
          "name": "F#2",
          "midi": 42,
          "time": 139.05560418750008,
          "velocity": 0.7086614173228346,
          "duration": 0.028716187500009482
        },
        {
          "name": "F#2",
          "midi": 42,
          "time": 139.45932000000008,
          "velocity": 0.84251968503937,
          "duration": 0.028716187500009482
        },
        {
          "name": "F#2",
          "midi": 42,
          "time": 139.86303581250007,
          "velocity": 0.84251968503937,
          "duration": 0.028716187500009482
        },
        {
          "name": "C#2",
          "midi": 37,
          "time": 140.27013000000008,
          "velocity": 0.8740157480314961,
          "duration": 0.030405374999986634
        },
        {
          "name": "F#2",
          "midi": 42,
          "time": 140.27013000000008,
          "velocity": 0.7086614173228346,
          "duration": 0.030405374999986634
        },
        {
          "name": "B1",
          "midi": 35,
          "time": 140.67215662500007,
          "velocity": 0.905511811023622,
          "duration": 0.028716187500009482
        },
        {
          "name": "F#2",
          "midi": 42,
          "time": 140.67215662500007,
          "velocity": 0.5354330708661418,
          "duration": 0.028716187500009482
        },
        {
          "name": "F#2",
          "midi": 42,
          "time": 141.08094000000008,
          "velocity": 0.6141732283464567,
          "duration": 0.030405374999986634
        },
        {
          "name": "F#2",
          "midi": 42,
          "time": 141.48465581250008,
          "velocity": 0.48031496062992124,
          "duration": 0.028716187500009482
        },
        {
          "name": "B1",
          "midi": 35,
          "time": 141.4880341875001,
          "velocity": 0.905511811023622,
          "duration": 0.028716187500009482
        },
        {
          "name": "F#2",
          "midi": 42,
          "time": 141.8900608125001,
          "velocity": 0.7086614173228346,
          "duration": 0.028716187500009482
        },
        {
          "name": "C#2",
          "midi": 37,
          "time": 141.89343918750012,
          "velocity": 0.8740157480314961,
          "duration": 0.028716187500009482
        },
        {
          "name": "F#2",
          "midi": 42,
          "time": 142.29546581250014,
          "velocity": 0.6141732283464567,
          "duration": 0.028716187500009482
        },
        {
          "name": "B1",
          "midi": 35,
          "time": 142.69918162500014,
          "velocity": 1,
          "duration": 0.030405374999986634
        },
        {
          "name": "F#2",
          "midi": 42,
          "time": 142.69918162500014,
          "velocity": 0.7086614173228346,
          "duration": 0.03209456249999221
        },
        {
          "name": "F#2",
          "midi": 42,
          "time": 143.10965418750013,
          "velocity": 0.7086614173228346,
          "duration": 0.028716187500009482
        },
        {
          "name": "F#2",
          "midi": 42,
          "time": 143.51337000000012,
          "velocity": 0.5354330708661418,
          "duration": 0.02702700000000391
        },
        {
          "name": "C#2",
          "midi": 37,
          "time": 143.51505918750013,
          "velocity": 0.9606299212598425,
          "duration": 0.028716187500009482
        },
        {
          "name": "B1",
          "midi": 35,
          "time": 143.91539662500014,
          "velocity": 1,
          "duration": 0.03209456250002063
        },
        {
          "name": "F#2",
          "midi": 42,
          "time": 143.91539662500014,
          "velocity": 0.7086614173228346,
          "duration": 0.028716187500009482
        },
        {
          "name": "F#2",
          "midi": 42,
          "time": 144.32249081250015,
          "velocity": 0.48031496062992124,
          "duration": 0.028716187500009482
        },
        {
          "name": "F#2",
          "midi": 42,
          "time": 144.72789581250015,
          "velocity": 0.6141732283464567,
          "duration": 0.028716187500009482
        },
        {
          "name": "F#2",
          "midi": 42,
          "time": 145.13499000000016,
          "velocity": 0.84251968503937,
          "duration": 0.028716187500009482
        },
        {
          "name": "C#2",
          "midi": 37,
          "time": 145.13667918750016,
          "velocity": 0.8740157480314961,
          "duration": 0.028716187500009482
        },
        {
          "name": "F#2",
          "midi": 42,
          "time": 145.53870581250018,
          "velocity": 0.5354330708661418,
          "duration": 0.030405374999986634
        },
        {
          "name": "F#2",
          "midi": 42,
          "time": 145.94580000000016,
          "velocity": 0.84251968503937,
          "duration": 0.028716187500009482
        },
        {
          "name": "F#2",
          "midi": 42,
          "time": 146.34951581250016,
          "velocity": 0.6141732283464567,
          "duration": 0.028716187500009482
        },
        {
          "name": "B1",
          "midi": 35,
          "time": 146.35289418750017,
          "velocity": 0.905511811023622,
          "duration": 0.028716187500009482
        },
        {
          "name": "C#2",
          "midi": 37,
          "time": 146.75323162500018,
          "velocity": 0.8740157480314961,
          "duration": 0.030405375000015056
        },
        {
          "name": "F#2",
          "midi": 42,
          "time": 146.7566100000002,
          "velocity": 0.6141732283464567,
          "duration": 0.028716187500009482
        },
        {
          "name": "B1",
          "midi": 35,
          "time": 147.1620150000002,
          "velocity": 1,
          "duration": 0.028716187500009482
        },
        {
          "name": "F#2",
          "midi": 42,
          "time": 147.1620150000002,
          "velocity": 0.5354330708661418,
          "duration": 0.028716187500009482
        },
        {
          "name": "F#2",
          "midi": 42,
          "time": 147.5674200000002,
          "velocity": 0.5354330708661418,
          "duration": 0.028716187500009482
        },
        {
          "name": "F#2",
          "midi": 42,
          "time": 147.9728250000002,
          "velocity": 0.6141732283464567,
          "duration": 0.028716187500009482
        },
        {
          "name": "C#2",
          "midi": 37,
          "time": 148.3782300000002,
          "velocity": 0.8740157480314961,
          "duration": 0.028716187500009482
        },
        {
          "name": "F#2",
          "midi": 42,
          "time": 148.3782300000002,
          "velocity": 0.7086614173228346,
          "duration": 0.028716187500009482
        },
        {
          "name": "F#2",
          "midi": 42,
          "time": 148.7853241875002,
          "velocity": 0.5354330708661418,
          "duration": 0.028716187500009482
        },
        {
          "name": "F#2",
          "midi": 42,
          "time": 149.18735081250023,
          "velocity": 0.7086614173228346,
          "duration": 0.030405374999986634
        },
        {
          "name": "B1",
          "midi": 35,
          "time": 149.19241837500022,
          "velocity": 0.905511811023622,
          "duration": 0.028716187500009482
        },
        {
          "name": "F#2",
          "midi": 42,
          "time": 149.5961341875002,
          "velocity": 0.5354330708661418,
          "duration": 0.028716187500009482
        },
        {
          "name": "C#2",
          "midi": 37,
          "time": 150.0015391875002,
          "velocity": 0.8740157480314961,
          "duration": 0.028716187500009482
        },
        {
          "name": "F#2",
          "midi": 42,
          "time": 150.0015391875002,
          "velocity": 0.5354330708661418,
          "duration": 0.028716187500009482
        },
        {
          "name": "B1",
          "midi": 35,
          "time": 150.40356581250023,
          "velocity": 1,
          "duration": 0.030405375000015056
        },
        {
          "name": "F#2",
          "midi": 42,
          "time": 150.40356581250023,
          "velocity": 0.6141732283464567,
          "duration": 0.028716187500009482
        },
        {
          "name": "F#2",
          "midi": 42,
          "time": 150.81066000000024,
          "velocity": 0.6141732283464567,
          "duration": 0.028716187500009482
        },
        {
          "name": "F#2",
          "midi": 42,
          "time": 151.21437581250024,
          "velocity": 0.4330708661417323,
          "duration": 0.028716187500009482
        },
        {
          "name": "C#2",
          "midi": 37,
          "time": 151.61978081250024,
          "velocity": 0.9606299212598425,
          "duration": 0.03209456249999221
        },
        {
          "name": "F#2",
          "midi": 42,
          "time": 151.61978081250024,
          "velocity": 0.7086614173228346,
          "duration": 0.030405374999986634
        },
        {
          "name": "F#2",
          "midi": 42,
          "time": 152.02856418750022,
          "velocity": 0.6141732283464567,
          "duration": 0.028716187500009482
        },
        {
          "name": "F#2",
          "midi": 42,
          "time": 152.43059081250024,
          "velocity": 0.5354330708661418,
          "duration": 0.028716187500009482
        },
        {
          "name": "F#2",
          "midi": 42,
          "time": 152.83768500000025,
          "velocity": 0.6141732283464567,
          "duration": 0.03209456249999221
        },
        {
          "name": "C#2",
          "midi": 37,
          "time": 153.24140081250025,
          "velocity": 0.8740157480314961,
          "duration": 0.030405374999986634
        },
        {
          "name": "F#2",
          "midi": 42,
          "time": 153.24646837500023,
          "velocity": 0.7086614173228346,
          "duration": 0.028716187500009482
        },
        {
          "name": "F#2",
          "midi": 42,
          "time": 153.64511662500024,
          "velocity": 0.5354330708661418,
          "duration": 0.030405374999986634
        },
        {
          "name": "B1",
          "midi": 35,
          "time": 153.65018418750023,
          "velocity": 1,
          "duration": 0.028716187500009482
        },
        {
          "name": "F#2",
          "midi": 42,
          "time": 154.05390000000023,
          "velocity": 0.6141732283464567,
          "duration": 0.028716187500009482
        },
        {
          "name": "F#2",
          "midi": 42,
          "time": 154.45592662500025,
          "velocity": 0.48031496062992124,
          "duration": 0.028716187500009482
        },
        {
          "name": "B1",
          "midi": 35,
          "time": 154.45930500000026,
          "velocity": 1,
          "duration": 0.028716187500009482
        },
        {
          "name": "C#2",
          "midi": 37,
          "time": 154.86471000000026,
          "velocity": 0.8740157480314961,
          "duration": 0.028716187500009482
        },
        {
          "name": "F#2",
          "midi": 42,
          "time": 154.86471000000026,
          "velocity": 0.84251968503937,
          "duration": 0.028716187500009482
        },
        {
          "name": "F#2",
          "midi": 42,
          "time": 155.27011500000026,
          "velocity": 0.6141732283464567,
          "duration": 0.028716187500009482
        },
        {
          "name": "B1",
          "midi": 35,
          "time": 155.67383081250026,
          "velocity": 1,
          "duration": 0.030405374999986634
        },
        {
          "name": "F#2",
          "midi": 42,
          "time": 155.67383081250026,
          "velocity": 0.7086614173228346,
          "duration": 0.03209456249999221
        },
        {
          "name": "F#2",
          "midi": 42,
          "time": 156.07923581250026,
          "velocity": 0.48031496062992124,
          "duration": 0.028716187500009482
        },
        {
          "name": "C#2",
          "midi": 37,
          "time": 156.48633000000027,
          "velocity": 0.8740157480314961,
          "duration": 0.028716187500009482
        },
        {
          "name": "F#2",
          "midi": 42,
          "time": 156.48633000000027,
          "velocity": 0.7086614173228346,
          "duration": 0.028716187500009482
        },
        {
          "name": "B1",
          "midi": 35,
          "time": 156.89004581250026,
          "velocity": 1,
          "duration": 0.028716187500009482
        },
        {
          "name": "F#2",
          "midi": 42,
          "time": 156.89004581250026,
          "velocity": 0.6141732283464567,
          "duration": 0.028716187500009482
        },
        {
          "name": "F#2",
          "midi": 42,
          "time": 157.29714000000027,
          "velocity": 0.6141732283464567,
          "duration": 0.028716187500009482
        },
        {
          "name": "F#2",
          "midi": 42,
          "time": 157.70085581250027,
          "velocity": 0.6141732283464567,
          "duration": 0.028716187500009482
        },
        {
          "name": "C#2",
          "midi": 37,
          "time": 158.10626081250027,
          "velocity": 0.8740157480314961,
          "duration": 0.030405374999986634
        },
        {
          "name": "F#2",
          "midi": 42,
          "time": 158.10626081250027,
          "velocity": 0.84251968503937,
          "duration": 0.03209456249999221
        },
        {
          "name": "F#2",
          "midi": 42,
          "time": 158.50997662500026,
          "velocity": 0.5354330708661418,
          "duration": 0.030405374999986634
        },
        {
          "name": "F#2",
          "midi": 42,
          "time": 158.91876000000025,
          "velocity": 0.6141732283464567,
          "duration": 0.028716187500009482
        },
        {
          "name": "B1",
          "midi": 35,
          "time": 159.32247581250024,
          "velocity": 1,
          "duration": 0.028716187500009482
        },
        {
          "name": "F#2",
          "midi": 42,
          "time": 159.32416500000025,
          "velocity": 0.7086614173228346,
          "duration": 0.028716187500009482
        },
        {
          "name": "C#2",
          "midi": 37,
          "time": 159.72788081250025,
          "velocity": 0.8740157480314961,
          "duration": 0.030405374999986634
        },
        {
          "name": "F#2",
          "midi": 42,
          "time": 159.72788081250025,
          "velocity": 0.84251968503937,
          "duration": 0.03209456249999221
        },
        {
          "name": "B1",
          "midi": 35,
          "time": 160.13497500000022,
          "velocity": 1,
          "duration": 0.028716187500009482
        },
        {
          "name": "F#2",
          "midi": 42,
          "time": 160.13666418750023,
          "velocity": 0.7086614173228346,
          "duration": 0.028716187500009482
        },
        {
          "name": "F#2",
          "midi": 42,
          "time": 160.54038000000023,
          "velocity": 0.6141732283464567,
          "duration": 0.028716187500009482
        },
        {
          "name": "F#2",
          "midi": 42,
          "time": 160.94409581250022,
          "velocity": 0.7086614173228346,
          "duration": 0.030405374999986634
        },
        {
          "name": "C#2",
          "midi": 37,
          "time": 161.3495008125002,
          "velocity": 0.8740157480314961,
          "duration": 0.028716187500009482
        },
        {
          "name": "F#2",
          "midi": 42,
          "time": 161.3528791875002,
          "velocity": 0.7086614173228346,
          "duration": 0.028716187500009482
        },
        {
          "name": "F#2",
          "midi": 42,
          "time": 161.7565950000002,
          "velocity": 0.84251968503937,
          "duration": 0.028716187500009482
        },
        {
          "name": "B1",
          "midi": 35,
          "time": 162.15862162500022,
          "velocity": 1,
          "duration": 0.02871618749998106
        },
        {
          "name": "F#2",
          "midi": 42,
          "time": 162.15862162500022,
          "velocity": 0.84251968503937,
          "duration": 0.02871618749998106
        },
        {
          "name": "F#2",
          "midi": 42,
          "time": 162.15862162500022,
          "velocity": 0.968503937007874,
          "duration": 0.02871618749998106
        },
        {
          "name": "F#2",
          "midi": 42,
          "time": 162.15862162500022,
          "velocity": 0.968503937007874,
          "duration": 0.02871618749998106
        },
        {
          "name": "F#2",
          "midi": 42,
          "time": 162.15862162500022,
          "velocity": 0.84251968503937,
          "duration": 0.030405374999986634
        },
        {
          "name": "F#2",
          "midi": 42,
          "time": 162.15862162500022,
          "velocity": 0.968503937007874,
          "duration": 0.030405374999986634
        },
        {
          "name": "F#2",
          "midi": 42,
          "time": 162.15862162500022,
          "velocity": 0.84251968503937,
          "duration": 0.030405374999986634
        },
        {
          "name": "F#2",
          "midi": 42,
          "time": 162.1636891875002,
          "velocity": 0.84251968503937,
          "duration": 0.028716187500009482
        },
        {
          "name": "F#2",
          "midi": 42,
          "time": 162.1636891875002,
          "velocity": 0.968503937007874,
          "duration": 0.028716187500009482
        },
        {
          "name": "F#2",
          "midi": 42,
          "time": 162.36301331250021,
          "velocity": 0.7086614173228346,
          "duration": 0.028716187500009482
        },
        {
          "name": "F#2",
          "midi": 42,
          "time": 162.36301331250021,
          "velocity": 0.7086614173228346,
          "duration": 0.028716187500009482
        },
        {
          "name": "F#2",
          "midi": 42,
          "time": 162.36301331250021,
          "velocity": 0.7086614173228346,
          "duration": 0.028716187500009482
        },
        {
          "name": "F#2",
          "midi": 42,
          "time": 162.36639168750023,
          "velocity": 0.7086614173228346,
          "duration": 0.028716187500009482
        },
        {
          "name": "F#2",
          "midi": 42,
          "time": 162.56571581250023,
          "velocity": 0.48031496062992124,
          "duration": 0.030405374999986634
        },
        {
          "name": "F#2",
          "midi": 42,
          "time": 162.56571581250023,
          "velocity": 0.48031496062992124,
          "duration": 0.030405374999986634
        },
        {
          "name": "F#2",
          "midi": 42,
          "time": 162.56571581250023,
          "velocity": 0.48031496062992124,
          "duration": 0.030405374999986634
        },
        {
          "name": "F#2",
          "midi": 42,
          "time": 162.57078337500022,
          "velocity": 0.48031496062992124,
          "duration": 0.02702700000000391
        },
        {
          "name": "F#2",
          "midi": 42,
          "time": 162.76841831250022,
          "velocity": 0.84251968503937,
          "duration": 0.028716187500009482
        },
        {
          "name": "F#2",
          "midi": 42,
          "time": 162.76841831250022,
          "velocity": 0.84251968503937,
          "duration": 0.028716187500009482
        },
        {
          "name": "F#2",
          "midi": 42,
          "time": 162.76841831250022,
          "velocity": 0.84251968503937,
          "duration": 0.028716187500009482
        },
        {
          "name": "F#2",
          "midi": 42,
          "time": 162.77179668750023,
          "velocity": 0.84251968503937,
          "duration": 0.028716187500009482
        },
        {
          "name": "C#2",
          "midi": 37,
          "time": 162.97112081250023,
          "velocity": 0.8740157480314961,
          "duration": 0.028716187500009482
        },
        {
          "name": "C#2",
          "midi": 37,
          "time": 162.97112081250023,
          "velocity": 0.8740157480314961,
          "duration": 0.028716187500009482
        },
        {
          "name": "C#2",
          "midi": 37,
          "time": 162.97112081250023,
          "velocity": 0.8740157480314961,
          "duration": 0.028716187500009482
        },
        {
          "name": "C#2",
          "midi": 37,
          "time": 162.97112081250023,
          "velocity": 0.8740157480314961,
          "duration": 0.028716187500009482
        },
        {
          "name": "F#2",
          "midi": 42,
          "time": 162.97112081250023,
          "velocity": 0.7086614173228346,
          "duration": 0.028716187500009482
        },
        {
          "name": "F#2",
          "midi": 42,
          "time": 162.97112081250023,
          "velocity": 0.7086614173228346,
          "duration": 0.028716187500009482
        },
        {
          "name": "F#2",
          "midi": 42,
          "time": 162.97112081250023,
          "velocity": 0.7086614173228346,
          "duration": 0.028716187500009482
        },
        {
          "name": "F#2",
          "midi": 42,
          "time": 162.97112081250023,
          "velocity": 0.7086614173228346,
          "duration": 0.028716187500009482
        },
        {
          "name": "F#2",
          "midi": 42,
          "time": 163.17551250000025,
          "velocity": 0.3700787401574803,
          "duration": 0.02702700000000391
        },
        {
          "name": "F#2",
          "midi": 42,
          "time": 163.17551250000025,
          "velocity": 0.3700787401574803,
          "duration": 0.02702700000000391
        },
        {
          "name": "F#2",
          "midi": 42,
          "time": 163.17720168750026,
          "velocity": 0.3700787401574803,
          "duration": 0.028716187500009482
        },
        {
          "name": "F#2",
          "midi": 42,
          "time": 163.17720168750026,
          "velocity": 0.3700787401574803,
          "duration": 0.028716187500009482
        },
        {
          "name": "F#2",
          "midi": 42,
          "time": 163.37483662500026,
          "velocity": 0.31496062992125984,
          "duration": 0.028716187500009482
        },
        {
          "name": "F#2",
          "midi": 42,
          "time": 163.37483662500026,
          "velocity": 0.31496062992125984,
          "duration": 0.028716187500009482
        },
        {
          "name": "F#2",
          "midi": 42,
          "time": 163.37483662500026,
          "velocity": 0.31496062992125984,
          "duration": 0.028716187500009482
        },
        {
          "name": "F#2",
          "midi": 42,
          "time": 163.37821500000027,
          "velocity": 0.31496062992125984,
          "duration": 0.028716187500009482
        },
        {
          "name": "C#2",
          "midi": 37,
          "time": 163.57922831250028,
          "velocity": 0.7716535433070866,
          "duration": 0.028716187500009482
        },
        {
          "name": "C#2",
          "midi": 37,
          "time": 163.58091750000028,
          "velocity": 0.7716535433070866,
          "duration": 0.028716187500009482
        },
        {
          "name": "F#2",
          "midi": 42,
          "time": 163.58091750000028,
          "velocity": 0.968503937007874,
          "duration": 0.028716187500009482
        },
        {
          "name": "C#2",
          "midi": 37,
          "time": 163.5826066875003,
          "velocity": 0.7716535433070866,
          "duration": 0.028716187500009482
        },
        {
          "name": "C#2",
          "midi": 37,
          "time": 163.5826066875003,
          "velocity": 0.7716535433070866,
          "duration": 0.028716187500009482
        },
        {
          "name": "F#2",
          "midi": 42,
          "time": 163.5826066875003,
          "velocity": 0.968503937007874,
          "duration": 0.028716187500009482
        },
        {
          "name": "F#2",
          "midi": 42,
          "time": 163.5826066875003,
          "velocity": 0.968503937007874,
          "duration": 0.028716187500009482
        },
        {
          "name": "F#2",
          "midi": 42,
          "time": 163.5826066875003,
          "velocity": 0.968503937007874,
          "duration": 0.028716187500009482
        },
        {
          "name": "F#2",
          "midi": 42,
          "time": 163.7819308125003,
          "velocity": 0.6141732283464567,
          "duration": 0.028716187500009482
        },
        {
          "name": "F#2",
          "midi": 42,
          "time": 163.7836200000003,
          "velocity": 0.6141732283464567,
          "duration": 0.028716187500009482
        },
        {
          "name": "F#2",
          "midi": 42,
          "time": 163.7836200000003,
          "velocity": 0.6141732283464567,
          "duration": 0.028716187500009482
        },
        {
          "name": "F#2",
          "midi": 42,
          "time": 163.7836200000003,
          "velocity": 0.6141732283464567,
          "duration": 0.028716187500009482
        },
        {
          "name": "C#2",
          "midi": 37,
          "time": 163.9863225000003,
          "velocity": 0.7795275590551181,
          "duration": 0.028716187500009482
        },
        {
          "name": "C#2",
          "midi": 37,
          "time": 163.9863225000003,
          "velocity": 0.7795275590551181,
          "duration": 0.028716187500009482
        },
        {
          "name": "C#2",
          "midi": 37,
          "time": 163.9863225000003,
          "velocity": 0.7795275590551181,
          "duration": 0.028716187500009482
        },
        {
          "name": "C#2",
          "midi": 37,
          "time": 163.9863225000003,
          "velocity": 0.7795275590551181,
          "duration": 0.028716187500009482
        },
        {
          "name": "F#2",
          "midi": 42,
          "time": 163.9863225000003,
          "velocity": 0.33858267716535434,
          "duration": 0.028716187500009482
        },
        {
          "name": "F#2",
          "midi": 42,
          "time": 163.9863225000003,
          "velocity": 0.33858267716535434,
          "duration": 0.028716187500009482
        },
        {
          "name": "F#2",
          "midi": 42,
          "time": 163.9863225000003,
          "velocity": 0.33858267716535434,
          "duration": 0.028716187500009482
        },
        {
          "name": "F#2",
          "midi": 42,
          "time": 163.9863225000003,
          "velocity": 0.33858267716535434,
          "duration": 0.028716187500009482
        },
        {
          "name": "F#2",
          "midi": 42,
          "time": 164.18902500000033,
          "velocity": 0.6141732283464567,
          "duration": 0.028716187500009482
        },
        {
          "name": "F#2",
          "midi": 42,
          "time": 164.19071418750033,
          "velocity": 0.6141732283464567,
          "duration": 0.028716187500009482
        },
        {
          "name": "F#2",
          "midi": 42,
          "time": 164.19071418750033,
          "velocity": 0.6141732283464567,
          "duration": 0.028716187500009482
        },
        {
          "name": "F#2",
          "midi": 42,
          "time": 164.19071418750033,
          "velocity": 0.6141732283464567,
          "duration": 0.028716187500009482
        },
        {
          "name": "F#2",
          "midi": 42,
          "time": 164.39003831250034,
          "velocity": 0.84251968503937,
          "duration": 0.028716187500009482
        },
        {
          "name": "F#2",
          "midi": 42,
          "time": 164.39341668750035,
          "velocity": 0.84251968503937,
          "duration": 0.028716187500009482
        },
        {
          "name": "F#2",
          "midi": 42,
          "time": 164.39341668750035,
          "velocity": 0.84251968503937,
          "duration": 0.028716187500009482
        },
        {
          "name": "F#2",
          "midi": 42,
          "time": 164.39341668750035,
          "velocity": 0.84251968503937,
          "duration": 0.028716187500009482
        },
        {
          "name": "C#2",
          "midi": 37,
          "time": 164.59105162500035,
          "velocity": 0.8740157480314961,
          "duration": 0.030405374999986634
        },
        {
          "name": "C#2",
          "midi": 37,
          "time": 164.59105162500035,
          "velocity": 0.8740157480314961,
          "duration": 0.030405374999986634
        },
        {
          "name": "F#2",
          "midi": 42,
          "time": 164.59105162500035,
          "velocity": 0.7086614173228346,
          "duration": 0.030405374999986634
        },
        {
          "name": "F#2",
          "midi": 42,
          "time": 164.59105162500035,
          "velocity": 0.7086614173228346,
          "duration": 0.030405374999986634
        },
        {
          "name": "C#2",
          "midi": 37,
          "time": 164.59611918750034,
          "velocity": 0.8740157480314961,
          "duration": 0.02702700000000391
        },
        {
          "name": "F#2",
          "midi": 42,
          "time": 164.59611918750034,
          "velocity": 0.7086614173228346,
          "duration": 0.02702700000000391
        },
        {
          "name": "C#2",
          "midi": 37,
          "time": 164.59780837500034,
          "velocity": 0.8740157480314961,
          "duration": 0.02702700000000391
        },
        {
          "name": "F#2",
          "midi": 42,
          "time": 164.59780837500034,
          "velocity": 0.7086614173228346,
          "duration": 0.02702700000000391
        },
        {
          "name": "F#2",
          "midi": 42,
          "time": 164.79375412500033,
          "velocity": 0.4015748031496063,
          "duration": 0.028716187500009482
        },
        {
          "name": "F#2",
          "midi": 42,
          "time": 164.79375412500033,
          "velocity": 0.4015748031496063,
          "duration": 0.028716187500009482
        },
        {
          "name": "F#2",
          "midi": 42,
          "time": 164.79375412500033,
          "velocity": 0.4015748031496063,
          "duration": 0.028716187500009482
        },
        {
          "name": "F#2",
          "midi": 42,
          "time": 164.79713250000034,
          "velocity": 0.4015748031496063,
          "duration": 0.028716187500009482
        },
        {
          "name": "F#2",
          "midi": 42,
          "time": 164.99983500000036,
          "velocity": 0.5354330708661418,
          "duration": 0.028716187500009482
        },
        {
          "name": "F#2",
          "midi": 42,
          "time": 164.99983500000036,
          "velocity": 0.5354330708661418,
          "duration": 0.028716187500009482
        },
        {
          "name": "F#2",
          "midi": 42,
          "time": 164.99983500000036,
          "velocity": 0.5354330708661418,
          "duration": 0.028716187500009482
        },
        {
          "name": "F#2",
          "midi": 42,
          "time": 165.00152418750037,
          "velocity": 0.5354330708661418,
          "duration": 0.028716187500009482
        },
        {
          "name": "F#2",
          "midi": 42,
          "time": 165.20084831250037,
          "velocity": 0.968503937007874,
          "duration": 0.028716187500009482
        },
        {
          "name": "F#2",
          "midi": 42,
          "time": 165.20422668750038,
          "velocity": 0.968503937007874,
          "duration": 0.028716187500009482
        },
        {
          "name": "F#2",
          "midi": 42,
          "time": 165.20422668750038,
          "velocity": 0.968503937007874,
          "duration": 0.028716187500009482
        },
        {
          "name": "F#2",
          "midi": 42,
          "time": 165.20422668750038,
          "velocity": 0.968503937007874,
          "duration": 0.028716187500009482
        },
        {
          "name": "F#2",
          "midi": 42,
          "time": 165.40355081250038,
          "velocity": 0.6141732283464567,
          "duration": 0.028716187500009482
        },
        {
          "name": "F#2",
          "midi": 42,
          "time": 165.40355081250038,
          "velocity": 0.6141732283464567,
          "duration": 0.028716187500009482
        },
        {
          "name": "F#2",
          "midi": 42,
          "time": 165.4052400000004,
          "velocity": 0.6141732283464567,
          "duration": 0.028716187500009482
        },
        {
          "name": "F#2",
          "midi": 42,
          "time": 165.4052400000004,
          "velocity": 0.6141732283464567,
          "duration": 0.028716187500009482
        },
        {
          "name": "F#2",
          "midi": 42,
          "time": 165.6079425000004,
          "velocity": 0.968503937007874,
          "duration": 0.028716187500009482
        },
        {
          "name": "F#2",
          "midi": 42,
          "time": 165.6079425000004,
          "velocity": 0.968503937007874,
          "duration": 0.028716187500009482
        },
        {
          "name": "F#2",
          "midi": 42,
          "time": 165.6096316875004,
          "velocity": 0.968503937007874,
          "duration": 0.028716187500009482
        },
        {
          "name": "F#2",
          "midi": 42,
          "time": 165.6096316875004,
          "velocity": 0.968503937007874,
          "duration": 0.028716187500009482
        },
        {
          "name": "F#2",
          "midi": 42,
          "time": 165.8072666250004,
          "velocity": 0.968503937007874,
          "duration": 0.02871618749998106
        },
        {
          "name": "F#2",
          "midi": 42,
          "time": 165.8072666250004,
          "velocity": 0.968503937007874,
          "duration": 0.02871618749998106
        },
        {
          "name": "F#2",
          "midi": 42,
          "time": 165.8072666250004,
          "velocity": 0.968503937007874,
          "duration": 0.02871618749998106
        },
        {
          "name": "F#2",
          "midi": 42,
          "time": 165.8123341875004,
          "velocity": 0.968503937007874,
          "duration": 0.02871618749998106
        },
        {
          "name": "F#2",
          "midi": 42,
          "time": 166.00996912500037,
          "velocity": 0.7086614173228346,
          "duration": 0.028716187500009482
        },
        {
          "name": "F#2",
          "midi": 42,
          "time": 166.01334750000038,
          "velocity": 0.7086614173228346,
          "duration": 0.028716187500009482
        },
        {
          "name": "F#2",
          "midi": 42,
          "time": 166.01503668750038,
          "velocity": 0.7086614173228346,
          "duration": 0.028716187500009482
        },
        {
          "name": "F#2",
          "midi": 42,
          "time": 166.01503668750038,
          "velocity": 0.7086614173228346,
          "duration": 0.028716187500009482
        },
        {
          "name": "C#2",
          "midi": 37,
          "time": 166.2143608125004,
          "velocity": 0.8503937007874016,
          "duration": 0.030405375000015056
        },
        {
          "name": "C#2",
          "midi": 37,
          "time": 166.2160500000004,
          "velocity": 0.8503937007874016,
          "duration": 0.030405375000015056
        },
        {
          "name": "C#2",
          "midi": 37,
          "time": 166.2160500000004,
          "velocity": 0.8503937007874016,
          "duration": 0.030405375000015056
        },
        {
          "name": "C#2",
          "midi": 37,
          "time": 166.2160500000004,
          "velocity": 0.8503937007874016,
          "duration": 0.030405375000015056
        },
        {
          "name": "F#2",
          "midi": 42,
          "time": 166.2160500000004,
          "velocity": 0.7086614173228346,
          "duration": 0.030405375000015056
        },
        {
          "name": "F#2",
          "midi": 42,
          "time": 166.2160500000004,
          "velocity": 0.7086614173228346,
          "duration": 0.030405375000015056
        },
        {
          "name": "F#2",
          "midi": 42,
          "time": 166.2160500000004,
          "velocity": 0.7086614173228346,
          "duration": 0.030405375000015056
        },
        {
          "name": "F#2",
          "midi": 42,
          "time": 166.2160500000004,
          "velocity": 0.7086614173228346,
          "duration": 0.030405375000015056
        },
        {
          "name": "F#2",
          "midi": 42,
          "time": 166.4153741250004,
          "velocity": 0.4330708661417323,
          "duration": 0.028716187500009482
        },
        {
          "name": "F#2",
          "midi": 42,
          "time": 166.4153741250004,
          "velocity": 0.4330708661417323,
          "duration": 0.028716187500009482
        },
        {
          "name": "F#2",
          "midi": 42,
          "time": 166.4187525000004,
          "velocity": 0.4330708661417323,
          "duration": 0.028716187500009482
        },
        {
          "name": "F#2",
          "midi": 42,
          "time": 166.42044168750041,
          "velocity": 0.4330708661417323,
          "duration": 0.028716187500009482
        },
        {
          "name": "F#2",
          "midi": 42,
          "time": 166.61976581250042,
          "velocity": 0.4330708661417323,
          "duration": 0.028716187500009482
        },
        {
          "name": "F#2",
          "midi": 42,
          "time": 166.62145500000042,
          "velocity": 0.4330708661417323,
          "duration": 0.028716187500009482
        },
        {
          "name": "F#2",
          "midi": 42,
          "time": 166.62145500000042,
          "velocity": 0.4330708661417323,
          "duration": 0.028716187500009482
        },
        {
          "name": "F#2",
          "midi": 42,
          "time": 166.62145500000042,
          "velocity": 0.4330708661417323,
          "duration": 0.028716187500009482
        },
        {
          "name": "C#2",
          "midi": 37,
          "time": 166.82246831250043,
          "velocity": 0.7952755905511811,
          "duration": 0.028716187500009482
        },
        {
          "name": "C#2",
          "midi": 37,
          "time": 166.82415750000044,
          "velocity": 0.7952755905511811,
          "duration": 0.028716187500009482
        },
        {
          "name": "C#2",
          "midi": 37,
          "time": 166.82415750000044,
          "velocity": 0.7952755905511811,
          "duration": 0.028716187500009482
        },
        {
          "name": "C#2",
          "midi": 37,
          "time": 166.82415750000044,
          "velocity": 0.7952755905511811,
          "duration": 0.028716187500009482
        },
        {
          "name": "F#2",
          "midi": 42,
          "time": 166.82415750000044,
          "velocity": 0.84251968503937,
          "duration": 0.028716187500009482
        },
        {
          "name": "F#2",
          "midi": 42,
          "time": 166.82415750000044,
          "velocity": 0.84251968503937,
          "duration": 0.028716187500009482
        },
        {
          "name": "F#2",
          "midi": 42,
          "time": 166.82415750000044,
          "velocity": 0.84251968503937,
          "duration": 0.028716187500009482
        },
        {
          "name": "F#2",
          "midi": 42,
          "time": 166.82415750000044,
          "velocity": 0.84251968503937,
          "duration": 0.028716187500009482
        },
        {
          "name": "F#2",
          "midi": 42,
          "time": 167.02517081250045,
          "velocity": 0.7086614173228346,
          "duration": 0.02702700000000391
        },
        {
          "name": "F#2",
          "midi": 42,
          "time": 167.02517081250045,
          "velocity": 0.7086614173228346,
          "duration": 0.02702700000000391
        },
        {
          "name": "F#2",
          "midi": 42,
          "time": 167.02686000000045,
          "velocity": 0.7086614173228346,
          "duration": 0.028716187500009482
        },
        {
          "name": "F#2",
          "midi": 42,
          "time": 167.02854918750046,
          "velocity": 0.7086614173228346,
          "duration": 0.028716187500009482
        },
        {
          "name": "C#2",
          "midi": 37,
          "time": 167.22618412500046,
          "velocity": 0.7952755905511811,
          "duration": 0.030405374999986634
        },
        {
          "name": "C#2",
          "midi": 37,
          "time": 167.22618412500046,
          "velocity": 0.7952755905511811,
          "duration": 0.030405374999986634
        },
        {
          "name": "C#2",
          "midi": 37,
          "time": 167.22618412500046,
          "velocity": 0.7952755905511811,
          "duration": 0.030405374999986634
        },
        {
          "name": "C#2",
          "midi": 37,
          "time": 167.22618412500046,
          "velocity": 0.7952755905511811,
          "duration": 0.030405374999986634
        },
        {
          "name": "F#2",
          "midi": 42,
          "time": 167.22618412500046,
          "velocity": 0.48031496062992124,
          "duration": 0.030405374999986634
        },
        {
          "name": "F#2",
          "midi": 42,
          "time": 167.22618412500046,
          "velocity": 0.48031496062992124,
          "duration": 0.030405374999986634
        },
        {
          "name": "F#2",
          "midi": 42,
          "time": 167.22618412500046,
          "velocity": 0.48031496062992124,
          "duration": 0.030405374999986634
        },
        {
          "name": "F#2",
          "midi": 42,
          "time": 167.22618412500046,
          "velocity": 0.48031496062992124,
          "duration": 0.030405374999986634
        },
        {
          "name": "F#2",
          "midi": 42,
          "time": 167.43226500000046,
          "velocity": 0.5354330708661418,
          "duration": 0.02702700000000391
        },
        {
          "name": "F#2",
          "midi": 42,
          "time": 167.43226500000046,
          "velocity": 0.5354330708661418,
          "duration": 0.02702700000000391
        },
        {
          "name": "F#2",
          "midi": 42,
          "time": 167.43226500000046,
          "velocity": 0.5354330708661418,
          "duration": 0.02702700000000391
        },
        {
          "name": "F#2",
          "midi": 42,
          "time": 167.43395418750046,
          "velocity": 0.5354330708661418,
          "duration": 0.028716187500009482
        },
        {
          "name": "F#2",
          "midi": 42,
          "time": 167.63327831250047,
          "velocity": 0.968503937007874,
          "duration": 0.030405374999986634
        },
        {
          "name": "F#2",
          "midi": 42,
          "time": 167.63327831250047,
          "velocity": 0.968503937007874,
          "duration": 0.030405374999986634
        },
        {
          "name": "F#2",
          "midi": 42,
          "time": 167.63327831250047,
          "velocity": 0.968503937007874,
          "duration": 0.030405374999986634
        },
        {
          "name": "F#2",
          "midi": 42,
          "time": 167.63327831250047,
          "velocity": 0.968503937007874,
          "duration": 0.030405374999986634
        },
        {
          "name": "C#2",
          "midi": 37,
          "time": 167.83429162500045,
          "velocity": 0.8740157480314961,
          "duration": 0.030405375000015056
        },
        {
          "name": "F#2",
          "midi": 42,
          "time": 167.83429162500045,
          "velocity": 0.48031496062992124,
          "duration": 0.030405375000015056
        },
        {
          "name": "C#2",
          "midi": 37,
          "time": 167.83767000000046,
          "velocity": 0.8740157480314961,
          "duration": 0.028716187500009482
        },
        {
          "name": "C#2",
          "midi": 37,
          "time": 167.83767000000046,
          "velocity": 0.8740157480314961,
          "duration": 0.028716187500009482
        },
        {
          "name": "C#2",
          "midi": 37,
          "time": 167.83767000000046,
          "velocity": 0.8740157480314961,
          "duration": 0.028716187500009482
        },
        {
          "name": "F#2",
          "midi": 42,
          "time": 167.83767000000046,
          "velocity": 0.48031496062992124,
          "duration": 0.028716187500009482
        },
        {
          "name": "F#2",
          "midi": 42,
          "time": 167.83767000000046,
          "velocity": 0.48031496062992124,
          "duration": 0.028716187500009482
        },
        {
          "name": "F#2",
          "midi": 42,
          "time": 167.83767000000046,
          "velocity": 0.48031496062992124,
          "duration": 0.028716187500009482
        },
        {
          "name": "F#2",
          "midi": 42,
          "time": 168.03868331250047,
          "velocity": 0.5354330708661418,
          "duration": 0.02702700000000391
        },
        {
          "name": "F#2",
          "midi": 42,
          "time": 168.03868331250047,
          "velocity": 0.5354330708661418,
          "duration": 0.02702700000000391
        },
        {
          "name": "F#2",
          "midi": 42,
          "time": 168.03868331250047,
          "velocity": 0.5354330708661418,
          "duration": 0.02702700000000391
        },
        {
          "name": "F#2",
          "midi": 42,
          "time": 168.04206168750048,
          "velocity": 0.5354330708661418,
          "duration": 0.02871618749998106
        },
        {
          "name": "F#2",
          "midi": 42,
          "time": 168.24307500000046,
          "velocity": 0.48031496062992124,
          "duration": 0.028716187500009482
        },
        {
          "name": "F#2",
          "midi": 42,
          "time": 168.24307500000046,
          "velocity": 0.48031496062992124,
          "duration": 0.028716187500009482
        },
        {
          "name": "F#2",
          "midi": 42,
          "time": 168.24307500000046,
          "velocity": 0.48031496062992124,
          "duration": 0.028716187500009482
        },
        {
          "name": "F#2",
          "midi": 42,
          "time": 168.24476418750046,
          "velocity": 0.48031496062992124,
          "duration": 0.028716187500009482
        },
        {
          "name": "F#2",
          "midi": 42,
          "time": 168.44408831250047,
          "velocity": 0.5354330708661418,
          "duration": 0.028716187500009482
        },
        {
          "name": "F#2",
          "midi": 42,
          "time": 168.44408831250047,
          "velocity": 0.5354330708661418,
          "duration": 0.028716187500009482
        },
        {
          "name": "F#2",
          "midi": 42,
          "time": 168.44408831250047,
          "velocity": 0.5354330708661418,
          "duration": 0.028716187500009482
        },
        {
          "name": "F#2",
          "midi": 42,
          "time": 168.44408831250047,
          "velocity": 0.5354330708661418,
          "duration": 0.028716187500009482
        },
        {
          "name": "F#2",
          "midi": 42,
          "time": 168.64679081250048,
          "velocity": 0.84251968503937,
          "duration": 0.028716187500009482
        },
        {
          "name": "A#2",
          "midi": 46,
          "time": 169.0538850000005,
          "velocity": 0.9133858267716536,
          "duration": 0.028716187500009482
        },
        {
          "name": "B1",
          "midi": 35,
          "time": 169.0555741875005,
          "velocity": 1,
          "duration": 0.028716187500009482
        },
        {
          "name": "C#2",
          "midi": 37,
          "time": 169.4609791875005,
          "velocity": 0.7480314960629921,
          "duration": 0.028716187500009482
        },
        {
          "name": "F#2",
          "midi": 42,
          "time": 169.4609791875005,
          "velocity": 0.48031496062992124,
          "duration": 0.028716187500009482
        },
        {
          "name": "B1",
          "midi": 35,
          "time": 169.86300581250052,
          "velocity": 0.905511811023622,
          "duration": 0.030405374999986634
        },
        {
          "name": "F#2",
          "midi": 42,
          "time": 169.86300581250052,
          "velocity": 0.84251968503937,
          "duration": 0.030405374999986634
        },
        {
          "name": "B1",
          "midi": 35,
          "time": 170.2667216250005,
          "velocity": 1,
          "duration": 0.030405374999986634
        },
        {
          "name": "C#2",
          "midi": 37,
          "time": 170.2667216250005,
          "velocity": 0.8740157480314961,
          "duration": 0.030405374999986634
        },
        {
          "name": "F#2",
          "midi": 42,
          "time": 170.2667216250005,
          "velocity": 0.7086614173228346,
          "duration": 0.030405374999986634
        },
        {
          "name": "F#2",
          "midi": 42,
          "time": 170.6771941875005,
          "velocity": 0.6141732283464567,
          "duration": 0.028716187500009482
        },
        {
          "name": "C#2",
          "midi": 37,
          "time": 171.07753162500052,
          "velocity": 0.8740157480314961,
          "duration": 0.03209456249999221
        },
        {
          "name": "F#2",
          "midi": 42,
          "time": 171.07753162500052,
          "velocity": 0.84251968503937,
          "duration": 0.03209456249999221
        },
        {
          "name": "F#2",
          "midi": 42,
          "time": 171.4863150000005,
          "velocity": 0.5354330708661418,
          "duration": 0.02702700000000391
        },
        {
          "name": "B1",
          "midi": 35,
          "time": 171.8883416250005,
          "velocity": 1,
          "duration": 0.03378374999999778
        },
        {
          "name": "C#2",
          "midi": 37,
          "time": 171.8883416250005,
          "velocity": 0.7480314960629921,
          "duration": 0.03209456249999221
        },
        {
          "name": "F#2",
          "midi": 42,
          "time": 171.8883416250005,
          "velocity": 0.84251968503937,
          "duration": 0.03378374999999778
        },
        {
          "name": "F#2",
          "midi": 42,
          "time": 172.29712500000048,
          "velocity": 0.6141732283464567,
          "duration": 0.030405374999986634
        },
        {
          "name": "C#2",
          "midi": 37,
          "time": 172.70084081250047,
          "velocity": 0.8740157480314961,
          "duration": 0.030405374999986634
        },
        {
          "name": "F#2",
          "midi": 42,
          "time": 172.70084081250047,
          "velocity": 0.84251968503937,
          "duration": 0.030405374999986634
        },
        {
          "name": "B1",
          "midi": 35,
          "time": 173.10455662500047,
          "velocity": 1,
          "duration": 0.030405374999986634
        },
        {
          "name": "F#2",
          "midi": 42,
          "time": 173.10455662500047,
          "velocity": 0.6141732283464567,
          "duration": 0.03378374999999778
        },
        {
          "name": "F#2",
          "midi": 42,
          "time": 173.51165081250048,
          "velocity": 0.7086614173228346,
          "duration": 0.028716187500009482
        },
        {
          "name": "B1",
          "midi": 35,
          "time": 173.51334000000048,
          "velocity": 0.905511811023622,
          "duration": 0.028716187500009482
        },
        {
          "name": "C#2",
          "midi": 37,
          "time": 173.5150291875005,
          "velocity": 0.8740157480314961,
          "duration": 0.028716187500009482
        },
        {
          "name": "F#2",
          "midi": 42,
          "time": 173.91874500000048,
          "velocity": 0.6141732283464567,
          "duration": 0.028716187500009482
        },
        {
          "name": "C#2",
          "midi": 37,
          "time": 174.32246081250048,
          "velocity": 0.8740157480314961,
          "duration": 0.02702700000000391
        },
        {
          "name": "F#2",
          "midi": 42,
          "time": 174.32246081250048,
          "velocity": 0.7086614173228346,
          "duration": 0.030405375000015056
        },
        {
          "name": "F#2",
          "midi": 42,
          "time": 174.72786581250048,
          "velocity": 0.84251968503937,
          "duration": 0.030405374999986634
        },
        {
          "name": "C#2",
          "midi": 37,
          "time": 175.13496000000046,
          "velocity": 0.8740157480314961,
          "duration": 0.03209456249999221
        },
        {
          "name": "F#2",
          "midi": 42,
          "time": 175.13496000000046,
          "velocity": 0.7086614173228346,
          "duration": 0.03209456249999221
        },
        {
          "name": "B1",
          "midi": 35,
          "time": 175.54036500000046,
          "velocity": 1,
          "duration": 0.028716187500009482
        },
        {
          "name": "A#2",
          "midi": 46,
          "time": 175.54036500000046,
          "velocity": 0.7874015748031497,
          "duration": 0.028716187500009482
        },
        {
          "name": "C#2",
          "midi": 37,
          "time": 175.94239162500048,
          "velocity": 0.8740157480314961,
          "duration": 0.028716187500009482
        },
        {
          "name": "F#2",
          "midi": 42,
          "time": 175.9457700000005,
          "velocity": 0.7086614173228346,
          "duration": 0.028716187500009482
        },
        {
          "name": "F#2",
          "midi": 42,
          "time": 176.3477966250005,
          "velocity": 0.968503937007874,
          "duration": 0.030405375000015056
        },
        {
          "name": "B1",
          "midi": 35,
          "time": 176.35117500000052,
          "velocity": 1,
          "duration": 0.030405375000015056
        },
        {
          "name": "B1",
          "midi": 35,
          "time": 176.75489081250055,
          "velocity": 1,
          "duration": 0.028716187500009482
        },
        {
          "name": "C#2",
          "midi": 37,
          "time": 176.75489081250055,
          "velocity": 0.8740157480314961,
          "duration": 0.028716187500009482
        },
        {
          "name": "F#2",
          "midi": 42,
          "time": 176.75489081250055,
          "velocity": 0.84251968503937,
          "duration": 0.028716187500009482
        },
        {
          "name": "F#2",
          "midi": 42,
          "time": 177.16367418750056,
          "velocity": 0.7086614173228346,
          "duration": 0.028716187500009482
        },
        {
          "name": "C#2",
          "midi": 37,
          "time": 177.56570081250058,
          "velocity": 0.8740157480314961,
          "duration": 0.030405374999986634
        },
        {
          "name": "F#2",
          "midi": 42,
          "time": 177.56570081250058,
          "velocity": 0.7086614173228346,
          "duration": 0.03209456249999221
        },
        {
          "name": "F#2",
          "midi": 42,
          "time": 177.97279500000056,
          "velocity": 0.6141732283464567,
          "duration": 0.030405374999986634
        },
        {
          "name": "B1",
          "midi": 35,
          "time": 178.37820000000053,
          "velocity": 1,
          "duration": 0.028716187500009482
        },
        {
          "name": "F#2",
          "midi": 42,
          "time": 178.37820000000053,
          "velocity": 0.7086614173228346,
          "duration": 0.028716187500009482
        },
        {
          "name": "C#2",
          "midi": 37,
          "time": 178.37988918750054,
          "velocity": 0.8740157480314961,
          "duration": 0.028716187500009482
        },
        {
          "name": "F#2",
          "midi": 42,
          "time": 178.78022662500055,
          "velocity": 0.6141732283464567,
          "duration": 0.030405374999986634
        },
        {
          "name": "F#2",
          "midi": 42,
          "time": 179.18732081250053,
          "velocity": 0.84251968503937,
          "duration": 0.028716187500009482
        },
        {
          "name": "C#2",
          "midi": 37,
          "time": 179.19069918750054,
          "velocity": 0.8740157480314961,
          "duration": 0.028716187500009482
        },
        {
          "name": "F#2",
          "midi": 42,
          "time": 179.59441500000054,
          "velocity": 0.7086614173228346,
          "duration": 0.028716187500009482
        },
        {
          "name": "B1",
          "midi": 35,
          "time": 179.59610418750054,
          "velocity": 0.905511811023622,
          "duration": 0.028716187500009482
        },
        {
          "name": "B1",
          "midi": 35,
          "time": 179.99813081250056,
          "velocity": 0.905511811023622,
          "duration": 0.028716187500009482
        },
        {
          "name": "C#2",
          "midi": 37,
          "time": 179.99813081250056,
          "velocity": 0.8740157480314961,
          "duration": 0.028716187500009482
        },
        {
          "name": "F#2",
          "midi": 42,
          "time": 180.00150918750057,
          "velocity": 0.7086614173228346,
          "duration": 0.028716187500009482
        },
        {
          "name": "F#2",
          "midi": 42,
          "time": 180.40522500000057,
          "velocity": 0.7086614173228346,
          "duration": 0.028716187500009482
        },
        {
          "name": "F#2",
          "midi": 42,
          "time": 180.80894081250057,
          "velocity": 0.84251968503937,
          "duration": 0.02702700000000391
        },
        {
          "name": "C#2",
          "midi": 37,
          "time": 180.81063000000057,
          "velocity": 0.8740157480314961,
          "duration": 0.028716187500009482
        },
        {
          "name": "F#2",
          "midi": 42,
          "time": 181.21434581250057,
          "velocity": 0.84251968503937,
          "duration": 0.030405374999986634
        },
        {
          "name": "C#2",
          "midi": 37,
          "time": 181.61975081250054,
          "velocity": 0.8740157480314961,
          "duration": 0.028716187500009482
        },
        {
          "name": "F#2",
          "midi": 42,
          "time": 181.61975081250054,
          "velocity": 0.84251968503937,
          "duration": 0.030405375000015056
        },
        {
          "name": "B1",
          "midi": 35,
          "time": 182.02346662500057,
          "velocity": 0.905511811023622,
          "duration": 0.030405374999986634
        },
        {
          "name": "A#2",
          "midi": 46,
          "time": 182.02346662500057,
          "velocity": 0.9133858267716536,
          "duration": 0.030405374999986634
        },
        {
          "name": "C#2",
          "midi": 37,
          "time": 182.43225000000055,
          "velocity": 0.8740157480314961,
          "duration": 0.028716187500009482
        },
        {
          "name": "F#2",
          "midi": 42,
          "time": 182.43225000000055,
          "velocity": 0.84251968503937,
          "duration": 0.028716187500009482
        },
        {
          "name": "F#2",
          "midi": 42,
          "time": 182.83427662500057,
          "velocity": 0.84251968503937,
          "duration": 0.03209456249999221
        },
        {
          "name": "B1",
          "midi": 35,
          "time": 182.84103337500056,
          "velocity": 0.905511811023622,
          "duration": 0.028716187500009482
        },
        {
          "name": "C#2",
          "midi": 37,
          "time": 183.23968162500057,
          "velocity": 0.8740157480314961,
          "duration": 0.030405374999986634
        },
        {
          "name": "F#2",
          "midi": 42,
          "time": 183.23968162500057,
          "velocity": 0.84251968503937,
          "duration": 0.030405374999986634
        },
        {
          "name": "B1",
          "midi": 35,
          "time": 183.24643837500057,
          "velocity": 1,
          "duration": 0.02702700000000391
        },
        {
          "name": "F#2",
          "midi": 42,
          "time": 183.64677581250058,
          "velocity": 0.6141732283464567,
          "duration": 0.030405374999986634
        },
        {
          "name": "C#2",
          "midi": 37,
          "time": 184.05049162500057,
          "velocity": 0.8740157480314961,
          "duration": 0.03209456249999221
        },
        {
          "name": "F#2",
          "midi": 42,
          "time": 184.05049162500057,
          "velocity": 0.84251968503937,
          "duration": 0.03378374999999778
        },
        {
          "name": "F#2",
          "midi": 42,
          "time": 184.45927500000056,
          "velocity": 0.7086614173228346,
          "duration": 0.028716187500009482
        },
        {
          "name": "F#2",
          "midi": 42,
          "time": 184.86130162500058,
          "velocity": 0.7086614173228346,
          "duration": 0.02871618749998106
        },
        {
          "name": "B1",
          "midi": 35,
          "time": 184.86636918750057,
          "velocity": 0.8346456692913385,
          "duration": 0.02871618749998106
        },
        {
          "name": "C#2",
          "midi": 37,
          "time": 184.86636918750057,
          "velocity": 0.8740157480314961,
          "duration": 0.02871618749998106
        },
        {
          "name": "F#2",
          "midi": 42,
          "time": 185.26839581250056,
          "velocity": 0.7086614173228346,
          "duration": 0.028716187500009482
        },
        {
          "name": "F#2",
          "midi": 42,
          "time": 185.67380081250056,
          "velocity": 0.84251968503937,
          "duration": 0.028716187500009482
        },
        {
          "name": "C#2",
          "midi": 37,
          "time": 185.67549000000056,
          "velocity": 0.8740157480314961,
          "duration": 0.028716187500009482
        },
        {
          "name": "B1",
          "midi": 35,
          "time": 186.07751662500058,
          "velocity": 0.905511811023622,
          "duration": 0.030405374999986634
        },
        {
          "name": "F#2",
          "midi": 42,
          "time": 186.07751662500058,
          "velocity": 0.7086614173228346,
          "duration": 0.030405374999986634
        },
        {
          "name": "B1",
          "midi": 35,
          "time": 186.48461081250056,
          "velocity": 1,
          "duration": 0.028716187500009482
        },
        {
          "name": "C#2",
          "midi": 37,
          "time": 186.48630000000057,
          "velocity": 0.8740157480314961,
          "duration": 0.028716187500009482
        },
        {
          "name": "F#2",
          "midi": 42,
          "time": 186.48630000000057,
          "velocity": 0.84251968503937,
          "duration": 0.028716187500009482
        },
        {
          "name": "F#2",
          "midi": 42,
          "time": 186.8883266250006,
          "velocity": 0.6141732283464567,
          "duration": 0.03209456249999221
        },
        {
          "name": "F#2",
          "midi": 42,
          "time": 187.29711000000057,
          "velocity": 0.84251968503937,
          "duration": 0.028716187500009482
        },
        {
          "name": "C#2",
          "midi": 37,
          "time": 187.29879918750058,
          "velocity": 0.7480314960629921,
          "duration": 0.028716187500009482
        },
        {
          "name": "F#2",
          "midi": 42,
          "time": 187.7008258125006,
          "velocity": 0.7086614173228346,
          "duration": 0.028716187500009482
        },
        {
          "name": "C#2",
          "midi": 37,
          "time": 188.1045416250006,
          "velocity": 0.8740157480314961,
          "duration": 0.030405374999986634
        },
        {
          "name": "F#2",
          "midi": 42,
          "time": 188.1045416250006,
          "velocity": 0.968503937007874,
          "duration": 0.030405374999986634
        },
        {
          "name": "B1",
          "midi": 35,
          "time": 188.51332500000058,
          "velocity": 0.905511811023622,
          "duration": 0.028716187500009482
        },
        {
          "name": "A#2",
          "midi": 46,
          "time": 188.51332500000058,
          "velocity": 0.7874015748031497,
          "duration": 0.028716187500009482
        },
        {
          "name": "C#2",
          "midi": 37,
          "time": 188.92041918750058,
          "velocity": 0.8740157480314961,
          "duration": 0.028716187500009482
        },
        {
          "name": "F#2",
          "midi": 42,
          "time": 188.92041918750058,
          "velocity": 0.84251968503937,
          "duration": 0.028716187500009482
        },
        {
          "name": "B1",
          "midi": 35,
          "time": 189.32413500000058,
          "velocity": 0.905511811023622,
          "duration": 0.028716187500009482
        },
        {
          "name": "F#2",
          "midi": 42,
          "time": 189.32413500000058,
          "velocity": 0.7086614173228346,
          "duration": 0.028716187500009482
        },
        {
          "name": "C#2",
          "midi": 37,
          "time": 189.7261616250006,
          "velocity": 0.8740157480314961,
          "duration": 0.02871618749998106
        },
        {
          "name": "B1",
          "midi": 35,
          "time": 189.7312291875006,
          "velocity": 1,
          "duration": 0.02871618749998106
        },
        {
          "name": "F#2",
          "midi": 42,
          "time": 189.7312291875006,
          "velocity": 0.84251968503937,
          "duration": 0.02871618749998106
        },
        {
          "name": "F#2",
          "midi": 42,
          "time": 190.13663418750056,
          "velocity": 0.7086614173228346,
          "duration": 0.028716187500009482
        },
        {
          "name": "C#2",
          "midi": 37,
          "time": 190.54035000000056,
          "velocity": 0.8740157480314961,
          "duration": 0.028716187500009482
        },
        {
          "name": "F#2",
          "midi": 42,
          "time": 190.54035000000056,
          "velocity": 0.968503937007874,
          "duration": 0.028716187500009482
        },
        {
          "name": "F#2",
          "midi": 42,
          "time": 190.94575500000056,
          "velocity": 0.7086614173228346,
          "duration": 0.028716187500009482
        },
        {
          "name": "B1",
          "midi": 35,
          "time": 191.34947081250056,
          "velocity": 1,
          "duration": 0.030405374999986634
        },
        {
          "name": "C#2",
          "midi": 37,
          "time": 191.34947081250056,
          "velocity": 0.7480314960629921,
          "duration": 0.030405374999986634
        },
        {
          "name": "F#2",
          "midi": 42,
          "time": 191.34947081250056,
          "velocity": 0.7086614173228346,
          "duration": 0.030405374999986634
        },
        {
          "name": "F#2",
          "midi": 42,
          "time": 191.75487581250053,
          "velocity": 0.7086614173228346,
          "duration": 0.028716187500009482
        },
        {
          "name": "F#2",
          "midi": 42,
          "time": 192.15859162500053,
          "velocity": 0.84251968503937,
          "duration": 0.030405375000015056
        },
        {
          "name": "C#2",
          "midi": 37,
          "time": 192.16028081250053,
          "velocity": 0.8740157480314961,
          "duration": 0.030405375000015056
        },
        {
          "name": "B1",
          "midi": 35,
          "time": 192.56737500000054,
          "velocity": 1,
          "duration": 0.028716187500009482
        },
        {
          "name": "F#2",
          "midi": 42,
          "time": 192.56737500000054,
          "velocity": 0.84251968503937,
          "duration": 0.028716187500009482
        },
        {
          "name": "B1",
          "midi": 35,
          "time": 192.96940162500056,
          "velocity": 0.905511811023622,
          "duration": 0.028716187500009482
        },
        {
          "name": "C#2",
          "midi": 37,
          "time": 192.96940162500056,
          "velocity": 0.8740157480314961,
          "duration": 0.028716187500009482
        },
        {
          "name": "A#2",
          "midi": 46,
          "time": 192.96940162500056,
          "velocity": 0.5590551181102362,
          "duration": 0.028716187500009482
        },
        {
          "name": "D2",
          "midi": 38,
          "time": 193.37649581250056,
          "velocity": 0.8818897637795275,
          "duration": 0.028716187500009482
        },
        {
          "name": "F#2",
          "midi": 42,
          "time": 193.37818500000057,
          "velocity": 0.968503937007874,
          "duration": 0.030405375000015056
        },
        {
          "name": "D2",
          "midi": 38,
          "time": 193.78359000000057,
          "velocity": 0.8818897637795275,
          "duration": 0.028716187500009482
        },
        {
          "name": "D2",
          "midi": 38,
          "time": 193.9879816875006,
          "velocity": 0.8818897637795275,
          "duration": 0.028716187500009482
        },
        {
          "name": "D2",
          "midi": 38,
          "time": 194.1873058125006,
          "velocity": 0.8818897637795275,
          "duration": 0.03209456249999221
        },
        {
          "name": "B1",
          "midi": 35,
          "time": 194.59440000000058,
          "velocity": 1,
          "duration": 0.028716187500009482
        },
        {
          "name": "C#3",
          "midi": 49,
          "time": 194.59440000000058,
          "velocity": 0.9133858267716536,
          "duration": 0.028716187500009482
        },
        {
          "name": "F3",
          "midi": 53,
          "time": 195.00149418750058,
          "velocity": 0.8976377952755905,
          "duration": 0.028716187500009482
        },
        {
          "name": "D2",
          "midi": 38,
          "time": 195.4035208125006,
          "velocity": 0.9763779527559056,
          "duration": 0.030405374999986634
        },
        {
          "name": "F3",
          "midi": 53,
          "time": 195.4035208125006,
          "velocity": 0.5511811023622047,
          "duration": 0.030405374999986634
        },
        {
          "name": "F3",
          "midi": 53,
          "time": 195.8072366250006,
          "velocity": 0.6456692913385826,
          "duration": 0.030405374999986634
        },
        {
          "name": "B1",
          "midi": 35,
          "time": 195.8123041875006,
          "velocity": 1,
          "duration": 0.028716187500009482
        },
        {
          "name": "F3",
          "midi": 53,
          "time": 196.2177091875006,
          "velocity": 0.8976377952755905,
          "duration": 0.028716187500009482
        },
        {
          "name": "B1",
          "midi": 35,
          "time": 196.6197358125006,
          "velocity": 1,
          "duration": 0.028716187500009482
        },
        {
          "name": "F3",
          "midi": 53,
          "time": 196.6214250000006,
          "velocity": 0.5511811023622047,
          "duration": 0.028716187500009482
        },
        {
          "name": "F3",
          "midi": 53,
          "time": 197.0251408125006,
          "velocity": 0.8976377952755905,
          "duration": 0.028716187500009482
        },
        {
          "name": "D2",
          "midi": 38,
          "time": 197.02851918750062,
          "velocity": 0.9763779527559056,
          "duration": 0.028716187500009482
        },
        {
          "name": "B1",
          "midi": 35,
          "time": 197.23122168750064,
          "velocity": 1,
          "duration": 0.028716187500009482
        },
        {
          "name": "F3",
          "midi": 53,
          "time": 197.43392418750065,
          "velocity": 0.6456692913385826,
          "duration": 0.028716187500009482
        },
        {
          "name": "B1",
          "midi": 35,
          "time": 197.83595081250067,
          "velocity": 1,
          "duration": 0.030405374999986634
        },
        {
          "name": "F3",
          "midi": 53,
          "time": 197.83595081250067,
          "velocity": 0.7637795275590551,
          "duration": 0.030405374999986634
        },
        {
          "name": "F3",
          "midi": 53,
          "time": 198.23966662500067,
          "velocity": 0.6456692913385826,
          "duration": 0.030405374999986634
        },
        {
          "name": "D2",
          "midi": 38,
          "time": 198.64676081250064,
          "velocity": 0.8818897637795275,
          "duration": 0.030405374999986634
        },
        {
          "name": "F3",
          "midi": 53,
          "time": 198.64676081250064,
          "velocity": 0.7637795275590551,
          "duration": 0.030405374999986634
        },
        {
          "name": "B1",
          "midi": 35,
          "time": 199.05216581250062,
          "velocity": 0.905511811023622,
          "duration": 0.028716187500009482
        },
        {
          "name": "F3",
          "midi": 53,
          "time": 199.05385500000062,
          "velocity": 0.6456692913385826,
          "duration": 0.030405375000015056
        },
        {
          "name": "B1",
          "midi": 35,
          "time": 199.25655750000064,
          "velocity": 0.6535433070866141,
          "duration": 0.028716187500009482
        },
        {
          "name": "F3",
          "midi": 53,
          "time": 199.45757081250065,
          "velocity": 0.6456692913385826,
          "duration": 0.028716187500009482
        },
        {
          "name": "F3",
          "midi": 53,
          "time": 199.86466500000066,
          "velocity": 0.6456692913385826,
          "duration": 0.02702700000000391
        },
        {
          "name": "B1",
          "midi": 35,
          "time": 199.86635418750066,
          "velocity": 0.7716535433070866,
          "duration": 0.028716187500009482
        },
        {
          "name": "B1",
          "midi": 35,
          "time": 200.06567831250067,
          "velocity": 1,
          "duration": 0.028716187500009482
        },
        {
          "name": "D2",
          "midi": 38,
          "time": 200.26838081250068,
          "velocity": 0.9763779527559056,
          "duration": 0.028716187500009482
        },
        {
          "name": "F3",
          "midi": 53,
          "time": 200.26838081250068,
          "velocity": 0.6456692913385826,
          "duration": 0.028716187500009482
        },
        {
          "name": "B1",
          "midi": 35,
          "time": 200.4710833125007,
          "velocity": 0.7716535433070866,
          "duration": 0.028716187500009482
        },
        {
          "name": "F3",
          "midi": 53,
          "time": 200.6771641875007,
          "velocity": 0.6456692913385826,
          "duration": 0.028716187500009482
        },
        {
          "name": "F3",
          "midi": 53,
          "time": 201.0808800000007,
          "velocity": 0.8031496062992126,
          "duration": 0.028716187500009482
        },
        {
          "name": "B1",
          "midi": 35,
          "time": 201.0825691875007,
          "velocity": 1,
          "duration": 0.028716187500009482
        },
        {
          "name": "F3",
          "midi": 53,
          "time": 201.48459581250071,
          "velocity": 0.6456692913385826,
          "duration": 0.030405374999986634
        },
        {
          "name": "D2",
          "midi": 38,
          "time": 201.8900008125007,
          "velocity": 0.9763779527559056,
          "duration": 0.028716187500009482
        },
        {
          "name": "F3",
          "midi": 53,
          "time": 201.8900008125007,
          "velocity": 0.7637795275590551,
          "duration": 0.028716187500009482
        },
        {
          "name": "B1",
          "midi": 35,
          "time": 202.2970950000007,
          "velocity": 1,
          "duration": 0.028716187500009482
        },
        {
          "name": "F3",
          "midi": 53,
          "time": 202.2987841875007,
          "velocity": 0.6456692913385826,
          "duration": 0.028716187500009482
        },
        {
          "name": "B1",
          "midi": 35,
          "time": 202.4964191250007,
          "velocity": 0.6535433070866141,
          "duration": 0.030405374999986634
        },
        {
          "name": "F3",
          "midi": 53,
          "time": 202.7025000000007,
          "velocity": 0.6456692913385826,
          "duration": 0.030405374999986634
        },
        {
          "name": "B1",
          "midi": 35,
          "time": 203.10790500000067,
          "velocity": 0.905511811023622,
          "duration": 0.028716187500009482
        },
        {
          "name": "F3",
          "midi": 53,
          "time": 203.10790500000067,
          "velocity": 0.6456692913385826,
          "duration": 0.028716187500009482
        },
        {
          "name": "D2",
          "midi": 38,
          "time": 203.51331000000067,
          "velocity": 0.9763779527559056,
          "duration": 0.028716187500009482
        },
        {
          "name": "F3",
          "midi": 53,
          "time": 203.51499918750068,
          "velocity": 0.6456692913385826,
          "duration": 0.028716187500009482
        },
        {
          "name": "F3",
          "midi": 53,
          "time": 203.9170258125007,
          "velocity": 0.6456692913385826,
          "duration": 0.028716187500009482
        },
        {
          "name": "B1",
          "midi": 35,
          "time": 204.3224308125007,
          "velocity": 0.905511811023622,
          "duration": 0.030405374999986634
        },
        {
          "name": "F3",
          "midi": 53,
          "time": 204.3224308125007,
          "velocity": 0.7637795275590551,
          "duration": 0.030405374999986634
        },
        {
          "name": "F3",
          "midi": 53,
          "time": 204.72783581250067,
          "velocity": 0.5511811023622047,
          "duration": 0.03209456249999221
        },
        {
          "name": "B1",
          "midi": 35,
          "time": 204.93053831250066,
          "velocity": 0.905511811023622,
          "duration": 0.03209456249999221
        },
        {
          "name": "D2",
          "midi": 38,
          "time": 205.13493000000065,
          "velocity": 0.9763779527559056,
          "duration": 0.030405374999986634
        },
        {
          "name": "F3",
          "midi": 53,
          "time": 205.13493000000065,
          "velocity": 0.7637795275590551,
          "duration": 0.030405374999986634
        },
        {
          "name": "B1",
          "midi": 35,
          "time": 205.53695662500064,
          "velocity": 0.905511811023622,
          "duration": 0.028716187500009482
        },
        {
          "name": "F3",
          "midi": 53,
          "time": 205.54033500000065,
          "velocity": 0.6456692913385826,
          "duration": 0.028716187500009482
        },
        {
          "name": "B1",
          "midi": 35,
          "time": 205.74472668750067,
          "velocity": 0.6535433070866141,
          "duration": 0.028716187500009482
        },
        {
          "name": "F3",
          "midi": 53,
          "time": 205.94405081250068,
          "velocity": 0.6456692913385826,
          "duration": 0.028716187500009482
        },
        {
          "name": "D2",
          "midi": 38,
          "time": 206.1467533125007,
          "velocity": 0.7480314960629921,
          "duration": 0.028716187500009482
        },
        {
          "name": "B1",
          "midi": 35,
          "time": 206.3494558125007,
          "velocity": 0.905511811023622,
          "duration": 0.030405374999986634
        },
        {
          "name": "F3",
          "midi": 53,
          "time": 206.3494558125007,
          "velocity": 0.6456692913385826,
          "duration": 0.030405374999986634
        },
        {
          "name": "D2",
          "midi": 38,
          "time": 206.75486081250068,
          "velocity": 0.9763779527559056,
          "duration": 0.03209456249999221
        },
        {
          "name": "F3",
          "midi": 53,
          "time": 206.75486081250068,
          "velocity": 0.7637795275590551,
          "duration": 0.03378374999999778
        },
        {
          "name": "F3",
          "midi": 53,
          "time": 207.1619550000007,
          "velocity": 0.7637795275590551,
          "duration": 0.028716187500009482
        },
        {
          "name": "B1",
          "midi": 35,
          "time": 207.5673600000007,
          "velocity": 0.905511811023622,
          "duration": 0.028716187500009482
        },
        {
          "name": "C#3",
          "midi": 49,
          "time": 207.5673600000007,
          "velocity": 0.9133858267716536,
          "duration": 0.028716187500009482
        },
        {
          "name": "F3",
          "midi": 53,
          "time": 207.9744541875007,
          "velocity": 0.6456692913385826,
          "duration": 0.028716187500009482
        },
        {
          "name": "B1",
          "midi": 35,
          "time": 208.1720891250007,
          "velocity": 0.905511811023622,
          "duration": 0.028716187500009482
        },
        {
          "name": "D2",
          "midi": 38,
          "time": 208.3747916250007,
          "velocity": 0.8818897637795275,
          "duration": 0.030405374999986634
        },
        {
          "name": "F3",
          "midi": 53,
          "time": 208.3747916250007,
          "velocity": 0.7637795275590551,
          "duration": 0.030405374999986634
        },
        {
          "name": "B1",
          "midi": 35,
          "time": 208.7818858125007,
          "velocity": 0.905511811023622,
          "duration": 0.03209456249999221
        },
        {
          "name": "F3",
          "midi": 53,
          "time": 208.7818858125007,
          "velocity": 0.6456692913385826,
          "duration": 0.03209456249999221
        },
        {
          "name": "B1",
          "midi": 35,
          "time": 208.9879666875007,
          "velocity": 0.905511811023622,
          "duration": 0.028716187500009482
        },
        {
          "name": "F3",
          "midi": 53,
          "time": 209.1872908125007,
          "velocity": 0.8976377952755905,
          "duration": 0.028716187500009482
        },
        {
          "name": "B1",
          "midi": 35,
          "time": 209.5910066250007,
          "velocity": 0.905511811023622,
          "duration": 0.028716187500009482
        },
        {
          "name": "F3",
          "midi": 53,
          "time": 209.5926958125007,
          "velocity": 0.5511811023622047,
          "duration": 0.028716187500009482
        },
        {
          "name": "D2",
          "midi": 38,
          "time": 209.9981008125007,
          "velocity": 0.8818897637795275,
          "duration": 0.030405374999986634
        },
        {
          "name": "F3",
          "midi": 53,
          "time": 210.00316837500068,
          "velocity": 0.8976377952755905,
          "duration": 0.02702700000000391
        },
        {
          "name": "F3",
          "midi": 53,
          "time": 210.40688418750068,
          "velocity": 0.6456692913385826,
          "duration": 0.028716187500009482
        },
        {
          "name": "B1",
          "midi": 35,
          "time": 210.8089108125007,
          "velocity": 0.905511811023622,
          "duration": 0.02871618749998106
        },
        {
          "name": "F3",
          "midi": 53,
          "time": 210.8139783750007,
          "velocity": 0.8976377952755905,
          "duration": 0.02702700000000391
        },
        {
          "name": "F3",
          "midi": 53,
          "time": 211.2126266250007,
          "velocity": 0.6456692913385826,
          "duration": 0.028716187500009482
        },
        {
          "name": "B1",
          "midi": 35,
          "time": 211.41701831250072,
          "velocity": 1,
          "duration": 0.02702700000000391
        },
        {
          "name": "D2",
          "midi": 38,
          "time": 211.61803162500073,
          "velocity": 0.8818897637795275,
          "duration": 0.03209456249999221
        },
        {
          "name": "F3",
          "midi": 53,
          "time": 211.61803162500073,
          "velocity": 0.7637795275590551,
          "duration": 0.03209456249999221
        },
        {
          "name": "F3",
          "midi": 53,
          "time": 212.0251258125007,
          "velocity": 0.6456692913385826,
          "duration": 0.030405374999986634
        },
        {
          "name": "B1",
          "midi": 35,
          "time": 212.0301933750007,
          "velocity": 0.905511811023622,
          "duration": 0.02702700000000391
        },
        {
          "name": "B1",
          "midi": 35,
          "time": 212.2295175000007,
          "velocity": 0.6535433070866141,
          "duration": 0.028716187500009482
        },
        {
          "name": "F3",
          "midi": 53,
          "time": 212.4305308125007,
          "velocity": 0.8976377952755905,
          "duration": 0.028716187500009482
        },
        {
          "name": "F3",
          "midi": 53,
          "time": 212.8342466250007,
          "velocity": 0.7637795275590551,
          "duration": 0.030405374999986634
        },
        {
          "name": "B1",
          "midi": 35,
          "time": 212.8393141875007,
          "velocity": 1,
          "duration": 0.02702700000000391
        },
        {
          "name": "D2",
          "midi": 38,
          "time": 213.2396516250007,
          "velocity": 0.8818897637795275,
          "duration": 0.03209456249999221
        },
        {
          "name": "F3",
          "midi": 53,
          "time": 213.2396516250007,
          "velocity": 0.7637795275590551,
          "duration": 0.030405374999986634
        },
        {
          "name": "B1",
          "midi": 35,
          "time": 213.64674581250068,
          "velocity": 1,
          "duration": 0.028716187500009482
        },
        {
          "name": "F3",
          "midi": 53,
          "time": 213.64674581250068,
          "velocity": 0.7637795275590551,
          "duration": 0.02702700000000391
        },
        {
          "name": "B1",
          "midi": 35,
          "time": 214.05046162500068,
          "velocity": 1,
          "duration": 0.030405374999986634
        },
        {
          "name": "C#3",
          "midi": 49,
          "time": 214.05046162500068,
          "velocity": 0.9133858267716536,
          "duration": 0.03209456249999221
        },
        {
          "name": "F3",
          "midi": 53,
          "time": 214.45924500000066,
          "velocity": 0.6456692913385826,
          "duration": 0.028716187500009482
        },
        {
          "name": "F3",
          "midi": 53,
          "time": 214.86296081250066,
          "velocity": 0.7637795275590551,
          "duration": 0.028716187500009482
        },
        {
          "name": "D2",
          "midi": 38,
          "time": 214.86465000000067,
          "velocity": 0.8818897637795275,
          "duration": 0.030405375000015056
        },
        {
          "name": "F3",
          "midi": 53,
          "time": 215.27343337500068,
          "velocity": 0.7637795275590551,
          "duration": 0.028716187500009482
        },
        {
          "name": "B1",
          "midi": 35,
          "time": 215.47106831250068,
          "velocity": 0.8582677165354331,
          "duration": 0.030405374999986634
        },
        {
          "name": "F3",
          "midi": 53,
          "time": 215.67546000000067,
          "velocity": 0.7637795275590551,
          "duration": 0.03209456249999221
        },
        {
          "name": "B1",
          "midi": 35,
          "time": 216.07917581250067,
          "velocity": 0.9133858267716536,
          "duration": 0.03378374999999778
        },
        {
          "name": "F3",
          "midi": 53,
          "time": 216.07917581250067,
          "velocity": 0.6456692913385826,
          "duration": 0.03209456249999221
        },
        {
          "name": "D2",
          "midi": 38,
          "time": 216.48627000000067,
          "velocity": 0.9763779527559056,
          "duration": 0.03209456250002063
        },
        {
          "name": "F3",
          "midi": 53,
          "time": 216.48627000000067,
          "velocity": 0.8976377952755905,
          "duration": 0.028716187500009482
        },
        {
          "name": "F3",
          "midi": 53,
          "time": 216.8899858125007,
          "velocity": 0.7637795275590551,
          "duration": 0.030405374999986634
        },
        {
          "name": "B1",
          "midi": 35,
          "time": 217.29708000000068,
          "velocity": 1,
          "duration": 0.028716187500009482
        },
        {
          "name": "C#3",
          "midi": 49,
          "time": 217.29708000000068,
          "velocity": 0.9133858267716536,
          "duration": 0.028716187500009482
        },
        {
          "name": "F3",
          "midi": 53,
          "time": 217.70248500000068,
          "velocity": 0.6456692913385826,
          "duration": 0.028716187500009482
        },
        {
          "name": "B1",
          "midi": 35,
          "time": 217.90180912500068,
          "velocity": 1,
          "duration": 0.030405374999986634
        },
        {
          "name": "F3",
          "midi": 53,
          "time": 218.10620081250067,
          "velocity": 0.7637795275590551,
          "duration": 0.028716187500009482
        },
        {
          "name": "D2",
          "midi": 38,
          "time": 218.10789000000068,
          "velocity": 0.9763779527559056,
          "duration": 0.028716187500009482
        },
        {
          "name": "F3",
          "midi": 53,
          "time": 218.51160581250068,
          "velocity": 0.7637795275590551,
          "duration": 0.028716187500009482
        },
        {
          "name": "B1",
          "midi": 35,
          "time": 218.91532162500067,
          "velocity": 1,
          "duration": 0.030405375000015056
        },
        {
          "name": "C#3",
          "midi": 49,
          "time": 218.91870000000068,
          "velocity": 0.7480314960629921,
          "duration": 0.030405375000015056
        },
        {
          "name": "F3",
          "midi": 53,
          "time": 219.32410500000069,
          "velocity": 0.7637795275590551,
          "duration": 0.030405374999986634
        },
        {
          "name": "D2",
          "midi": 38,
          "time": 219.72951000000066,
          "velocity": 0.8818897637795275,
          "duration": 0.028716187500009482
        },
        {
          "name": "F3",
          "midi": 53,
          "time": 219.72951000000066,
          "velocity": 0.7637795275590551,
          "duration": 0.028716187500009482
        },
        {
          "name": "D2",
          "midi": 38,
          "time": 220.13491500000066,
          "velocity": 0.9763779527559056,
          "duration": 0.030405374999986634
        },
        {
          "name": "F3",
          "midi": 53,
          "time": 220.13491500000066,
          "velocity": 0.7637795275590551,
          "duration": 0.030405374999986634
        },
        {
          "name": "B1",
          "midi": 35,
          "time": 220.53863081250066,
          "velocity": 0.7716535433070866,
          "duration": 0.030405374999986634
        },
        {
          "name": "C#3",
          "midi": 49,
          "time": 220.53863081250066,
          "velocity": 0.9133858267716536,
          "duration": 0.03209456249999221
        },
        {
          "name": "F3",
          "midi": 53,
          "time": 220.94572500000064,
          "velocity": 0.6456692913385826,
          "duration": 0.030405374999986634
        },
        {
          "name": "B1",
          "midi": 35,
          "time": 221.1450491250006,
          "velocity": 0.905511811023622,
          "duration": 0.03378374999999778
        },
        {
          "name": "D2",
          "midi": 38,
          "time": 221.3477516250006,
          "velocity": 0.9763779527559056,
          "duration": 0.03209456249999221
        },
        {
          "name": "F3",
          "midi": 53,
          "time": 221.3477516250006,
          "velocity": 0.7637795275590551,
          "duration": 0.03209456249999221
        },
        {
          "name": "B1",
          "midi": 35,
          "time": 221.7531566250006,
          "velocity": 0.7716535433070866,
          "duration": 0.03209456249999221
        },
        {
          "name": "F3",
          "midi": 53,
          "time": 221.7531566250006,
          "velocity": 0.7637795275590551,
          "duration": 0.030405374999986634
        },
        {
          "name": "B1",
          "midi": 35,
          "time": 221.9575483125006,
          "velocity": 0.7716535433070866,
          "duration": 0.03378374999999778
        },
        {
          "name": "F3",
          "midi": 53,
          "time": 222.16025081250058,
          "velocity": 0.7637795275590551,
          "duration": 0.030405374999986634
        },
        {
          "name": "B1",
          "midi": 35,
          "time": 222.56396662500057,
          "velocity": 0.6535433070866141,
          "duration": 0.030405374999986634
        },
        {
          "name": "F3",
          "midi": 53,
          "time": 222.56396662500057,
          "velocity": 0.6456692913385826,
          "duration": 0.030405374999986634
        },
        {
          "name": "D2",
          "midi": 38,
          "time": 222.97106081250055,
          "velocity": 0.9763779527559056,
          "duration": 0.030405374999986634
        },
        {
          "name": "F3",
          "midi": 53,
          "time": 222.97106081250055,
          "velocity": 0.7637795275590551,
          "duration": 0.030405374999986634
        },
        {
          "name": "B1",
          "midi": 35,
          "time": 223.37477662500055,
          "velocity": 0.6614173228346457,
          "duration": 0.03209456249999221
        },
        {
          "name": "F3",
          "midi": 53,
          "time": 223.37477662500055,
          "velocity": 0.7637795275590551,
          "duration": 0.030405374999986634
        },
        {
          "name": "B1",
          "midi": 35,
          "time": 223.78018162500055,
          "velocity": 1,
          "duration": 0.030405374999986634
        },
        {
          "name": "F3",
          "midi": 53,
          "time": 223.78018162500055,
          "velocity": 0.7637795275590551,
          "duration": 0.030405374999986634
        },
        {
          "name": "F3",
          "midi": 53,
          "time": 224.18727581250053,
          "velocity": 0.6456692913385826,
          "duration": 0.030405374999986634
        },
        {
          "name": "B1",
          "midi": 35,
          "time": 224.38997831250052,
          "velocity": 0.905511811023622,
          "duration": 0.03209456249999221
        },
        {
          "name": "D2",
          "midi": 38,
          "time": 224.5909916250005,
          "velocity": 0.8818897637795275,
          "duration": 0.030405374999986634
        },
        {
          "name": "F3",
          "midi": 53,
          "time": 224.5909916250005,
          "velocity": 0.7637795275590551,
          "duration": 0.030405374999986634
        },
        {
          "name": "B1",
          "midi": 35,
          "time": 224.99808581250048,
          "velocity": 0.905511811023622,
          "duration": 0.028716187500009482
        },
        {
          "name": "F3",
          "midi": 53,
          "time": 224.99808581250048,
          "velocity": 0.6456692913385826,
          "duration": 0.030405375000015056
        },
        {
          "name": "B1",
          "midi": 35,
          "time": 225.2041666875005,
          "velocity": 0.905511811023622,
          "duration": 0.028716187500009482
        },
        {
          "name": "F3",
          "midi": 53,
          "time": 225.4034908125005,
          "velocity": 0.8976377952755905,
          "duration": 0.030405374999986634
        },
        {
          "name": "D2",
          "midi": 38,
          "time": 225.6078825000005,
          "velocity": 0.8818897637795275,
          "duration": 0.030405374999986634
        },
        {
          "name": "B1",
          "midi": 35,
          "time": 225.80889581250048,
          "velocity": 0.905511811023622,
          "duration": 0.03378374999999778
        },
        {
          "name": "F3",
          "midi": 53,
          "time": 225.80889581250048,
          "velocity": 0.7637795275590551,
          "duration": 0.03378374999999778
        },
        {
          "name": "B1",
          "midi": 35,
          "time": 226.01159831250047,
          "velocity": 0.905511811023622,
          "duration": 0.028716187500009482
        },
        {
          "name": "D2",
          "midi": 38,
          "time": 226.21430081250048,
          "velocity": 0.8818897637795275,
          "duration": 0.030405374999986634
        },
        {
          "name": "F3",
          "midi": 53,
          "time": 226.21430081250048,
          "velocity": 0.7637795275590551,
          "duration": 0.030405374999986634
        },
        {
          "name": "B1",
          "midi": 35,
          "time": 226.42038168750048,
          "velocity": 0.905511811023622,
          "duration": 0.028716187500009482
        },
        {
          "name": "B1",
          "midi": 35,
          "time": 226.61801662500048,
          "velocity": 0.905511811023622,
          "duration": 0.03378374999999778
        },
        {
          "name": "F3",
          "midi": 53,
          "time": 226.61801662500048,
          "velocity": 0.8976377952755905,
          "duration": 0.03209456249999221
        },
        {
          "name": "B1",
          "midi": 35,
          "time": 227.0251108125005,
          "velocity": 1,
          "duration": 0.028716187500009482
        },
        {
          "name": "C#3",
          "midi": 49,
          "time": 227.0251108125005,
          "velocity": 0.9133858267716536,
          "duration": 0.028716187500009482
        },
        {
          "name": "F3",
          "midi": 53,
          "time": 227.4322050000005,
          "velocity": 0.5511811023622047,
          "duration": 0.028716187500009482
        },
        {
          "name": "B1",
          "midi": 35,
          "time": 227.6349075000005,
          "velocity": 0.905511811023622,
          "duration": 0.03209456249999221
        },
        {
          "name": "D2",
          "midi": 38,
          "time": 227.8342316250005,
          "velocity": 0.9763779527559056,
          "duration": 0.03378374999999778
        },
        {
          "name": "F3",
          "midi": 53,
          "time": 227.8342316250005,
          "velocity": 0.8976377952755905,
          "duration": 0.03209456249999221
        },
        {
          "name": "B1",
          "midi": 35,
          "time": 228.23963662500051,
          "velocity": 0.7716535433070866,
          "duration": 0.03209456249999221
        },
        {
          "name": "F3",
          "midi": 53,
          "time": 228.23963662500051,
          "velocity": 0.5511811023622047,
          "duration": 0.03209456249999221
        },
        {
          "name": "B1",
          "midi": 35,
          "time": 228.4440283125005,
          "velocity": 0.7716535433070866,
          "duration": 0.030405374999986634
        },
        {
          "name": "F3",
          "midi": 53,
          "time": 228.6450416250005,
          "velocity": 0.6456692913385826,
          "duration": 0.030405374999986634
        },
        {
          "name": "B1",
          "midi": 35,
          "time": 229.05213581250047,
          "velocity": 0.6535433070866141,
          "duration": 0.028716187500009482
        },
        {
          "name": "F3",
          "midi": 53,
          "time": 229.05213581250047,
          "velocity": 0.6456692913385826,
          "duration": 0.030405375000015056
        },
        {
          "name": "D2",
          "midi": 38,
          "time": 229.4558516250005,
          "velocity": 0.9763779527559056,
          "duration": 0.03209456249999221
        },
        {
          "name": "F3",
          "midi": 53,
          "time": 229.4558516250005,
          "velocity": 0.8976377952755905,
          "duration": 0.03209456249999221
        },
        {
          "name": "B1",
          "midi": 35,
          "time": 229.86463500000048,
          "velocity": 0.6614173228346457,
          "duration": 0.030405374999986634
        },
        {
          "name": "F3",
          "midi": 53,
          "time": 229.86463500000048,
          "velocity": 0.6456692913385826,
          "duration": 0.030405374999986634
        },
        {
          "name": "B1",
          "midi": 35,
          "time": 230.26666162500047,
          "velocity": 1,
          "duration": 0.03209456249999221
        },
        {
          "name": "F3",
          "midi": 53,
          "time": 230.26666162500047,
          "velocity": 0.8976377952755905,
          "duration": 0.030405374999986634
        },
        {
          "name": "F3",
          "midi": 53,
          "time": 230.67206662500047,
          "velocity": 0.7637795275590551,
          "duration": 0.03209456249999221
        },
        {
          "name": "B1",
          "midi": 35,
          "time": 230.87476912500046,
          "velocity": 0.905511811023622,
          "duration": 0.030405374999986634
        },
        {
          "name": "D2",
          "midi": 38,
          "time": 231.07747162500044,
          "velocity": 0.8818897637795275,
          "duration": 0.03209456249999221
        },
        {
          "name": "F3",
          "midi": 53,
          "time": 231.07747162500044,
          "velocity": 0.7637795275590551,
          "duration": 0.030405374999986634
        },
        {
          "name": "B1",
          "midi": 35,
          "time": 231.48625500000043,
          "velocity": 0.905511811023622,
          "duration": 0.03209456249999221
        },
        {
          "name": "F3",
          "midi": 53,
          "time": 231.48625500000043,
          "velocity": 0.8976377952755905,
          "duration": 0.030405374999986634
        },
        {
          "name": "B1",
          "midi": 35,
          "time": 231.69064668750042,
          "velocity": 0.905511811023622,
          "duration": 0.028716187500009482
        },
        {
          "name": "F3",
          "midi": 53,
          "time": 231.88828162500042,
          "velocity": 0.6456692913385826,
          "duration": 0.028716187500009482
        },
        {
          "name": "D2",
          "midi": 38,
          "time": 232.09436250000041,
          "velocity": 0.8818897637795275,
          "duration": 0.028716187500009482
        },
        {
          "name": "B1",
          "midi": 35,
          "time": 232.29537581250042,
          "velocity": 0.905511811023622,
          "duration": 0.030405374999986634
        },
        {
          "name": "F3",
          "midi": 53,
          "time": 232.29537581250042,
          "velocity": 0.6456692913385826,
          "duration": 0.03209456249999221
        },
        {
          "name": "B1",
          "midi": 35,
          "time": 232.4980783125004,
          "velocity": 0.905511811023622,
          "duration": 0.030405374999986634
        },
        {
          "name": "D2",
          "midi": 38,
          "time": 232.6990916250004,
          "velocity": 0.8818897637795275,
          "duration": 0.03378374999999778
        },
        {
          "name": "F3",
          "midi": 53,
          "time": 232.6990916250004,
          "velocity": 0.6456692913385826,
          "duration": 0.035472937500003354
        },
        {
          "name": "B1",
          "midi": 35,
          "time": 232.90348331250038,
          "velocity": 0.905511811023622,
          "duration": 0.03378374999999778
        },
        {
          "name": "B1",
          "midi": 35,
          "time": 233.1044966250004,
          "velocity": 0.905511811023622,
          "duration": 0.030405374999986634
        },
        {
          "name": "F3",
          "midi": 53,
          "time": 233.1044966250004,
          "velocity": 0.7637795275590551,
          "duration": 0.03209456249999221
        },
        {
          "name": "B1",
          "midi": 35,
          "time": 233.51159081250037,
          "velocity": 1,
          "duration": 0.028716187500009482
        },
        {
          "name": "C#3",
          "midi": 49,
          "time": 233.51159081250037,
          "velocity": 0.9133858267716536,
          "duration": 0.030405375000015056
        },
        {
          "name": "F3",
          "midi": 53,
          "time": 233.9153066250004,
          "velocity": 0.6456692913385826,
          "duration": 0.03209456249999221
        },
        {
          "name": "B1",
          "midi": 35,
          "time": 234.1213875000004,
          "velocity": 0.905511811023622,
          "duration": 0.028716187500009482
        },
        {
          "name": "D2",
          "midi": 38,
          "time": 234.3224008125004,
          "velocity": 0.9763779527559056,
          "duration": 0.030405374999986634
        },
        {
          "name": "F3",
          "midi": 53,
          "time": 234.3224008125004,
          "velocity": 0.8976377952755905,
          "duration": 0.03209456249999221
        },
        {
          "name": "B1",
          "midi": 35,
          "time": 234.7261166250004,
          "velocity": 0.7716535433070866,
          "duration": 0.03209456249999221
        },
        {
          "name": "F3",
          "midi": 53,
          "time": 234.7261166250004,
          "velocity": 0.7637795275590551,
          "duration": 0.03209456249999221
        },
        {
          "name": "B1",
          "midi": 35,
          "time": 234.9288191250004,
          "velocity": 0.7716535433070866,
          "duration": 0.030405374999986634
        },
        {
          "name": "F3",
          "midi": 53,
          "time": 235.13321081250038,
          "velocity": 0.7637795275590551,
          "duration": 0.030405374999986634
        },
        {
          "name": "B1",
          "midi": 35,
          "time": 235.53861581250035,
          "velocity": 0.6535433070866141,
          "duration": 0.030405374999986634
        },
        {
          "name": "F3",
          "midi": 53,
          "time": 235.53861581250035,
          "velocity": 0.7637795275590551,
          "duration": 0.030405374999986634
        },
        {
          "name": "D2",
          "midi": 38,
          "time": 235.94233162500035,
          "velocity": 0.9763779527559056,
          "duration": 0.03209456249999221
        },
        {
          "name": "F3",
          "midi": 53,
          "time": 235.94233162500035,
          "velocity": 0.7637795275590551,
          "duration": 0.03209456249999221
        },
        {
          "name": "B1",
          "midi": 35,
          "time": 236.35280418750034,
          "velocity": 0.6614173228346457,
          "duration": 0.028716187500009482
        },
        {
          "name": "F3",
          "midi": 53,
          "time": 236.35280418750034,
          "velocity": 0.8976377952755905,
          "duration": 0.028716187500009482
        },
        {
          "name": "B1",
          "midi": 35,
          "time": 236.75483081250036,
          "velocity": 1,
          "duration": 0.03378374999999778
        },
        {
          "name": "F3",
          "midi": 53,
          "time": 236.75483081250036,
          "velocity": 0.8976377952755905,
          "duration": 0.03209456249999221
        },
        {
          "name": "F3",
          "midi": 53,
          "time": 237.16023581250036,
          "velocity": 0.7637795275590551,
          "duration": 0.030405374999986634
        },
        {
          "name": "B1",
          "midi": 35,
          "time": 237.36124912500034,
          "velocity": 0.905511811023622,
          "duration": 0.03378374999999778
        },
        {
          "name": "D2",
          "midi": 38,
          "time": 237.56564081250033,
          "velocity": 0.8818897637795275,
          "duration": 0.028716187500009482
        },
        {
          "name": "F3",
          "midi": 53,
          "time": 237.56564081250033,
          "velocity": 0.7637795275590551,
          "duration": 0.030405375000015056
        },
        {
          "name": "B1",
          "midi": 35,
          "time": 237.96935662500036,
          "velocity": 0.905511811023622,
          "duration": 0.03209456249999221
        },
        {
          "name": "F3",
          "midi": 53,
          "time": 237.96935662500036,
          "velocity": 0.6456692913385826,
          "duration": 0.03209456249999221
        },
        {
          "name": "B1",
          "midi": 35,
          "time": 238.17543750000036,
          "velocity": 0.905511811023622,
          "duration": 0.028716187500009482
        },
        {
          "name": "F3",
          "midi": 53,
          "time": 238.37476162500036,
          "velocity": 0.7637795275590551,
          "duration": 0.030405374999986634
        },
        {
          "name": "D2",
          "midi": 38,
          "time": 238.58084250000036,
          "velocity": 0.8818897637795275,
          "duration": 0.030405374999986634
        },
        {
          "name": "B1",
          "midi": 35,
          "time": 238.78185581250034,
          "velocity": 0.905511811023622,
          "duration": 0.030405374999986634
        },
        {
          "name": "F3",
          "midi": 53,
          "time": 238.78185581250034,
          "velocity": 0.7637795275590551,
          "duration": 0.030405374999986634
        },
        {
          "name": "B1",
          "midi": 35,
          "time": 238.98286912500032,
          "velocity": 0.905511811023622,
          "duration": 0.030405374999986634
        },
        {
          "name": "D2",
          "midi": 38,
          "time": 239.1855716250003,
          "velocity": 0.8818897637795275,
          "duration": 0.03209456249999221
        },
        {
          "name": "F3",
          "midi": 53,
          "time": 239.1855716250003,
          "velocity": 0.8976377952755905,
          "duration": 0.03378374999999778
        },
        {
          "name": "B1",
          "midi": 35,
          "time": 239.3899633125003,
          "velocity": 0.905511811023622,
          "duration": 0.03378374999999778
        },
        {
          "name": "B1",
          "midi": 35,
          "time": 239.5909766250003,
          "velocity": 0.905511811023622,
          "duration": 0.030405374999986634
        },
        {
          "name": "F3",
          "midi": 53,
          "time": 239.5909766250003,
          "velocity": 0.6456692913385826,
          "duration": 0.03378374999999778
        },
        {
          "name": "B1",
          "midi": 35,
          "time": 239.9963816250003,
          "velocity": 1,
          "duration": 0.030405374999986634
        },
        {
          "name": "C#3",
          "midi": 49,
          "time": 239.9963816250003,
          "velocity": 0.9133858267716536,
          "duration": 0.03209456249999221
        },
        {
          "name": "F3",
          "midi": 53,
          "time": 240.4017866250003,
          "velocity": 0.7637795275590551,
          "duration": 0.03378374999999778
        },
        {
          "name": "B1",
          "midi": 35,
          "time": 240.6061783125003,
          "velocity": 0.905511811023622,
          "duration": 0.030405374999986634
        },
        {
          "name": "D2",
          "midi": 38,
          "time": 240.8088808125003,
          "velocity": 0.9763779527559056,
          "duration": 0.030405375000015056
        },
        {
          "name": "F3",
          "midi": 53,
          "time": 240.8088808125003,
          "velocity": 0.7637795275590551,
          "duration": 0.028716187500009482
        },
        {
          "name": "B1",
          "midi": 35,
          "time": 241.21259662500032,
          "velocity": 0.7716535433070866,
          "duration": 0.03209456249999221
        },
        {
          "name": "F3",
          "midi": 53,
          "time": 241.2193533750003,
          "velocity": 0.8976377952755905,
          "duration": 0.02702700000000391
        },
        {
          "name": "B1",
          "midi": 35,
          "time": 241.4152991250003,
          "velocity": 0.7716535433070866,
          "duration": 0.03209456249999221
        },
        {
          "name": "F3",
          "midi": 53,
          "time": 241.6180016250003,
          "velocity": 0.7637795275590551,
          "duration": 0.03209456249999221
        },
        {
          "name": "B1",
          "midi": 35,
          "time": 242.0234066250003,
          "velocity": 0.6535433070866141,
          "duration": 0.030405374999986634
        },
        {
          "name": "F3",
          "midi": 53,
          "time": 242.0234066250003,
          "velocity": 0.8976377952755905,
          "duration": 0.030405374999986634
        },
        {
          "name": "D2",
          "midi": 38,
          "time": 242.42881162500026,
          "velocity": 0.9763779527559056,
          "duration": 0.030405374999986634
        },
        {
          "name": "F3",
          "midi": 53,
          "time": 242.42881162500026,
          "velocity": 0.6456692913385826,
          "duration": 0.03209456249999221
        },
        {
          "name": "B1",
          "midi": 35,
          "time": 242.83421662500027,
          "velocity": 0.6614173228346457,
          "duration": 0.030405374999986634
        },
        {
          "name": "F3",
          "midi": 53,
          "time": 242.83928418750025,
          "velocity": 0.7637795275590551,
          "duration": 0.028716187500009482
        },
        {
          "name": "B1",
          "midi": 35,
          "time": 243.23962162500027,
          "velocity": 1,
          "duration": 0.030405374999986634
        },
        {
          "name": "F3",
          "midi": 53,
          "time": 243.23962162500027,
          "velocity": 0.8976377952755905,
          "duration": 0.030405374999986634
        },
        {
          "name": "F3",
          "midi": 53,
          "time": 243.64502662500024,
          "velocity": 0.7637795275590551,
          "duration": 0.030405374999986634
        },
        {
          "name": "B1",
          "midi": 35,
          "time": 243.84772912500023,
          "velocity": 0.905511811023622,
          "duration": 0.03378374999999778
        },
        {
          "name": "D2",
          "midi": 38,
          "time": 244.05212081250022,
          "velocity": 0.8818897637795275,
          "duration": 0.028716187500009482
        },
        {
          "name": "F3",
          "midi": 53,
          "time": 244.05212081250022,
          "velocity": 0.8976377952755905,
          "duration": 0.028716187500009482
        },
        {
          "name": "B1",
          "midi": 35,
          "time": 244.45752581250022,
          "velocity": 0.905511811023622,
          "duration": 0.030405375000015056
        },
        {
          "name": "F3",
          "midi": 53,
          "time": 244.45752581250022,
          "velocity": 0.5511811023622047,
          "duration": 0.028716187500009482
        },
        {
          "name": "B1",
          "midi": 35,
          "time": 244.66360668750025,
          "velocity": 0.905511811023622,
          "duration": 0.028716187500009482
        },
        {
          "name": "F3",
          "midi": 53,
          "time": 244.86630918750026,
          "velocity": 0.6456692913385826,
          "duration": 0.028716187500009482
        },
        {
          "name": "D2",
          "midi": 38,
          "time": 245.07070087500028,
          "velocity": 0.8818897637795275,
          "duration": 0.028716187500009482
        },
        {
          "name": "B1",
          "midi": 35,
          "time": 245.26833581250028,
          "velocity": 0.905511811023622,
          "duration": 0.030405375000015056
        },
        {
          "name": "F3",
          "midi": 53,
          "time": 245.26833581250028,
          "velocity": 0.8976377952755905,
          "duration": 0.028716187500009482
        },
        {
          "name": "B1",
          "midi": 35,
          "time": 245.4710383125003,
          "velocity": 0.905511811023622,
          "duration": 0.02702700000000391
        },
        {
          "name": "D2",
          "midi": 38,
          "time": 245.6720516250003,
          "velocity": 0.8818897637795275,
          "duration": 0.03209456249999221
        },
        {
          "name": "F3",
          "midi": 53,
          "time": 245.6720516250003,
          "velocity": 0.7637795275590551,
          "duration": 0.03209456249999221
        },
        {
          "name": "B1",
          "midi": 35,
          "time": 245.8747541250003,
          "velocity": 0.905511811023622,
          "duration": 0.030405374999986634
        },
        {
          "name": "F3",
          "midi": 53,
          "time": 246.07745662500028,
          "velocity": 0.7637795275590551,
          "duration": 0.03378374999999778
        },
        {
          "name": "D2",
          "midi": 38,
          "time": 246.28184831250027,
          "velocity": 0.8818897637795275,
          "duration": 0.028716187500009482
        },
        {
          "name": "B1",
          "midi": 35,
          "time": 246.48286162500028,
          "velocity": 1,
          "duration": 0.03209456249999221
        },
        {
          "name": "C#3",
          "midi": 49,
          "time": 246.48286162500028,
          "velocity": 0.9133858267716536,
          "duration": 0.03209456249999221
        },
        {
          "name": "F3",
          "midi": 53,
          "time": 246.88995581250026,
          "velocity": 0.6456692913385826,
          "duration": 0.03378374999999778
        },
        {
          "name": "B1",
          "midi": 35,
          "time": 247.09265831250025,
          "velocity": 0.905511811023622,
          "duration": 0.030405374999986634
        },
        {
          "name": "D2",
          "midi": 38,
          "time": 247.29367162500023,
          "velocity": 0.9763779527559056,
          "duration": 0.03378374999999778
        },
        {
          "name": "F3",
          "midi": 53,
          "time": 247.29367162500023,
          "velocity": 0.8976377952755905,
          "duration": 0.030405374999986634
        },
        {
          "name": "B1",
          "midi": 35,
          "time": 247.70076581250024,
          "velocity": 0.7716535433070866,
          "duration": 0.030405375000015056
        },
        {
          "name": "F3",
          "midi": 53,
          "time": 247.70076581250024,
          "velocity": 0.7637795275590551,
          "duration": 0.028716187500009482
        },
        {
          "name": "B1",
          "midi": 35,
          "time": 247.90346831250025,
          "velocity": 0.7716535433070866,
          "duration": 0.030405374999986634
        },
        {
          "name": "F3",
          "midi": 53,
          "time": 248.10786000000024,
          "velocity": 0.7637795275590551,
          "duration": 0.030405374999986634
        },
        {
          "name": "B1",
          "midi": 35,
          "time": 248.51157581250024,
          "velocity": 0.6535433070866141,
          "duration": 0.028716187500009482
        },
        {
          "name": "F3",
          "midi": 53,
          "time": 248.51157581250024,
          "velocity": 0.7637795275590551,
          "duration": 0.030405375000015056
        },
        {
          "name": "D2",
          "midi": 38,
          "time": 248.91698081250024,
          "velocity": 0.9763779527559056,
          "duration": 0.030405375000015056
        },
        {
          "name": "F3",
          "midi": 53,
          "time": 248.91698081250024,
          "velocity": 0.7637795275590551,
          "duration": 0.028716187500009482
        },
        {
          "name": "B1",
          "midi": 35,
          "time": 249.32238581250024,
          "velocity": 1,
          "duration": 0.028716187500009482
        },
        {
          "name": "F3",
          "midi": 53,
          "time": 249.32238581250024,
          "velocity": 0.8976377952755905,
          "duration": 0.03209456250002063
        },
        {
          "name": "B1",
          "midi": 35,
          "time": 249.72610162500027,
          "velocity": 1,
          "duration": 0.030405374999986634
        },
        {
          "name": "F3",
          "midi": 53,
          "time": 249.72610162500027,
          "velocity": 0.7637795275590551,
          "duration": 0.03378374999999778
        },
        {
          "name": "F3",
          "midi": 53,
          "time": 250.13150662500027,
          "velocity": 0.7637795275590551,
          "duration": 0.030405374999986634
        },
        {
          "name": "B1",
          "midi": 35,
          "time": 250.33589831250026,
          "velocity": 0.905511811023622,
          "duration": 0.03209456249999221
        },
        {
          "name": "D2",
          "midi": 38,
          "time": 250.53691162500024,
          "velocity": 0.8818897637795275,
          "duration": 0.03209456249999221
        },
        {
          "name": "F3",
          "midi": 53,
          "time": 250.53691162500024,
          "velocity": 0.7637795275590551,
          "duration": 0.030405374999986634
        },
        {
          "name": "B1",
          "midi": 35,
          "time": 250.94569500000023,
          "velocity": 0.905511811023622,
          "duration": 0.028716187500009482
        },
        {
          "name": "F3",
          "midi": 53,
          "time": 250.94569500000023,
          "velocity": 0.6456692913385826,
          "duration": 0.028716187500009482
        },
        {
          "name": "B1",
          "midi": 35,
          "time": 251.14501912500023,
          "velocity": 0.905511811023622,
          "duration": 0.030405374999986634
        },
        {
          "name": "F3",
          "midi": 53,
          "time": 251.34772162500022,
          "velocity": 0.7637795275590551,
          "duration": 0.03209456249999221
        },
        {
          "name": "D2",
          "midi": 38,
          "time": 251.5504241250002,
          "velocity": 0.8818897637795275,
          "duration": 0.03378374999999778
        },
        {
          "name": "B1",
          "midi": 35,
          "time": 251.7531266250002,
          "velocity": 0.905511811023622,
          "duration": 0.03378374999999778
        },
        {
          "name": "F3",
          "midi": 53,
          "time": 251.7531266250002,
          "velocity": 0.5511811023622047,
          "duration": 0.03209456249999221
        },
        {
          "name": "B1",
          "midi": 35,
          "time": 251.95751831250018,
          "velocity": 0.905511811023622,
          "duration": 0.03378374999999778
        },
        {
          "name": "D2",
          "midi": 38,
          "time": 252.16022081250017,
          "velocity": 0.8818897637795275,
          "duration": 0.028716187500009482
        },
        {
          "name": "F3",
          "midi": 53,
          "time": 252.16022081250017,
          "velocity": 0.5511811023622047,
          "duration": 0.028716187500009482
        },
        {
          "name": "B1",
          "midi": 35,
          "time": 252.3629233125002,
          "velocity": 0.905511811023622,
          "duration": 0.030405374999986634
        },
        {
          "name": "B1",
          "midi": 35,
          "time": 252.56393662500017,
          "velocity": 0.905511811023622,
          "duration": 0.030405374999986634
        },
        {
          "name": "F3",
          "midi": 53,
          "time": 252.56393662500017,
          "velocity": 0.7637795275590551,
          "duration": 0.030405374999986634
        },
        {
          "name": "B1",
          "midi": 35,
          "time": 252.96934162500014,
          "velocity": 1,
          "duration": 0.03209456249999221
        },
        {
          "name": "C#3",
          "midi": 49,
          "time": 252.96934162500014,
          "velocity": 0.9133858267716536,
          "duration": 0.030405374999986634
        },
        {
          "name": "F3",
          "midi": 53,
          "time": 253.37643581250012,
          "velocity": 0.6456692913385826,
          "duration": 0.03378374999999778
        },
        {
          "name": "B1",
          "midi": 35,
          "time": 253.5808275000001,
          "velocity": 0.905511811023622,
          "duration": 0.02702700000000391
        },
        {
          "name": "D2",
          "midi": 38,
          "time": 253.78353000000013,
          "velocity": 0.9763779527559056,
          "duration": 0.028716187500009482
        },
        {
          "name": "F3",
          "midi": 53,
          "time": 253.78353000000013,
          "velocity": 0.7637795275590551,
          "duration": 0.028716187500009482
        },
        {
          "name": "B1",
          "midi": 35,
          "time": 254.18893500000013,
          "velocity": 0.7716535433070866,
          "duration": 0.028716187500009482
        },
        {
          "name": "F3",
          "midi": 53,
          "time": 254.18893500000013,
          "velocity": 0.7637795275590551,
          "duration": 0.028716187500009482
        },
        {
          "name": "B1",
          "midi": 35,
          "time": 254.38825912500013,
          "velocity": 0.7716535433070866,
          "duration": 0.03378374999999778
        },
        {
          "name": "F3",
          "midi": 53,
          "time": 254.59265081250012,
          "velocity": 0.6456692913385826,
          "duration": 0.030405374999986634
        },
        {
          "name": "B1",
          "midi": 35,
          "time": 254.9980558125001,
          "velocity": 0.6535433070866141,
          "duration": 0.028716187500009482
        },
        {
          "name": "F3",
          "midi": 53,
          "time": 254.9980558125001,
          "velocity": 0.7637795275590551,
          "duration": 0.028716187500009482
        },
        {
          "name": "D2",
          "midi": 38,
          "time": 255.4034608125001,
          "velocity": 0.9763779527559056,
          "duration": 0.028716187500009482
        },
        {
          "name": "F3",
          "midi": 53,
          "time": 255.4034608125001,
          "velocity": 0.7637795275590551,
          "duration": 0.030405375000015056
        },
        {
          "name": "B1",
          "midi": 35,
          "time": 255.8105550000001,
          "velocity": 1,
          "duration": 0.030405375000015056
        },
        {
          "name": "F3",
          "midi": 53,
          "time": 255.8105550000001,
          "velocity": 0.7637795275590551,
          "duration": 0.028716187500009482
        },
        {
          "name": "B1",
          "midi": 35,
          "time": 256.2125816250001,
          "velocity": 1,
          "duration": 0.03209456249999221
        },
        {
          "name": "F3",
          "midi": 53,
          "time": 256.2125816250001,
          "velocity": 0.7637795275590551,
          "duration": 0.03209456249999221
        },
        {
          "name": "F3",
          "midi": 53,
          "time": 256.61798662500007,
          "velocity": 0.6456692913385826,
          "duration": 0.03209456249999221
        },
        {
          "name": "B1",
          "midi": 35,
          "time": 256.82237831250006,
          "velocity": 0.905511811023622,
          "duration": 0.030405374999986634
        },
        {
          "name": "D2",
          "midi": 38,
          "time": 257.02339162500004,
          "velocity": 0.8818897637795275,
          "duration": 0.03209456249999221
        },
        {
          "name": "F3",
          "midi": 53,
          "time": 257.02339162500004,
          "velocity": 0.7637795275590551,
          "duration": 0.030405374999986634
        },
        {
          "name": "F3",
          "midi": 53,
          "time": 257.428796625,
          "velocity": 0.6456692913385826,
          "duration": 0.030405374999986634
        },
        {
          "name": "B1",
          "midi": 35,
          "time": 257.43217500000003,
          "velocity": 0.905511811023622,
          "duration": 0.030405374999986634
        },
        {
          "name": "B1",
          "midi": 35,
          "time": 257.6331883125,
          "velocity": 0.905511811023622,
          "duration": 0.03209456249999221
        },
        {
          "name": "F3",
          "midi": 53,
          "time": 257.834201625,
          "velocity": 0.7637795275590551,
          "duration": 0.030405374999986634
        },
        {
          "name": "D2",
          "midi": 38,
          "time": 258.036904125,
          "velocity": 0.8818897637795275,
          "duration": 0.02871618749998106
        },
        {
          "name": "B1",
          "midi": 35,
          "time": 258.23960662499996,
          "velocity": 0.905511811023622,
          "duration": 0.03378374999999778
        },
        {
          "name": "F3",
          "midi": 53,
          "time": 258.23960662499996,
          "velocity": 0.8976377952755905,
          "duration": 0.030405374999986634
        },
        {
          "name": "B1",
          "midi": 35,
          "time": 258.44230912499995,
          "velocity": 0.905511811023622,
          "duration": 0.03209456249999221
        },
        {
          "name": "D2",
          "midi": 38,
          "time": 258.64501162499994,
          "velocity": 0.8818897637795275,
          "duration": 0.030405374999986634
        },
        {
          "name": "F3",
          "midi": 53,
          "time": 258.64501162499994,
          "velocity": 0.8976377952755905,
          "duration": 0.035472937500003354
        },
        {
          "name": "B1",
          "midi": 35,
          "time": 258.85109249999994,
          "velocity": 0.905511811023622,
          "duration": 0.02871618749998106
        },
        {
          "name": "B1",
          "midi": 35,
          "time": 259.0521058124999,
          "velocity": 0.905511811023622,
          "duration": 0.030405374999986634
        },
        {
          "name": "D2",
          "midi": 38,
          "time": 259.0521058124999,
          "velocity": 0.6299212598425197,
          "duration": 0.030405374999986634
        },
        {
          "name": "F3",
          "midi": 53,
          "time": 259.0521058124999,
          "velocity": 0.7637795275590551,
          "duration": 0.030405374999986634
        },
        {
          "name": "D2",
          "midi": 38,
          "time": 259.2581866874999,
          "velocity": 0.6299212598425197,
          "duration": 0.02871618749998106
        },
        {
          "name": "B1",
          "midi": 35,
          "time": 259.4558216249999,
          "velocity": 1,
          "duration": 0.03209456249999221
        },
        {
          "name": "C#3",
          "midi": 49,
          "time": 259.4558216249999,
          "velocity": 0.9133858267716536,
          "duration": 0.03378374999999778
        },
        {
          "name": "F3",
          "midi": 53,
          "time": 259.86291581249986,
          "velocity": 0.7637795275590551,
          "duration": 0.02871618749998106
        },
        {
          "name": "B1",
          "midi": 35,
          "time": 260.06392912499985,
          "velocity": 0.905511811023622,
          "duration": 0.02871618749998106
        },
        {
          "name": "D2",
          "midi": 38,
          "time": 260.26832081249984,
          "velocity": 0.9763779527559056,
          "duration": 0.03209456249999221
        },
        {
          "name": "F3",
          "midi": 53,
          "time": 260.26832081249984,
          "velocity": 0.6456692913385826,
          "duration": 0.03378374999999778
        },
        {
          "name": "B1",
          "midi": 35,
          "time": 260.6737258124998,
          "velocity": 0.7716535433070866,
          "duration": 0.030405374999986634
        },
        {
          "name": "F3",
          "midi": 53,
          "time": 260.6737258124998,
          "velocity": 0.7637795275590551,
          "duration": 0.03209456249999221
        },
        {
          "name": "B1",
          "midi": 35,
          "time": 260.8747391249998,
          "velocity": 0.7716535433070866,
          "duration": 0.030405374999986634
        },
        {
          "name": "F3",
          "midi": 53,
          "time": 261.0774416249998,
          "velocity": 0.7637795275590551,
          "duration": 0.03209456249999221
        },
        {
          "name": "B1",
          "midi": 35,
          "time": 261.48453581249976,
          "velocity": 0.6535433070866141,
          "duration": 0.03378374999999778
        },
        {
          "name": "F3",
          "midi": 53,
          "time": 261.48453581249976,
          "velocity": 0.7637795275590551,
          "duration": 0.02871618749998106
        },
        {
          "name": "D2",
          "midi": 38,
          "time": 261.88994081249973,
          "velocity": 0.9763779527559056,
          "duration": 0.03209456249999221
        },
        {
          "name": "F3",
          "midi": 53,
          "time": 261.88994081249973,
          "velocity": 0.7637795275590551,
          "duration": 0.03209456249999221
        },
        {
          "name": "B1",
          "midi": 35,
          "time": 262.2936566249997,
          "velocity": 1,
          "duration": 0.03209456249999221
        },
        {
          "name": "F3",
          "midi": 53,
          "time": 262.2936566249997,
          "velocity": 0.6456692913385826,
          "duration": 0.03209456249999221
        },
        {
          "name": "B1",
          "midi": 35,
          "time": 262.6990616249997,
          "velocity": 1,
          "duration": 0.03209456249999221
        },
        {
          "name": "F3",
          "midi": 53,
          "time": 262.6990616249997,
          "velocity": 0.8976377952755905,
          "duration": 0.03209456249999221
        },
        {
          "name": "F3",
          "midi": 53,
          "time": 263.10446662499965,
          "velocity": 0.7637795275590551,
          "duration": 0.030405374999986634
        },
        {
          "name": "B1",
          "midi": 35,
          "time": 263.30885831249964,
          "velocity": 0.905511811023622,
          "duration": 0.03378374999999778
        },
        {
          "name": "D2",
          "midi": 38,
          "time": 263.5115608124996,
          "velocity": 0.8818897637795275,
          "duration": 0.03209456249999221
        },
        {
          "name": "F3",
          "midi": 53,
          "time": 263.5115608124996,
          "velocity": 0.6456692913385826,
          "duration": 0.03209456249999221
        },
        {
          "name": "B1",
          "midi": 35,
          "time": 263.9169658124996,
          "velocity": 0.905511811023622,
          "duration": 0.03209456249999221
        },
        {
          "name": "F3",
          "midi": 53,
          "time": 263.9169658124996,
          "velocity": 0.7637795275590551,
          "duration": 0.030405374999986634
        },
        {
          "name": "B1",
          "midi": 35,
          "time": 264.1196683124996,
          "velocity": 0.905511811023622,
          "duration": 0.03209456249999221
        },
        {
          "name": "F3",
          "midi": 53,
          "time": 264.3240599999996,
          "velocity": 0.7637795275590551,
          "duration": 0.03209456249999221
        },
        {
          "name": "D2",
          "midi": 38,
          "time": 264.52338412499955,
          "velocity": 0.8818897637795275,
          "duration": 0.035472937500003354
        },
        {
          "name": "B1",
          "midi": 35,
          "time": 264.72777581249954,
          "velocity": 0.905511811023622,
          "duration": 0.02871618749998106
        },
        {
          "name": "F3",
          "midi": 53,
          "time": 264.72777581249954,
          "velocity": 0.6456692913385826,
          "duration": 0.02871618749998106
        },
        {
          "name": "B1",
          "midi": 35,
          "time": 264.93047831249953,
          "velocity": 0.905511811023622,
          "duration": 0.02871618749998106
        },
        {
          "name": "D2",
          "midi": 38,
          "time": 265.1314916249995,
          "velocity": 0.8818897637795275,
          "duration": 0.030405374999986634
        },
        {
          "name": "F3",
          "midi": 53,
          "time": 265.1314916249995,
          "velocity": 0.8976377952755905,
          "duration": 0.030405374999986634
        },
        {
          "name": "B1",
          "midi": 35,
          "time": 265.3358833124995,
          "velocity": 0.905511811023622,
          "duration": 0.027026999999975487
        },
        {
          "name": "B1",
          "midi": 35,
          "time": 265.5385858124995,
          "velocity": 0.905511811023622,
          "duration": 0.030405374999986634
        },
        {
          "name": "F3",
          "midi": 53,
          "time": 265.5385858124995,
          "velocity": 0.6456692913385826,
          "duration": 0.030405374999986634
        },
        {
          "name": "B1",
          "midi": 35,
          "time": 265.94230162499946,
          "velocity": 1,
          "duration": 0.03378374999999778
        },
        {
          "name": "C#3",
          "midi": 49,
          "time": 265.94230162499946,
          "velocity": 0.9133858267716536,
          "duration": 0.03378374999999778
        },
        {
          "name": "F3",
          "midi": 53,
          "time": 266.34770662499943,
          "velocity": 0.8976377952755905,
          "duration": 0.030405374999986634
        },
        {
          "name": "B1",
          "midi": 35,
          "time": 266.55716587499944,
          "velocity": 0.905511811023622,
          "duration": 0.02871618749998106
        },
        {
          "name": "D2",
          "midi": 38,
          "time": 266.7548008124994,
          "velocity": 0.9763779527559056,
          "duration": 0.030405374999986634
        },
        {
          "name": "F3",
          "midi": 53,
          "time": 266.7548008124994,
          "velocity": 0.6456692913385826,
          "duration": 0.03209456249999221
        },
        {
          "name": "B1",
          "midi": 35,
          "time": 267.1585166249994,
          "velocity": 0.7716535433070866,
          "duration": 0.030405374999986634
        },
        {
          "name": "F3",
          "midi": 53,
          "time": 267.1585166249994,
          "velocity": 0.7637795275590551,
          "duration": 0.03209456249999221
        },
        {
          "name": "B1",
          "midi": 35,
          "time": 267.36290831249937,
          "velocity": 0.7716535433070866,
          "duration": 0.02871618749998106
        },
        {
          "name": "F3",
          "midi": 53,
          "time": 267.56392162499935,
          "velocity": 0.6456692913385826,
          "duration": 0.03209456249999221
        },
        {
          "name": "B1",
          "midi": 35,
          "time": 267.97270499999934,
          "velocity": 0.6535433070866141,
          "duration": 0.02871618749998106
        },
        {
          "name": "F3",
          "midi": 53,
          "time": 267.97270499999934,
          "velocity": 0.7637795275590551,
          "duration": 0.030405374999986634
        },
        {
          "name": "F3",
          "midi": 53,
          "time": 268.3747316249993,
          "velocity": 0.8976377952755905,
          "duration": 0.030405374999986634
        },
        {
          "name": "D2",
          "midi": 38,
          "time": 268.3764208124993,
          "velocity": 0.9763779527559056,
          "duration": 0.030405374999986634
        },
        {
          "name": "B1",
          "midi": 35,
          "time": 268.7818258124993,
          "velocity": 1,
          "duration": 0.02871618749998106
        },
        {
          "name": "F3",
          "midi": 53,
          "time": 268.7818258124993,
          "velocity": 0.7637795275590551,
          "duration": 0.02871618749998106
        },
        {
          "name": "B1",
          "midi": 35,
          "time": 269.18554162499925,
          "velocity": 0.905511811023622,
          "duration": 0.03378374999999778
        },
        {
          "name": "F3",
          "midi": 53,
          "time": 269.18554162499925,
          "velocity": 0.5511811023622047,
          "duration": 0.03209456249999221
        },
        {
          "name": "F3",
          "midi": 53,
          "time": 269.5909466249992,
          "velocity": 0.6456692913385826,
          "duration": 0.03378374999999778
        },
        {
          "name": "B1",
          "midi": 35,
          "time": 269.7936491249992,
          "velocity": 0.9212598425196851,
          "duration": 0.035472937500003354
        },
        {
          "name": "D2",
          "midi": 38,
          "time": 269.9980408124992,
          "velocity": 0.8818897637795275,
          "duration": 0.030405374999986634
        },
        {
          "name": "F3",
          "midi": 53,
          "time": 269.9980408124992,
          "velocity": 0.7637795275590551,
          "duration": 0.02871618749998106
        },
        {
          "name": "B1",
          "midi": 35,
          "time": 270.40175662499917,
          "velocity": 0.905511811023622,
          "duration": 0.03209456249999221
        },
        {
          "name": "F3",
          "midi": 53,
          "time": 270.4068241874992,
          "velocity": 0.6456692913385826,
          "duration": 0.02871618749998106
        },
        {
          "name": "D2",
          "midi": 38,
          "time": 270.60783749999916,
          "velocity": 0.9763779527559056,
          "duration": 0.02871618749998106
        },
        {
          "name": "B1",
          "midi": 35,
          "time": 270.80885081249914,
          "velocity": 0.905511811023622,
          "duration": 0.028716187500037904
        },
        {
          "name": "F3",
          "midi": 53,
          "time": 270.81391837499916,
          "velocity": 0.6456692913385826,
          "duration": 0.02702700000003233
        },
        {
          "name": "B1",
          "midi": 35,
          "time": 271.0098641249992,
          "velocity": 0.7716535433070866,
          "duration": 0.030405374999986634
        },
        {
          "name": "D2",
          "midi": 38,
          "time": 271.2142558124992,
          "velocity": 0.9763779527559056,
          "duration": 0.02871618749998106
        },
        {
          "name": "F3",
          "midi": 53,
          "time": 271.2142558124992,
          "velocity": 0.7637795275590551,
          "duration": 0.030405374999986634
        },
        {
          "name": "B1",
          "midi": 35,
          "time": 271.41526912499916,
          "velocity": 0.905511811023622,
          "duration": 0.03378374999999778
        },
        {
          "name": "D2",
          "midi": 38,
          "time": 271.61966081249915,
          "velocity": 0.8818897637795275,
          "duration": 0.02702700000003233
        },
        {
          "name": "F3",
          "midi": 53,
          "time": 271.62134999999915,
          "velocity": 0.7637795275590551,
          "duration": 0.028716187500037904
        },
        {
          "name": "F3",
          "midi": 53,
          "time": 272.0250658124992,
          "velocity": 0.7637795275590551,
          "duration": 0.02871618749998106
        },
        {
          "name": "F3",
          "midi": 53,
          "time": 272.2311466874992,
          "velocity": 0.7637795275590551,
          "duration": 0.02871618749998106
        },
        {
          "name": "C#3",
          "midi": 49,
          "time": 272.42878162499915,
          "velocity": 0.9133858267716536,
          "duration": 0.030405374999986634
        }
      ]